<?xml version="1.0" encoding="UTF-8"?>
<svg xmlns="http://www.w3.org/2000/svg" xmlns:xlink="http://www.w3.org/1999/xlink"
     width="200" height="200" viewBox="-100.0 -100.0 200 200" displayInline="False">
<defs>
</defs>
<path d="M-89,-95 L-89,-60 L-99,-60 L-99,-50 L-89,-50 L-89,-60 L-60,-60 L-60.0,-52.46 L-60.0,-44.92 L-60.0,-37.379999999999995 L-60.0,-29.84 L-60.0,-22.299999999999997 L-60.0,-14.759999999999998 L-60.0,-7.219999999999999 L-60.0,0.3200000000000003 L-60.0,7.859999999999999 L-60.0,15.400000000000006 L-60.0,22.939999999999998 L-60.0,30.480000000000004 L-60.0,38.019999999999996 L-60.0,45.56 L-60,60 L-59,60 L-59.0,52.46 L-59.0,44.92 L-59.0,37.379999999999995 L-59.0,29.84 L-59.0,22.299999999999997 L-59.0,14.759999999999998 L-59.0,7.219999999999999 L-59.0,-0.3200000000000003 L-59.0,-7.859999999999999 L-59.0,-15.400000000000006 L-59.0,-22.939999999999998 L-59.0,-30.480000000000004 L-59.0,-38.019999999999996 L-59.0,-45.56 L-59,-60 L-51.0,-60 L-51.0,-52.46 L-51.0,-44.92 L-51.0,-37.379999999999995 L-51.0,-29.84 L-51.0,-22.299999999999997 L-51.0,-14.759999999999998 L-51.0,-7.219999999999999 L-51.0,0.3200000000000003 L-51.0,7.859999999999999 L-51.0,15.400000000000006 L-51.0,22.939999999999998 L-51.0,30.480000000000004 L-51.0,38.019999999999996 L-51.0,45.56 L-51,60 L-50,60 L-50.0,52.46 L-50.0,44.92 L-50.0,37.379999999999995 L-50.0,29.84 L-50.0,22.299999999999997 L-50.0,14.759999999999998 L-50.0,7.219999999999999 L-50.0,-0.3200000000000003 L-50.0,-7.859999999999999 L-50.0,-15.400000000000006 L-50.0,-22.939999999999998 L-50.0,-30.480000000000004 L-50.0,-38.019999999999996 L-50.0,-45.56 L-50,-60 L-42.0,-60 L-42.0,-52.46 L-42.0,-44.92 L-42.0,-37.379999999999995 L-42.0,-29.84 L-42.0,-22.299999999999997 L-42.0,-14.759999999999998 L-42.0,-7.219999999999999 L-42.0,0.3200000000000003 L-42.0,7.859999999999999 L-42.0,15.400000000000006 L-42.0,22.939999999999998 L-42.0,30.480000000000004 L-42.0,38.019999999999996 L-42.0,45.56 L-42,60 L-41,60 L-41.0,52.46 L-41.0,44.92 L-41.0,37.379999999999995 L-41.0,29.84 L-41.0,22.299999999999997 L-41.0,14.759999999999998 L-41.0,7.219999999999999 L-41.0,-0.3200000000000003 L-41.0,-7.859999999999999 L-41.0,-15.400000000000006 L-41.0,-22.939999999999998 L-41.0,-30.480000000000004 L-41.0,-38.019999999999996 L-41.0,-45.56 L-41,-60 L-33.0,-60 L-33.0,-52.46 L-33.0,-44.92 L-33.0,-37.379999999999995 L-33.0,-29.84 L-33.0,-22.299999999999997 L-33.0,-14.759999999999998 L-33.0,-7.219999999999999 L-33.0,0.3200000000000003 L-33.0,7.859999999999999 L-33.0,15.400000000000006 L-33.0,22.939999999999998 L-33.0,30.480000000000004 L-33.0,38.019999999999996 L-33.0,45.56 L-33,60 L-32,60 L-32.0,52.46 L-32.0,44.92 L-32.0,37.379999999999995 L-32.0,29.84 L-32.0,22.299999999999997 L-32.0,14.759999999999998 L-32.0,7.219999999999999 L-32.0,-0.3200000000000003 L-32.0,-7.859999999999999 L-32.0,-15.400000000000006 L-32.0,-22.939999999999998 L-32.0,-30.480000000000004 L-32.0,-38.019999999999996 L-32.0,-45.56 L-32,-60 L-24.0,-60 L-24.0,-52.46 L-24.0,-44.92 L-24.0,-37.379999999999995 L-24.0,-29.84 L-24.0,-22.299999999999997 L-24.0,-14.759999999999998 L-24.0,-7.219999999999999 L-24.0,0.3200000000000003 L-24.0,7.859999999999999 L-24.0,15.400000000000006 L-24.0,22.939999999999998 L-24.0,30.480000000000004 L-24.0,38.019999999999996 L-24.0,45.56 L-24,60 L-23,60 L-23.0,52.46 L-23.0,44.92 L-23.0,37.379999999999995 L-23.0,29.84 L-23.0,22.299999999999997 L-23.0,14.759999999999998 L-23.0,7.219999999999999 L-23.0,-0.3200000000000003 L-23.0,-7.859999999999999 L-23,-20 L-15.0,-20 L-15.0,-12.46 L-15.0,-4.92 L-15.0,2.620000000000001 L-15.0,10.16 L-15.0,17.700000000000003 L-15.0,25.240000000000002 L-15.0,32.78 L-15.0,40.32 L-15.0,47.86 L-15,60 L-14,60 L-14.0,52.46 L-14.0,44.92 L-14.0,37.379999999999995 L-14.0,29.84 L-14.0,22.299999999999997 L-14.0,14.759999999999998 L-14.0,7.219999999999999 L-14.0,-0.3200000000000003 L-14.0,-7.859999999999999 L-14,-20 L-6.0,-20 L-6.0,-12.46 L-6.0,-4.92 L-6.0,2.620000000000001 L-6.0,10.16 L-6.0,17.700000000000003 L-6.0,25.240000000000002 L-6.0,32.78 L-6.0,40.32 L-6.0,47.86 L-6,60 L-5,60 L-5.0,52.46 L-5.0,44.92 L-5.0,37.379999999999995 L-5.0,29.84 L-5.0,22.299999999999997 L-5.0,14.759999999999998 L-5.0,7.219999999999999 L-5.0,-0.3200000000000003 L-5.0,-7.859999999999999 L-5,-20 L3.0,-20 L3.0,-12.46 L3.0,-4.92 L3.0,2.620000000000001 L3.0,10.16 L3.0,17.700000000000003 L3.0,25.240000000000002 L3.0,32.78 L3.0,40.32 L3.0,47.86 L3,60 L4,60 L4.0,52.46 L4.0,44.92 L4.0,37.379999999999995 L4.0,29.84 L4.0,22.299999999999997 L4.0,14.759999999999998 L4.0,7.219999999999999 L4.0,-0.3200000000000003 L4.0,-7.859999999999999 L4,-20 L12.0,-20 L12.0,-12.46 L12.0,-4.92 L12.0,2.620000000000001 L12.0,10.16 L12.0,17.700000000000003 L12.0,25.240000000000002 L12.0,32.78 L12.0,40.32 L12.0,47.86 L12,60 L13,60 L13.0,52.46 L13.0,44.92 L13.0,37.379999999999995 L13.0,29.84 L13.0,22.299999999999997 L13.0,14.759999999999998 L13.0,7.219999999999999 L13.0,-0.3200000000000003 L13.0,-7.859999999999999 L13,-20 L21.0,-20 L21.0,-12.46 L21.0,-4.92 L21.0,2.620000000000001 L21.0,10.16 L21.0,17.700000000000003 L21.0,25.240000000000002 L21.0,32.78 L21.0,40.32 L21.0,47.86 L21,60 L22,60 L22.0,52.46 L22.0,44.92 L22.0,37.379999999999995 L22.0,29.84 L22,20 L30.0,20 L30.0,27.54 L30.0,35.08 L30.0,42.620000000000005 L30.0,50.16 L30,60 L31,60 L31.0,52.46 L31.0,44.92 L31.0,37.379999999999995 L31.0,29.84 L31,20 L39.0,20 L39.0,27.54 L39.0,35.08 L39.0,42.620000000000005 L39.0,50.16 L39,60 L40,60 L40.0,52.46 L40.0,44.92 L40.0,37.379999999999995 L40.0,29.84 L40,20 L48.0,20 L48.0,27.54 L48.0,35.08 L48.0,42.620000000000005 L48.0,50.16 L48,60 L49,60 L49.0,52.46 L49.0,44.92 L49.0,37.379999999999995 L49.0,29.84 L49,20 L57.0,20 L57.0,27.54 L57.0,35.08 L57.0,42.620000000000005 L57.0,50.16 L57,60 L58,60 L58.0,52.46 L58.0,44.92 L58.0,37.379999999999995 L58.0,29.84 L58,20 L66.0,20 M-89,70 L-99,70 L-99,80 L-89,80 L-89,70 L-55.5,70 L-55.5,62.46 L-55.5,54.92 L-55.5,47.379999999999995 L-55.5,39.84 L-55.5,32.3 L-55.5,24.759999999999998 L-55.5,17.22 L-55.5,9.68 L-55.5,2.1400000000000006 L-55.5,-5.400000000000006 L-55.5,-12.939999999999998 L-55.5,-20.480000000000004 L-55.5,-28.019999999999996 L-55.5,-35.56 L-55.5,-50.0 L-54.5,-50.0 L-54.5,-42.46 L-54.5,-34.92 L-54.5,-27.38 L-54.5,-19.84 L-54.5,-12.299999999999997 L-54.5,-4.759999999999998 L-54.5,2.780000000000001 L-54.5,10.32 L-54.5,17.86 L-54.5,25.400000000000006 L-54.5,32.94 L-54.5,40.480000000000004 L-54.5,48.019999999999996 L-54.5,55.56 L-54.5,70.0 L-46.5,70.0 L-46.5,62.46 L-46.5,54.92 L-46.5,47.379999999999995 L-46.5,39.84 L-46.5,32.3 L-46.5,24.759999999999998 L-46.5,17.22 L-46.5,9.68 L-46.5,2.1400000000000006 L-46.5,-5.400000000000006 L-46.5,-12.939999999999998 L-46.5,-20.480000000000004 L-46.5,-28.019999999999996 L-46.5,-35.56 L-46.5,-50.0 L-45.5,-50.0 L-45.5,-42.46 L-45.5,-34.92 L-45.5,-27.38 L-45.5,-19.84 L-45.5,-12.299999999999997 L-45.5,-4.759999999999998 L-45.5,2.780000000000001 L-45.5,10.32 L-45.5,17.86 L-45.5,25.400000000000006 L-45.5,32.94 L-45.5,40.480000000000004 L-45.5,48.019999999999996 L-45.5,55.56 L-45.5,70.0 L-37.5,70.0 L-37.5,62.46 L-37.5,54.92 L-37.5,47.379999999999995 L-37.5,39.84 L-37.5,32.3 L-37.5,24.759999999999998 L-37.5,17.22 L-37.5,9.68 L-37.5,2.1400000000000006 L-37.5,-5.400000000000006 L-37.5,-12.939999999999998 L-37.5,-20.480000000000004 L-37.5,-28.019999999999996 L-37.5,-35.56 L-37.5,-50.0 L-36.5,-50.0 L-36.5,-42.46 L-36.5,-34.92 L-36.5,-27.38 L-36.5,-19.84 L-36.5,-12.299999999999997 L-36.5,-4.759999999999998 L-36.5,2.780000000000001 L-36.5,10.32 L-36.5,17.86 L-36.5,25.400000000000006 L-36.5,32.94 L-36.5,40.480000000000004 L-36.5,48.019999999999996 L-36.5,55.56 L-36.5,70.0 L-28.5,70.0 L-28.5,62.46 L-28.5,54.92 L-28.5,47.379999999999995 L-28.5,39.84 L-28.5,32.3 L-28.5,24.759999999999998 L-28.5,17.22 L-28.5,9.68 L-28.5,2.1400000000000006 L-28.5,-5.400000000000006 L-28.5,-12.939999999999998 L-28.5,-20.480000000000004 L-28.5,-28.019999999999996 L-28.5,-35.56 L-28.5,-50.0 L-27.5,-50.0 L-27.5,-42.46 L-27.5,-34.92 L-27.5,-27.38 L-27.5,-19.84 L-27.5,-12.299999999999997 L-27.5,-4.759999999999998 L-27.5,2.780000000000001 L-27.5,10.32 L-27.5,17.86 L-27.5,25.400000000000006 L-27.5,32.94 L-27.5,40.480000000000004 L-27.5,48.019999999999996 L-27.5,55.56 L-27.5,70.0 L-19.5,70.0 L-19.5,62.46 L-19.5,54.92 L-19.5,47.379999999999995 L-19.5,39.84 L-19.5,32.3 L-19.5,24.759999999999998 L-19.5,17.22 L-19.5,9.68 L-19.5,2.1400000000000006 L-19.5,-10.0 L-18.5,-10.0 L-18.5,-2.46 L-18.5,5.08 L-18.5,12.620000000000001 L-18.5,20.16 L-18.5,27.700000000000003 L-18.5,35.24 L-18.5,42.78 L-18.5,50.32 L-18.5,57.86 L-18.5,70.0 L-10.5,70.0 L-10.5,62.46 L-10.5,54.92 L-10.5,47.379999999999995 L-10.5,39.84 L-10.5,32.3 L-10.5,24.759999999999998 L-10.5,17.22 L-10.5,9.68 L-10.5,2.1400000000000006 L-10.5,-10.0 L-9.5,-10.0 L-9.5,-2.46 L-9.5,5.08 L-9.5,12.620000000000001 L-9.5,20.16 L-9.5,27.700000000000003 L-9.5,35.24 L-9.5,42.78 L-9.5,50.32 L-9.5,57.86 L-9.5,70.0 L-1.5,70.0 L-1.5,62.46 L-1.5,54.92 L-1.5,47.379999999999995 L-1.5,39.84 L-1.5,32.3 L-1.5,24.759999999999998 L-1.5,17.22 L-1.5,9.68 L-1.5,2.1400000000000006 L-1.5,-10.0 L-0.5,-10.0 L-0.5,-2.46 L-0.5,5.08 L-0.5,12.620000000000001 L-0.5,20.16 L-0.5,27.700000000000003 L-0.5,35.24 L-0.5,42.78 L-0.5,50.32 L-0.5,57.86 L-0.5,70.0 L7.5,70.0 L7.5,62.46 L7.5,54.92 L7.5,47.379999999999995 L7.5,39.84 L7.5,32.3 L7.5,24.759999999999998 L7.5,17.22 L7.5,9.68 L7.5,2.1400000000000006 L7.5,-10.0 L8.5,-10.0 L8.5,-2.46 L8.5,5.08 L8.5,12.620000000000001 L8.5,20.16 L8.5,27.700000000000003 L8.5,35.24 L8.5,42.78 L8.5,50.32 L8.5,57.86 L8.5,70.0 L16.5,70.0 L16.5,62.46 L16.5,54.92 L16.5,47.379999999999995 L16.5,39.84 L16.5,32.3 L16.5,24.759999999999998 L16.5,17.22 L16.5,9.68 L16.5,2.1400000000000006 L16.5,-10.0 L17.5,-10.0 L17.5,-2.46 L17.5,5.08 L17.5,12.620000000000001 L17.5,20.16 L17.5,27.700000000000003 L17.5,35.24 L17.5,42.78 L17.5,50.32 L17.5,57.86 L17.5,70.0 L25.5,70.0 L25.5,62.46 L25.5,54.92 L25.5,47.379999999999995 L25.5,39.84 L25.5,30.0 L26.5,30.0 L26.5,37.54 L26.5,45.08 L26.5,52.620000000000005 L26.5,60.16 L26.5,70.0 L34.5,70.0 L34.5,62.46 L34.5,54.92 L34.5,47.379999999999995 L34.5,39.84 L34.5,30.0 L35.5,30.0 L35.5,37.54 L35.5,45.08 L35.5,52.620000000000005 L35.5,60.16 L35.5,70.0 L43.5,70.0 L43.5,62.46 L43.5,54.92 L43.5,47.379999999999995 L43.5,39.84 L43.5,30.0 L44.5,30.0 L44.5,37.54 L44.5,45.08 L44.5,52.620000000000005 L44.5,60.16 L44.5,70.0 L52.5,70.0 L52.5,62.46 L52.5,54.92 L52.5,47.379999999999995 L52.5,39.84 L52.5,30.0 L53.5,30.0 L53.5,37.54 L53.5,45.08 L53.5,52.620000000000005 L53.5,60.16 L53.5,70.0 L61.5,70.0 L61.5,62.46 L61.5,54.92 L61.5,47.379999999999995 L61.5,39.84 L61.5,30.0 L62.5,30.0 L62.5,37.54 L62.5,45.08 L62.5,52.620000000000005 L62.5,60.16 L62.5,70.0 L70.5,70.0" stroke-width="0.202" stroke="black" fill-opacity="0" />
</svg>