<?xml version="1.0" encoding="UTF-8"?>
<svg xmlns="http://www.w3.org/2000/svg" xmlns:xlink="http://www.w3.org/1999/xlink"
     width="200" height="200" viewBox="-100.0 -100.0 200 200" displayInline="False">
<defs>
</defs>
<path d="M95,0 L4.465,0.0 L4.465,4.465 L4.465,8.93 L0.0,8.93 L-4.465,8.93 L-4.465,4.465 L-4.465,0.0 L0,0.0 L-129.485,0.0 L-131.7175,0.0 L-131.7175,-2.2325 L-127.25250000000001,-2.2325 L-127.25250000000001,2.2325 L-135.7175,2.2325 L-135.7175,-6.2325 L-131.2525,-6.2325 L-123.25250000000001,-6.2325 L-123.25250000000001,-1.7675 L-123.25250000000001,6.2325 L-127.71750000000002,6.2325 L-132.1825,6.2325 L-139.7175,6.2325 L-139.7175,1.7675 L-139.7175,-2.6975 L-139.7175,-10.2325 L-135.2525,-10.2325 L-130.7875,-10.2325 L-126.3225,-10.2325 L-119.25250000000001,-10.2325 L-119.25250000000001,-5.7675 L-119.25250000000001,-1.3025000000000002 L-119.25250000000001,3.1624999999999996 L-119.25250000000001,10.2325 L-123.71750000000002,10.2325 L-128.1825,10.2325 L-132.6475,10.2325 L-137.1125,10.2325 L-143.7175,10.2325 L-143.7175,5.7675 L-143.7175,1.3025000000000002 L-143.7175,-3.1624999999999996 L-143.7175,-7.6274999999999995 L-143.7175,-14.2325 L-139.2525,-14.2325 L-134.7875,-14.2325 L-130.3225,-14.2325 L-125.8575,-14.2325 L-121.3925,-14.2325 L-115.25250000000001,-14.2325 L-115.25250000000001,-9.7675 L-115.25250000000001,-5.3025 L-115.25250000000001,-0.8375000000000004 L-115.25250000000001,3.6274999999999995 L-115.25250000000001,8.0925 L-115.25250000000001,14.2325 L-119.71750000000002,14.2325 L-124.1825,14.2325 L-128.6475,14.2325 L-133.1125,14.2325 L-137.57750000000001,14.2325 L-142.04250000000002,14.2325 L-147.7175,14.2325 L-147.7175,9.7675 L-147.7175,5.3025 L-147.7175,0.8375000000000004 L-147.7175,-3.6274999999999995 L-147.7175,-8.0925 L-147.7175,-12.5575 L-147.7175,-18.2325 L-143.2525,-18.2325 L-138.7875,-18.2325 L-134.3225,-18.2325 L-129.85750000000002,-18.2325 L-125.39250000000001,-18.2325 L-120.92750000000001,-18.2325 L-116.4625,-18.2325 L-111.25250000000001,-18.2325 L-111.25250000000001,-13.767500000000002 L-111.25250000000001,-9.302500000000002 L-111.25250000000001,-4.837500000000002 L-111.25250000000001,-0.3725000000000023 L-111.25250000000001,4.092499999999998 L-111.25250000000001,8.557499999999997 L-111.25250000000001,13.022499999999997 L-111.25250000000001,18.2325 L-115.71750000000002,18.2325 L-120.1825,18.2325 L-124.64750000000001,18.2325 L-129.1125,18.2325 L-133.57750000000001,18.2325 L-138.04250000000002,18.2325 L-142.50750000000002,18.2325 L-146.97250000000003,18.2325 L-151.7175,18.2325 L-151.7175,13.767500000000002 L-151.7175,9.302500000000002 L-151.7175,4.837500000000002 L-151.7175,0.3725000000000023 L-151.7175,-4.092499999999998 L-151.7175,-8.557499999999997 L-151.7175,-13.022499999999997 L-151.7175,-17.487499999999997 L-151.7175,-22.2325 L-147.2525,-22.2325 L-142.7875,-22.2325 L-138.3225,-22.2325 L-133.85750000000002,-22.2325 L-129.3925,-22.2325 L-124.92750000000001,-22.2325 L-120.4625,-22.2325 L-115.9975,-22.2325 L-107.25250000000001,-22.2325 L-107.25250000000001,-17.767500000000002 L-107.25250000000001,-13.302500000000002 L-107.25250000000001,-8.837500000000002 L-107.25250000000001,-4.372500000000002 L-107.25250000000001,0.09249999999999758 L-107.25250000000001,4.557499999999997 L-107.25250000000001,9.022499999999997 L-107.25250000000001,13.487499999999997 L-107.25250000000001,22.2325 L-111.71750000000002,22.2325 L-116.1825,22.2325 L-120.64750000000001,22.2325 L-125.11250000000001,22.2325 L-129.57750000000001,22.2325 L-134.04250000000002,22.2325 L-138.50750000000002,22.2325 L-142.97250000000003,22.2325 L-147.4375,22.2325 L-155.7175,22.2325 L-155.7175,17.767500000000002 L-155.7175,13.302500000000002 L-155.7175,8.837500000000002 L-155.7175,4.372500000000002 L-155.7175,-0.09249999999999758 L-155.7175,-4.557499999999997 L-155.7175,-9.022499999999997 L-155.7175,-13.487499999999997 L-155.7175,-17.9525 L-155.7175,-26.2325 L-151.2525,-26.2325 L-146.7875,-26.2325 L-142.3225,-26.2325 L-137.85750000000002,-26.2325 L-133.3925,-26.2325 L-128.9275,-26.2325 L-124.4625,-26.2325 L-119.9975,-26.2325 L-115.5325,-26.2325 L-111.0675,-26.2325 L-103.25250000000001,-26.2325 L-103.25250000000001,-21.767500000000002 L-103.25250000000001,-17.302500000000002 L-103.25250000000001,-12.837500000000002 L-103.25250000000001,-8.372500000000002 L-103.25250000000001,-3.9075000000000024 L-103.25250000000001,0.5574999999999974 L-103.25250000000001,5.022499999999997 L-103.25250000000001,9.487499999999997 L-103.25250000000001,13.9525 L-103.25250000000001,18.417499999999997 L-103.25250000000001,26.2325 L-107.71750000000002,26.2325 L-112.1825,26.2325 L-116.64750000000001,26.2325 L-121.11250000000001,26.2325 L-125.57750000000001,26.2325 L-130.04250000000002,26.2325 L-134.50750000000002,26.2325 L-138.97250000000003,26.2325 L-143.4375,26.2325 L-147.9025,26.2325 L-152.3675,26.2325 L-159.7175,26.2325 L-159.7175,21.767500000000002 L-159.7175,17.302500000000002 L-159.7175,12.837500000000002 L-159.7175,8.372500000000002 L-159.7175,3.9075000000000024 L-159.7175,-0.5574999999999974 L-159.7175,-5.022499999999997 L-159.7175,-9.487499999999997 L-159.7175,-13.9525 L-159.7175,-18.417499999999997 L-159.7175,-22.882499999999993 L-159.7175,-30.2325 L-155.2525,-30.2325 L-150.7875,-30.2325 L-146.3225,-30.2325 L-141.85750000000002,-30.2325 L-137.3925,-30.2325 L-132.9275,-30.2325 L-128.4625,-30.2325 L-123.9975,-30.2325 L-119.5325,-30.2325 L-115.0675,-30.2325 L-110.6025,-30.2325 L-106.1375,-30.2325 L-99.25250000000001,-30.2325 L-99.25250000000001,-25.767500000000002 L-99.25250000000001,-21.302500000000002 L-99.25250000000001,-16.837500000000002 L-99.25250000000001,-12.372500000000002 L-99.25250000000001,-7.907500000000002 L-99.25250000000001,-3.4425000000000026 L-99.25250000000001,1.0224999999999973 L-99.25250000000001,5.487499999999997 L-99.25250000000001,9.9525 L-99.25250000000001,14.417499999999997 L-99.25250000000001,18.882499999999993 L-99.25250000000001,23.347499999999997 L-99.25250000000001,30.2325 L-103.71750000000002,30.2325 L-108.1825,30.2325 L-112.64750000000001,30.2325 L-117.11250000000001,30.2325 L-121.57750000000001,30.2325 L-126.04250000000002,30.2325 L-130.50750000000002,30.2325 L-134.97250000000003,30.2325 L-139.4375,30.2325 L-143.9025,30.2325 L-148.3675,30.2325 L-152.8325,30.2325 L-157.2975,30.2325 L-163.7175,30.2325 L-163.7175,25.767500000000002 L-163.7175,21.302500000000002 L-163.7175,16.837500000000002 L-163.7175,12.372500000000002 L-163.7175,7.907500000000002 L-163.7175,3.4425000000000026 L-163.7175,-1.0224999999999973 L-163.7175,-5.487499999999997 L-163.7175,-9.9525 L-163.7175,-14.417499999999997 L-163.7175,-18.882499999999993 L-163.7175,-23.347499999999997 L-163.7175,-27.8125 L-163.7175,-34.2325 L-159.2525,-34.2325 L-154.7875,-34.2325 L-150.3225,-34.2325 L-145.85750000000002,-34.2325 L-141.3925,-34.2325 L-136.9275,-34.2325 L-132.4625,-34.2325 L-127.9975,-34.2325 L-123.5325,-34.2325 L-119.0675,-34.2325 L-114.6025,-34.2325 L-110.1375,-34.2325 L-105.6725,-34.2325 L-101.20750000000001,-34.2325 L-95.25250000000001,-34.2325 L-95.25250000000001,-29.767500000000002 L-95.25250000000001,-25.302500000000002 L-95.25250000000001,-20.837500000000002 L-95.25250000000001,-16.372500000000002 L-95.25250000000001,-11.907500000000002 L-95.25250000000001,-7.442500000000003 L-95.25250000000001,-2.9775000000000027 L-95.25250000000001,1.4874999999999972 L-95.25250000000001,5.952500000000001 L-95.25250000000001,10.417499999999997 L-95.25250000000001,14.882499999999993 L-95.25250000000001,19.347499999999997 L-95.25250000000001,23.8125 L-95.25250000000001,28.277499999999996 L-95.25250000000001,34.2325 L-99.71750000000002,34.2325 L-104.1825,34.2325 L-108.64750000000001,34.2325 L-113.11250000000001,34.2325 L-117.57750000000001,34.2325 L-122.04250000000002,34.2325 L-126.50750000000001,34.2325 L-130.97250000000003,34.2325 L-135.4375,34.2325 L-139.9025,34.2325 L-144.3675,34.2325 L-148.8325,34.2325 L-153.2975,34.2325 L-157.76250000000002,34.2325 L-162.22750000000002,34.2325 L-167.7175,34.2325 L-167.7175,29.767500000000002 L-167.7175,25.302500000000002 L-167.7175,20.837500000000002 L-167.7175,16.372500000000002 L-167.7175,11.907500000000002 L-167.7175,7.442500000000003 L-167.7175,2.9775000000000027 L-167.7175,-1.4874999999999972 L-167.7175,-5.952500000000001 L-167.7175,-10.417499999999997 L-167.7175,-14.882499999999993 L-167.7175,-19.347499999999997 L-167.7175,-23.8125 L-167.7175,-28.277499999999996 L-167.7175,-32.74249999999999 L-167.7175,-38.2325 L-163.2525,-38.2325 L-158.7875,-38.2325 L-154.3225,-38.2325 L-149.85750000000002,-38.2325 L-145.3925,-38.2325 L-140.9275,-38.2325 L-136.4625,-38.2325 L-131.9975,-38.2325 L-127.5325,-38.2325 L-123.0675,-38.2325 L-118.6025,-38.2325 L-114.1375,-38.2325 L-109.6725,-38.2325 L-105.20750000000001,-38.2325 L-100.7425,-38.2325 L-96.2775,-38.2325 L-91.25250000000001,-38.2325 L-91.25250000000001,-33.7675 L-91.25250000000001,-29.302500000000002 L-91.25250000000001,-24.837500000000002 L-91.25250000000001,-20.372500000000002 L-91.25250000000001,-15.907500000000002 L-91.25250000000001,-11.442500000000003 L-91.25250000000001,-6.977500000000003 L-91.25250000000001,-2.512500000000003 L-91.25250000000001,1.9525000000000006 L-91.25250000000001,6.417499999999997 L-91.25250000000001,10.882499999999993 L-91.25250000000001,15.347499999999997 L-91.25250000000001,19.8125 L-91.25250000000001,24.277499999999996 L-91.25250000000001,28.742499999999993 L-91.25250000000001,33.207499999999996 L-91.25250000000001,38.2325 L-95.71750000000002,38.2325 L-100.1825,38.2325 L-104.64750000000001,38.2325 L-109.11250000000001,38.2325 L-113.57750000000001,38.2325 L-118.04250000000002,38.2325 L-122.50750000000001,38.2325 L-126.97250000000001,38.2325 L-131.4375,38.2325 L-135.9025,38.2325 L-140.3675,38.2325 L-144.8325,38.2325 L-149.2975,38.2325 L-153.76250000000002,38.2325 L-158.22750000000002,38.2325 L-162.6925,38.2325 L-167.15750000000003,38.2325 L-171.7175,38.2325 L-171.7175,33.7675 L-171.7175,29.302500000000002 L-171.7175,24.837500000000002 L-171.7175,20.372500000000002 L-171.7175,15.907500000000002 L-171.7175,11.442500000000003 L-171.7175,6.977500000000003 L-171.7175,2.512500000000003 L-171.7175,-1.9525000000000006 L-171.7175,-6.417499999999997 L-171.7175,-10.882499999999993 L-171.7175,-15.347499999999997 L-171.7175,-19.8125 L-171.7175,-24.277499999999996 L-171.7175,-28.742499999999993 L-171.7175,-33.207499999999996 L-171.7175,-37.6725 L-171.7175,-42.2325 L-167.2525,-42.2325 L-162.7875,-42.2325 L-158.3225,-42.2325 L-153.85750000000002,-42.2325 L-149.3925,-42.2325 L-144.9275,-42.2325 L-140.4625,-42.2325 L-135.9975,-42.2325 L-131.5325,-42.2325 L-127.0675,-42.2325 L-122.6025,-42.2325 L-118.1375,-42.2325 L-113.6725,-42.2325 L-109.20750000000001,-42.2325 L-104.7425,-42.2325 L-100.2775,-42.2325 L-95.8125,-42.2325 L-87.25250000000001,-42.2325 L-87.25250000000001,-37.7675 L-87.25250000000001,-33.3025 L-87.25250000000001,-28.837500000000002 L-87.25250000000001,-24.372500000000002 L-87.25250000000001,-19.907500000000002 L-87.25250000000001,-15.442500000000003 L-87.25250000000001,-10.977500000000003 L-87.25250000000001,-6.512500000000003 L-87.25250000000001,-2.0474999999999994 L-87.25250000000001,2.417499999999997 L-87.25250000000001,6.882499999999993 L-87.25250000000001,11.347499999999997 L-87.25250000000001,15.8125 L-87.25250000000001,20.277499999999996 L-87.25250000000001,24.742499999999993 L-87.25250000000001,29.207499999999996 L-87.25250000000001,33.6725 L-87.25250000000001,42.2325 L-91.71750000000002,42.2325 L-96.1825,42.2325 L-100.64750000000001,42.2325 L-105.11250000000001,42.2325 L-109.57750000000001,42.2325 L-114.04250000000002,42.2325 L-118.50750000000001,42.2325 L-122.97250000000001,42.2325 L-127.43750000000001,42.2325 L-131.9025,42.2325 L-136.3675,42.2325 L-140.8325,42.2325 L-145.2975,42.2325 L-149.76250000000002,42.2325 L-154.22750000000002,42.2325 L-158.6925,42.2325 L-163.15750000000003,42.2325 L-167.6225,42.2325 L-175.7175,42.2325 L-175.7175,37.7675 L-175.7175,33.3025 L-175.7175,28.837500000000002 L-175.7175,24.372500000000002 L-175.7175,19.907500000000002 L-175.7175,15.442500000000003 L-175.7175,10.977500000000003 L-175.7175,6.512500000000003 L-175.7175,2.0474999999999994 L-175.7175,-2.417499999999997 L-175.7175,-6.882499999999993 L-175.7175,-11.347499999999997 L-175.7175,-15.8125 L-175.7175,-20.277499999999996 L-175.7175,-24.742499999999993 L-175.7175,-29.207499999999996 L-175.7175,-33.6725 L-175.7175,-38.1375 L-175.7175,-46.2325 L-171.2525,-46.2325 L-166.7875,-46.2325 L-162.3225,-46.2325 L-157.85750000000002,-46.2325 L-153.3925,-46.2325 L-148.9275,-46.2325 L-144.4625,-46.2325 L-139.9975,-46.2325 L-135.5325,-46.2325 L-131.0675,-46.2325 L-126.6025,-46.2325 L-122.1375,-46.2325 L-117.6725,-46.2325 L-113.20750000000001,-46.2325 L-108.7425,-46.2325 L-104.2775,-46.2325 L-99.8125,-46.2325 L-95.3475,-46.2325 L-90.88250000000001,-46.2325 L-83.25250000000001,-46.2325 L-83.25250000000001,-41.7675 L-83.25250000000001,-37.3025 L-83.25250000000001,-32.837500000000006 L-83.25250000000001,-28.372500000000002 L-83.25250000000001,-23.907500000000002 L-83.25250000000001,-19.442500000000003 L-83.25250000000001,-14.977500000000003 L-83.25250000000001,-10.512500000000003 L-83.25250000000001,-6.047499999999999 L-83.25250000000001,-1.5825000000000031 L-83.25250000000001,2.882499999999993 L-83.25250000000001,7.347499999999997 L-83.25250000000001,11.8125 L-83.25250000000001,16.277499999999996 L-83.25250000000001,20.742499999999993 L-83.25250000000001,25.207499999999996 L-83.25250000000001,29.6725 L-83.25250000000001,34.1375 L-83.25250000000001,38.60249999999999 L-83.25250000000001,46.2325 L-87.71750000000002,46.2325 L-92.1825,46.2325 L-96.64750000000001,46.2325 L-101.11250000000001,46.2325 L-105.57750000000001,46.2325 L-110.04250000000002,46.2325 L-114.50750000000001,46.2325 L-118.97250000000001,46.2325 L-123.43750000000001,46.2325 L-127.9025,46.2325 L-132.3675,46.2325 L-136.8325,46.2325 L-141.2975,46.2325 L-145.76250000000002,46.2325 L-150.22750000000002,46.2325 L-154.6925,46.2325 L-159.15750000000003,46.2325 L-163.6225,46.2325 L-168.0875,46.2325 L-172.5525,46.2325 L-179.7175,46.2325 L-179.7175,41.7675 L-179.7175,37.3025 L-179.7175,32.837500000000006 L-179.7175,28.372500000000002 L-179.7175,23.907500000000002 L-179.7175,19.442500000000003 L-179.7175,14.977500000000003 L-179.7175,10.512500000000003 L-179.7175,6.047499999999999 L-179.7175,1.5825000000000031 L-179.7175,-2.882499999999993 L-179.7175,-7.347499999999997 L-179.7175,-11.8125 L-179.7175,-16.277499999999996 L-179.7175,-20.742499999999993 L-179.7175,-25.207499999999996 L-179.7175,-29.6725 L-179.7175,-34.1375 L-179.7175,-38.60249999999999 L-179.7175,-43.067499999999995 L-179.7175,-50.2325 L-175.2525,-50.2325 L-170.7875,-50.2325 L-166.3225,-50.2325 L-161.85750000000002,-50.2325 L-157.3925,-50.2325 L-152.9275,-50.2325 L-148.4625,-50.2325 L-143.9975,-50.2325 L-139.5325,-50.2325 L-135.0675,-50.2325 L-130.60250000000002,-50.2325 L-126.1375,-50.2325 L-121.6725,-50.2325 L-117.20750000000001,-50.2325 L-112.7425,-50.2325 L-108.2775,-50.2325 L-103.8125,-50.2325 L-99.3475,-50.2325 L-94.88250000000001,-50.2325 L-90.4175,-50.2325 L-85.9525,-50.2325 L-79.25250000000001,-50.2325 L-79.25250000000001,-45.7675 L-79.25250000000001,-41.3025 L-79.25250000000001,-36.837500000000006 L-79.25250000000001,-32.3725 L-79.25250000000001,-27.907500000000002 L-79.25250000000001,-23.442500000000003 L-79.25250000000001,-18.977500000000003 L-79.25250000000001,-14.512500000000003 L-79.25250000000001,-10.0475 L-79.25250000000001,-4.0 L0,-4.0 L4.465,-4.0 L4.465,-8.465 L4.465,-12.93 L0.0,-12.93 L-4.465,-12.93 L-4.465,-8.465 L-4.465,-4.0 L0,-4.0" stroke-width="0.202" stroke="black" fill-opacity="0" />
</svg>