<?xml version="1.0" encoding="UTF-8"?>
<svg xmlns="http://www.w3.org/2000/svg" xmlns:xlink="http://www.w3.org/1999/xlink"
     width="200" height="200" viewBox="-100.0 -100.0 200 200" displayInline="False">
<defs>
</defs>
<path d="M-120,100 L-120,-180 L-124,-176 L-116,-172 L-124,-168 L-116,-164 L-124,-160 L-116,-156 L-124,-152 L-116,-148 L-124,-144 L-120,-140 L-100,100 L-104,104 L-96,108 L-104,112 L-96,116 L-104,120 L-96,124 L-104,128 L-96,132 L-104,136 L-100,140 L-100,100 L-100,-180 L-104,-176 L-96,-172 L-104,-168 L-96,-164 L-104,-160 L-96,-156 L-104,-152 L-96,-148 L-104,-144 L-100,-140 L-80,100 L-84,104 L-76,108 L-84,112 L-76,116 L-84,120 L-76,124 L-84,128 L-76,132 L-84,136 L-80,140 L-80,100 L-80,-180 L-84,-176 L-76,-172 L-84,-168 L-76,-164 L-84,-160 L-76,-156 L-84,-152 L-76,-148 L-84,-144 L-80,-140 L-60,100 L-64,104 L-56,108 L-64,112 L-56,116 L-64,120 L-56,124 L-64,128 L-56,132 L-64,136 L-60,140 L-60,100 L-60,-180 L-64,-176 L-56,-172 L-64,-168 L-56,-164 L-64,-160 L-56,-156 L-64,-152 L-56,-148 L-64,-144 L-60,-140 L-40,100 L-44,104 L-36,108 L-44,112 L-36,116 L-44,120 L-36,124 L-44,128 L-36,132 L-44,136 L-40,140 L-40,100 L-40,-180 L-44,-176 L-36,-172 L-44,-168 L-36,-164 L-44,-160 L-36,-156 L-44,-152 L-36,-148 L-44,-144 L-40,-140 L-20,100 L-24,104 L-16,108 L-24,112 L-16,116 L-24,120 L-16,124 L-24,128 L-16,132 L-24,136 L-20,140 L-20,100 L-20,-180 L-24,-176 L-16,-172 L-24,-168 L-16,-164 L-24,-160 L-16,-156 L-24,-152 L-16,-148 L-24,-144 L-20,-140 L0,100 L-4,104 L4,108 L-4,112 L4,116 L-4,120 L4,124 L-4,128 L4,132 L-4,136 L0,140 L0,100 L0,-180 L-4,-176 L4,-172 L-4,-168 L4,-164 L-4,-160 L4,-156 L-4,-152 L4,-148 L-4,-144 L0,-140 L20,100 L16,104 L24,108 L16,112 L24,116 L16,120 L24,124 L16,128 L24,132 L16,136 L20,140 L20,100 L20,-180 L16,-176 L24,-172 L16,-168 L24,-164 L16,-160 L24,-156 L16,-152 L24,-148 L16,-144 L20,-140 L40,100 L36,104 L44,108 L36,112 L44,116 L36,120 L44,124 L36,128 L44,132 L36,136 L40,140 L40,100 L40,-180 L36,-176 L44,-172 L36,-168 L44,-164 L36,-160 L44,-156 L36,-152 L44,-148 L36,-144 L40,-140 L60,100 L56,104 L64,108 L56,112 L64,116 L56,120 L64,124 L56,128 L64,132 L56,136 L60,140 L60,100 L60,-180 L56,-176 L64,-172 L56,-168 L64,-164 L56,-160 L64,-156 L56,-152 L64,-148 L56,-144 L60,-140 L80,100 L76,104 L84,108 L76,112 L84,116 L76,120 L84,124 L76,128 L84,132 L76,136 L80,140 L80,100 L80,-140" stroke-width="0.202" stroke="black" fill-opacity="0" />
</svg>