<?xml version="1.0" encoding="UTF-8"?>
<svg xmlns="http://www.w3.org/2000/svg" xmlns:xlink="http://www.w3.org/1999/xlink"
     width="200" height="200" viewBox="-100.0 -100.0 200 200" displayInline="False">
<defs>
</defs>
<path d="M-90,0 L-90,-5 L-95,-5 L-95,0 L7.54,0.0 L7.54,-94.25 L15.08,-94.25 L15.08,-86.71 L15.08,-79.17 L15.08,-71.63 L15.08,-64.09 L15.08,-56.55 L15.08,-49.01 L15.08,-41.47 L15.08,-33.93 L15.08,-26.39 L15.08,-18.849999999999994 L15.08,-11.310000000000002 L15.08,-3.769999999999996 L15.08,3.769999999999996 L15.08,11.310000000000002 L15.08,18.849999999999994 L15.08,26.39 L15.08,33.93000000000001 L15.08,41.47 L15.08,49.00999999999999 L15.08,56.55000000000001 L15.08,64.09 L15.08,71.63 L15.08,79.16999999999999 L15.08,86.71000000000001 L15.08,94.25 L15.84154,94.25 L15.84154,86.71 L15.84154,79.17 L15.84154,71.63 L15.84154,64.09 L15.84154,56.55 L15.84154,49.01 L15.84154,41.47 L15.84154,33.93 L15.84154,26.39 L15.84154,18.849999999999994 L15.84154,11.310000000000002 L15.84154,3.769999999999996 L15.84154,-3.769999999999996 L15.84154,-11.310000000000002 L15.84154,-18.849999999999994 L15.84154,-26.39 L15.84154,-33.93000000000001 L15.84154,-41.47 L15.84154,-49.00999999999999 L15.84154,-56.55000000000001 L15.84154,-64.09 L15.84154,-71.63 L15.84154,-79.16999999999999 L15.84154,-86.71000000000001 L15.84154,-94.25 L23.381539999999998,-94.25 L23.381539999999998,-86.71 L23.381539999999998,-79.17 L23.381539999999998,-71.63 L23.381539999999998,-64.09 L23.381539999999998,-56.55 L23.381539999999998,-49.01 L23.381539999999998,-41.47 L23.381539999999998,-33.93 L23.381539999999998,-26.39 L23.381539999999998,-18.849999999999994 L23.381539999999998,-11.310000000000002 L23.381539999999998,-3.769999999999996 L23.381539999999998,3.769999999999996 L23.381539999999998,11.310000000000002 L23.381539999999998,18.849999999999994 L23.381539999999998,26.39 L23.381539999999998,33.93000000000001 L23.381539999999998,41.47 L23.381539999999998,49.00999999999999 L23.381539999999998,56.55000000000001 L23.381539999999998,64.09 L23.381539999999998,71.63 L23.381539999999998,79.16999999999999 L23.381539999999998,86.71000000000001 L23.381539999999998,94.25 L24.143079999999998,94.25 L24.143079999999998,86.71 L24.143079999999998,79.17 L24.143079999999998,71.63 L24.143079999999998,64.09 L24.143079999999998,56.55 L24.143079999999998,49.01 L24.143079999999998,41.47 L24.143079999999998,33.93 L24.143079999999998,26.39 L24.143079999999998,18.849999999999994 L24.143079999999998,11.310000000000002 L24.143079999999998,3.769999999999996 L24.143079999999998,-3.769999999999996 L24.143079999999998,-11.310000000000002 L24.143079999999998,-18.849999999999994 L24.143079999999998,-26.39 L24.143079999999998,-33.93000000000001 L24.143079999999998,-41.47 L24.143079999999998,-49.00999999999999 L24.143079999999998,-56.55000000000001 L24.143079999999998,-64.09 L24.143079999999998,-71.63 L24.143079999999998,-79.16999999999999 L24.143079999999998,-86.71000000000001 L24.143079999999998,-94.25 L31.683079999999997,-94.25 L31.683079999999997,-86.71 L31.683079999999997,-79.17 L31.683079999999997,-71.63 L31.683079999999997,-64.09 L31.683079999999997,-56.55 L31.683079999999997,-49.01 L31.683079999999997,-41.47 L31.683079999999997,-33.93 L31.683079999999997,-26.39 L31.683079999999997,-18.849999999999994 L31.683079999999997,-11.310000000000002 L31.683079999999997,-3.769999999999996 L31.683079999999997,3.769999999999996 L31.683079999999997,11.310000000000002 L31.683079999999997,18.849999999999994 L31.683079999999997,26.39 L31.683079999999997,33.93000000000001 L31.683079999999997,41.47 L31.683079999999997,49.00999999999999 L31.683079999999997,56.55000000000001 L31.683079999999997,64.09 L31.683079999999997,71.63 L31.683079999999997,79.16999999999999 L31.683079999999997,86.71000000000001 L31.683079999999997,94.25 L32.44462,94.25 L32.44462,86.71 L32.44462,79.17 L32.44462,71.63 L32.44462,64.09 L32.44462,56.55 L32.44462,49.01 L32.44462,41.47 L32.44462,33.93 L32.44462,26.39 L32.44462,18.849999999999994 L32.44462,11.310000000000002 L32.44462,3.769999999999996 L32.44462,-3.769999999999996 L32.44462,-11.310000000000002 L32.44462,-18.849999999999994 L32.44462,-26.39 L32.44462,-33.93000000000001 L32.44462,-41.47 L32.44462,-49.00999999999999 L32.44462,-56.55000000000001 L32.44462,-64.09 L32.44462,-71.63 L32.44462,-79.16999999999999 L32.44462,-86.71000000000001 L32.44462,-94.25 L39.98462,-94.25 L39.98462,-86.71 L39.98462,-79.17 L39.98462,-71.63 L39.98462,-64.09 L39.98462,-56.55 L39.98462,-49.01 L39.98462,-41.47 L39.98462,-33.93 L39.98462,-26.39 L39.98462,-18.849999999999994 L39.98462,-11.310000000000002 L39.98462,-3.769999999999996 L39.98462,3.769999999999996 L39.98462,11.310000000000002 L39.98462,18.849999999999994 L39.98462,26.39 L39.98462,33.93000000000001 L39.98462,41.47 L39.98462,49.00999999999999 L39.98462,56.55000000000001 L39.98462,64.09 L39.98462,71.63 L39.98462,79.16999999999999 L39.98462,86.71000000000001 L39.98462,94.25 L40.74616,94.25 L40.74616,86.71 L40.74616,79.17 L40.74616,71.63 L40.74616,64.09 L40.74616,56.55 L40.74616,49.01 L40.74616,41.47 L40.74616,33.93 L40.74616,26.39 L40.74616,18.849999999999994 L40.74616,11.310000000000002 L40.74616,3.769999999999996 L40.74616,-3.769999999999996 L40.74616,-11.310000000000002 L40.74616,-18.849999999999994 L40.74616,-26.39 L40.74616,-33.93000000000001 L40.74616,-41.47 L40.74616,-49.00999999999999 L40.74616,-56.55000000000001 L40.74616,-64.09 L40.74616,-71.63 L40.74616,-79.16999999999999 L40.74616,-86.71000000000001 L40.74616,-94.25 M44.896930000000005,101.78999999999999 L44.896930000000005,94.24999999999999 L44.896930000000005,86.71 L44.896930000000005,79.16999999999999 L44.896930000000005,71.63 L44.896930000000005,64.08999999999999 L44.896930000000005,56.54999999999999 L44.896930000000005,49.00999999999999 L44.896930000000005,41.46999999999999 L44.896930000000005,33.92999999999999 L44.896930000000005,26.389999999999986 L44.896930000000005,18.849999999999994 L44.896930000000005,11.309999999999988 L44.896930000000005,3.769999999999996 L44.896930000000005,-3.7700000000000102 L44.896930000000005,-11.310000000000002 L44.896930000000005,-18.85000000000001 L44.896930000000005,-26.390000000000015 L44.896930000000005,-33.93000000000001 L44.896930000000005,-41.47 L44.896930000000005,-49.01000000000002 L44.896930000000005,-56.55000000000001 L44.896930000000005,-64.09 L44.896930000000005,-71.63 L44.896930000000005,-79.17000000000002 L44.896930000000005,-86.71000000000001 L44.13539,-86.71000000000001 L44.13539,-79.17 L44.13539,-71.63000000000001 L44.13539,-64.09 L44.13539,-56.55000000000001 L44.13539,-49.010000000000005 L44.13539,-41.470000000000006 L44.13539,-33.93000000000001 L44.13539,-26.390000000000008 L44.13539,-18.85000000000001 L44.13539,-11.310000000000002 L44.13539,-3.7700000000000102 L44.13539,3.769999999999996 L44.13539,11.309999999999988 L44.13539,18.849999999999994 L44.13539,26.389999999999986 L44.13539,33.92999999999999 L44.13539,41.47 L44.13539,49.00999999999999 L44.13539,56.54999999999998 L44.13539,64.09 L44.13539,71.63 L44.13539,79.16999999999999 L44.13539,86.70999999999998 L44.13539,94.25 L44.13539,101.78999999999999 L36.59539000000001,101.78999999999999 L36.59539000000001,94.24999999999999 L36.59539000000001,86.71 L36.59539000000001,79.16999999999999 L36.59539000000001,71.63 L36.59539000000001,64.08999999999999 L36.59539000000001,56.54999999999999 L36.59539000000001,49.00999999999999 L36.59539000000001,41.46999999999999 L36.59539000000001,33.92999999999999 L36.59539000000001,26.389999999999986 L36.59539000000001,18.849999999999994 L36.59539000000001,11.309999999999988 L36.59539000000001,3.769999999999996 L36.59539000000001,-3.7700000000000102 L36.59539000000001,-11.310000000000002 L36.59539000000001,-18.85000000000001 L36.59539000000001,-26.390000000000015 L36.59539000000001,-33.93000000000001 L36.59539000000001,-41.47 L36.59539000000001,-49.01000000000002 L36.59539000000001,-56.55000000000001 L36.59539000000001,-64.09 L36.59539000000001,-71.63 L36.59539000000001,-79.17000000000002 L36.59539000000001,-86.71000000000001 L35.83385000000001,-86.71000000000001 L35.83385000000001,-79.17 L35.83385000000001,-71.63000000000001 L35.83385000000001,-64.09 L35.83385000000001,-56.55000000000001 L35.83385000000001,-49.010000000000005 L35.83385000000001,-41.470000000000006 L35.83385000000001,-33.93000000000001 L35.83385000000001,-26.390000000000008 L35.83385000000001,-18.85000000000001 L35.83385000000001,-11.310000000000002 L35.83385000000001,-3.7700000000000102 L35.83385000000001,3.769999999999996 L35.83385000000001,11.309999999999988 L35.83385000000001,18.849999999999994 L35.83385000000001,26.389999999999986 L35.83385000000001,33.92999999999999 L35.83385000000001,41.47 L35.83385000000001,49.00999999999999 L35.83385000000001,56.54999999999998 L35.83385000000001,64.09 L35.83385000000001,71.63 L35.83385000000001,79.16999999999999 L35.83385000000001,86.70999999999998 L35.83385000000001,94.25 L35.83385000000001,101.78999999999999 L28.29385000000001,101.78999999999999 L28.29385000000001,94.24999999999999 L28.29385000000001,86.71 L28.29385000000001,79.16999999999999 L28.29385000000001,71.63 L28.29385000000001,64.08999999999999 L28.29385000000001,56.54999999999999 L28.29385000000001,49.00999999999999 L28.29385000000001,41.46999999999999 L28.29385000000001,33.92999999999999 L28.29385000000001,26.389999999999986 L28.29385000000001,18.849999999999994 L28.29385000000001,11.309999999999988 L28.29385000000001,3.769999999999996 L28.29385000000001,-3.7700000000000102 L28.29385000000001,-11.310000000000002 L28.29385000000001,-18.85000000000001 L28.29385000000001,-26.390000000000015 L28.29385000000001,-33.93000000000001 L28.29385000000001,-41.47 L28.29385000000001,-49.01000000000002 L28.29385000000001,-56.55000000000001 L28.29385000000001,-64.09 L28.29385000000001,-71.63 L28.29385000000001,-79.17000000000002 L28.29385000000001,-86.71000000000001 L27.53231000000001,-86.71000000000001 L27.53231000000001,-79.17 L27.53231000000001,-71.63000000000001 L27.53231000000001,-64.09 L27.53231000000001,-56.55000000000001 L27.53231000000001,-49.010000000000005 L27.53231000000001,-41.470000000000006 L27.53231000000001,-33.93000000000001 L27.53231000000001,-26.390000000000008 L27.53231000000001,-18.85000000000001 L27.53231000000001,-11.310000000000002 L27.53231000000001,-3.7700000000000102 L27.53231000000001,3.769999999999996 L27.53231000000001,11.309999999999988 L27.53231000000001,18.849999999999994 L27.53231000000001,26.389999999999986 L27.53231000000001,33.92999999999999 L27.53231000000001,41.47 L27.53231000000001,49.00999999999999 L27.53231000000001,56.54999999999998 L27.53231000000001,64.09 L27.53231000000001,71.63 L27.53231000000001,79.16999999999999 L27.53231000000001,86.70999999999998 L27.53231000000001,94.25 L27.53231000000001,101.78999999999999 L19.99231000000001,101.78999999999999 L19.99231000000001,94.24999999999999 L19.99231000000001,86.71 L19.99231000000001,79.16999999999999 L19.99231000000001,71.63 L19.99231000000001,64.08999999999999 L19.99231000000001,56.54999999999999 L19.99231000000001,49.00999999999999 L19.99231000000001,41.46999999999999 L19.99231000000001,33.92999999999999 L19.99231000000001,26.389999999999986 L19.99231000000001,18.849999999999994 L19.99231000000001,11.309999999999988 L19.99231000000001,3.769999999999996 L19.99231000000001,-3.7700000000000102 L19.99231000000001,-11.310000000000002 L19.99231000000001,-18.85000000000001 L19.99231000000001,-26.390000000000015 L19.99231000000001,-33.93000000000001 L19.99231000000001,-41.47 L19.99231000000001,-49.01000000000002 L19.99231000000001,-56.55000000000001 L19.99231000000001,-64.09 L19.99231000000001,-71.63 L19.99231000000001,-79.17000000000002 L19.99231000000001,-86.71000000000001 L19.23077000000001,-86.71000000000001 L19.23077000000001,-79.17 L19.23077000000001,-71.63000000000001 L19.23077000000001,-64.09 L19.23077000000001,-56.55000000000001 L19.23077000000001,-49.010000000000005 L19.23077000000001,-41.470000000000006 L19.23077000000001,-33.93000000000001 L19.23077000000001,-26.390000000000008 L19.23077000000001,-18.85000000000001 L19.23077000000001,-11.310000000000002 L19.23077000000001,-3.7700000000000102 L19.23077000000001,3.769999999999996 L19.23077000000001,11.309999999999988 L19.23077000000001,18.849999999999994 L19.23077000000001,26.389999999999986 L19.23077000000001,33.92999999999999 L19.23077000000001,41.47 L19.23077000000001,49.00999999999999 L19.23077000000001,56.54999999999998 L19.23077000000001,64.09 L19.23077000000001,71.63 L19.23077000000001,79.16999999999999 L19.23077000000001,86.70999999999998 L19.23077000000001,94.25 L19.23077000000001,101.78999999999999 L11.690770000000011,101.78999999999999 L11.690770000000011,101.78999999999999 L11.690770000000011,15.079999999999991 L-95,15.079999999999991 L-95,10.079999999999991 L-90,10.079999999999991 L-90,15.079999999999991" stroke-width="0.202" stroke="black" fill-opacity="0" />
</svg>