<?xml version="1.0" encoding="UTF-8"?>
<svg xmlns="http://www.w3.org/2000/svg" xmlns:xlink="http://www.w3.org/1999/xlink"
     width="200" height="200" viewBox="-100.0 -100.0 200 200" displayInline="False">
<defs>
</defs>
<path d="M30,95 L30,90 L35,90 L35,95 L0,95 L0,90 L-5,90 L-5,95 L-30,95 L-30,0 L-62.51,0.0 L-63.27798,0.0 L-63.27798,-0.7679800000000027 L-61.74202,-0.7679800000000027 L-61.74202,0.7679800000000027 L-67.74298,0.7679800000000027 L-67.74298,-5.232980000000002 L-63.27798,-5.232980000000002 L-57.27701999999999,-5.232980000000002 L-57.27701999999999,-0.7679800000000023 L-57.27701999999999,5.232980000000002 L-61.74202,5.232980000000002 L-66.20702,5.232980000000002 L-72.20798,5.232980000000002 L-72.20798,0.7679800000000023 L-72.20798,-3.6970199999999975 L-72.20798,-9.697980000000001 L-67.74298,-9.697980000000001 L-63.27798000000001,-9.697980000000001 L-58.81298000000001,-9.697980000000001 L-52.81201999999999,-9.697980000000001 L-52.81201999999999,-5.232980000000001 L-52.81201999999999,-0.7679800000000014 L-52.81201999999999,3.6970199999999984 L-52.81201999999999,9.697980000000001 L-57.27701999999999,9.697980000000001 L-61.74201999999999,9.697980000000001 L-66.20701999999999,9.697980000000001 L-70.67201999999999,9.697980000000001 L-76.67298000000001,9.697980000000001 L-76.67298000000001,5.232980000000001 L-76.67298000000001,0.7679800000000014 L-76.67298000000001,-3.6970199999999984 L-76.67298000000001,-8.162019999999998 L-76.67298000000001,-14.162980000000001 L-72.20798,-14.162980000000001 L-67.74298000000002,-14.162980000000001 L-63.277980000000014,-14.162980000000001 L-58.81298000000001,-14.162980000000001 L-54.34798000000001,-14.162980000000001 L-48.347019999999986,-14.162980000000001 L-48.347019999999986,-9.697980000000001 L-48.347019999999986,-5.232980000000001 L-48.347019999999986,-0.7679800000000014 L-48.347019999999986,3.6970199999999984 L-48.347019999999986,8.162019999999998 L-48.347019999999986,14.162980000000001 L-52.81201999999999,14.162980000000001 L-57.277019999999986,14.162980000000001 L-61.74201999999998,14.162980000000001 L-66.20701999999999,14.162980000000001 L-70.67201999999999,14.162980000000001 L-75.13701999999998,14.162980000000001 L-81.13798000000001,14.162980000000001 L-81.13798000000001,9.697980000000001 L-81.13798000000001,5.232980000000001 L-81.13798000000001,0.7679800000000014 L-81.13798000000001,-3.6970199999999984 L-81.13798000000001,-8.162019999999998 L-81.13798000000001,-12.627019999999998 L-81.13798000000001,-18.62798 L-76.67298000000001,-18.62798 L-72.20798000000002,-18.62798 L-67.74298000000002,-18.62798 L-63.277980000000014,-18.62798 L-58.81298000000001,-18.62798 L-54.347980000000014,-18.62798 L-49.88298000000002,-18.62798 L-43.88201999999998,-18.62798 L-43.88201999999998,-14.162980000000001 L-43.88201999999998,-9.697980000000001 L-43.88201999999998,-5.232980000000001 L-43.88201999999998,-0.7679800000000014 L-43.88201999999998,3.6970199999999984 L-43.88201999999998,8.162019999999998 L-43.88201999999998,12.627019999999998 L-43.88201999999998,18.62798 L-48.347019999999986,18.62798 L-52.81201999999998,18.62798 L-57.27701999999998,18.62798 L-61.74201999999998,18.62798 L-66.20701999999999,18.62798 L-70.67201999999997,18.62798 L-75.13701999999998,18.62798 L-79.60201999999998,18.62798 L-85.60298000000002,18.62798 L-85.60298000000002,14.162980000000001 L-85.60298000000002,9.697980000000001 L-85.60298000000002,5.232980000000001 L-85.60298000000002,0.7679800000000014 L-85.60298000000002,-3.6970199999999984 L-85.60298000000002,-8.162019999999998 L-85.60298000000002,-12.627019999999998 L-85.60298000000002,-17.092019999999998 L-85.60298000000002,-23.09298 L-81.13798000000001,-23.09298 L-76.67298000000002,-23.09298 L-72.20798000000002,-23.09298 L-67.74298000000002,-23.09298 L-63.277980000000014,-23.09298 L-58.81298000000002,-23.09298 L-54.34798000000002,-23.09298 L-49.88298000000002,-23.09298 L-45.417980000000014,-23.09298 L-39.41701999999998,-23.09298 L-39.41701999999998,-18.62798 L-39.41701999999998,-14.162980000000001 L-39.41701999999998,-9.697980000000001 L-39.41701999999998,-5.232980000000001 L-39.41701999999998,-0.7679800000000014 L-39.41701999999998,3.6970199999999984 L-39.41701999999998,8.162019999999998 L-39.41701999999998,12.627019999999998 L-39.41701999999998,17.09202 L-39.41701999999998,23.09298 L-43.88201999999998,23.09298 L-48.34701999999998,23.09298 L-52.812019999999976,23.09298 L-57.27701999999998,23.09298 L-61.74201999999998,23.09298 L-66.20701999999997,23.09298 L-70.67201999999997,23.09298 L-75.13701999999998,23.09298 L-79.60201999999998,23.09298 L-84.06701999999999,23.09298 L-90.06798000000002,23.09298 L-90.06798000000002,18.62798 L-90.06798000000002,14.162980000000001 L-90.06798000000002,9.697980000000001 L-90.06798000000002,5.232980000000001 L-90.06798000000002,0.7679800000000014 L-90.06798000000002,-3.6970199999999984 L-90.06798000000002,-8.162019999999998 L-90.06798000000002,-12.627019999999998 L-90.06798000000002,-17.09202 L-90.06798000000002,-21.557019999999998 L-90.06798000000002,-27.55798 L-85.60298000000002,-27.55798 L-81.13798000000003,-27.55798 L-76.67298000000002,-27.55798 L-72.20798000000002,-27.55798 L-67.74298000000002,-27.55798 L-63.27798000000002,-27.55798 L-58.812980000000024,-27.55798 L-54.34798000000002,-27.55798 L-49.88298000000002,-27.55798 L-45.41798000000002,-27.55798 L-40.952980000000025,-27.55798 L-34.952019999999976,-27.55798 L-34.952019999999976,-23.09298 L-34.952019999999976,-18.62798 L-34.952019999999976,-14.162980000000001 L-34.952019999999976,-9.697980000000001 L-34.952019999999976,-4.465 L-30,-4.465 L-30,-95 L-5,-95 L-5,-90 L0,-90 L0,-95 L25,-95 L25,0 L30,0 L62.51,0.0 L63.27798,0.0 L63.27798,-0.7679800000000027 L61.74202,-0.7679800000000027 L61.74202,5.232980000000002 L67.74298,5.232980000000002 L67.74298,0.7679800000000023 L67.74298,-5.232980000000002 L63.27798,-5.232980000000002 L57.27701999999999,-5.232980000000002 L57.27701999999999,-0.7679800000000023 L57.27701999999999,3.6970199999999975 L57.27701999999999,9.697980000000001 L61.74202,9.697980000000001 L66.20702,9.697980000000001 L72.20798,9.697980000000001 L72.20798,5.232980000000001 L72.20798,0.7679800000000014 L72.20798,-3.6970199999999984 L72.20798,-9.697980000000001 L67.74298,-9.697980000000001 L63.27798000000001,-9.697980000000001 L58.81298000000001,-9.697980000000001 L52.81201999999999,-9.697980000000001 L52.81201999999999,-5.232980000000001 L52.81201999999999,-0.7679800000000014 L52.81201999999999,3.6970199999999984 L52.81201999999999,8.162019999999998 L52.81201999999999,14.162980000000001 L57.27701999999999,14.162980000000001 L61.74201999999999,14.162980000000001 L66.20701999999999,14.162980000000001 L70.67201999999999,14.162980000000001 L76.67298000000001,14.162980000000001 L76.67298000000001,9.697980000000001 L76.67298000000001,5.232980000000001 L76.67298000000001,0.7679800000000014 L76.67298000000001,-3.6970199999999984 L76.67298000000001,-8.162019999999998 L76.67298000000001,-14.162980000000001 L72.20798,-14.162980000000001 L67.74298000000002,-14.162980000000001 L63.277980000000014,-14.162980000000001 L58.81298000000001,-14.162980000000001 L54.34798000000001,-14.162980000000001 L48.347019999999986,-14.162980000000001 L48.347019999999986,-9.697980000000001 L48.347019999999986,-5.232980000000001 L48.347019999999986,-0.7679800000000014 L48.347019999999986,3.6970199999999984 L48.347019999999986,8.162019999999998 L48.347019999999986,12.627019999999998 L48.347019999999986,18.62798 L52.81201999999999,18.62798 L57.277019999999986,18.62798 L61.74201999999998,18.62798 L66.20701999999999,18.62798 L70.67201999999999,18.62798 L75.13701999999998,18.62798 L81.13798000000001,18.62798 L81.13798000000001,14.162980000000001 L81.13798000000001,9.697980000000001 L81.13798000000001,5.232980000000001 L81.13798000000001,0.7679800000000014 L81.13798000000001,-3.6970199999999984 L81.13798000000001,-8.162019999999998 L81.13798000000001,-12.627019999999998 L81.13798000000001,-18.62798 L76.67298000000001,-18.62798 L72.20798000000002,-18.62798 L67.74298000000002,-18.62798 L63.277980000000014,-18.62798 L58.81298000000001,-18.62798 L54.347980000000014,-18.62798 L49.88298000000002,-18.62798 L43.88201999999998,-18.62798 L43.88201999999998,-14.162980000000001 L43.88201999999998,-9.697980000000001 L43.88201999999998,-5.232980000000001 L43.88201999999998,-0.7679800000000014 L43.88201999999998,3.6970199999999984 L43.88201999999998,8.162019999999998 L43.88201999999998,12.627019999999998 L43.88201999999998,17.092019999999998 L43.88201999999998,23.09298 L48.347019999999986,23.09298 L52.81201999999998,23.09298 L57.27701999999998,23.09298 L61.74201999999998,23.09298 L66.20701999999999,23.09298 L70.67201999999997,23.09298 L75.13701999999998,23.09298 L79.60201999999998,23.09298 L85.60298000000002,23.09298 L85.60298000000002,18.62798 L85.60298000000002,14.162980000000001 L85.60298000000002,9.697980000000001 L85.60298000000002,5.232980000000001 L85.60298000000002,0.7679800000000014 L85.60298000000002,-3.6970199999999984 L85.60298000000002,-8.162019999999998 L85.60298000000002,-12.627019999999998 L85.60298000000002,-17.09202 L85.60298000000002,-23.09298 L81.13798000000001,-23.09298 L76.67298000000002,-23.09298 L72.20798000000002,-23.09298 L67.74298000000002,-23.09298 L63.277980000000014,-23.09298 L58.81298000000002,-23.09298 L54.34798000000002,-23.09298 L49.88298000000002,-23.09298 L45.417980000000014,-23.09298 L39.41701999999998,-23.09298 L39.41701999999998,-18.62798 L39.41701999999998,-14.162980000000001 L39.41701999999998,-9.697980000000001 L39.41701999999998,-5.232980000000001 L39.41701999999998,-0.7679800000000014 L39.41701999999998,3.6970199999999984 L39.41701999999998,8.162019999999998 L39.41701999999998,12.627019999999998 L39.41701999999998,17.09202 L39.41701999999998,21.557019999999998 L39.41701999999998,27.55798 L43.88201999999998,27.55798 L48.34701999999998,27.55798 L52.812019999999976,27.55798 L57.27701999999998,27.55798 L61.74201999999998,27.55798 L66.20701999999997,27.55798 L70.67201999999997,27.55798 L75.13701999999998,27.55798 L79.60201999999998,27.55798 L84.06701999999999,27.55798 L90.06798000000002,27.55798 L90.06798000000002,23.09298 L90.06798000000002,18.62798 L90.06798000000002,14.162980000000001 L90.06798000000002,9.697980000000001 L90.06798000000002,5.232980000000001 L90.06798000000002,0.7679800000000014 L90.06798000000002,-3.6970199999999984 L90.06798000000002,-8.162019999999998 L90.06798000000002,-12.627020000000002 L90.06798000000002,-17.092019999999998 L90.06798000000002,-21.557019999999994 L90.06798000000002,-27.55798 L85.60298000000002,-27.55798 L81.13798000000003,-27.55798 L76.67298000000002,-27.55798 L72.20798000000002,-27.55798 L67.74298000000002,-27.55798 L63.27798000000002,-27.55798 L58.812980000000024,-27.55798 L54.34798000000002,-27.55798 L49.88298000000002,-27.55798 L45.41798000000002,-27.55798 L40.952980000000025,-27.55798 L34.952019999999976,-27.55798 L34.952019999999976,-23.09298 L34.952019999999976,-18.62798 L34.952019999999976,-14.162980000000001 L34.952019999999976,-9.697980000000001 L34.952019999999976,-4.465 L30,-4.465 L30,85 L35,85 L35,80 L30,80 M0,0 L-5,0 L-5,-5 L0,-5 L0,85 L-5,85 L-5,80 L0,80" stroke-width="0.202" stroke="black" fill-opacity="0" />
</svg>