<?xml version="1.0" encoding="UTF-8"?>
<svg xmlns="http://www.w3.org/2000/svg" xmlns:xlink="http://www.w3.org/1999/xlink"
     width="200" height="200" viewBox="-100.0 -100.0 200 200" displayInline="False">
<defs>
</defs>
<path d="M-89,-95 L-89,-60 L-99,-60 L-99,-50 L-89,-50 L-89,-60 L-60,-60 L-60,60 L-58.8,60 L-58,-60 L-50.2,-60 L-50,60 L-48.8,60 L-48,-60 L-40.2,-60 L-40,60 L-38.8,60 L-38,-60 L-30.2,-60 L-30,60 L-28.8,60 L-28,-60 L-20.2,-60 L-20,60 L-18.8,60 L-18,-20 L-10.2,-20 L-10,60 L-8.8,60 L-8,-20 L-0.20000000000000018,-20 L0,60 L1.2,60 L1,-20 L8.8,-20 L8,60 L9.2,60 L9,-20 L16.8,-20 L16,60 L17.2,60 L17,-20 L24.8,-20 L24,60 L25.2,60 L25,20 L32.8,20 L32,60 L33.2,60 L33,20 L40.8,20 L40,60 L41.2,60 L41,20 L48.8,20 L48,60 L49.2,60 L49,20 L56.8,20 L56,60 L57.2,60 L57,20 L64.8,20 L64,60 L65.2,60 L65,20 L72.8,20 M-89,70 L-99,70 L-99,80 L-89,80 L-89,70 L-55.5,70 L-55.5,62.46 L-55.5,54.92 L-55.5,47.379999999999995 L-55.5,39.84 L-55.5,32.3 L-55.5,24.759999999999998 L-55.5,17.22 L-55.5,9.68 L-55.5,2.1400000000000006 L-55.5,-5.400000000000006 L-55.5,-12.939999999999998 L-55.5,-20.480000000000004 L-55.5,-28.019999999999996 L-55.5,-35.56 L-55.5,-50.0 L-54.3,-50.0 L-54.3,-42.46 L-54.3,-34.92 L-54.3,-27.38 L-54.3,-19.84 L-54.3,-12.299999999999997 L-54.3,-4.759999999999998 L-54.3,2.780000000000001 L-54.3,10.32 L-54.3,17.86 L-54.3,25.400000000000006 L-54.3,32.94 L-54.3,40.480000000000004 L-54.3,48.019999999999996 L-54.3,55.56 L-54.3,70.0 L-46.5,70.0 L-46.5,62.46 L-46.5,54.92 L-46.5,47.379999999999995 L-46.5,39.84 L-46.5,32.3 L-46.5,24.759999999999998 L-46.5,17.22 L-46.5,9.68 L-46.5,2.1400000000000006 L-46.5,-5.400000000000006 L-46.5,-12.939999999999998 L-46.5,-20.480000000000004 L-46.5,-28.019999999999996 L-46.5,-35.56 L-46.5,-50.0 L-45.3,-50.0 L-45.3,-42.46 L-45.3,-34.92 L-45.3,-27.38 L-45.3,-19.84 L-45.3,-12.299999999999997 L-45.3,-4.759999999999998 L-45.3,2.780000000000001 L-45.3,10.32 L-45.3,17.86 L-45.3,25.400000000000006 L-45.3,32.94 L-45.3,40.480000000000004 L-45.3,48.019999999999996 L-45.3,55.56 L-45.3,70.0 L-37.5,70.0 L-37.5,62.46 L-37.5,54.92 L-37.5,47.379999999999995 L-37.5,39.84 L-37.5,32.3 L-37.5,24.759999999999998 L-37.5,17.22 L-37.5,9.68 L-37.5,2.1400000000000006 L-37.5,-5.400000000000006 L-37.5,-12.939999999999998 L-37.5,-20.480000000000004 L-37.5,-28.019999999999996 L-37.5,-35.56 L-37.5,-50.0 L-36.3,-50.0 L-36.3,-42.46 L-36.3,-34.92 L-36.3,-27.38 L-36.3,-19.84 L-36.3,-12.299999999999997 L-36.3,-4.759999999999998 L-36.3,2.780000000000001 L-36.3,10.32 L-36.3,17.86 L-36.3,25.400000000000006 L-36.3,32.94 L-36.3,40.480000000000004 L-36.3,48.019999999999996 L-36.3,55.56 L-36.3,70.0 L-28.499999999999996,70.0 L-28.499999999999996,62.46 L-28.499999999999996,54.92 L-28.499999999999996,47.379999999999995 L-28.499999999999996,39.84 L-28.499999999999996,32.3 L-28.499999999999996,24.759999999999998 L-28.499999999999996,17.22 L-28.499999999999996,9.68 L-28.499999999999996,2.1400000000000006 L-28.499999999999996,-5.400000000000006 L-28.499999999999996,-12.939999999999998 L-28.499999999999996,-20.480000000000004 L-28.499999999999996,-28.019999999999996 L-28.499999999999996,-35.56 L-28.499999999999996,-50.0 L-27.299999999999997,-50.0 L-27.299999999999997,-42.46 L-27.299999999999997,-34.92 L-27.299999999999997,-27.38 L-27.299999999999997,-19.84 L-27.299999999999997,-12.299999999999997 L-27.299999999999997,-4.759999999999998 L-27.299999999999997,2.780000000000001 L-27.299999999999997,10.32 L-27.299999999999997,17.86 L-27.299999999999997,25.400000000000006 L-27.299999999999997,32.94 L-27.299999999999997,40.480000000000004 L-27.299999999999997,48.019999999999996 L-27.299999999999997,55.56 L-27.299999999999997,70.0 L-19.499999999999996,70.0 L-19.499999999999996,62.46 L-19.499999999999996,54.92 L-19.499999999999996,47.379999999999995 L-19.499999999999996,39.84 L-19.499999999999996,32.3 L-19.499999999999996,24.759999999999998 L-19.499999999999996,17.22 L-19.499999999999996,9.68 L-19.499999999999996,2.1400000000000006 L-19.499999999999996,-10.0 L-18.299999999999997,-10.0 L-18.299999999999997,-2.46 L-18.299999999999997,5.08 L-18.299999999999997,12.620000000000001 L-18.299999999999997,20.16 L-18.299999999999997,27.700000000000003 L-18.299999999999997,35.24 L-18.299999999999997,42.78 L-18.299999999999997,50.32 L-18.299999999999997,57.86 L-18.299999999999997,70.0 L-10.499999999999996,70.0 L-10.499999999999996,62.46 L-10.499999999999996,54.92 L-10.499999999999996,47.379999999999995 L-10.499999999999996,39.84 L-10.499999999999996,32.3 L-10.499999999999996,24.759999999999998 L-10.499999999999996,17.22 L-10.499999999999996,9.68 L-10.499999999999996,2.1400000000000006 L-10.499999999999996,-10.0 L-9.299999999999997,-10.0 L-9.299999999999997,-2.46 L-9.299999999999997,5.08 L-9.299999999999997,12.620000000000001 L-9.299999999999997,20.16 L-9.299999999999997,27.700000000000003 L-9.299999999999997,35.24 L-9.299999999999997,42.78 L-9.299999999999997,50.32 L-9.299999999999997,57.86 L-9.299999999999997,70.0 L-1.4999999999999973,70.0 L-1.4999999999999973,62.46 L-1.4999999999999973,54.92 L-1.4999999999999973,47.379999999999995 L-1.4999999999999973,39.84 L-1.4999999999999973,32.3 L-1.4999999999999973,24.759999999999998 L-1.4999999999999973,17.22 L-1.4999999999999973,9.68 L-1.4999999999999973,2.1400000000000006 L-1.4999999999999973,-10.0 L-0.2999999999999974,-10.0 L-0.2999999999999974,-2.46 L-0.2999999999999974,5.08 L-0.2999999999999974,12.620000000000001 L-0.2999999999999974,20.16 L-0.2999999999999974,27.700000000000003 L-0.2999999999999974,35.24 L-0.2999999999999974,42.78 L-0.2999999999999974,50.32 L-0.2999999999999974,57.86 L-0.2999999999999974,70.0 L7.500000000000003,70.0 L7.500000000000003,62.46 L7.500000000000003,54.92 L7.500000000000003,47.379999999999995 L7.500000000000003,39.84 L7.500000000000003,32.3 L7.500000000000003,24.759999999999998 L7.500000000000003,17.22 L7.500000000000003,9.68 L7.500000000000003,2.1400000000000006 L7.500000000000003,-10.0 L8.700000000000003,-10.0 L8.700000000000003,-2.46 L8.700000000000003,5.08 L8.700000000000003,12.620000000000001 L8.700000000000003,20.16 L8.700000000000003,27.700000000000003 L8.700000000000003,35.24 L8.700000000000003,42.78 L8.700000000000003,50.32 L8.700000000000003,57.86 L8.700000000000003,70.0 L16.500000000000004,70.0 L16.500000000000004,62.46 L16.500000000000004,54.92 L16.500000000000004,47.379999999999995 L16.500000000000004,39.84 L16.500000000000004,32.3 L16.500000000000004,24.759999999999998 L16.500000000000004,17.22 L16.500000000000004,9.68 L16.500000000000004,2.1400000000000006 L16.500000000000004,-10.0 L17.700000000000003,-10.0 L17.700000000000003,-2.46 L17.700000000000003,5.08 L17.700000000000003,12.620000000000001 L17.700000000000003,20.16 L17.700000000000003,27.700000000000003 L17.700000000000003,35.24 L17.700000000000003,42.78 L17.700000000000003,50.32 L17.700000000000003,57.86 L17.700000000000003,70.0 L25.500000000000004,70.0 L25.500000000000004,62.46 L25.500000000000004,54.92 L25.500000000000004,47.379999999999995 L25.500000000000004,39.84 L25.500000000000004,30.0 L26.700000000000003,30.0 L26.700000000000003,37.54 L26.700000000000003,45.08 L26.700000000000003,52.620000000000005 L26.700000000000003,60.16 L26.700000000000003,70.0 L34.5,70.0 L34.5,62.46 L34.5,54.92 L34.5,47.379999999999995 L34.5,39.84 L34.5,30.0 L35.7,30.0 L35.7,37.54 L35.7,45.08 L35.7,52.620000000000005 L35.7,60.16 L35.7,70.0 L43.5,70.0 L43.5,62.46 L43.5,54.92 L43.5,47.379999999999995 L43.5,39.84 L43.5,30.0 L44.7,30.0 L44.7,37.54 L44.7,45.08 L44.7,52.620000000000005 L44.7,60.16 L44.7,70.0 L52.5,70.0 L52.5,62.46 L52.5,54.92 L52.5,47.379999999999995 L52.5,39.84 L52.5,30.0 L53.7,30.0 L53.7,37.54 L53.7,45.08 L53.7,52.620000000000005 L53.7,60.16 L53.7,70.0 L61.5,70.0 L61.5,62.46 L61.5,54.92 L61.5,47.379999999999995 L61.5,39.84 L61.5,30.0 L62.7,30.0 L62.7,37.54 L62.7,45.08 L62.7,52.620000000000005 L62.7,60.16 L62.7,70.0 L70.5,70.0" stroke-width="0.202" stroke="black" fill-opacity="0" />
</svg>