<?xml version="1.0" encoding="UTF-8"?>
<svg xmlns="http://www.w3.org/2000/svg" xmlns:xlink="http://www.w3.org/1999/xlink"
     width="200" height="200" viewBox="-100.0 -100.0 200 200" displayInline="False">
<defs>
</defs>
<path d="M-150,-140 L-150,-150 L-160,-150 L-160,-140 L160,-140 L160,-150 L150,-150 L150,-140 M-150,-100 L-150,-110 L-160,-110 L-160,-100 L160,-100 L160,-110 L150,-110 L150,-100 M-150,-60 L-150,-70 L-160,-70 L-160,-60 L160,-60 L160,-70 L150,-70 L150,-60 M-150,-20 L-150,-30 L-160,-30 L-160,-20 L160,-20 L160,-30 L150,-30 L150,-20 M-150,20 L-150,10 L-160,10 L-160,20 L160,20 L160,10 L150,10 L150,20 M-150,60 L-150,50 L-160,50 L-160,60 L160,60 L160,50 L150,50 L150,60 M-150,100 L-150,90 L-160,90 L-160,100 L160,100 L160,90 L150,90 L150,100 M-150,140 L-150,130 L-160,130 L-160,140 L160,140 L160,130 L150,130 L150,140" stroke-width="0.202" stroke="black" fill-opacity="0" />
</svg>