<?xml version="1.0" encoding="UTF-8"?>
<svg xmlns="http://www.w3.org/2000/svg" xmlns:xlink="http://www.w3.org/1999/xlink"
     width="200" height="200" viewBox="-100.0 -100.0 200 200" displayInline="False">
<defs>
</defs>
<path d="M-150,-40 L-150,-50 L-160,-50 L-160,-40 L160,-40 L160,-50 L150,-50 L150,-40 M-150,40 L-150,30 L-160,30 L-160,40 L160,40 L160,30 L150,30 L150,40 M-150,-160 L-150,-170 L-160,-170 L-160,-160 L160,-160 L160,-170 L150,-170 L150,-160 M-150,-80 L-150,-90 L-160,-90 L-160,-80 L160,-80 L160,-90 L150,-90 L150,-80 M-150,80 L-150,70 L-160,70 L-160,80 L160,80 L160,70 L150,70 L150,80 M-150,160 L-150,150 L-160,150 L-160,160 L160,160 L160,150 L150,150 L150,160" stroke-width="0.202" stroke="black" fill-opacity="0" />
</svg>