<?xml version="1.0" encoding="UTF-8"?>
<svg xmlns="http://www.w3.org/2000/svg" xmlns:xlink="http://www.w3.org/1999/xlink"
     width="200" height="200" viewBox="-100.0 -100.0 200 200" displayInline="False">
<defs>
</defs>
<path d="M0,160 L40,176 L40,140 L0,156 L0,120 L40,136 L40,100 L0,116 L0,80 L40,96 L40,60 L0,76 L0,40 L40,56 L40,20 L0,36 L0,0 L40,16 L40,-20 L0,-4 L0,-40 L40,-24 L40,-60 L0,-44 L0,-80 L40,-64 L40,-100 L0,-84 L0,-120 L40,-104 L40,-140 L0,-124 L0,-160" stroke-width="0.202" stroke="black" fill-opacity="0" />
</svg>