<?xml version="1.0" encoding="UTF-8"?>
<svg xmlns="http://www.w3.org/2000/svg" xmlns:xlink="http://www.w3.org/1999/xlink"
     width="200" height="200" viewBox="-100.0 -100.0 200 200" displayInline="False">
<defs>
</defs>
<path d="M-120,-140 L-120,-150 L-130,-150 L-130,-140 L-120,-140 L-40,-140 L-40,-150 L-50,-150 L-50,-140 L-40,-140 L40,-140 L40,-150 L30,-150 L30,-140 L40,-140 L120,-140 L120,-150 L110,-150 L110,-140 L120,-140 M-120,-100 L-120,-90 L-130,-90 L-130,-100 L-120,-100 L-40,-100 L-40,-90 L-50,-90 L-50,-100 L-40,-100 L40,-100 L40,-90 L30,-90 L30,-100 L40,-100 L120,-100 L120,-90 L110,-90 L110,-100 L120,-100 M-120,-60 L-120,-70 L-130,-70 L-130,-60 L-120,-60 L-40,-60 L-40,-70 L-50,-70 L-50,-60 L-40,-60 L40,-60 L40,-70 L30,-70 L30,-60 L40,-60 L120,-60 L120,-70 L110,-70 L110,-60 L120,-60 M-120,-20 L-120,-10 L-130,-10 L-130,-20 L-120,-20 L-40,-20 L-40,-10 L-50,-10 L-50,-20 L-40,-20 L40,-20 L40,-10 L30,-10 L30,-20 L40,-20 L120,-20 L120,-10 L110,-10 L110,-20 L120,-20 M-120,20 L-120,10 L-130,10 L-130,20 L-120,20 L-40,20 L-40,10 L-50,10 L-50,20 L-40,20 L40,20 L40,10 L30,10 L30,20 L40,20 L120,20 L120,10 L110,10 L110,20 L120,20 M-120,60 L-120,70 L-130,70 L-130,60 L-120,60 L-40,60 L-40,70 L-50,70 L-50,60 L-40,60 L40,60 L40,70 L30,70 L30,60 L40,60 L120,60 L120,70 L110,70 L110,60 L120,60 M-120,100 L-120,90 L-130,90 L-130,100 L-120,100 L-40,100 L-40,90 L-50,90 L-50,100 L-40,100 L40,100 L40,90 L30,90 L30,100 L40,100 L120,100 L120,90 L110,90 L110,100 L120,100 M-120,140 L-120,150 L-130,150 L-130,140 L-120,140 L-40,140 L-40,150 L-50,150 L-50,140 L-40,140 L40,140 L40,150 L30,150 L30,140 L40,140 L120,140 L120,150 L110,150 L110,140 L120,140" stroke-width="0.202" stroke="black" fill-opacity="0" />
</svg>