<?xml version="1.0" encoding="UTF-8"?>
<svg xmlns="http://www.w3.org/2000/svg" xmlns:xlink="http://www.w3.org/1999/xlink"
     width="200" height="200" viewBox="-100.0 -100.0 200 200" displayInline="False">
<defs>
</defs>
<path d="M40,-160 L40,-170 L30,-170 L30,-160 L120,-160 L120,-170 L110,-170 L110,-160 L160,-160 L160,16 L170,16 L170,6 L160,6 L160,20 L0,20 L0,90 L0,110.0 L-20.0,110.0 L-20.0,70.0 L20.0,70.0 L20.0,114.0 L-24.0,114.0 L-24.0,66.0 L24.0,66.0 L24.0,118.0 L-28.0,118.0 L-28.0,62.0 L28.0,62.0 L28.0,122.0 L-32.0,122.0 L-32.0,58.0 L32.0,58.0 L32.0,126.0 L-36.0,126.0 L-36.0,54.0 L36.0,54.0 L36.0,130.0 L-40.0,130.0 L-40.0,50.0 L40.0,50.0 L40.0,134.0 L-44.0,134.0 L-44.0,46.0 L44.0,46.0 L44.0,138.0 L-48.0,138.0 L-48.0,42.0 L48.0,42.0 L48.0,142.0 L-52.0,142.0 L-52.0,38.0 L52.0,38.0 L52.0,146.0 L-56.0,146.0 L-56.0,34.0 L56.0,34.0 L56.0,150.0 L-60.0,150.0 L-60.0,30.0 L-4,30.0 L-4,16 L140,16 L140,6 L130,6 L130,16 L140,16 L140,-140 L110,-140 L110,-130 L120,-130 L120,-140 L60,-140 L60,-110 L60,-120 L50,-120 L50,-110 L60,-110 M-60,-120 L-50,-120 L-50,-110 L-60,-110 L-60,-160 L10,-160 L10,-170 L0,-170 L0,-160 M115,-140 L115,-60 L50,-60 L50,-70 L60,-70 L60,-60 M-60,-60 L-60,-70 L-50,-70 L-50,-60 L-180,-60 L-180,-90 L80,-90 L80,-180 L90,-180 L90,-170 L80,-170 M140,11 L-180,11 L-180,-24 L-50,-24 L-50,-34 L-60,-34 L-60,-24 M60,-24 L60,-34 L50,-34 L50,-24 L180,-24 L180,-14 L170,-14 L170,-24" stroke-width="0.202" stroke="black" fill-opacity="0" />
</svg>