<?xml version="1.0" encoding="UTF-8"?>
<svg xmlns="http://www.w3.org/2000/svg" xmlns:xlink="http://www.w3.org/1999/xlink"
     width="200" height="200" viewBox="-100.0 -100.0 200 200" displayInline="False">
<defs>
</defs>
<path d="M40,-160 L40,-170 L30,-170 L30,-160 L120,-160 L120,-170 L110,-170 L110,-160 L160,-160 L160,16 L170,16 L170,6 L160,6 L160,20 L0,20 L0,90 L0,110.0 L-20.0,110.0 L-20.0,70.0 L20.0,70.0 L20.0,114.0 L-24.0,114.0 L-24.0,66.0 L24.0,66.0 L24.0,118.0 L-28.0,118.0 L-28.0,62.0 L28.0,62.0 L28.0,122.0 L-32.0,122.0 L-32.0,58.0 L32.0,58.0 L32.0,126.0 L-36.0,126.0 L-36.0,54.0 L36.0,54.0 L36.0,130.0 L-40.0,130.0 L-40.0,50.0 L40.0,50.0 L40.0,134.0 L-44.0,134.0 L-44.0,46.0 L44.0,46.0 L44.0,138.0 L-48.0,138.0 L-48.0,42.0 L48.0,42.0 L48.0,142.0 L-52.0,142.0 L-52.0,38.0 L52.0,38.0 L52.0,146.0 L-56.0,146.0 L-56.0,34.0 L56.0,34.0 L56.0,150.0 L-60.0,150.0 L-60.0,30.0 L-4,30.0 L-4,16 L140,16 L140,6 L130,6 L130,16 L140,16 L140,-140 L110,-140 L110,-130 L120,-130 L120,-140 L12,-140 L10.0,-140 L10.0,-142.0 L14.0,-142.0 L14.0,-138.0 L6.0,-138.0 L6.0,-146.0 L18.0,-146.0 L18.0,-134.0 L2.0,-134.0 L2.0,-150.0 L22.0,-150.0 L22.0,-130.0 L-2.0,-130.0 L-2.0,-154.0 L26.0,-154.0 L26.0,-144 L26,-144 L26,-160 L0,-160 L0,-170 L10,-170 L10,-160 M115,-140 L115,-126 L136,-126 L136,-58 L56,-58 L54.0,-58 L54.0,-60.0 L58.0,-60.0 L58.0,-56.0 L50.0,-56.0 L50.0,-64.0 L62.0,-64.0 L62.0,-52.0 L46.0,-52.0 L46.0,-68.0 L66.0,-68.0 L66.0,-48.0 L42.0,-48.0 L42.0,-72.0 L70.0,-72.0 L70.0,-44.0 L38.0,-44.0 L38.0,-76.0 L74.0,-76.0 L74.0,-40.0 L34.0,-40.0 L34.0,-80.0 L78.0,-80.0 L78.0,-36.0 L30.0,-36.0 L30.0,-84.0 L82.0,-84.0 L82.0,-32.0 L26.0,-32.0 L26.0,-88.0 L86.0,-88.0 L86.0,-28.0 L22.0,-28.0 L22.0,-92.0 L90.0,-92.0 L90.0,-24.0 L18.0,-24.0 L18.0,-96.0 L94.0,-96.0 L94.0,-20.0 L14.0,-20.0 L14.0,-100.0 L98.0,-100.0 L98.0,-16.0 L10.0,-16.0 L10.0,-104.0 L102.0,-104.0 L102.0,-12.0 L6.0,-12.0 L6.0,-108.0 L106.0,-108.0 L106.0,-8.0 L2.0,-8.0 L2.0,-112.0 L110.0,-112.0 L110.0,-4.0 L-2.0,-4.0 L-2.0,-116.0 L114.0,-116.0 L114.0,-62 L132,-62 L132,-122 L80,-122 L80,-180 L90,-180 L90,-170 L80,-170 M140,11 L-93,11 L-93,-93 L-93,-95.0 L-91.0,-95.0 L-91.0,-91.0 L-95.0,-91.0 L-95.0,-99.0 L-87.0,-99.0 L-87.0,-87.0 L-99.0,-87.0 L-99.0,-103.0 L-83.0,-103.0 L-83.0,-83.0 L-103.0,-83.0 L-103.0,-107.0 L-79.0,-107.0 L-79.0,-79.0 L-107.0,-79.0 L-107.0,-111.0 L-75.0,-111.0 L-75.0,-75.0 L-111.0,-75.0 L-111.0,-115.0 L-71.0,-115.0 L-71.0,-71.0 L-115.0,-71.0 L-115.0,-119.0 L-67.0,-119.0 L-67.0,-67.0 L-119.0,-67.0 L-119.0,-123.0 L-63.0,-123.0 L-63.0,-63.0 L-123.0,-63.0 L-123.0,-127.0 L-59.0,-127.0 L-59.0,-59.0 L-127.0,-59.0 L-127.0,-131.0 L-55.0,-131.0 L-55.0,-55.0 L-131.0,-55.0 L-131.0,-135.0 L-51.0,-135.0 L-51.0,-51.0 L-135.0,-51.0 L-135.0,-139.0 L-47.0,-139.0 L-47.0,-47.0 L-139.0,-47.0 L-139.0,-143.0 L-43.0,-143.0 L-43.0,-43.0 L-143.0,-43.0 L-143.0,-147.0 L-39.0,-147.0 L-39.0,-39.0 L-147.0,-39.0 L-147.0,-151.0 L-35.0,-151.0 L-35.0,-35.0 L-151.0,-35.0 L-151.0,-155.0 L-31.0,-155.0 L-31.0,-31.0 L-155.0,-31.0 L-155.0,-159.0 L-27.0,-159.0 L-27.0,-27.0 L-159.0,-27.0 L-159.0,-163.0 L-23.0,-163.0 L-23.0,-23.0 L-163.0,-23.0 L-163.0,-167.0 L-19.0,-167.0 L-19.0,-19.0 L-167.0,-19.0 L-167.0,-171.0 L-15.0,-171.0 L-15.0,-15.0 L-171.0,-15.0 L-171.0,-175.0 L-11.0,-175.0 L-11.0,-11.0 L-175.0,-11.0 L-175.0,-179.0 L-7.0,-179.0 L-7.0,-7.0 L-89,-7.0 L-91,7 L120,7 L120,-24 L180,-24 L180,-14 L170,-14 L170,-24" stroke-width="0.202" stroke="black" fill-opacity="0" />
</svg>