<?xml version="1.0" encoding="UTF-8"?>
<svg xmlns="http://www.w3.org/2000/svg" xmlns:xlink="http://www.w3.org/1999/xlink"
     width="200" height="200" viewBox="-100.0 -100.0 200 200" displayInline="False">
<defs>
</defs>
<path d="M95,0 L4.465,0.0 L4.465,4.465 L4.465,8.93 L0.0,8.93 L-4.465,8.93 L-4.465,4.465 L-4.465,0.0 L0,0.0 L-129.485,0.0 L-131.7175,0.0 L-131.7175,-2.2325 L-127.25250000000001,-2.2325 L-127.25250000000001,2.2325 L-135.7175,2.2325 L-135.7175,-6.2325 L-131.2525,-6.2325 L-123.25250000000001,-6.2325 L-123.25250000000001,-1.7675 L-123.25250000000001,6.2325 L-127.71750000000002,6.2325 L-132.1825,6.2325 L-139.7175,6.2325 L-139.7175,1.7675 L-139.7175,-2.6975 L-139.7175,-10.2325 L-135.2525,-10.2325 L-130.7875,-10.2325 L-126.3225,-10.2325 L-119.25250000000001,-10.2325 L-119.25250000000001,-5.7675 L-119.25250000000001,-1.3025000000000002 L-119.25250000000001,3.1624999999999996 L-119.25250000000001,10.2325 L-123.71750000000002,10.2325 L-128.1825,10.2325 L-132.6475,10.2325 L-137.1125,10.2325 L-143.7175,10.2325 L-143.7175,5.7675 L-143.7175,1.3025000000000002 L-143.7175,-3.1624999999999996 L-143.7175,-7.6274999999999995 L-143.7175,-14.2325 L-139.2525,-14.2325 L-134.7875,-14.2325 L-130.3225,-14.2325 L-125.8575,-14.2325 L-121.3925,-14.2325 L-115.25250000000001,-14.2325 L-115.25250000000001,-9.7675 L-115.25250000000001,-5.3025 L-115.25250000000001,-0.8375000000000004 L-115.25250000000001,3.6274999999999995 L-115.25250000000001,8.0925 L-115.25250000000001,14.2325 L-119.71750000000002,14.2325 L-124.1825,14.2325 L-128.6475,14.2325 L-133.1125,14.2325 L-137.57750000000001,14.2325 L-142.04250000000002,14.2325 L-147.7175,14.2325 L-147.7175,9.7675 L-147.7175,5.3025 L-147.7175,0.8375000000000004 L-147.7175,-3.6274999999999995 L-147.7175,-8.0925 L-147.7175,-12.5575 L-147.7175,-18.2325 L-143.2525,-18.2325 L-138.7875,-18.2325 L-134.3225,-18.2325 L-129.85750000000002,-18.2325 L-125.39250000000001,-18.2325 L-120.92750000000001,-18.2325 L-116.4625,-18.2325 L-111.25250000000001,-18.2325 L-111.25250000000001,-13.767500000000002 L-111.25250000000001,-9.302500000000002 L-111.25250000000001,-4.837500000000002 L-111.25250000000001,-0.3725000000000023 L-111.25250000000001,4.092499999999998 L-111.25250000000001,8.557499999999997 L-111.25250000000001,13.022499999999997 L-111.25250000000001,18.2325 L-115.71750000000002,18.2325 L-120.1825,18.2325 L-124.64750000000001,18.2325 L-129.1125,18.2325 L-133.57750000000001,18.2325 L-138.04250000000002,18.2325 L-142.50750000000002,18.2325 L-146.97250000000003,18.2325 L-151.7175,18.2325 L-151.7175,13.767500000000002 L-151.7175,9.302500000000002 L-151.7175,4.837500000000002 L-151.7175,0.3725000000000023 L-151.7175,-4.092499999999998 L-151.7175,-8.557499999999997 L-151.7175,-13.022499999999997 L-151.7175,-17.487499999999997 L-151.7175,-22.2325 L-147.2525,-22.2325 L-142.7875,-22.2325 L-138.3225,-22.2325 L-133.85750000000002,-22.2325 L-129.3925,-22.2325 L-124.92750000000001,-22.2325 L-120.4625,-22.2325 L-115.9975,-22.2325 L-107.25250000000001,-22.2325 L-107.25250000000001,-17.767500000000002 L-107.25250000000001,-13.302500000000002 L-107.25250000000001,-8.837500000000002 L-107.25250000000001,-4.0 L0,-4.0 L4.465,-4.0 L4.465,-8.465 L4.465,-12.93 L0.0,-12.93 L-4.465,-12.93 L-4.465,-8.465 L-4.465,-4.0 L0,-4.0" stroke-width="0.202" stroke="black" fill-opacity="0" />
</svg>