<?xml version="1.0" encoding="UTF-8"?>
<svg xmlns="http://www.w3.org/2000/svg" xmlns:xlink="http://www.w3.org/1999/xlink"
     width="200" height="200" viewBox="-100.0 -100.0 200 200" displayInline="False">
<defs>
</defs>
<path d="M-120,-40 L-120,80 L-116,-40 L-116,80 L-112,-40 L-112,80 L-108,-40 L-108,80 L-104,-40 L-104,80 L-100,-40 L-100,80 L-96,-40 L-96,80 L-92,-40 L-92,80 L-88,-40 L-88,80 L-84,-40 L-84,80 L-80,-40 L-80,80 L-76,-40 L-76,80 L-72,-40 L-72,80 L-68,-40 L-68,80 L-64,-40 L-64,80 L-60,-40 L-60,80 L-56,-40 L-56,80 L-52,-40 L-52,80 L-48,-40 L-48,80 L-44,-40 L-44,80 L-40,-40 L-40,80 L-36,-40 L-36,80 L-32,-40 L-32,80 L-28,-40 L-28,80 L-24,-40 L-24,80 L-20,-40 L-20,80 L-16,-40 L-16,80 L-12,-40 L-12,80 L-8,-40 L-8,80 L-4,-40 L-4,80 L0,-40 L0,80 M40,-40 L40,80 L44,-40 L44,80 L48,-40 L48,80 L52,-40 L52,80 L56,-40 L56,80 L60,-40 L60,80 L64,-40 L64,80 L68,-40 L68,80 L72,-40 L72,80 L76,-40 L76,80 L80,-40 L80,80 L84,-40 L84,80 L88,-40 L88,80 L92,-40 L92,80 L96,-40 L96,80 L100,-40 L100,80 L104,-40 L104,80 L108,-40 L108,80 L112,-40 L112,80 L116,-40 L116,80 L120,-40 L120,80 L124,-40 L124,80 L128,-40 L128,80 L132,-40 L132,80 L136,-40 L136,80 L140,-40 L140,80 L144,-40 L144,80 L148,-40 L148,80 L152,-40 L152,80 L156,-40 L156,80 L160,-40 L160,80" stroke-width="0.202" stroke="black" fill-opacity="0" />
</svg>