<?xml version="1.0" encoding="UTF-8"?>
<svg xmlns="http://www.w3.org/2000/svg" xmlns:xlink="http://www.w3.org/1999/xlink"
     width="200" height="200" viewBox="-100.0 -100.0 200 200" displayInline="False">
<defs>
</defs>
<path d="M95,0 L4.465,0.0 L4.465,4.465 L4.465,8.93 L0.0,8.93 L-4.465,8.93 L-4.465,4.465 L-4.465,0.0 L0,0.0 L-129.485,0.0 L-133.95000000000002,0.0 L-138.41500000000002,0.0 L-142.88000000000002,0.0 L-149.485,0.0 L-149.485,-4.465 L-149.485,-8.93 L-149.485,-13.395 L-149.485,-20.0 L-145.02,-20.0 L-140.555,-20.0 L-136.09,-20.0 L-131.625,-20.0 L-127.16000000000001,-20.0 L-122.69500000000002,-20.0 L-118.23000000000002,-20.0 L-109.48500000000001,-20.0 L-109.48500000000001,-15.535 L-109.48500000000001,-11.07 L-109.48500000000001,-6.605 L-109.48500000000001,-2.1400000000000006 L-109.48500000000001,2.3249999999999993 L-109.48500000000001,6.789999999999999 L-109.48500000000001,11.254999999999999 L-109.48500000000001,20.0 L-113.95000000000002,20.0 L-118.41500000000002,20.0 L-122.88000000000001,20.0 L-127.34500000000001,20.0 L-131.81,20.0 L-136.275,20.0 L-140.74,20.0 L-145.205,20.0 L-153.485,20.0 L-153.485,15.535 L-153.485,11.07 L-153.485,6.605 L-153.485,2.1400000000000006 L-153.485,-2.3249999999999993 L-153.485,-6.789999999999999 L-153.485,-11.254999999999999 L-153.485,-15.719999999999999 L-153.485,-24.0 L-149.02,-24.0 L-144.555,-24.0 L-140.09,-24.0 L-135.625,-24.0 L-131.16000000000003,-24.0 L-126.69500000000002,-24.0 L-122.23000000000002,-24.0 L-117.76500000000001,-24.0 L-113.30000000000001,-24.0 L-105.48500000000001,-24.0 L-105.48500000000001,-19.535 L-105.48500000000001,-15.07 L-105.48500000000001,-10.605 L-105.48500000000001,-6.140000000000001 L-105.48500000000001,-1.6750000000000007 L-105.48500000000001,2.789999999999999 L-105.48500000000001,7.254999999999999 L-105.48500000000001,11.719999999999999 L-105.48500000000001,16.185000000000002 L-105.48500000000001,24.0 L-109.95000000000002,24.0 L-114.41500000000002,24.0 L-118.88000000000001,24.0 L-123.34500000000001,24.0 L-127.81000000000002,24.0 L-132.275,24.0 L-136.74,24.0 L-141.205,24.0 L-145.67000000000002,24.0 L-150.13500000000002,24.0 L-157.485,24.0 L-157.485,19.535 L-157.485,15.07 L-157.485,10.605 L-157.485,6.140000000000001 L-157.485,1.6750000000000007 L-157.485,-2.789999999999999 L-157.485,-7.254999999999999 L-157.485,-11.719999999999999 L-157.485,-16.185000000000002 L-157.485,-20.65 L-157.485,-28.0 L-153.02,-28.0 L-148.555,-28.0 L-144.09,-28.0 L-139.625,-28.0 L-135.16000000000003,-28.0 L-130.69500000000002,-28.0 L-126.23000000000002,-28.0 L-121.76500000000001,-28.0 L-117.30000000000001,-28.0 L-112.83500000000001,-28.0 L-108.37000000000002,-28.0 L-101.48500000000001,-28.0 L-101.48500000000001,-23.535 L-101.48500000000001,-19.07 L-101.48500000000001,-14.605 L-101.48500000000001,-10.14 L-101.48500000000001,-5.675000000000001 L-101.48500000000001,-1.2100000000000009 L-101.48500000000001,3.254999999999999 L-101.48500000000001,7.719999999999999 L-101.48500000000001,12.185000000000002 L-101.48500000000001,16.65 L-101.48500000000001,21.114999999999995 L-101.48500000000001,28.0 L-105.95000000000002,28.0 L-110.41500000000002,28.0 L-114.88000000000001,28.0 L-119.34500000000001,28.0 L-123.81000000000002,28.0 L-128.275,28.0 L-132.74,28.0 L-137.205,28.0 L-141.67000000000002,28.0 L-146.13500000000002,28.0 L-150.60000000000002,28.0 L-155.065,28.0 L-161.485,28.0 L-161.485,23.535 L-161.485,19.07 L-161.485,14.605 L-161.485,10.14 L-161.485,5.675000000000001 L-161.485,1.2100000000000009 L-161.485,-3.254999999999999 L-161.485,-7.719999999999999 L-161.485,-12.185000000000002 L-161.485,-16.65 L-161.485,-21.114999999999995 L-161.485,-25.58 L-161.485,-32.0 L-157.02,-32.0 L-152.555,-32.0 L-148.09,-32.0 L-143.625,-32.0 L-139.16000000000003,-32.0 L-134.69500000000002,-32.0 L-130.23000000000002,-32.0 L-125.76500000000001,-32.0 L-121.30000000000001,-32.0 L-116.83500000000001,-32.0 L-112.37000000000002,-32.0 L-107.90500000000002,-32.0 L-103.44000000000001,-32.0 L-97.48500000000001,-32.0 L-97.48500000000001,-27.535 L-97.48500000000001,-23.07 L-97.48500000000001,-18.605 L-97.48500000000001,-14.14 L-97.48500000000001,-9.675 L-97.48500000000001,-5.210000000000001 L-97.48500000000001,-0.745000000000001 L-97.48500000000001,3.719999999999999 L-97.48500000000001,8.185000000000002 L-97.48500000000001,12.649999999999999 L-97.48500000000001,17.114999999999995 L-97.48500000000001,21.58 L-97.48500000000001,26.045 L-97.48500000000001,32.0 L-101.95000000000002,32.0 L-106.41500000000002,32.0 L-110.88000000000001,32.0 L-115.34500000000001,32.0 L-119.81000000000002,32.0 L-124.275,32.0 L-128.74,32.0 L-133.205,32.0 L-137.67000000000002,32.0 L-142.13500000000002,32.0 L-146.60000000000002,32.0 L-151.065,32.0 L-155.53000000000003,32.0 L-159.995,32.0 L-165.485,32.0 L-165.485,27.535 L-165.485,23.07 L-165.485,18.605 L-165.485,14.14 L-165.485,9.675 L-165.485,5.210000000000001 L-165.485,0.745000000000001 L-165.485,-3.719999999999999 L-165.485,-8.185000000000002 L-165.485,-12.649999999999999 L-165.485,-17.114999999999995 L-165.485,-21.58 L-165.485,-26.045 L-165.485,-30.509999999999998 L-165.485,-36.0 L-161.02,-36.0 L-156.555,-36.0 L-152.09,-36.0 L-147.625,-36.0 L-143.16000000000003,-36.0 L-138.69500000000002,-36.0 L-134.23000000000002,-36.0 L-129.76500000000001,-36.0 L-125.30000000000001,-36.0 L-120.83500000000001,-36.0 L-116.37000000000002,-36.0 L-111.90500000000002,-36.0 L-107.44000000000001,-36.0 L-102.97500000000002,-36.0 L-98.51000000000002,-36.0 L-93.48500000000001,-36.0 L-93.48500000000001,-31.535 L-93.48500000000001,-27.07 L-93.48500000000001,-22.605 L-93.48500000000001,-18.14 L-93.48500000000001,-13.675 L-93.48500000000001,-9.21 L-93.48500000000001,-4.745000000000001 L-93.48500000000001,-0.28000000000000114 L-93.48500000000001,4.185000000000002 L-93.48500000000001,8.649999999999999 L-93.48500000000001,13.114999999999995 L-93.48500000000001,17.58 L-93.48500000000001,22.045 L-93.48500000000001,26.509999999999998 L-93.48500000000001,30.974999999999994 L-93.48500000000001,36.0 L-97.95000000000002,36.0 L-102.41500000000002,36.0 L-106.88000000000001,36.0 L-111.34500000000001,36.0 L-115.81000000000002,36.0 L-120.275,36.0 L-124.74000000000001,36.0 L-129.205,36.0 L-133.67000000000002,36.0 L-138.13500000000002,36.0 L-142.60000000000002,36.0 L-147.065,36.0 L-151.53000000000003,36.0 L-155.995,36.0 L-160.46,36.0 L-164.925,36.0 L-169.485,36.0 L-169.485,31.535 L-169.485,27.07 L-169.485,22.605 L-169.485,18.14 L-169.485,13.675 L-169.485,9.21 L-169.485,4.745000000000001 L-169.485,0.28000000000000114 L-169.485,-4.185000000000002 L-169.485,-8.649999999999999 L-169.485,-13.114999999999995 L-169.485,-17.58 L-169.485,-22.045 L-169.485,-26.509999999999998 L-169.485,-30.974999999999994 L-169.485,-35.44 L-169.485,-40.0 L-165.02,-40.0 L-160.555,-40.0 L-156.09,-40.0 L-151.625,-40.0 L-147.16000000000003,-40.0 L-142.69500000000002,-40.0 L-138.23000000000002,-40.0 L-133.76500000000001,-40.0 L-129.3,-40.0 L-124.83500000000001,-40.0 L-120.37000000000002,-40.0 L-115.90500000000002,-40.0 L-111.44000000000001,-40.0 L-106.97500000000002,-40.0 L-102.51000000000002,-40.0 L-98.04500000000002,-40.0 L-89.48500000000001,-40.0 L-89.48500000000001,-35.535 L-89.48500000000001,-31.07 L-89.48500000000001,-26.605 L-89.48500000000001,-22.14 L-89.48500000000001,-17.675 L-89.48500000000001,-13.21 L-89.48500000000001,-8.745000000000001 L-89.48500000000001,-4.280000000000001 L-89.48500000000001,0.18500000000000227 L-89.48500000000001,4.649999999999999 L-89.48500000000001,9.114999999999995 L-89.48500000000001,13.579999999999998 L-89.48500000000001,18.045 L-89.48500000000001,22.509999999999998 L-89.48500000000001,26.974999999999994 L-89.48500000000001,31.439999999999998 L-89.48500000000001,40.0 L-93.95000000000002,40.0 L-98.41500000000002,40.0 L-102.88000000000001,40.0 L-107.34500000000001,40.0 L-111.81000000000002,40.0 L-116.275,40.0 L-120.74000000000001,40.0 L-125.20500000000001,40.0 L-129.67000000000002,40.0 L-134.13500000000002,40.0 L-138.60000000000002,40.0 L-143.065,40.0 L-147.53000000000003,40.0 L-151.995,40.0 L-156.46,40.0 L-160.925,40.0 L-165.39000000000001,40.0 L-173.485,40.0 L-173.485,35.535 L-173.485,31.07 L-173.485,26.605 L-173.485,22.14 L-173.485,17.675 L-173.485,13.21 L-173.485,8.745000000000001 L-173.485,4.280000000000001 L-173.485,-0.18500000000000227 L-173.485,-4.649999999999999 L-173.485,-9.114999999999995 L-173.485,-13.579999999999998 L-173.485,-18.045 L-173.485,-22.509999999999998 L-173.485,-26.974999999999994 L-173.485,-31.439999999999998 L-173.485,-35.905 L-173.485,-44.0 L-169.02,-44.0 L-164.555,-44.0 L-160.09,-44.0 L-155.625,-44.0 L-151.16000000000003,-44.0 L-146.69500000000002,-44.0 L-142.23000000000002,-44.0 L-137.76500000000001,-44.0 L-133.3,-44.0 L-128.835,-44.0 L-124.37000000000002,-44.0 L-119.90500000000002,-44.0 L-115.44000000000001,-44.0 L-110.97500000000002,-44.0 L-106.51000000000002,-44.0 L-102.04500000000002,-44.0 L-97.58000000000001,-44.0 L-93.11500000000001,-44.0 L-85.48500000000001,-44.0 L-85.48500000000001,-39.535 L-85.48500000000001,-35.07 L-85.48500000000001,-30.605 L-85.48500000000001,-26.14 L-85.48500000000001,-21.675 L-85.48500000000001,-17.21 L-85.48500000000001,-12.745000000000001 L-85.48500000000001,-8.280000000000001 L-85.48500000000001,-3.8149999999999977 L-85.48500000000001,0.6499999999999986 L-85.48500000000001,5.114999999999995 L-85.48500000000001,9.579999999999998 L-85.48500000000001,14.045000000000002 L-85.48500000000001,18.509999999999998 L-85.48500000000001,22.974999999999994 L-85.48500000000001,27.439999999999998 L-85.48500000000001,31.905 L-85.48500000000001,36.370000000000005 L-85.48500000000001,44.0 L-89.95000000000002,44.0 L-94.41500000000002,44.0 L-98.88000000000001,44.0 L-103.34500000000001,44.0 L-107.81000000000002,44.0 L-112.275,44.0 L-116.74000000000001,44.0 L-121.20500000000001,44.0 L-125.67000000000002,44.0 L-130.13500000000002,44.0 L-134.60000000000002,44.0 L-139.065,44.0 L-143.53000000000003,44.0 L-147.995,44.0 L-152.46,44.0 L-156.925,44.0 L-161.39000000000001,44.0 L-165.85500000000002,44.0 L-170.32,44.0 L-177.485,44.0 L-177.485,39.535 L-177.485,35.07 L-177.485,30.605 L-177.485,26.14 L-177.485,21.675 L-177.485,17.21 L-177.485,12.745000000000001 L-177.485,8.280000000000001 L-177.485,3.8149999999999977 L-177.485,-0.6499999999999986 L-177.485,-5.114999999999995 L-177.485,-9.579999999999998 L-177.485,-14.045000000000002 L-177.485,-18.509999999999998 L-177.485,-22.974999999999994 L-177.485,-27.439999999999998 L-177.485,-31.905 L-177.485,-36.370000000000005 L-177.485,-40.834999999999994 L-177.485,-48.0 L-173.02,-48.0 L-168.555,-48.0 L-164.09,-48.0 L-159.625,-48.0 L-155.16000000000003,-48.0 L-150.69500000000002,-48.0 L-146.23000000000002,-48.0 L-141.76500000000001,-48.0 L-137.3,-48.0 L-132.835,-48.0 L-128.37,-48.0 L-123.90500000000002,-48.0 L-119.44000000000001,-48.0 L-114.97500000000002,-48.0 L-110.51000000000002,-48.0 L-106.04500000000002,-48.0 L-101.58000000000001,-48.0 L-97.11500000000001,-48.0 L-92.65000000000002,-48.0 L-88.18500000000002,-48.0 L-81.48500000000001,-48.0 L-81.48500000000001,-43.535 L-81.48500000000001,-39.07 L-81.48500000000001,-34.605000000000004 L-81.48500000000001,-30.14 L-81.48500000000001,-25.675 L-81.48500000000001,-21.21 L-81.48500000000001,-16.745 L-81.48500000000001,-12.280000000000001 L-81.48500000000001,-7.814999999999998 L-81.48500000000001,-3.3500000000000014 L-81.48500000000001,1.1149999999999949 L-81.48500000000001,5.579999999999998 L-81.48500000000001,10.045000000000002 L-81.48500000000001,14.509999999999998 L-81.48500000000001,18.974999999999994 L-81.48500000000001,23.439999999999998 L-81.48500000000001,27.905 L-81.48500000000001,32.370000000000005 L-81.48500000000001,36.834999999999994 L-81.48500000000001,41.3 L-81.48500000000001,48.0 L-85.95000000000002,48.0 L-90.41500000000002,48.0 L-94.88000000000001,48.0 L-99.34500000000001,48.0 L-103.81000000000002,48.0 L-108.275,48.0 L-112.74000000000001,48.0 L-117.20500000000001,48.0 L-121.67000000000002,48.0 L-126.13500000000002,48.0 L-130.60000000000002,48.0 L-135.065,48.0 L-139.53000000000003,48.0 L-143.995,48.0 L-148.46,48.0 L-152.925,48.0 L-157.39000000000001,48.0 L-161.85500000000002,48.0 L-166.32,48.0 L-170.78500000000003,48.0 L-175.25,48.0 L-181.485,48.0 L-181.485,43.535 L-181.485,39.07 L-181.485,34.605000000000004 L-181.485,30.14 L-181.485,25.675 L-181.485,21.21 L-181.485,16.745 L-181.485,12.280000000000001 L-181.485,7.814999999999998 L-181.485,3.3500000000000014 L-181.485,-1.1149999999999949 L-181.485,-5.579999999999998 L-181.485,-10.045000000000002 L-181.485,-14.509999999999998 L-181.485,-18.974999999999994 L-181.485,-23.439999999999998 L-181.485,-27.905 L-181.485,-32.370000000000005 L-181.485,-36.834999999999994 L-181.485,-41.3 L-181.485,-45.765 L-181.485,-52.0 L-177.02,-52.0 L-172.555,-52.0 L-168.09,-52.0 L-163.625,-52.0 L-159.16000000000003,-52.0 L-154.69500000000002,-52.0 L-150.23000000000002,-52.0 L-145.76500000000001,-52.0 L-141.3,-52.0 L-136.835,-52.0 L-132.37,-52.0 L-127.90500000000002,-52.0 L-123.44000000000001,-52.0 L-118.97500000000002,-52.0 L-114.51000000000002,-52.0 L-110.04500000000002,-52.0 L-105.58000000000001,-52.0 L-101.11500000000001,-52.0 L-96.65000000000002,-52.0 L-92.18500000000002,-52.0 L-87.72000000000001,-52.0 L-83.25500000000002,-52.0 L-77.48500000000001,-52.0 L-77.48500000000001,-47.535 L-77.48500000000001,-43.07 L-77.48500000000001,-38.605000000000004 L-77.48500000000001,-34.14 L-77.48500000000001,-29.675 L-77.48500000000001,-25.21 L-77.48500000000001,-20.745 L-77.48500000000001,-16.28 L-77.48500000000001,-11.814999999999998 L-77.48500000000001,-7.350000000000001 L-77.48500000000001,-2.885000000000005 L-77.48500000000001,1.5799999999999983 L-77.48500000000001,6.045000000000002 L-77.48500000000001,10.509999999999998 L-77.48500000000001,14.974999999999994 L-77.48500000000001,19.439999999999998 L-77.48500000000001,23.905 L-77.48500000000001,28.370000000000005 L-77.48500000000001,32.834999999999994 L-77.48500000000001,37.3 L-77.48500000000001,41.765 L-77.48500000000001,46.22999999999999 L-77.48500000000001,52.0 L-81.95000000000002,52.0 L-86.41500000000002,52.0 L-90.88000000000001,52.0 L-95.34500000000001,52.0 L-99.81000000000002,52.0 L-104.275,52.0 L-108.74000000000001,52.0 L-113.20500000000001,52.0 L-117.67000000000002,52.0 L-122.13500000000002,52.0 L-126.60000000000001,52.0 L-131.065,52.0 L-135.53000000000003,52.0 L-139.995,52.0 L-144.46,52.0 L-148.925,52.0 L-153.39000000000001,52.0 L-157.85500000000002,52.0 L-162.32,52.0 L-166.78500000000003,52.0 L-171.25,52.0 L-175.715,52.0 L-180.18,52.0 L-185.485,52.0 L-185.485,47.535 L-185.485,43.07 L-185.485,38.605000000000004 L-185.485,34.14 L-185.485,29.675 L-185.485,25.21 L-185.485,20.745 L-185.485,16.28 L-185.485,11.814999999999998 L-185.485,7.350000000000001 L-185.485,2.885000000000005 L-185.485,-1.5799999999999983 L-185.485,-6.045000000000002 L-185.485,-10.509999999999998 L-185.485,-14.974999999999994 L-185.485,-19.439999999999998 L-185.485,-23.905 L-185.485,-28.370000000000005 L-185.485,-32.834999999999994 L-185.485,-37.3 L-185.485,-41.765 L-185.485,-46.22999999999999 L-185.485,-50.69499999999999 L-185.485,-56.0 L-181.02,-56.0 L-176.555,-56.0 L-172.09,-56.0 L-167.625,-56.0 L-163.16000000000003,-56.0 L-158.69500000000002,-56.0 L-154.23000000000002,-56.0 L-149.76500000000001,-56.0 L-145.3,-56.0 L-140.835,-56.0 L-136.37,-56.0 L-131.90500000000003,-56.0 L-127.44000000000001,-56.0 L-122.97500000000002,-56.0 L-118.51000000000002,-56.0 L-114.04500000000002,-56.0 L-109.58000000000001,-56.0 L-105.11500000000001,-56.0 L-100.65000000000002,-56.0 L-96.18500000000002,-56.0 L-91.72000000000001,-56.0 L-87.25500000000002,-56.0 L-82.79000000000002,-56.0 L-78.32500000000002,-56.0 L-73.48500000000001,-56.0 L-73.48500000000001,-51.535 L-73.48500000000001,-47.07 L-73.48500000000001,-42.605000000000004 L-73.48500000000001,-38.14 L-73.48500000000001,-33.675 L-73.48500000000001,-29.21 L-73.48500000000001,-24.745 L-73.48500000000001,-20.28 L-73.48500000000001,-15.814999999999998 L-73.48500000000001,-11.350000000000001 L-73.48500000000001,-6.885000000000005 L-73.48500000000001,-2.4200000000000017 L-73.48500000000001,2.0450000000000017 L-73.48500000000001,6.509999999999998 L-73.48500000000001,10.974999999999994 L-73.48500000000001,15.439999999999998 L-73.48500000000001,19.905 L-73.48500000000001,24.370000000000005 L-73.48500000000001,28.834999999999994 L-73.48500000000001,33.3 L-73.48500000000001,37.765 L-73.48500000000001,42.22999999999999 L-73.48500000000001,46.69499999999999 L-73.48500000000001,51.16 L-73.48500000000001,56.0 L-77.95000000000002,56.0 L-82.41500000000002,56.0 L-86.88000000000001,56.0 L-91.34500000000001,56.0 L-95.81000000000002,56.0 L-100.275,56.0 L-104.74000000000001,56.0 L-109.20500000000001,56.0 L-113.67000000000002,56.0 L-118.13500000000002,56.0 L-122.60000000000001,56.0 L-127.06500000000001,56.0 L-131.53000000000003,56.0 L-135.995,56.0 L-140.46,56.0 L-144.925,56.0 L-149.39000000000001,56.0 L-153.85500000000002,56.0 L-158.32,56.0 L-162.78500000000003,56.0 L-167.25,56.0 L-171.715,56.0 L-176.18,56.0 L-180.645,56.0 L-189.485,56.0 L-189.485,51.535 L-189.485,47.07 L-189.485,42.605000000000004 L-189.485,38.14 L-189.485,33.675 L-189.485,29.21 L-189.485,24.745 L-189.485,20.28 L-189.485,15.814999999999998 L-189.485,11.350000000000001 L-189.485,6.885000000000005 L-189.485,2.4200000000000017 L-189.485,-2.0450000000000017 L-189.485,-6.509999999999998 L-189.485,-10.974999999999994 L-189.485,-15.439999999999998 L-189.485,-19.905 L-189.485,-24.370000000000005 L-189.485,-28.834999999999994 L-189.485,-33.3 L-189.485,-37.765 L-189.485,-42.22999999999999 L-189.485,-46.69499999999999 L-189.485,-51.16 L-189.485,-60.0 L-185.02,-60.0 L-180.555,-60.0 L-176.09,-60.0 L-171.625,-60.0 L-167.16000000000003,-60.0 L-162.69500000000002,-60.0 L-158.23000000000002,-60.0 L-153.76500000000001,-60.0 L-149.3,-60.0 L-144.835,-60.0 L-140.37,-60.0 L-135.90500000000003,-60.0 L-131.44,-60.0 L-126.97500000000002,-60.0 L-122.51000000000002,-60.0 L-118.04500000000002,-60.0 L-113.58000000000001,-60.0 L-109.11500000000001,-60.0 L-104.65000000000002,-60.0 L-100.18500000000002,-60.0 L-95.72000000000001,-60.0 L-91.25500000000002,-60.0 L-86.79000000000002,-60.0 L-82.32500000000002,-60.0 L-77.86000000000001,-60.0 L-69.48500000000001,-60.0 L-69.48500000000001,-55.535 L-69.48500000000001,-51.07 L-69.48500000000001,-46.605000000000004 L-69.48500000000001,-42.14 L-69.48500000000001,-37.675 L-69.48500000000001,-33.21 L-69.48500000000001,-28.745 L-69.48500000000001,-24.28 L-69.48500000000001,-19.814999999999998 L-69.48500000000001,-15.350000000000001 L-69.48500000000001,-10.885000000000005 L-69.48500000000001,-6.420000000000002 L-69.48500000000001,-1.9549999999999983 L-69.48500000000001,2.509999999999998 L-69.48500000000001,6.974999999999994 L-69.48500000000001,11.439999999999998 L-69.48500000000001,15.905000000000001 L-69.48500000000001,20.370000000000005 L-69.48500000000001,24.834999999999994 L-69.48500000000001,29.299999999999997 L-69.48500000000001,33.765 L-69.48500000000001,38.22999999999999 L-69.48500000000001,42.69499999999999 L-69.48500000000001,47.16 L-69.48500000000001,51.625 L-69.48500000000001,60.0 L-73.95000000000002,60.0 L-78.41500000000002,60.0 L-82.88000000000001,60.0 L-87.34500000000001,60.0 L-91.81000000000002,60.0 L-96.275,60.0 L-100.74000000000001,60.0 L-105.20500000000001,60.0 L-109.67000000000002,60.0 L-114.13500000000002,60.0 L-118.60000000000001,60.0 L-123.06500000000001,60.0 L-127.53000000000002,60.0 L-131.995,60.0 L-136.46,60.0 L-140.925,60.0 L-145.39000000000001,60.0 L-149.85500000000002,60.0 L-154.32,60.0 L-158.78500000000003,60.0 L-163.25,60.0 L-167.715,60.0 L-172.18,60.0 L-176.645,60.0 L-181.11,60.0 L-185.57500000000002,60.0 L-193.485,60.0 L-193.485,55.535 L-193.485,51.07 L-193.485,46.605000000000004 L-193.485,42.14 L-193.485,37.675 L-193.485,33.21 L-193.485,28.745 L-193.485,24.28 L-193.485,19.814999999999998 L-193.485,15.350000000000001 L-193.485,10.885000000000005 L-193.485,6.420000000000002 L-193.485,1.9549999999999983 L-193.485,-2.509999999999998 L-193.485,-6.974999999999994 L-193.485,-11.439999999999998 L-193.485,-15.905000000000001 L-193.485,-20.370000000000005 L-193.485,-24.834999999999994 L-193.485,-29.299999999999997 L-193.485,-33.765 L-193.485,-38.22999999999999 L-193.485,-42.69499999999999 L-193.485,-47.16 L-193.485,-51.625 L-193.485,-56.09 L-193.485,-64.0 L-189.02,-64.0 L-184.555,-64.0 L-180.09,-64.0 L-175.625,-64.0 L-171.16000000000003,-64.0 L-166.69500000000002,-64.0 L-162.23000000000002,-64.0 L-157.76500000000001,-64.0 L-153.3,-64.0 L-148.835,-64.0 L-144.37,-64.0 L-139.90500000000003,-64.0 L-135.44,-64.0 L-130.97500000000002,-64.0 L-126.51000000000002,-64.0 L-122.04500000000002,-64.0 L-117.58000000000001,-64.0 L-113.11500000000001,-64.0 L-108.65000000000002,-64.0 L-104.18500000000002,-64.0 L-99.72000000000001,-64.0 L-95.25500000000002,-64.0 L-90.79000000000002,-64.0 L-86.32500000000002,-64.0 L-81.86000000000001,-64.0 L-77.39500000000001,-64.0 L-72.93000000000002,-64.0 L-65.48500000000001,-64.0 L-65.48500000000001,-59.535 L-65.48500000000001,-55.07 L-65.48500000000001,-50.605000000000004 L-65.48500000000001,-46.14 L-65.48500000000001,-41.675 L-65.48500000000001,-37.21 L-65.48500000000001,-32.745000000000005 L-65.48500000000001,-28.28 L-65.48500000000001,-23.814999999999998 L-65.48500000000001,-19.35 L-65.48500000000001,-14.885000000000005 L-65.48500000000001,-10.420000000000002 L-65.48500000000001,-5.954999999999998 L-65.48500000000001,-1.490000000000002 L-65.48500000000001,2.9749999999999943 L-65.48500000000001,7.439999999999998 L-65.48500000000001,11.905000000000001 L-65.48500000000001,16.370000000000005 L-65.48500000000001,20.834999999999994 L-65.48500000000001,25.299999999999997 L-65.48500000000001,29.765 L-65.48500000000001,34.22999999999999 L-65.48500000000001,38.69499999999999 L-65.48500000000001,43.16 L-65.48500000000001,47.625 L-65.48500000000001,52.09 L-65.48500000000001,56.55499999999999 L-65.48500000000001,64.0 L-69.95000000000002,64.0 L-74.41500000000002,64.0 L-78.88000000000001,64.0 L-83.34500000000001,64.0 L-87.81000000000002,64.0 L-92.275,64.0 L-96.74000000000001,64.0 L-101.20500000000001,64.0 L-105.67000000000002,64.0 L-110.13500000000002,64.0 L-114.60000000000001,64.0 L-119.06500000000001,64.0 L-123.53000000000002,64.0 L-127.995,64.0 L-132.46,64.0 L-136.925,64.0 L-141.39000000000001,64.0 L-145.85500000000002,64.0 L-150.32,64.0 L-154.78500000000003,64.0 L-159.25,64.0 L-163.715,64.0 L-168.18,64.0 L-172.645,64.0 L-177.11,64.0 L-181.57500000000002,64.0 L-186.04000000000002,64.0 L-190.505,64.0 L-197.485,64.0 L-197.485,59.535 L-197.485,55.07 L-197.485,50.605000000000004 L-197.485,46.14 L-197.485,41.675 L-197.485,37.21 L-197.485,32.745000000000005 L-197.485,28.28 L-197.485,23.814999999999998 L-197.485,19.35 L-197.485,14.885000000000005 L-197.485,10.420000000000002 L-197.485,5.954999999999998 L-197.485,1.490000000000002 L-197.485,-2.9749999999999943 L-197.485,-7.439999999999998 L-197.485,-11.905000000000001 L-197.485,-16.370000000000005 L-197.485,-20.834999999999994 L-197.485,-25.299999999999997 L-197.485,-29.765 L-197.485,-34.22999999999999 L-197.485,-38.69499999999999 L-197.485,-43.16 L-197.485,-47.625 L-197.485,-52.09 L-197.485,-56.55499999999999 L-197.485,-61.019999999999996 L-197.485,-68.0 L-193.02,-68.0 L-188.555,-68.0 L-184.09,-68.0 L-179.625,-68.0 L-175.16000000000003,-68.0 L-170.69500000000002,-68.0 L-166.23000000000002,-68.0 L-161.76500000000001,-68.0 L-157.3,-68.0 L-152.835,-68.0 L-148.37,-68.0 L-143.90500000000003,-68.0 L-139.44,-68.0 L-134.97500000000002,-68.0 L-130.51000000000002,-68.0 L-126.04500000000002,-68.0 L-121.58000000000001,-68.0 L-117.11500000000001,-68.0 L-112.65000000000002,-68.0 L-108.18500000000002,-68.0 L-103.72000000000001,-68.0 L-99.25500000000002,-68.0 L-94.79000000000002,-68.0 L-90.32500000000002,-68.0 L-85.86000000000001,-68.0 L-81.39500000000001,-68.0 L-76.93000000000002,-68.0 L-72.46500000000002,-68.0 L-68.00000000000003,-68.0 L-61.485000000000014,-68.0 L-61.485000000000014,-63.535 L-61.485000000000014,-59.07 L-61.485000000000014,-54.605000000000004 L-61.485000000000014,-50.14 L-61.485000000000014,-45.675 L-61.485000000000014,-41.21 L-61.485000000000014,-36.745000000000005 L-61.485000000000014,-32.28 L-61.485000000000014,-27.814999999999998 L-61.485000000000014,-23.35 L-61.485000000000014,-18.885000000000005 L-61.485000000000014,-14.420000000000002 L-61.485000000000014,-9.954999999999998 L-61.485000000000014,-5.490000000000002 L-61.485000000000014,-1.0250000000000057 L-61.485000000000014,3.4399999999999977 L-61.485000000000014,7.905000000000001 L-61.485000000000014,12.370000000000005 L-61.485000000000014,16.834999999999994 L-61.485000000000014,21.299999999999997 L-61.485000000000014,25.765 L-61.485000000000014,30.22999999999999 L-61.485000000000014,34.69499999999999 L-61.485000000000014,39.16 L-61.485000000000014,43.625 L-61.485000000000014,48.09 L-61.485000000000014,52.55499999999999 L-61.485000000000014,57.019999999999996 L-61.485000000000014,61.484999999999985 L-61.485000000000014,68.0 L-65.95000000000002,68.0 L-70.41500000000002,68.0 L-74.88000000000001,68.0 L-79.34500000000001,68.0 L-83.81000000000002,68.0 L-88.275,68.0 L-92.74000000000001,68.0 L-97.20500000000001,68.0 L-101.67000000000002,68.0 L-106.13500000000002,68.0 L-110.60000000000001,68.0 L-115.06500000000001,68.0 L-119.53000000000002,68.0 L-123.995,68.0 L-128.46,68.0 L-132.925,68.0 L-137.39000000000001,68.0 L-141.85500000000002,68.0 L-146.32,68.0 L-150.78500000000003,68.0 L-155.25,68.0 L-159.715,68.0 L-164.18,68.0 L-168.645,68.0 L-173.11,68.0 L-177.57500000000002,68.0 L-182.04000000000002,68.0 L-186.505,68.0 L-190.97,68.0 L-195.435,68.0 L-201.485,68.0 L-201.485,63.535 L-201.485,59.07 L-201.485,54.605000000000004 L-201.485,50.14 L-201.485,45.675 L-201.485,41.21 L-201.485,36.745000000000005 L-201.485,32.28 L-201.485,27.814999999999998 L-201.485,23.35 L-201.485,18.885000000000005 L-201.485,14.420000000000002 L-201.485,9.954999999999998 L-201.485,5.490000000000002 L-201.485,1.0250000000000057 L-201.485,-3.4399999999999977 L-201.485,-7.905000000000001 L-201.485,-12.370000000000005 L-201.485,-16.834999999999994 L-201.485,-21.299999999999997 L-201.485,-25.765 L-201.485,-30.22999999999999 L-201.485,-34.69499999999999 L-201.485,-39.16 L-201.485,-43.625 L-201.485,-48.09 L-201.485,-52.55499999999999 L-201.485,-57.019999999999996 L-201.485,-61.484999999999985 L-201.485,-65.94999999999999 L-201.485,-72.0 L-197.02,-72.0 L-192.555,-72.0 L-188.09,-72.0 L-183.625,-72.0 L-179.16000000000003,-72.0 L-174.69500000000002,-72.0 L-170.23000000000002,-72.0 L-165.76500000000001,-72.0 L-161.3,-72.0 L-156.835,-72.0 L-152.37,-72.0 L-147.90500000000003,-72.0 L-143.44,-72.0 L-138.97500000000002,-72.0 L-134.51000000000002,-72.0 L-130.04500000000002,-72.0 L-125.58000000000001,-72.0 L-121.11500000000001,-72.0 L-116.65000000000002,-72.0 L-112.18500000000002,-72.0 L-107.72000000000001,-72.0 L-103.25500000000002,-72.0 L-98.79000000000002,-72.0 L-94.32500000000002,-72.0 L-89.86000000000001,-72.0 L-85.39500000000001,-72.0 L-80.93000000000002,-72.0 L-76.46500000000002,-72.0 L-72.00000000000003,-72.0 L-67.53500000000003,-72.0 L-63.07000000000002,-72.0 L-57.485000000000014,-72.0 L-57.485000000000014,-67.535 L-57.485000000000014,-63.07 L-57.485000000000014,-58.605000000000004 L-57.485000000000014,-54.14 L-57.485000000000014,-49.675 L-57.485000000000014,-45.21 L-57.485000000000014,-40.745000000000005 L-57.485000000000014,-36.28 L-57.485000000000014,-31.814999999999998 L-57.485000000000014,-27.35 L-57.485000000000014,-22.885000000000005 L-57.485000000000014,-18.42 L-57.485000000000014,-13.954999999999998 L-57.485000000000014,-9.490000000000002 L-57.485000000000014,-5.025000000000006 L-57.485000000000014,-0.5600000000000023 L-57.485000000000014,3.905000000000001 L-57.485000000000014,8.370000000000005 L-57.485000000000014,12.834999999999994 L-57.485000000000014,17.299999999999997 L-57.485000000000014,21.765 L-57.485000000000014,26.22999999999999 L-57.485000000000014,30.694999999999993 L-57.485000000000014,35.16 L-57.485000000000014,39.625 L-57.485000000000014,44.09 L-57.485000000000014,48.55499999999999 L-57.485000000000014,53.019999999999996 L-57.485000000000014,57.484999999999985 L-57.485000000000014,61.94999999999999 L-57.485000000000014,66.41499999999999 L-57.485000000000014,72.0 L-61.95000000000002,72.0 L-66.41500000000002,72.0 L-70.88000000000001,72.0 L-75.34500000000001,72.0 L-79.81000000000002,72.0 L-84.275,72.0 L-88.74000000000001,72.0 L-93.20500000000001,72.0 L-97.67000000000002,72.0 L-102.13500000000002,72.0 L-106.60000000000001,72.0 L-111.06500000000001,72.0 L-115.53000000000002,72.0 L-119.995,72.0 L-124.46000000000001,72.0 L-128.925,72.0 L-133.39000000000001,72.0 L-137.85500000000002,72.0 L-142.32,72.0 L-146.78500000000003,72.0 L-151.25,72.0 L-155.715,72.0 L-160.18,72.0 L-164.645,72.0 L-169.11,72.0 L-173.57500000000002,72.0 L-178.04000000000002,72.0 L-182.505,72.0 L-186.97,72.0 L-191.435,72.0 L-195.9,72.0 L-200.365,72.0 L-205.485,72.0 L-205.485,67.535 L-205.485,63.07 L-205.485,58.605000000000004 L-205.485,54.14 L-205.485,49.675 L-205.485,45.21 L-205.485,40.745000000000005 L-205.485,36.28 L-205.485,31.814999999999998 L-205.485,27.35 L-205.485,22.885000000000005 L-205.485,18.42 L-205.485,13.954999999999998 L-205.485,9.490000000000002 L-205.485,5.025000000000006 L-205.485,0.5600000000000023 L-205.485,-3.905000000000001 L-205.485,-8.370000000000005 L-205.485,-12.834999999999994 L-205.485,-17.299999999999997 L-205.485,-21.765 L-205.485,-26.22999999999999 L-205.485,-30.694999999999993 L-205.485,-35.16 L-205.485,-39.625 L-205.485,-44.09 L-205.485,-48.55499999999999 L-205.485,-53.019999999999996 L-205.485,-57.484999999999985 L-205.485,-61.94999999999999 L-205.485,-66.41499999999999 L-205.485,-70.88 L-205.485,-76.0 L-201.02,-76.0 L-196.555,-76.0 L-192.09,-76.0 L-187.625,-76.0 L-183.16000000000003,-76.0 L-178.69500000000002,-76.0 L-174.23000000000002,-76.0 L-169.76500000000001,-76.0 L-165.3,-76.0 L-160.835,-76.0 L-156.37,-76.0 L-151.90500000000003,-76.0 L-147.44,-76.0 L-142.97500000000002,-76.0 L-138.51000000000002,-76.0 L-134.04500000000002,-76.0 L-129.58,-76.0 L-125.11500000000001,-76.0 L-120.65000000000002,-76.0 L-116.18500000000002,-76.0 L-111.72000000000001,-76.0 L-107.25500000000002,-76.0 L-102.79000000000002,-76.0 L-98.32500000000002,-76.0 L-93.86000000000001,-76.0 L-89.39500000000001,-76.0 L-84.93000000000002,-76.0 L-80.46500000000002,-76.0 L-76.00000000000003,-76.0 L-71.53500000000003,-76.0 L-67.07000000000002,-76.0 L-62.60500000000002,-76.0 L-58.140000000000015,-76.0 L-53.485000000000014,-76.0 L-53.485000000000014,-71.535 L-53.485000000000014,-67.07 L-53.485000000000014,-62.605000000000004 L-53.485000000000014,-58.14 L-53.485000000000014,-53.675 L-53.485000000000014,-49.21 L-53.485000000000014,-44.745000000000005 L-53.485000000000014,-40.28 L-53.485000000000014,-35.815 L-53.485000000000014,-31.35 L-53.485000000000014,-26.885000000000005 L-53.485000000000014,-22.42 L-53.485000000000014,-17.955 L-53.485000000000014,-13.490000000000002 L-53.485000000000014,-9.025000000000006 L-53.485000000000014,-4.560000000000002 L-53.485000000000014,-0.09499999999999886 L-53.485000000000014,4.3700000000000045 L-53.485000000000014,8.834999999999994 L-53.485000000000014,13.299999999999997 L-53.485000000000014,17.765 L-53.485000000000014,22.22999999999999 L-53.485000000000014,26.694999999999993 L-53.485000000000014,31.159999999999997 L-53.485000000000014,35.625 L-53.485000000000014,40.09 L-53.485000000000014,44.55499999999999 L-53.485000000000014,49.019999999999996 L-53.485000000000014,53.484999999999985 L-53.485000000000014,57.94999999999999 L-53.485000000000014,62.41499999999999 L-53.485000000000014,66.88 L-53.485000000000014,71.345 L-53.485000000000014,76.0 L-57.95000000000002,76.0 L-62.41500000000001,76.0 L-66.88000000000001,76.0 L-71.34500000000001,76.0 L-75.81000000000002,76.0 L-80.275,76.0 L-84.74000000000001,76.0 L-89.20500000000001,76.0 L-93.67000000000002,76.0 L-98.13500000000002,76.0 L-102.60000000000001,76.0 L-107.06500000000001,76.0 L-111.53000000000002,76.0 L-115.995,76.0 L-120.46000000000001,76.0 L-124.92500000000001,76.0 L-129.39000000000001,76.0 L-133.85500000000002,76.0 L-138.32,76.0 L-142.78500000000003,76.0 L-147.25,76.0 L-151.715,76.0 L-156.18,76.0 L-160.645,76.0 L-165.11,76.0 L-169.57500000000002,76.0 L-174.04000000000002,76.0 L-178.505,76.0 L-182.97,76.0 L-187.435,76.0 L-191.9,76.0 L-196.365,76.0 L-200.83,76.0 L-209.485,76.0 L-209.485,71.535 L-209.485,67.07 L-209.485,62.605000000000004 L-209.485,58.14 L-209.485,53.675 L-209.485,49.21 L-209.485,44.745000000000005 L-209.485,40.28 L-209.485,35.815 L-209.485,31.35 L-209.485,26.885000000000005 L-209.485,22.42 L-209.485,17.955 L-209.485,13.490000000000002 L-209.485,9.025000000000006 L-209.485,4.560000000000002 L-209.485,0.09499999999999886 L-209.485,-4.3700000000000045 L-209.485,-8.834999999999994 L-209.485,-13.299999999999997 L-209.485,-17.765 L-209.485,-22.22999999999999 L-209.485,-26.694999999999993 L-209.485,-31.159999999999997 L-209.485,-35.625 L-209.485,-40.09 L-209.485,-44.55499999999999 L-209.485,-49.019999999999996 L-209.485,-53.484999999999985 L-209.485,-57.94999999999999 L-209.485,-62.41499999999999 L-209.485,-66.88 L-209.485,-71.345 L-209.485,-80.0 L-205.02,-80.0 L-200.555,-80.0 L-196.09,-80.0 L-191.625,-80.0 L-187.16000000000003,-80.0 L-182.69500000000002,-80.0 L-178.23000000000002,-80.0 L-173.76500000000001,-80.0 L-169.3,-80.0 L-164.835,-80.0 L-160.37,-80.0 L-155.90500000000003,-80.0 L-151.44,-80.0 L-146.97500000000002,-80.0 L-142.51000000000002,-80.0 L-138.04500000000002,-80.0 L-133.58,-80.0 L-129.115,-80.0 L-124.65000000000002,-80.0 L-120.18500000000002,-80.0 L-115.72000000000001,-80.0 L-111.25500000000002,-80.0 L-106.79000000000002,-80.0 L-102.32500000000002,-80.0 L-97.86000000000001,-80.0 L-93.39500000000001,-80.0 L-88.93000000000002,-80.0 L-84.46500000000002,-80.0 L-80.00000000000003,-80.0 L-75.53500000000003,-80.0 L-71.07000000000002,-80.0 L-66.60500000000002,-80.0 L-62.140000000000015,-80.0 L-57.67500000000001,-80.0 L-49.485000000000014,-80.0 L-49.485000000000014,-75.535 L-49.485000000000014,-71.07 L-49.485000000000014,-66.605 L-49.485000000000014,-62.14 L-49.485000000000014,-57.675 L-49.485000000000014,-53.21 L-49.485000000000014,-48.745000000000005 L-49.485000000000014,-44.28 L-49.485000000000014,-39.815 L-49.485000000000014,-35.35 L-49.485000000000014,-30.885000000000005 L-49.485000000000014,-26.42 L-49.485000000000014,-21.955 L-49.485000000000014,-17.490000000000002 L-49.485000000000014,-13.025000000000006 L-49.485000000000014,-8.560000000000002 L-49.485000000000014,-4.0 L0,-4.0 L4.465,-4.0 L4.465,-8.465 L4.465,-12.93 L0.0,-12.93 L-4.465,-12.93 L-4.465,-8.465 L-4.465,-4.0 L0,-4.0" stroke-width="0.202" stroke="black" fill-opacity="0" />
</svg>