<?xml version="1.0" encoding="UTF-8"?>
<svg xmlns="http://www.w3.org/2000/svg" xmlns:xlink="http://www.w3.org/1999/xlink"
     width="200" height="200" viewBox="-100.0 -100.0 200 200" displayInline="False">
<defs>
</defs>
<path d="M95,0 L4.465,0.0 L4.465,4.465 L4.465,8.93 L0.0,8.93 L-4.465,8.93 L-4.465,4.465 L-4.465,0.0 L0,0.0 L-129.485,0.0 L-133.95000000000002,0.0 L-138.41500000000002,0.0 L-142.88000000000002,0.0 L-149.485,0.0 L-149.485,-4.465 L-149.485,-8.93 L-149.485,-13.395 L-149.485,-20.0 L-145.02,-20.0 L-140.555,-20.0 L-136.09,-20.0 L-131.625,-20.0 L-127.16000000000001,-20.0 L-122.69500000000002,-20.0 L-118.23000000000002,-20.0 L-109.48500000000001,-20.0 L-109.48500000000001,-15.535 L-109.48500000000001,-11.07 L-109.48500000000001,-6.605 L-109.48500000000001,-2.1400000000000006 L-109.48500000000001,2.3249999999999993 L-109.48500000000001,6.789999999999999 L-109.48500000000001,11.254999999999999 L-109.48500000000001,20.0 L-113.95000000000002,20.0 L-118.41500000000002,20.0 L-122.88000000000001,20.0 L-127.34500000000001,20.0 L-131.81,20.0 L-136.275,20.0 L-140.74,20.0 L-145.205,20.0 L-153.485,20.0 L-153.485,15.535 L-153.485,11.07 L-153.485,6.605 L-153.485,2.1400000000000006 L-153.485,-2.3249999999999993 L-153.485,-6.789999999999999 L-153.485,-11.254999999999999 L-153.485,-15.719999999999999 L-153.485,-24.0 L-149.02,-24.0 L-144.555,-24.0 L-140.09,-24.0 L-135.625,-24.0 L-131.16000000000003,-24.0 L-126.69500000000002,-24.0 L-122.23000000000002,-24.0 L-117.76500000000001,-24.0 L-113.30000000000001,-24.0 L-105.48500000000001,-24.0 L-105.48500000000001,-19.535 L-105.48500000000001,-15.07 L-105.48500000000001,-10.605 L-105.48500000000001,-6.140000000000001 L-105.48500000000001,-1.6750000000000007 L-105.48500000000001,2.789999999999999 L-105.48500000000001,7.254999999999999 L-105.48500000000001,11.719999999999999 L-105.48500000000001,16.185000000000002 L-105.48500000000001,24.0 L-109.95000000000002,24.0 L-114.41500000000002,24.0 L-118.88000000000001,24.0 L-123.34500000000001,24.0 L-127.81000000000002,24.0 L-132.275,24.0 L-136.74,24.0 L-141.205,24.0 L-145.67000000000002,24.0 L-150.13500000000002,24.0 L-157.485,24.0 L-157.485,19.535 L-157.485,15.07 L-157.485,10.605 L-157.485,6.140000000000001 L-157.485,1.6750000000000007 L-157.485,-2.789999999999999 L-157.485,-7.254999999999999 L-157.485,-11.719999999999999 L-157.485,-16.185000000000002 L-157.485,-20.65 L-157.485,-28.0 L-153.02,-28.0 L-148.555,-28.0 L-144.09,-28.0 L-139.625,-28.0 L-135.16000000000003,-28.0 L-130.69500000000002,-28.0 L-126.23000000000002,-28.0 L-121.76500000000001,-28.0 L-117.30000000000001,-28.0 L-112.83500000000001,-28.0 L-108.37000000000002,-28.0 L-101.48500000000001,-28.0 L-101.48500000000001,-23.535 L-101.48500000000001,-19.07 L-101.48500000000001,-14.605 L-101.48500000000001,-10.14 L-101.48500000000001,-5.675000000000001 L-101.48500000000001,-1.2100000000000009 L-101.48500000000001,3.254999999999999 L-101.48500000000001,7.719999999999999 L-101.48500000000001,12.185000000000002 L-101.48500000000001,16.65 L-101.48500000000001,21.114999999999995 L-101.48500000000001,28.0 L-105.95000000000002,28.0 L-110.41500000000002,28.0 L-114.88000000000001,28.0 L-119.34500000000001,28.0 L-123.81000000000002,28.0 L-128.275,28.0 L-132.74,28.0 L-137.205,28.0 L-141.67000000000002,28.0 L-146.13500000000002,28.0 L-150.60000000000002,28.0 L-155.065,28.0 L-161.485,28.0 L-161.485,23.535 L-161.485,19.07 L-161.485,14.605 L-161.485,10.14 L-161.485,5.675000000000001 L-161.485,1.2100000000000009 L-161.485,-3.254999999999999 L-161.485,-7.719999999999999 L-161.485,-12.185000000000002 L-161.485,-16.65 L-161.485,-21.114999999999995 L-161.485,-25.58 L-161.485,-32.0 L-157.02,-32.0 L-152.555,-32.0 L-148.09,-32.0 L-143.625,-32.0 L-139.16000000000003,-32.0 L-134.69500000000002,-32.0 L-130.23000000000002,-32.0 L-125.76500000000001,-32.0 L-121.30000000000001,-32.0 L-116.83500000000001,-32.0 L-112.37000000000002,-32.0 L-107.90500000000002,-32.0 L-103.44000000000001,-32.0 L-97.48500000000001,-32.0 L-97.48500000000001,-27.535 L-97.48500000000001,-23.07 L-97.48500000000001,-18.605 L-97.48500000000001,-14.14 L-97.48500000000001,-9.675 L-97.48500000000001,-5.210000000000001 L-97.48500000000001,-0.745000000000001 L-97.48500000000001,3.719999999999999 L-97.48500000000001,8.185000000000002 L-97.48500000000001,12.649999999999999 L-97.48500000000001,17.114999999999995 L-97.48500000000001,21.58 L-97.48500000000001,26.045 L-97.48500000000001,32.0 L-101.95000000000002,32.0 L-106.41500000000002,32.0 L-110.88000000000001,32.0 L-115.34500000000001,32.0 L-119.81000000000002,32.0 L-124.275,32.0 L-128.74,32.0 L-133.205,32.0 L-137.67000000000002,32.0 L-142.13500000000002,32.0 L-146.60000000000002,32.0 L-151.065,32.0 L-155.53000000000003,32.0 L-159.995,32.0 L-165.485,32.0 L-165.485,27.535 L-165.485,23.07 L-165.485,18.605 L-165.485,14.14 L-165.485,9.675 L-165.485,5.210000000000001 L-165.485,0.745000000000001 L-165.485,-3.719999999999999 L-165.485,-8.185000000000002 L-165.485,-12.649999999999999 L-165.485,-17.114999999999995 L-165.485,-21.58 L-165.485,-26.045 L-165.485,-30.509999999999998 L-165.485,-36.0 L-161.02,-36.0 L-156.555,-36.0 L-152.09,-36.0 L-147.625,-36.0 L-143.16000000000003,-36.0 L-138.69500000000002,-36.0 L-134.23000000000002,-36.0 L-129.76500000000001,-36.0 L-125.30000000000001,-36.0 L-120.83500000000001,-36.0 L-116.37000000000002,-36.0 L-111.90500000000002,-36.0 L-107.44000000000001,-36.0 L-102.97500000000002,-36.0 L-98.51000000000002,-36.0 L-93.48500000000001,-36.0 L-93.48500000000001,-31.535 L-93.48500000000001,-27.07 L-93.48500000000001,-22.605 L-93.48500000000001,-18.14 L-93.48500000000001,-13.675 L-93.48500000000001,-9.21 L-93.48500000000001,-4.745000000000001 L-93.48500000000001,-0.28000000000000114 L-93.48500000000001,4.185000000000002 L-93.48500000000001,8.649999999999999 L-93.48500000000001,13.114999999999995 L-93.48500000000001,17.58 L-93.48500000000001,22.045 L-93.48500000000001,26.509999999999998 L-93.48500000000001,30.974999999999994 L-93.48500000000001,36.0 L-97.95000000000002,36.0 L-102.41500000000002,36.0 L-106.88000000000001,36.0 L-111.34500000000001,36.0 L-115.81000000000002,36.0 L-120.275,36.0 L-124.74000000000001,36.0 L-129.205,36.0 L-133.67000000000002,36.0 L-138.13500000000002,36.0 L-142.60000000000002,36.0 L-147.065,36.0 L-151.53000000000003,36.0 L-155.995,36.0 L-160.46,36.0 L-164.925,36.0 L-169.485,36.0 L-169.485,31.535 L-169.485,27.07 L-169.485,22.605 L-169.485,18.14 L-169.485,13.675 L-169.485,9.21 L-169.485,4.745000000000001 L-169.485,0.28000000000000114 L-169.485,-4.185000000000002 L-169.485,-8.649999999999999 L-169.485,-13.114999999999995 L-169.485,-17.58 L-169.485,-22.045 L-169.485,-26.509999999999998 L-169.485,-30.974999999999994 L-169.485,-35.44 L-169.485,-40.0 L-165.02,-40.0 L-160.555,-40.0 L-156.09,-40.0 L-151.625,-40.0 L-147.16000000000003,-40.0 L-142.69500000000002,-40.0 L-138.23000000000002,-40.0 L-133.76500000000001,-40.0 L-129.3,-40.0 L-124.83500000000001,-40.0 L-120.37000000000002,-40.0 L-115.90500000000002,-40.0 L-111.44000000000001,-40.0 L-106.97500000000002,-40.0 L-102.51000000000002,-40.0 L-98.04500000000002,-40.0 L-89.48500000000001,-40.0 L-89.48500000000001,-35.535 L-89.48500000000001,-31.07 L-89.48500000000001,-26.605 L-89.48500000000001,-22.14 L-89.48500000000001,-17.675 L-89.48500000000001,-13.21 L-89.48500000000001,-8.745000000000001 L-89.48500000000001,-4.0 L0,-4.0 L4.465,-4.0 L4.465,-8.465 L4.465,-12.93 L0.0,-12.93 L-4.465,-12.93 L-4.465,-8.465 L-4.465,-4.0 L0,-4.0" stroke-width="0.202" stroke="black" fill-opacity="0" />
</svg>