<?xml version="1.0" encoding="UTF-8"?>
<svg xmlns="http://www.w3.org/2000/svg" xmlns:xlink="http://www.w3.org/1999/xlink"
     width="200" height="200" viewBox="-100.0 -100.0 200 200" displayInline="False">
<defs>
</defs>
<path d="M95,0 L4.465,0.0 L4.465,4.465 L4.465,8.93 L0.0,8.93 L-4.465,8.93 L-4.465,4.465 L-4.465,0.0 L0,0.0 L-129.485,0.0 L-133.95000000000002,0.0 L-138.41500000000002,0.0 L-142.88000000000002,0.0 L-147.34500000000003,0.0 L-151.81,0.0 L-156.275,0.0 L-160.74,0.0 L-169.485,0.0 L-169.485,-4.465 L-169.485,-8.93 L-169.485,-13.395 L-169.485,-17.86 L-169.485,-22.325 L-169.485,-26.79 L-169.485,-31.255 L-169.485,-40.0 L-165.02,-40.0 L-160.555,-40.0 L-156.09,-40.0 L-151.625,-40.0 L-147.16000000000003,-40.0 L-142.69500000000002,-40.0 L-138.23000000000002,-40.0 L-133.76500000000001,-40.0 L-129.3,-40.0 L-124.83500000000001,-40.0 L-120.37000000000002,-40.0 L-115.90500000000002,-40.0 L-111.44000000000001,-40.0 L-106.97500000000002,-40.0 L-102.51000000000002,-40.0 L-98.04500000000002,-40.0 L-89.48500000000001,-40.0 L-89.48500000000001,-35.535 L-89.48500000000001,-31.07 L-89.48500000000001,-26.605 L-89.48500000000001,-22.14 L-89.48500000000001,-17.675 L-89.48500000000001,-13.21 L-89.48500000000001,-8.745000000000001 L-89.48500000000001,-4.280000000000001 L-89.48500000000001,0.18500000000000227 L-89.48500000000001,4.649999999999999 L-89.48500000000001,9.114999999999995 L-89.48500000000001,13.579999999999998 L-89.48500000000001,18.045 L-89.48500000000001,22.509999999999998 L-89.48500000000001,26.974999999999994 L-89.48500000000001,31.439999999999998 L-89.48500000000001,40.0 L-93.95000000000002,40.0 L-98.41500000000002,40.0 L-102.88000000000001,40.0 L-107.34500000000001,40.0 L-111.81000000000002,40.0 L-116.275,40.0 L-120.74000000000001,40.0 L-125.20500000000001,40.0 L-129.67000000000002,40.0 L-134.13500000000002,40.0 L-138.60000000000002,40.0 L-143.065,40.0 L-147.53000000000003,40.0 L-151.995,40.0 L-156.46,40.0 L-160.925,40.0 L-165.39000000000001,40.0 L-173.485,40.0 L-173.485,35.535 L-173.485,31.07 L-173.485,26.605 L-173.485,22.14 L-173.485,17.675 L-173.485,13.21 L-173.485,8.745000000000001 L-173.485,4.280000000000001 L-173.485,-0.18500000000000227 L-173.485,-4.649999999999999 L-173.485,-9.114999999999995 L-173.485,-13.579999999999998 L-173.485,-18.045 L-173.485,-22.509999999999998 L-173.485,-26.974999999999994 L-173.485,-31.439999999999998 L-173.485,-35.905 L-173.485,-44.0 L-169.02,-44.0 L-164.555,-44.0 L-160.09,-44.0 L-155.625,-44.0 L-151.16000000000003,-44.0 L-146.69500000000002,-44.0 L-142.23000000000002,-44.0 L-137.76500000000001,-44.0 L-133.3,-44.0 L-128.835,-44.0 L-124.37000000000002,-44.0 L-119.90500000000002,-44.0 L-115.44000000000001,-44.0 L-110.97500000000002,-44.0 L-106.51000000000002,-44.0 L-102.04500000000002,-44.0 L-97.58000000000001,-44.0 L-93.11500000000001,-44.0 L-85.48500000000001,-44.0 L-85.48500000000001,-39.535 L-85.48500000000001,-35.07 L-85.48500000000001,-30.605 L-85.48500000000001,-26.14 L-85.48500000000001,-21.675 L-85.48500000000001,-17.21 L-85.48500000000001,-12.745000000000001 L-85.48500000000001,-8.280000000000001 L-85.48500000000001,-3.8149999999999977 L-85.48500000000001,0.6499999999999986 L-85.48500000000001,5.114999999999995 L-85.48500000000001,9.579999999999998 L-85.48500000000001,14.045000000000002 L-85.48500000000001,18.509999999999998 L-85.48500000000001,22.974999999999994 L-85.48500000000001,27.439999999999998 L-85.48500000000001,31.905 L-85.48500000000001,36.370000000000005 L-85.48500000000001,44.0 L-89.95000000000002,44.0 L-94.41500000000002,44.0 L-98.88000000000001,44.0 L-103.34500000000001,44.0 L-107.81000000000002,44.0 L-112.275,44.0 L-116.74000000000001,44.0 L-121.20500000000001,44.0 L-125.67000000000002,44.0 L-130.13500000000002,44.0 L-134.60000000000002,44.0 L-139.065,44.0 L-143.53000000000003,44.0 L-147.995,44.0 L-152.46,44.0 L-156.925,44.0 L-161.39000000000001,44.0 L-165.85500000000002,44.0 L-170.32,44.0 L-177.485,44.0 L-177.485,39.535 L-177.485,35.07 L-177.485,30.605 L-177.485,26.14 L-177.485,21.675 L-177.485,17.21 L-177.485,12.745000000000001 L-177.485,8.280000000000001 L-177.485,3.8149999999999977 L-177.485,-0.6499999999999986 L-177.485,-5.114999999999995 L-177.485,-9.579999999999998 L-177.485,-14.045000000000002 L-177.485,-18.509999999999998 L-177.485,-22.974999999999994 L-177.485,-27.439999999999998 L-177.485,-31.905 L-177.485,-36.370000000000005 L-177.485,-40.834999999999994 L-177.485,-48.0 L-173.02,-48.0 L-168.555,-48.0 L-164.09,-48.0 L-159.625,-48.0 L-155.16000000000003,-48.0 L-150.69500000000002,-48.0 L-146.23000000000002,-48.0 L-141.76500000000001,-48.0 L-137.3,-48.0 L-132.835,-48.0 L-128.37,-48.0 L-123.90500000000002,-48.0 L-119.44000000000001,-48.0 L-114.97500000000002,-48.0 L-110.51000000000002,-48.0 L-106.04500000000002,-48.0 L-101.58000000000001,-48.0 L-97.11500000000001,-48.0 L-92.65000000000002,-48.0 L-88.18500000000002,-48.0 L-81.48500000000001,-48.0 L-81.48500000000001,-43.535 L-81.48500000000001,-39.07 L-81.48500000000001,-34.605000000000004 L-81.48500000000001,-30.14 L-81.48500000000001,-25.675 L-81.48500000000001,-21.21 L-81.48500000000001,-16.745 L-81.48500000000001,-12.280000000000001 L-81.48500000000001,-7.814999999999998 L-81.48500000000001,-3.3500000000000014 L-81.48500000000001,1.1149999999999949 L-81.48500000000001,5.579999999999998 L-81.48500000000001,10.045000000000002 L-81.48500000000001,14.509999999999998 L-81.48500000000001,18.974999999999994 L-81.48500000000001,23.439999999999998 L-81.48500000000001,27.905 L-81.48500000000001,32.370000000000005 L-81.48500000000001,36.834999999999994 L-81.48500000000001,41.3 L-81.48500000000001,48.0 L-85.95000000000002,48.0 L-90.41500000000002,48.0 L-94.88000000000001,48.0 L-99.34500000000001,48.0 L-103.81000000000002,48.0 L-108.275,48.0 L-112.74000000000001,48.0 L-117.20500000000001,48.0 L-121.67000000000002,48.0 L-126.13500000000002,48.0 L-130.60000000000002,48.0 L-135.065,48.0 L-139.53000000000003,48.0 L-143.995,48.0 L-148.46,48.0 L-152.925,48.0 L-157.39000000000001,48.0 L-161.85500000000002,48.0 L-166.32,48.0 L-170.78500000000003,48.0 L-175.25,48.0 L-181.485,48.0 L-181.485,43.535 L-181.485,39.07 L-181.485,34.605000000000004 L-181.485,30.14 L-181.485,25.675 L-181.485,21.21 L-181.485,16.745 L-181.485,12.280000000000001 L-181.485,7.814999999999998 L-181.485,3.3500000000000014 L-181.485,-1.1149999999999949 L-181.485,-5.579999999999998 L-181.485,-10.045000000000002 L-181.485,-14.509999999999998 L-181.485,-18.974999999999994 L-181.485,-23.439999999999998 L-181.485,-27.905 L-181.485,-32.370000000000005 L-181.485,-36.834999999999994 L-181.485,-41.3 L-181.485,-45.765 L-181.485,-52.0 L-177.02,-52.0 L-172.555,-52.0 L-168.09,-52.0 L-163.625,-52.0 L-159.16000000000003,-52.0 L-154.69500000000002,-52.0 L-150.23000000000002,-52.0 L-145.76500000000001,-52.0 L-141.3,-52.0 L-136.835,-52.0 L-132.37,-52.0 L-127.90500000000002,-52.0 L-123.44000000000001,-52.0 L-118.97500000000002,-52.0 L-114.51000000000002,-52.0 L-110.04500000000002,-52.0 L-105.58000000000001,-52.0 L-101.11500000000001,-52.0 L-96.65000000000002,-52.0 L-92.18500000000002,-52.0 L-87.72000000000001,-52.0 L-83.25500000000002,-52.0 L-77.48500000000001,-52.0 L-77.48500000000001,-47.535 L-77.48500000000001,-43.07 L-77.48500000000001,-38.605000000000004 L-77.48500000000001,-34.14 L-77.48500000000001,-29.675 L-77.48500000000001,-25.21 L-77.48500000000001,-20.745 L-77.48500000000001,-16.28 L-77.48500000000001,-11.814999999999998 L-77.48500000000001,-7.350000000000001 L-77.48500000000001,-2.885000000000005 L-77.48500000000001,1.5799999999999983 L-77.48500000000001,6.045000000000002 L-77.48500000000001,10.509999999999998 L-77.48500000000001,14.974999999999994 L-77.48500000000001,19.439999999999998 L-77.48500000000001,23.905 L-77.48500000000001,28.370000000000005 L-77.48500000000001,32.834999999999994 L-77.48500000000001,37.3 L-77.48500000000001,41.765 L-77.48500000000001,46.22999999999999 L-77.48500000000001,52.0 L-81.95000000000002,52.0 L-86.41500000000002,52.0 L-90.88000000000001,52.0 L-95.34500000000001,52.0 L-99.81000000000002,52.0 L-104.275,52.0 L-108.74000000000001,52.0 L-113.20500000000001,52.0 L-117.67000000000002,52.0 L-122.13500000000002,52.0 L-126.60000000000001,52.0 L-131.065,52.0 L-135.53000000000003,52.0 L-139.995,52.0 L-144.46,52.0 L-148.925,52.0 L-153.39000000000001,52.0 L-157.85500000000002,52.0 L-162.32,52.0 L-166.78500000000003,52.0 L-171.25,52.0 L-175.715,52.0 L-180.18,52.0 L-185.485,52.0 L-185.485,47.535 L-185.485,43.07 L-185.485,38.605000000000004 L-185.485,34.14 L-185.485,29.675 L-185.485,25.21 L-185.485,20.745 L-185.485,16.28 L-185.485,11.814999999999998 L-185.485,7.350000000000001 L-185.485,2.885000000000005 L-185.485,-1.5799999999999983 L-185.485,-6.045000000000002 L-185.485,-10.509999999999998 L-185.485,-14.974999999999994 L-185.485,-19.439999999999998 L-185.485,-23.905 L-185.485,-28.370000000000005 L-185.485,-32.834999999999994 L-185.485,-37.3 L-185.485,-41.765 L-185.485,-46.22999999999999 L-185.485,-50.69499999999999 L-185.485,-56.0 L-181.02,-56.0 L-176.555,-56.0 L-172.09,-56.0 L-167.625,-56.0 L-163.16000000000003,-56.0 L-158.69500000000002,-56.0 L-154.23000000000002,-56.0 L-149.76500000000001,-56.0 L-145.3,-56.0 L-140.835,-56.0 L-136.37,-56.0 L-131.90500000000003,-56.0 L-127.44000000000001,-56.0 L-122.97500000000002,-56.0 L-118.51000000000002,-56.0 L-114.04500000000002,-56.0 L-109.58000000000001,-56.0 L-105.11500000000001,-56.0 L-100.65000000000002,-56.0 L-96.18500000000002,-56.0 L-91.72000000000001,-56.0 L-87.25500000000002,-56.0 L-82.79000000000002,-56.0 L-78.32500000000002,-56.0 L-73.48500000000001,-56.0 L-73.48500000000001,-51.535 L-73.48500000000001,-47.07 L-73.48500000000001,-42.605000000000004 L-73.48500000000001,-38.14 L-73.48500000000001,-33.675 L-73.48500000000001,-29.21 L-73.48500000000001,-24.745 L-73.48500000000001,-20.28 L-73.48500000000001,-15.814999999999998 L-73.48500000000001,-11.350000000000001 L-73.48500000000001,-6.885000000000005 L-73.48500000000001,-2.4200000000000017 L-73.48500000000001,2.0450000000000017 L-73.48500000000001,6.509999999999998 L-73.48500000000001,10.974999999999994 L-73.48500000000001,15.439999999999998 L-73.48500000000001,19.905 L-73.48500000000001,24.370000000000005 L-73.48500000000001,28.834999999999994 L-73.48500000000001,33.3 L-73.48500000000001,37.765 L-73.48500000000001,42.22999999999999 L-73.48500000000001,46.69499999999999 L-73.48500000000001,51.16 L-73.48500000000001,56.0 L-77.95000000000002,56.0 L-82.41500000000002,56.0 L-86.88000000000001,56.0 L-91.34500000000001,56.0 L-95.81000000000002,56.0 L-100.275,56.0 L-104.74000000000001,56.0 L-109.20500000000001,56.0 L-113.67000000000002,56.0 L-118.13500000000002,56.0 L-122.60000000000001,56.0 L-127.06500000000001,56.0 L-131.53000000000003,56.0 L-135.995,56.0 L-140.46,56.0 L-144.925,56.0 L-149.39000000000001,56.0 L-153.85500000000002,56.0 L-158.32,56.0 L-162.78500000000003,56.0 L-167.25,56.0 L-171.715,56.0 L-176.18,56.0 L-180.645,56.0 L-189.485,56.0 L-189.485,51.535 L-189.485,47.07 L-189.485,42.605000000000004 L-189.485,38.14 L-189.485,33.675 L-189.485,29.21 L-189.485,24.745 L-189.485,20.28 L-189.485,15.814999999999998 L-189.485,11.350000000000001 L-189.485,6.885000000000005 L-189.485,2.4200000000000017 L-189.485,-2.0450000000000017 L-189.485,-6.509999999999998 L-189.485,-10.974999999999994 L-189.485,-15.439999999999998 L-189.485,-19.905 L-189.485,-24.370000000000005 L-189.485,-28.834999999999994 L-189.485,-33.3 L-189.485,-37.765 L-189.485,-42.22999999999999 L-189.485,-46.69499999999999 L-189.485,-51.16 L-189.485,-60.0 L-185.02,-60.0 L-180.555,-60.0 L-176.09,-60.0 L-171.625,-60.0 L-167.16000000000003,-60.0 L-162.69500000000002,-60.0 L-158.23000000000002,-60.0 L-153.76500000000001,-60.0 L-149.3,-60.0 L-144.835,-60.0 L-140.37,-60.0 L-135.90500000000003,-60.0 L-131.44,-60.0 L-126.97500000000002,-60.0 L-122.51000000000002,-60.0 L-118.04500000000002,-60.0 L-113.58000000000001,-60.0 L-109.11500000000001,-60.0 L-104.65000000000002,-60.0 L-100.18500000000002,-60.0 L-95.72000000000001,-60.0 L-91.25500000000002,-60.0 L-86.79000000000002,-60.0 L-82.32500000000002,-60.0 L-77.86000000000001,-60.0 L-69.48500000000001,-60.0 L-69.48500000000001,-55.535 L-69.48500000000001,-51.07 L-69.48500000000001,-46.605000000000004 L-69.48500000000001,-42.14 L-69.48500000000001,-37.675 L-69.48500000000001,-33.21 L-69.48500000000001,-28.745 L-69.48500000000001,-24.28 L-69.48500000000001,-19.814999999999998 L-69.48500000000001,-15.350000000000001 L-69.48500000000001,-10.885000000000005 L-69.48500000000001,-4.0 L0,-4.0 L4.465,-4.0 L4.465,-8.465 L4.465,-12.93 L0.0,-12.93 L-4.465,-12.93 L-4.465,-8.465 L-4.465,-4.0 L0,-4.0" stroke-width="0.202" stroke="black" fill-opacity="0" />
</svg>