<?xml version="1.0" encoding="UTF-8"?>
<svg xmlns="http://www.w3.org/2000/svg" xmlns:xlink="http://www.w3.org/1999/xlink"
     width="200" height="200" viewBox="-100.0 -100.0 200 200" displayInline="False">
<defs>
</defs>
<path d="M95,0 L4.465,0.0 L4.465,4.465 L4.465,8.93 L0.0,8.93 L-4.465,8.93 L-4.465,4.465 L-4.465,0.0 L0,0.0 L-129.485,0.0 L-133.95000000000002,0.0 L-138.41500000000002,0.0 L-142.88000000000002,0.0 L-147.34500000000003,0.0 L-151.81,0.0 L-156.275,0.0 L-160.74,0.0 L-169.485,0.0 L-169.485,-4.465 L-169.485,-8.93 L-169.485,-13.395 L-169.485,-17.86 L-169.485,-22.325 L-169.485,-26.79 L-169.485,-31.255 L-169.485,-40.0 L-165.02,-40.0 L-160.555,-40.0 L-156.09,-40.0 L-151.625,-40.0 L-147.16000000000003,-40.0 L-142.69500000000002,-40.0 L-138.23000000000002,-40.0 L-133.76500000000001,-40.0 L-129.3,-40.0 L-124.83500000000001,-40.0 L-120.37000000000002,-40.0 L-115.90500000000002,-40.0 L-111.44000000000001,-40.0 L-106.97500000000002,-40.0 L-102.51000000000002,-40.0 L-98.04500000000002,-40.0 L-89.48500000000001,-40.0 L-89.48500000000001,-35.535 L-89.48500000000001,-31.07 L-89.48500000000001,-26.605 L-89.48500000000001,-22.14 L-89.48500000000001,-17.675 L-89.48500000000001,-13.21 L-89.48500000000001,-8.745000000000001 L-89.48500000000001,-4.280000000000001 L-89.48500000000001,0.18500000000000227 L-89.48500000000001,4.649999999999999 L-89.48500000000001,9.114999999999995 L-89.48500000000001,13.579999999999998 L-89.48500000000001,18.045 L-89.48500000000001,22.509999999999998 L-89.48500000000001,26.974999999999994 L-89.48500000000001,31.439999999999998 L-89.48500000000001,40.0 L-93.95000000000002,40.0 L-98.41500000000002,40.0 L-102.88000000000001,40.0 L-107.34500000000001,40.0 L-111.81000000000002,40.0 L-116.275,40.0 L-120.74000000000001,40.0 L-125.20500000000001,40.0 L-129.67000000000002,40.0 L-134.13500000000002,40.0 L-138.60000000000002,40.0 L-143.065,40.0 L-147.53000000000003,40.0 L-151.995,40.0 L-156.46,40.0 L-160.925,40.0 L-165.39000000000001,40.0 L-173.485,40.0 L-173.485,35.535 L-173.485,31.07 L-173.485,26.605 L-173.485,22.14 L-173.485,17.675 L-173.485,13.21 L-173.485,8.745000000000001 L-173.485,4.280000000000001 L-173.485,-0.18500000000000227 L-173.485,-4.649999999999999 L-173.485,-9.114999999999995 L-173.485,-13.579999999999998 L-173.485,-18.045 L-173.485,-22.509999999999998 L-173.485,-26.974999999999994 L-173.485,-31.439999999999998 L-173.485,-35.905 L-173.485,-44.0 L-169.02,-44.0 L-164.555,-44.0 L-160.09,-44.0 L-155.625,-44.0 L-151.16000000000003,-44.0 L-146.69500000000002,-44.0 L-142.23000000000002,-44.0 L-137.76500000000001,-44.0 L-133.3,-44.0 L-128.835,-44.0 L-124.37000000000002,-44.0 L-119.90500000000002,-44.0 L-115.44000000000001,-44.0 L-110.97500000000002,-44.0 L-106.51000000000002,-44.0 L-102.04500000000002,-44.0 L-97.58000000000001,-44.0 L-93.11500000000001,-44.0 L-85.48500000000001,-44.0 L-85.48500000000001,-39.535 L-85.48500000000001,-35.07 L-85.48500000000001,-30.605 L-85.48500000000001,-26.14 L-85.48500000000001,-21.675 L-85.48500000000001,-17.21 L-85.48500000000001,-12.745000000000001 L-85.48500000000001,-8.280000000000001 L-85.48500000000001,-3.8149999999999977 L-85.48500000000001,0.6499999999999986 L-85.48500000000001,5.114999999999995 L-85.48500000000001,9.579999999999998 L-85.48500000000001,14.045000000000002 L-85.48500000000001,18.509999999999998 L-85.48500000000001,22.974999999999994 L-85.48500000000001,27.439999999999998 L-85.48500000000001,31.905 L-85.48500000000001,36.370000000000005 L-85.48500000000001,44.0 L-89.95000000000002,44.0 L-94.41500000000002,44.0 L-98.88000000000001,44.0 L-103.34500000000001,44.0 L-107.81000000000002,44.0 L-112.275,44.0 L-116.74000000000001,44.0 L-121.20500000000001,44.0 L-125.67000000000002,44.0 L-130.13500000000002,44.0 L-134.60000000000002,44.0 L-139.065,44.0 L-143.53000000000003,44.0 L-147.995,44.0 L-152.46,44.0 L-156.925,44.0 L-161.39000000000001,44.0 L-165.85500000000002,44.0 L-170.32,44.0 L-177.485,44.0 L-177.485,39.535 L-177.485,35.07 L-177.485,30.605 L-177.485,26.14 L-177.485,21.675 L-177.485,17.21 L-177.485,12.745000000000001 L-177.485,8.280000000000001 L-177.485,3.8149999999999977 L-177.485,-0.6499999999999986 L-177.485,-5.114999999999995 L-177.485,-9.579999999999998 L-177.485,-14.045000000000002 L-177.485,-18.509999999999998 L-177.485,-22.974999999999994 L-177.485,-27.439999999999998 L-177.485,-31.905 L-177.485,-36.370000000000005 L-177.485,-40.834999999999994 L-177.485,-48.0 L-173.02,-48.0 L-168.555,-48.0 L-164.09,-48.0 L-159.625,-48.0 L-155.16000000000003,-48.0 L-150.69500000000002,-48.0 L-146.23000000000002,-48.0 L-141.76500000000001,-48.0 L-137.3,-48.0 L-132.835,-48.0 L-128.37,-48.0 L-123.90500000000002,-48.0 L-119.44000000000001,-48.0 L-114.97500000000002,-48.0 L-110.51000000000002,-48.0 L-106.04500000000002,-48.0 L-101.58000000000001,-48.0 L-97.11500000000001,-48.0 L-92.65000000000002,-48.0 L-88.18500000000002,-48.0 L-81.48500000000001,-48.0 L-81.48500000000001,-43.535 L-81.48500000000001,-39.07 L-81.48500000000001,-34.605000000000004 L-81.48500000000001,-30.14 L-81.48500000000001,-25.675 L-81.48500000000001,-21.21 L-81.48500000000001,-16.745 L-81.48500000000001,-12.280000000000001 L-81.48500000000001,-7.814999999999998 L-81.48500000000001,-3.3500000000000014 L-81.48500000000001,1.1149999999999949 L-81.48500000000001,5.579999999999998 L-81.48500000000001,10.045000000000002 L-81.48500000000001,14.509999999999998 L-81.48500000000001,18.974999999999994 L-81.48500000000001,23.439999999999998 L-81.48500000000001,27.905 L-81.48500000000001,32.370000000000005 L-81.48500000000001,36.834999999999994 L-81.48500000000001,41.3 L-81.48500000000001,48.0 L-85.95000000000002,48.0 L-90.41500000000002,48.0 L-94.88000000000001,48.0 L-99.34500000000001,48.0 L-103.81000000000002,48.0 L-108.275,48.0 L-112.74000000000001,48.0 L-117.20500000000001,48.0 L-121.67000000000002,48.0 L-126.13500000000002,48.0 L-130.60000000000002,48.0 L-135.065,48.0 L-139.53000000000003,48.0 L-143.995,48.0 L-148.46,48.0 L-152.925,48.0 L-157.39000000000001,48.0 L-161.85500000000002,48.0 L-166.32,48.0 L-170.78500000000003,48.0 L-175.25,48.0 L-181.485,48.0 L-181.485,43.535 L-181.485,39.07 L-181.485,34.605000000000004 L-181.485,30.14 L-181.485,25.675 L-181.485,21.21 L-181.485,16.745 L-181.485,12.280000000000001 L-181.485,7.814999999999998 L-181.485,3.3500000000000014 L-181.485,-1.1149999999999949 L-181.485,-5.579999999999998 L-181.485,-10.045000000000002 L-181.485,-14.509999999999998 L-181.485,-18.974999999999994 L-181.485,-23.439999999999998 L-181.485,-27.905 L-181.485,-32.370000000000005 L-181.485,-36.834999999999994 L-181.485,-41.3 L-181.485,-45.765 L-181.485,-52.0 L-177.02,-52.0 L-172.555,-52.0 L-168.09,-52.0 L-163.625,-52.0 L-159.16000000000003,-52.0 L-154.69500000000002,-52.0 L-150.23000000000002,-52.0 L-145.76500000000001,-52.0 L-141.3,-52.0 L-136.835,-52.0 L-132.37,-52.0 L-127.90500000000002,-52.0 L-123.44000000000001,-52.0 L-118.97500000000002,-52.0 L-114.51000000000002,-52.0 L-110.04500000000002,-52.0 L-105.58000000000001,-52.0 L-101.11500000000001,-52.0 L-96.65000000000002,-52.0 L-92.18500000000002,-52.0 L-87.72000000000001,-52.0 L-83.25500000000002,-52.0 L-77.48500000000001,-52.0 L-77.48500000000001,-47.535 L-77.48500000000001,-43.07 L-77.48500000000001,-38.605000000000004 L-77.48500000000001,-34.14 L-77.48500000000001,-29.675 L-77.48500000000001,-25.21 L-77.48500000000001,-20.745 L-77.48500000000001,-16.28 L-77.48500000000001,-11.814999999999998 L-77.48500000000001,-7.350000000000001 L-77.48500000000001,-2.885000000000005 L-77.48500000000001,1.5799999999999983 L-77.48500000000001,6.045000000000002 L-77.48500000000001,10.509999999999998 L-77.48500000000001,14.974999999999994 L-77.48500000000001,19.439999999999998 L-77.48500000000001,23.905 L-77.48500000000001,28.370000000000005 L-77.48500000000001,32.834999999999994 L-77.48500000000001,37.3 L-77.48500000000001,41.765 L-77.48500000000001,46.22999999999999 L-77.48500000000001,52.0 L-81.95000000000002,52.0 L-86.41500000000002,52.0 L-90.88000000000001,52.0 L-95.34500000000001,52.0 L-99.81000000000002,52.0 L-104.275,52.0 L-108.74000000000001,52.0 L-113.20500000000001,52.0 L-117.67000000000002,52.0 L-122.13500000000002,52.0 L-126.60000000000001,52.0 L-131.065,52.0 L-135.53000000000003,52.0 L-139.995,52.0 L-144.46,52.0 L-148.925,52.0 L-153.39000000000001,52.0 L-157.85500000000002,52.0 L-162.32,52.0 L-166.78500000000003,52.0 L-171.25,52.0 L-175.715,52.0 L-180.18,52.0 L-185.485,52.0 L-185.485,47.535 L-185.485,43.07 L-185.485,38.605000000000004 L-185.485,34.14 L-185.485,29.675 L-185.485,25.21 L-185.485,20.745 L-185.485,16.28 L-185.485,11.814999999999998 L-185.485,7.350000000000001 L-185.485,2.885000000000005 L-185.485,-1.5799999999999983 L-185.485,-6.045000000000002 L-185.485,-10.509999999999998 L-185.485,-14.974999999999994 L-185.485,-19.439999999999998 L-185.485,-23.905 L-185.485,-28.370000000000005 L-185.485,-32.834999999999994 L-185.485,-37.3 L-185.485,-41.765 L-185.485,-46.22999999999999 L-185.485,-50.69499999999999 L-185.485,-56.0 L-181.02,-56.0 L-176.555,-56.0 L-172.09,-56.0 L-167.625,-56.0 L-163.16000000000003,-56.0 L-158.69500000000002,-56.0 L-154.23000000000002,-56.0 L-149.76500000000001,-56.0 L-145.3,-56.0 L-140.835,-56.0 L-136.37,-56.0 L-131.90500000000003,-56.0 L-127.44000000000001,-56.0 L-122.97500000000002,-56.0 L-118.51000000000002,-56.0 L-114.04500000000002,-56.0 L-109.58000000000001,-56.0 L-105.11500000000001,-56.0 L-100.65000000000002,-56.0 L-96.18500000000002,-56.0 L-91.72000000000001,-56.0 L-87.25500000000002,-56.0 L-82.79000000000002,-56.0 L-78.32500000000002,-56.0 L-73.48500000000001,-56.0 L-73.48500000000001,-51.535 L-73.48500000000001,-47.07 L-73.48500000000001,-42.605000000000004 L-73.48500000000001,-38.14 L-73.48500000000001,-33.675 L-73.48500000000001,-29.21 L-73.48500000000001,-24.745 L-73.48500000000001,-20.28 L-73.48500000000001,-15.814999999999998 L-73.48500000000001,-11.350000000000001 L-73.48500000000001,-6.885000000000005 L-73.48500000000001,-2.4200000000000017 L-73.48500000000001,2.0450000000000017 L-73.48500000000001,6.509999999999998 L-73.48500000000001,10.974999999999994 L-73.48500000000001,15.439999999999998 L-73.48500000000001,19.905 L-73.48500000000001,24.370000000000005 L-73.48500000000001,28.834999999999994 L-73.48500000000001,33.3 L-73.48500000000001,37.765 L-73.48500000000001,42.22999999999999 L-73.48500000000001,46.69499999999999 L-73.48500000000001,51.16 L-73.48500000000001,56.0 L-77.95000000000002,56.0 L-82.41500000000002,56.0 L-86.88000000000001,56.0 L-91.34500000000001,56.0 L-95.81000000000002,56.0 L-100.275,56.0 L-104.74000000000001,56.0 L-109.20500000000001,56.0 L-113.67000000000002,56.0 L-118.13500000000002,56.0 L-122.60000000000001,56.0 L-127.06500000000001,56.0 L-131.53000000000003,56.0 L-135.995,56.0 L-140.46,56.0 L-144.925,56.0 L-149.39000000000001,56.0 L-153.85500000000002,56.0 L-158.32,56.0 L-162.78500000000003,56.0 L-167.25,56.0 L-171.715,56.0 L-176.18,56.0 L-180.645,56.0 L-189.485,56.0 L-189.485,51.535 L-189.485,47.07 L-189.485,42.605000000000004 L-189.485,38.14 L-189.485,33.675 L-189.485,29.21 L-189.485,24.745 L-189.485,20.28 L-189.485,15.814999999999998 L-189.485,11.350000000000001 L-189.485,6.885000000000005 L-189.485,2.4200000000000017 L-189.485,-2.0450000000000017 L-189.485,-6.509999999999998 L-189.485,-10.974999999999994 L-189.485,-15.439999999999998 L-189.485,-19.905 L-189.485,-24.370000000000005 L-189.485,-28.834999999999994 L-189.485,-33.3 L-189.485,-37.765 L-189.485,-42.22999999999999 L-189.485,-46.69499999999999 L-189.485,-51.16 L-189.485,-60.0 L-185.02,-60.0 L-180.555,-60.0 L-176.09,-60.0 L-171.625,-60.0 L-167.16000000000003,-60.0 L-162.69500000000002,-60.0 L-158.23000000000002,-60.0 L-153.76500000000001,-60.0 L-149.3,-60.0 L-144.835,-60.0 L-140.37,-60.0 L-135.90500000000003,-60.0 L-131.44,-60.0 L-126.97500000000002,-60.0 L-122.51000000000002,-60.0 L-118.04500000000002,-60.0 L-113.58000000000001,-60.0 L-109.11500000000001,-60.0 L-104.65000000000002,-60.0 L-100.18500000000002,-60.0 L-95.72000000000001,-60.0 L-91.25500000000002,-60.0 L-86.79000000000002,-60.0 L-82.32500000000002,-60.0 L-77.86000000000001,-60.0 L-69.48500000000001,-60.0 L-69.48500000000001,-55.535 L-69.48500000000001,-51.07 L-69.48500000000001,-46.605000000000004 L-69.48500000000001,-42.14 L-69.48500000000001,-37.675 L-69.48500000000001,-33.21 L-69.48500000000001,-28.745 L-69.48500000000001,-24.28 L-69.48500000000001,-19.814999999999998 L-69.48500000000001,-15.350000000000001 L-69.48500000000001,-10.885000000000005 L-69.48500000000001,-6.420000000000002 L-69.48500000000001,-1.9549999999999983 L-69.48500000000001,2.509999999999998 L-69.48500000000001,6.974999999999994 L-69.48500000000001,11.439999999999998 L-69.48500000000001,15.905000000000001 L-69.48500000000001,20.370000000000005 L-69.48500000000001,24.834999999999994 L-69.48500000000001,29.299999999999997 L-69.48500000000001,33.765 L-69.48500000000001,38.22999999999999 L-69.48500000000001,42.69499999999999 L-69.48500000000001,47.16 L-69.48500000000001,51.625 L-69.48500000000001,60.0 L-73.95000000000002,60.0 L-78.41500000000002,60.0 L-82.88000000000001,60.0 L-87.34500000000001,60.0 L-91.81000000000002,60.0 L-96.275,60.0 L-100.74000000000001,60.0 L-105.20500000000001,60.0 L-109.67000000000002,60.0 L-114.13500000000002,60.0 L-118.60000000000001,60.0 L-123.06500000000001,60.0 L-127.53000000000002,60.0 L-131.995,60.0 L-136.46,60.0 L-140.925,60.0 L-145.39000000000001,60.0 L-149.85500000000002,60.0 L-154.32,60.0 L-158.78500000000003,60.0 L-163.25,60.0 L-167.715,60.0 L-172.18,60.0 L-176.645,60.0 L-181.11,60.0 L-185.57500000000002,60.0 L-193.485,60.0 L-193.485,55.535 L-193.485,51.07 L-193.485,46.605000000000004 L-193.485,42.14 L-193.485,37.675 L-193.485,33.21 L-193.485,28.745 L-193.485,24.28 L-193.485,19.814999999999998 L-193.485,15.350000000000001 L-193.485,10.885000000000005 L-193.485,6.420000000000002 L-193.485,1.9549999999999983 L-193.485,-2.509999999999998 L-193.485,-6.974999999999994 L-193.485,-11.439999999999998 L-193.485,-15.905000000000001 L-193.485,-20.370000000000005 L-193.485,-24.834999999999994 L-193.485,-29.299999999999997 L-193.485,-33.765 L-193.485,-38.22999999999999 L-193.485,-42.69499999999999 L-193.485,-47.16 L-193.485,-51.625 L-193.485,-56.09 L-193.485,-64.0 L-189.02,-64.0 L-184.555,-64.0 L-180.09,-64.0 L-175.625,-64.0 L-171.16000000000003,-64.0 L-166.69500000000002,-64.0 L-162.23000000000002,-64.0 L-157.76500000000001,-64.0 L-153.3,-64.0 L-148.835,-64.0 L-144.37,-64.0 L-139.90500000000003,-64.0 L-135.44,-64.0 L-130.97500000000002,-64.0 L-126.51000000000002,-64.0 L-122.04500000000002,-64.0 L-117.58000000000001,-64.0 L-113.11500000000001,-64.0 L-108.65000000000002,-64.0 L-104.18500000000002,-64.0 L-99.72000000000001,-64.0 L-95.25500000000002,-64.0 L-90.79000000000002,-64.0 L-86.32500000000002,-64.0 L-81.86000000000001,-64.0 L-77.39500000000001,-64.0 L-72.93000000000002,-64.0 L-65.48500000000001,-64.0 L-65.48500000000001,-59.535 L-65.48500000000001,-55.07 L-65.48500000000001,-50.605000000000004 L-65.48500000000001,-46.14 L-65.48500000000001,-41.675 L-65.48500000000001,-37.21 L-65.48500000000001,-32.745000000000005 L-65.48500000000001,-28.28 L-65.48500000000001,-23.814999999999998 L-65.48500000000001,-19.35 L-65.48500000000001,-14.885000000000005 L-65.48500000000001,-10.420000000000002 L-65.48500000000001,-5.954999999999998 L-65.48500000000001,-1.490000000000002 L-65.48500000000001,2.9749999999999943 L-65.48500000000001,7.439999999999998 L-65.48500000000001,11.905000000000001 L-65.48500000000001,16.370000000000005 L-65.48500000000001,20.834999999999994 L-65.48500000000001,25.299999999999997 L-65.48500000000001,29.765 L-65.48500000000001,34.22999999999999 L-65.48500000000001,38.69499999999999 L-65.48500000000001,43.16 L-65.48500000000001,47.625 L-65.48500000000001,52.09 L-65.48500000000001,56.55499999999999 L-65.48500000000001,64.0 L-69.95000000000002,64.0 L-74.41500000000002,64.0 L-78.88000000000001,64.0 L-83.34500000000001,64.0 L-87.81000000000002,64.0 L-92.275,64.0 L-96.74000000000001,64.0 L-101.20500000000001,64.0 L-105.67000000000002,64.0 L-110.13500000000002,64.0 L-114.60000000000001,64.0 L-119.06500000000001,64.0 L-123.53000000000002,64.0 L-127.995,64.0 L-132.46,64.0 L-136.925,64.0 L-141.39000000000001,64.0 L-145.85500000000002,64.0 L-150.32,64.0 L-154.78500000000003,64.0 L-159.25,64.0 L-163.715,64.0 L-168.18,64.0 L-172.645,64.0 L-177.11,64.0 L-181.57500000000002,64.0 L-186.04000000000002,64.0 L-190.505,64.0 L-197.485,64.0 L-197.485,59.535 L-197.485,55.07 L-197.485,50.605000000000004 L-197.485,46.14 L-197.485,41.675 L-197.485,37.21 L-197.485,32.745000000000005 L-197.485,28.28 L-197.485,23.814999999999998 L-197.485,19.35 L-197.485,14.885000000000005 L-197.485,10.420000000000002 L-197.485,5.954999999999998 L-197.485,1.490000000000002 L-197.485,-2.9749999999999943 L-197.485,-7.439999999999998 L-197.485,-11.905000000000001 L-197.485,-16.370000000000005 L-197.485,-20.834999999999994 L-197.485,-25.299999999999997 L-197.485,-29.765 L-197.485,-34.22999999999999 L-197.485,-38.69499999999999 L-197.485,-43.16 L-197.485,-47.625 L-197.485,-52.09 L-197.485,-56.55499999999999 L-197.485,-61.019999999999996 L-197.485,-68.0 L-193.02,-68.0 L-188.555,-68.0 L-184.09,-68.0 L-179.625,-68.0 L-175.16000000000003,-68.0 L-170.69500000000002,-68.0 L-166.23000000000002,-68.0 L-161.76500000000001,-68.0 L-157.3,-68.0 L-152.835,-68.0 L-148.37,-68.0 L-143.90500000000003,-68.0 L-139.44,-68.0 L-134.97500000000002,-68.0 L-130.51000000000002,-68.0 L-126.04500000000002,-68.0 L-121.58000000000001,-68.0 L-117.11500000000001,-68.0 L-112.65000000000002,-68.0 L-108.18500000000002,-68.0 L-103.72000000000001,-68.0 L-99.25500000000002,-68.0 L-94.79000000000002,-68.0 L-90.32500000000002,-68.0 L-85.86000000000001,-68.0 L-81.39500000000001,-68.0 L-76.93000000000002,-68.0 L-72.46500000000002,-68.0 L-68.00000000000003,-68.0 L-61.485000000000014,-68.0 L-61.485000000000014,-63.535 L-61.485000000000014,-59.07 L-61.485000000000014,-54.605000000000004 L-61.485000000000014,-50.14 L-61.485000000000014,-45.675 L-61.485000000000014,-41.21 L-61.485000000000014,-36.745000000000005 L-61.485000000000014,-32.28 L-61.485000000000014,-27.814999999999998 L-61.485000000000014,-23.35 L-61.485000000000014,-18.885000000000005 L-61.485000000000014,-14.420000000000002 L-61.485000000000014,-9.954999999999998 L-61.485000000000014,-5.490000000000002 L-61.485000000000014,-1.0250000000000057 L-61.485000000000014,3.4399999999999977 L-61.485000000000014,7.905000000000001 L-61.485000000000014,12.370000000000005 L-61.485000000000014,16.834999999999994 L-61.485000000000014,21.299999999999997 L-61.485000000000014,25.765 L-61.485000000000014,30.22999999999999 L-61.485000000000014,34.69499999999999 L-61.485000000000014,39.16 L-61.485000000000014,43.625 L-61.485000000000014,48.09 L-61.485000000000014,52.55499999999999 L-61.485000000000014,57.019999999999996 L-61.485000000000014,61.484999999999985 L-61.485000000000014,68.0 L-65.95000000000002,68.0 L-70.41500000000002,68.0 L-74.88000000000001,68.0 L-79.34500000000001,68.0 L-83.81000000000002,68.0 L-88.275,68.0 L-92.74000000000001,68.0 L-97.20500000000001,68.0 L-101.67000000000002,68.0 L-106.13500000000002,68.0 L-110.60000000000001,68.0 L-115.06500000000001,68.0 L-119.53000000000002,68.0 L-123.995,68.0 L-128.46,68.0 L-132.925,68.0 L-137.39000000000001,68.0 L-141.85500000000002,68.0 L-146.32,68.0 L-150.78500000000003,68.0 L-155.25,68.0 L-159.715,68.0 L-164.18,68.0 L-168.645,68.0 L-173.11,68.0 L-177.57500000000002,68.0 L-182.04000000000002,68.0 L-186.505,68.0 L-190.97,68.0 L-195.435,68.0 L-201.485,68.0 L-201.485,63.535 L-201.485,59.07 L-201.485,54.605000000000004 L-201.485,50.14 L-201.485,45.675 L-201.485,41.21 L-201.485,36.745000000000005 L-201.485,32.28 L-201.485,27.814999999999998 L-201.485,23.35 L-201.485,18.885000000000005 L-201.485,14.420000000000002 L-201.485,9.954999999999998 L-201.485,5.490000000000002 L-201.485,1.0250000000000057 L-201.485,-3.4399999999999977 L-201.485,-7.905000000000001 L-201.485,-12.370000000000005 L-201.485,-16.834999999999994 L-201.485,-21.299999999999997 L-201.485,-25.765 L-201.485,-30.22999999999999 L-201.485,-34.69499999999999 L-201.485,-39.16 L-201.485,-43.625 L-201.485,-48.09 L-201.485,-52.55499999999999 L-201.485,-57.019999999999996 L-201.485,-61.484999999999985 L-201.485,-65.94999999999999 L-201.485,-72.0 L-197.02,-72.0 L-192.555,-72.0 L-188.09,-72.0 L-183.625,-72.0 L-179.16000000000003,-72.0 L-174.69500000000002,-72.0 L-170.23000000000002,-72.0 L-165.76500000000001,-72.0 L-161.3,-72.0 L-156.835,-72.0 L-152.37,-72.0 L-147.90500000000003,-72.0 L-143.44,-72.0 L-138.97500000000002,-72.0 L-134.51000000000002,-72.0 L-130.04500000000002,-72.0 L-125.58000000000001,-72.0 L-121.11500000000001,-72.0 L-116.65000000000002,-72.0 L-112.18500000000002,-72.0 L-107.72000000000001,-72.0 L-103.25500000000002,-72.0 L-98.79000000000002,-72.0 L-94.32500000000002,-72.0 L-89.86000000000001,-72.0 L-85.39500000000001,-72.0 L-80.93000000000002,-72.0 L-76.46500000000002,-72.0 L-72.00000000000003,-72.0 L-67.53500000000003,-72.0 L-63.07000000000002,-72.0 L-57.485000000000014,-72.0 L-57.485000000000014,-67.535 L-57.485000000000014,-63.07 L-57.485000000000014,-58.605000000000004 L-57.485000000000014,-54.14 L-57.485000000000014,-49.675 L-57.485000000000014,-45.21 L-57.485000000000014,-40.745000000000005 L-57.485000000000014,-36.28 L-57.485000000000014,-31.814999999999998 L-57.485000000000014,-27.35 L-57.485000000000014,-22.885000000000005 L-57.485000000000014,-18.42 L-57.485000000000014,-13.954999999999998 L-57.485000000000014,-9.490000000000002 L-57.485000000000014,-5.025000000000006 L-57.485000000000014,-0.5600000000000023 L-57.485000000000014,3.905000000000001 L-57.485000000000014,8.370000000000005 L-57.485000000000014,12.834999999999994 L-57.485000000000014,17.299999999999997 L-57.485000000000014,21.765 L-57.485000000000014,26.22999999999999 L-57.485000000000014,30.694999999999993 L-57.485000000000014,35.16 L-57.485000000000014,39.625 L-57.485000000000014,44.09 L-57.485000000000014,48.55499999999999 L-57.485000000000014,53.019999999999996 L-57.485000000000014,57.484999999999985 L-57.485000000000014,61.94999999999999 L-57.485000000000014,66.41499999999999 L-57.485000000000014,72.0 L-61.95000000000002,72.0 L-66.41500000000002,72.0 L-70.88000000000001,72.0 L-75.34500000000001,72.0 L-79.81000000000002,72.0 L-84.275,72.0 L-88.74000000000001,72.0 L-93.20500000000001,72.0 L-97.67000000000002,72.0 L-102.13500000000002,72.0 L-106.60000000000001,72.0 L-111.06500000000001,72.0 L-115.53000000000002,72.0 L-119.995,72.0 L-124.46000000000001,72.0 L-128.925,72.0 L-133.39000000000001,72.0 L-137.85500000000002,72.0 L-142.32,72.0 L-146.78500000000003,72.0 L-151.25,72.0 L-155.715,72.0 L-160.18,72.0 L-164.645,72.0 L-169.11,72.0 L-173.57500000000002,72.0 L-178.04000000000002,72.0 L-182.505,72.0 L-186.97,72.0 L-191.435,72.0 L-195.9,72.0 L-200.365,72.0 L-205.485,72.0 L-205.485,67.535 L-205.485,63.07 L-205.485,58.605000000000004 L-205.485,54.14 L-205.485,49.675 L-205.485,45.21 L-205.485,40.745000000000005 L-205.485,36.28 L-205.485,31.814999999999998 L-205.485,27.35 L-205.485,22.885000000000005 L-205.485,18.42 L-205.485,13.954999999999998 L-205.485,9.490000000000002 L-205.485,5.025000000000006 L-205.485,0.5600000000000023 L-205.485,-3.905000000000001 L-205.485,-8.370000000000005 L-205.485,-12.834999999999994 L-205.485,-17.299999999999997 L-205.485,-21.765 L-205.485,-26.22999999999999 L-205.485,-30.694999999999993 L-205.485,-35.16 L-205.485,-39.625 L-205.485,-44.09 L-205.485,-48.55499999999999 L-205.485,-53.019999999999996 L-205.485,-57.484999999999985 L-205.485,-61.94999999999999 L-205.485,-66.41499999999999 L-205.485,-70.88 L-205.485,-76.0 L-201.02,-76.0 L-196.555,-76.0 L-192.09,-76.0 L-187.625,-76.0 L-183.16000000000003,-76.0 L-178.69500000000002,-76.0 L-174.23000000000002,-76.0 L-169.76500000000001,-76.0 L-165.3,-76.0 L-160.835,-76.0 L-156.37,-76.0 L-151.90500000000003,-76.0 L-147.44,-76.0 L-142.97500000000002,-76.0 L-138.51000000000002,-76.0 L-134.04500000000002,-76.0 L-129.58,-76.0 L-125.11500000000001,-76.0 L-120.65000000000002,-76.0 L-116.18500000000002,-76.0 L-111.72000000000001,-76.0 L-107.25500000000002,-76.0 L-102.79000000000002,-76.0 L-98.32500000000002,-76.0 L-93.86000000000001,-76.0 L-89.39500000000001,-76.0 L-84.93000000000002,-76.0 L-80.46500000000002,-76.0 L-76.00000000000003,-76.0 L-71.53500000000003,-76.0 L-67.07000000000002,-76.0 L-62.60500000000002,-76.0 L-58.140000000000015,-76.0 L-53.485000000000014,-76.0 L-53.485000000000014,-71.535 L-53.485000000000014,-67.07 L-53.485000000000014,-62.605000000000004 L-53.485000000000014,-58.14 L-53.485000000000014,-53.675 L-53.485000000000014,-49.21 L-53.485000000000014,-44.745000000000005 L-53.485000000000014,-40.28 L-53.485000000000014,-35.815 L-53.485000000000014,-31.35 L-53.485000000000014,-26.885000000000005 L-53.485000000000014,-22.42 L-53.485000000000014,-17.955 L-53.485000000000014,-13.490000000000002 L-53.485000000000014,-9.025000000000006 L-53.485000000000014,-4.560000000000002 L-53.485000000000014,-0.09499999999999886 L-53.485000000000014,4.3700000000000045 L-53.485000000000014,8.834999999999994 L-53.485000000000014,13.299999999999997 L-53.485000000000014,17.765 L-53.485000000000014,22.22999999999999 L-53.485000000000014,26.694999999999993 L-53.485000000000014,31.159999999999997 L-53.485000000000014,35.625 L-53.485000000000014,40.09 L-53.485000000000014,44.55499999999999 L-53.485000000000014,49.019999999999996 L-53.485000000000014,53.484999999999985 L-53.485000000000014,57.94999999999999 L-53.485000000000014,62.41499999999999 L-53.485000000000014,66.88 L-53.485000000000014,71.345 L-53.485000000000014,76.0 L-57.95000000000002,76.0 L-62.41500000000001,76.0 L-66.88000000000001,76.0 L-71.34500000000001,76.0 L-75.81000000000002,76.0 L-80.275,76.0 L-84.74000000000001,76.0 L-89.20500000000001,76.0 L-93.67000000000002,76.0 L-98.13500000000002,76.0 L-102.60000000000001,76.0 L-107.06500000000001,76.0 L-111.53000000000002,76.0 L-115.995,76.0 L-120.46000000000001,76.0 L-124.92500000000001,76.0 L-129.39000000000001,76.0 L-133.85500000000002,76.0 L-138.32,76.0 L-142.78500000000003,76.0 L-147.25,76.0 L-151.715,76.0 L-156.18,76.0 L-160.645,76.0 L-165.11,76.0 L-169.57500000000002,76.0 L-174.04000000000002,76.0 L-178.505,76.0 L-182.97,76.0 L-187.435,76.0 L-191.9,76.0 L-196.365,76.0 L-200.83,76.0 L-209.485,76.0 L-209.485,71.535 L-209.485,67.07 L-209.485,62.605000000000004 L-209.485,58.14 L-209.485,53.675 L-209.485,49.21 L-209.485,44.745000000000005 L-209.485,40.28 L-209.485,35.815 L-209.485,31.35 L-209.485,26.885000000000005 L-209.485,22.42 L-209.485,17.955 L-209.485,13.490000000000002 L-209.485,9.025000000000006 L-209.485,4.560000000000002 L-209.485,0.09499999999999886 L-209.485,-4.3700000000000045 L-209.485,-8.834999999999994 L-209.485,-13.299999999999997 L-209.485,-17.765 L-209.485,-22.22999999999999 L-209.485,-26.694999999999993 L-209.485,-31.159999999999997 L-209.485,-35.625 L-209.485,-40.09 L-209.485,-44.55499999999999 L-209.485,-49.019999999999996 L-209.485,-53.484999999999985 L-209.485,-57.94999999999999 L-209.485,-62.41499999999999 L-209.485,-66.88 L-209.485,-71.345 L-209.485,-80.0 L-205.02,-80.0 L-200.555,-80.0 L-196.09,-80.0 L-191.625,-80.0 L-187.16000000000003,-80.0 L-182.69500000000002,-80.0 L-178.23000000000002,-80.0 L-173.76500000000001,-80.0 L-169.3,-80.0 L-164.835,-80.0 L-160.37,-80.0 L-155.90500000000003,-80.0 L-151.44,-80.0 L-146.97500000000002,-80.0 L-142.51000000000002,-80.0 L-138.04500000000002,-80.0 L-133.58,-80.0 L-129.115,-80.0 L-124.65000000000002,-80.0 L-120.18500000000002,-80.0 L-115.72000000000001,-80.0 L-111.25500000000002,-80.0 L-106.79000000000002,-80.0 L-102.32500000000002,-80.0 L-97.86000000000001,-80.0 L-93.39500000000001,-80.0 L-88.93000000000002,-80.0 L-84.46500000000002,-80.0 L-80.00000000000003,-80.0 L-75.53500000000003,-80.0 L-71.07000000000002,-80.0 L-66.60500000000002,-80.0 L-62.140000000000015,-80.0 L-57.67500000000001,-80.0 L-49.485000000000014,-80.0 L-49.485000000000014,-75.535 L-49.485000000000014,-71.07 L-49.485000000000014,-66.605 L-49.485000000000014,-62.14 L-49.485000000000014,-57.675 L-49.485000000000014,-53.21 L-49.485000000000014,-48.745000000000005 L-49.485000000000014,-44.28 L-49.485000000000014,-39.815 L-49.485000000000014,-35.35 L-49.485000000000014,-30.885000000000005 L-49.485000000000014,-26.42 L-49.485000000000014,-21.955 L-49.485000000000014,-17.490000000000002 L-49.485000000000014,-13.025000000000006 L-49.485000000000014,-8.560000000000002 L-49.485000000000014,-4.094999999999999 L-49.485000000000014,0.37000000000000455 L-49.485000000000014,4.834999999999994 L-49.485000000000014,9.299999999999997 L-49.485000000000014,13.765 L-49.485000000000014,18.22999999999999 L-49.485000000000014,22.694999999999993 L-49.485000000000014,27.159999999999997 L-49.485000000000014,31.625 L-49.485000000000014,36.09 L-49.485000000000014,40.55499999999999 L-49.485000000000014,45.019999999999996 L-49.485000000000014,49.484999999999985 L-49.485000000000014,53.94999999999999 L-49.485000000000014,58.41499999999999 L-49.485000000000014,62.879999999999995 L-49.485000000000014,67.345 L-49.485000000000014,71.81 L-49.485000000000014,80.0 L-53.95000000000002,80.0 L-58.41500000000001,80.0 L-62.88000000000001,80.0 L-67.34500000000001,80.0 L-71.81000000000002,80.0 L-76.275,80.0 L-80.74000000000001,80.0 L-85.20500000000001,80.0 L-89.67000000000002,80.0 L-94.13500000000002,80.0 L-98.60000000000001,80.0 L-103.06500000000001,80.0 L-107.53000000000002,80.0 L-111.995,80.0 L-116.46000000000001,80.0 L-120.92500000000001,80.0 L-125.39000000000001,80.0 L-129.85500000000002,80.0 L-134.32,80.0 L-138.78500000000003,80.0 L-143.25,80.0 L-147.715,80.0 L-152.18,80.0 L-156.645,80.0 L-161.11,80.0 L-165.57500000000002,80.0 L-170.04000000000002,80.0 L-174.505,80.0 L-178.97,80.0 L-183.435,80.0 L-187.9,80.0 L-192.365,80.0 L-196.83,80.0 L-201.29500000000002,80.0 L-205.76000000000002,80.0 L-213.485,80.0 L-213.485,75.535 L-213.485,71.07 L-213.485,66.605 L-213.485,62.14 L-213.485,57.675 L-213.485,53.21 L-213.485,48.745000000000005 L-213.485,44.28 L-213.485,39.815 L-213.485,35.35 L-213.485,30.885000000000005 L-213.485,26.42 L-213.485,21.955 L-213.485,17.490000000000002 L-213.485,13.025000000000006 L-213.485,8.560000000000002 L-213.485,4.094999999999999 L-213.485,-0.37000000000000455 L-213.485,-4.834999999999994 L-213.485,-9.299999999999997 L-213.485,-13.765 L-213.485,-18.22999999999999 L-213.485,-22.694999999999993 L-213.485,-27.159999999999997 L-213.485,-31.625 L-213.485,-36.09 L-213.485,-40.55499999999999 L-213.485,-45.019999999999996 L-213.485,-49.484999999999985 L-213.485,-53.94999999999999 L-213.485,-58.41499999999999 L-213.485,-62.879999999999995 L-213.485,-67.345 L-213.485,-71.81 L-213.485,-76.275 L-213.485,-84.0 L-209.02,-84.0 L-204.555,-84.0 L-200.09,-84.0 L-195.625,-84.0 L-191.16000000000003,-84.0 L-186.69500000000002,-84.0 L-182.23000000000002,-84.0 L-177.76500000000001,-84.0 L-173.3,-84.0 L-168.835,-84.0 L-164.37,-84.0 L-159.90500000000003,-84.0 L-155.44,-84.0 L-150.97500000000002,-84.0 L-146.51000000000002,-84.0 L-142.04500000000002,-84.0 L-137.58,-84.0 L-133.115,-84.0 L-128.65000000000003,-84.0 L-124.18500000000002,-84.0 L-119.72000000000001,-84.0 L-115.25500000000002,-84.0 L-110.79000000000002,-84.0 L-106.32500000000002,-84.0 L-101.86000000000001,-84.0 L-97.39500000000001,-84.0 L-92.93000000000002,-84.0 L-88.46500000000002,-84.0 L-84.00000000000003,-84.0 L-79.53500000000003,-84.0 L-75.07000000000002,-84.0 L-70.60500000000002,-84.0 L-66.14000000000001,-84.0 L-61.67500000000001,-84.0 L-57.21000000000001,-84.0 L-52.745000000000005,-84.0 L-45.485000000000014,-84.0 L-45.485000000000014,-79.535 L-45.485000000000014,-75.07 L-45.485000000000014,-70.605 L-45.485000000000014,-66.14 L-45.485000000000014,-61.675 L-45.485000000000014,-57.21 L-45.485000000000014,-52.745000000000005 L-45.485000000000014,-48.28 L-45.485000000000014,-43.815 L-45.485000000000014,-39.35 L-45.485000000000014,-34.885000000000005 L-45.485000000000014,-30.42 L-45.485000000000014,-25.955 L-45.485000000000014,-21.490000000000002 L-45.485000000000014,-17.025000000000006 L-45.485000000000014,-12.560000000000002 L-45.485000000000014,-8.094999999999999 L-45.485000000000014,-3.6299999999999955 L-45.485000000000014,0.8349999999999937 L-45.485000000000014,5.299999999999997 L-45.485000000000014,9.765 L-45.485000000000014,14.22999999999999 L-45.485000000000014,18.694999999999993 L-45.485000000000014,23.159999999999997 L-45.485000000000014,27.625 L-45.485000000000014,32.09 L-45.485000000000014,36.55499999999999 L-45.485000000000014,41.019999999999996 L-45.485000000000014,45.484999999999985 L-45.485000000000014,49.94999999999999 L-45.485000000000014,54.41499999999999 L-45.485000000000014,58.879999999999995 L-45.485000000000014,63.345 L-45.485000000000014,67.81 L-45.485000000000014,72.275 L-45.485000000000014,76.74000000000001 L-45.485000000000014,84.0 L-49.95000000000002,84.0 L-54.41500000000001,84.0 L-58.88000000000001,84.0 L-63.34500000000001,84.0 L-67.81000000000002,84.0 L-72.275,84.0 L-76.74000000000001,84.0 L-81.20500000000001,84.0 L-85.67000000000002,84.0 L-90.13500000000002,84.0 L-94.60000000000001,84.0 L-99.06500000000001,84.0 L-103.53000000000002,84.0 L-107.995,84.0 L-112.46000000000001,84.0 L-116.92500000000001,84.0 L-121.39000000000001,84.0 L-125.85500000000002,84.0 L-130.32,84.0 L-134.78500000000003,84.0 L-139.25,84.0 L-143.715,84.0 L-148.18,84.0 L-152.645,84.0 L-157.11,84.0 L-161.57500000000002,84.0 L-166.04000000000002,84.0 L-170.505,84.0 L-174.97,84.0 L-179.435,84.0 L-183.9,84.0 L-188.365,84.0 L-192.83,84.0 L-197.29500000000002,84.0 L-201.76000000000002,84.0 L-206.22500000000002,84.0 L-210.69,84.0 L-217.485,84.0 L-217.485,79.535 L-217.485,75.07 L-217.485,70.605 L-217.485,66.14 L-217.485,61.675 L-217.485,57.21 L-217.485,52.745000000000005 L-217.485,48.28 L-217.485,43.815 L-217.485,39.35 L-217.485,34.885000000000005 L-217.485,30.42 L-217.485,25.955 L-217.485,21.490000000000002 L-217.485,17.025000000000006 L-217.485,12.560000000000002 L-217.485,8.094999999999999 L-217.485,3.6299999999999955 L-217.485,-0.8349999999999937 L-217.485,-5.299999999999997 L-217.485,-9.765 L-217.485,-14.22999999999999 L-217.485,-18.694999999999993 L-217.485,-23.159999999999997 L-217.485,-27.625 L-217.485,-32.09 L-217.485,-36.55499999999999 L-217.485,-41.019999999999996 L-217.485,-45.484999999999985 L-217.485,-49.94999999999999 L-217.485,-54.41499999999999 L-217.485,-58.879999999999995 L-217.485,-63.345 L-217.485,-67.81 L-217.485,-72.275 L-217.485,-76.74000000000001 L-217.485,-81.20499999999998 L-217.485,-88.0 L-213.02,-88.0 L-208.555,-88.0 L-204.09,-88.0 L-199.625,-88.0 L-195.16000000000003,-88.0 L-190.69500000000002,-88.0 L-186.23000000000002,-88.0 L-181.76500000000001,-88.0 L-177.3,-88.0 L-172.835,-88.0 L-168.37,-88.0 L-163.90500000000003,-88.0 L-159.44,-88.0 L-154.97500000000002,-88.0 L-150.51000000000002,-88.0 L-146.04500000000002,-88.0 L-141.58,-88.0 L-137.115,-88.0 L-132.65000000000003,-88.0 L-128.185,-88.0 L-123.72000000000001,-88.0 L-119.25500000000002,-88.0 L-114.79000000000002,-88.0 L-110.32500000000002,-88.0 L-105.86000000000001,-88.0 L-101.39500000000001,-88.0 L-96.93000000000002,-88.0 L-92.46500000000002,-88.0 L-88.00000000000003,-88.0 L-83.53500000000003,-88.0 L-79.07000000000002,-88.0 L-74.60500000000002,-88.0 L-70.14000000000001,-88.0 L-65.67500000000001,-88.0 L-61.21000000000001,-88.0 L-56.745000000000005,-88.0 L-52.28000000000003,-88.0 L-47.815000000000026,-88.0 L-41.485000000000014,-88.0 L-41.485000000000014,-83.535 L-41.485000000000014,-79.07 L-41.485000000000014,-74.605 L-41.485000000000014,-70.14 L-41.485000000000014,-65.675 L-41.485000000000014,-61.21 L-41.485000000000014,-56.745000000000005 L-41.485000000000014,-52.28 L-41.485000000000014,-47.815 L-41.485000000000014,-43.35 L-41.485000000000014,-38.885000000000005 L-41.485000000000014,-34.42 L-41.485000000000014,-29.955 L-41.485000000000014,-25.490000000000002 L-41.485000000000014,-21.025000000000006 L-41.485000000000014,-16.560000000000002 L-41.485000000000014,-12.094999999999999 L-41.485000000000014,-7.6299999999999955 L-41.485000000000014,-3.1650000000000063 L-41.485000000000014,1.2999999999999972 L-41.485000000000014,5.765000000000001 L-41.485000000000014,10.22999999999999 L-41.485000000000014,14.694999999999993 L-41.485000000000014,19.159999999999997 L-41.485000000000014,23.625 L-41.485000000000014,28.090000000000003 L-41.485000000000014,32.55499999999999 L-41.485000000000014,37.019999999999996 L-41.485000000000014,41.484999999999985 L-41.485000000000014,45.94999999999999 L-41.485000000000014,50.41499999999999 L-41.485000000000014,54.879999999999995 L-41.485000000000014,59.345 L-41.485000000000014,63.81 L-41.485000000000014,68.275 L-41.485000000000014,72.74000000000001 L-41.485000000000014,77.20499999999998 L-41.485000000000014,81.66999999999999 L-41.485000000000014,88.0 L-45.95000000000002,88.0 L-50.41500000000001,88.0 L-54.88000000000001,88.0 L-59.34500000000001,88.0 L-63.81000000000002,88.0 L-68.275,88.0 L-72.74000000000001,88.0 L-77.20500000000001,88.0 L-81.67000000000002,88.0 L-86.13500000000002,88.0 L-90.60000000000001,88.0 L-95.06500000000001,88.0 L-99.53000000000002,88.0 L-103.995,88.0 L-108.46000000000001,88.0 L-112.92500000000001,88.0 L-117.39000000000001,88.0 L-121.85500000000002,88.0 L-126.32000000000001,88.0 L-130.78500000000003,88.0 L-135.25,88.0 L-139.715,88.0 L-144.18,88.0 L-148.645,88.0 L-153.11,88.0 L-157.57500000000002,88.0 L-162.04000000000002,88.0 L-166.505,88.0 L-170.97,88.0 L-175.435,88.0 L-179.9,88.0 L-184.365,88.0 L-188.83,88.0 L-193.29500000000002,88.0 L-197.76000000000002,88.0 L-202.22500000000002,88.0 L-206.69,88.0 L-211.155,88.0 L-215.62,88.0 L-221.485,88.0 L-221.485,83.535 L-221.485,79.07 L-221.485,74.605 L-221.485,70.14 L-221.485,65.675 L-221.485,61.21 L-221.485,56.745000000000005 L-221.485,52.28 L-221.485,47.815 L-221.485,43.35 L-221.485,38.885000000000005 L-221.485,34.42 L-221.485,29.955 L-221.485,25.490000000000002 L-221.485,21.025000000000006 L-221.485,16.560000000000002 L-221.485,12.094999999999999 L-221.485,7.6299999999999955 L-221.485,3.1650000000000063 L-221.485,-1.2999999999999972 L-221.485,-5.765000000000001 L-221.485,-10.22999999999999 L-221.485,-14.694999999999993 L-221.485,-19.159999999999997 L-221.485,-23.625 L-221.485,-28.090000000000003 L-221.485,-32.55499999999999 L-221.485,-37.019999999999996 L-221.485,-41.484999999999985 L-221.485,-45.94999999999999 L-221.485,-50.41499999999999 L-221.485,-54.879999999999995 L-221.485,-59.345 L-221.485,-63.81 L-221.485,-68.275 L-221.485,-72.74000000000001 L-221.485,-77.20499999999998 L-221.485,-81.66999999999999 L-221.485,-86.13499999999999 L-221.485,-92.0 L-217.02,-92.0 L-212.555,-92.0 L-208.09,-92.0 L-203.625,-92.0 L-199.16000000000003,-92.0 L-194.69500000000002,-92.0 L-190.23000000000002,-92.0 L-185.76500000000001,-92.0 L-181.3,-92.0 L-176.835,-92.0 L-172.37,-92.0 L-167.90500000000003,-92.0 L-163.44,-92.0 L-158.97500000000002,-92.0 L-154.51000000000002,-92.0 L-150.04500000000002,-92.0 L-145.58,-92.0 L-141.115,-92.0 L-136.65000000000003,-92.0 L-132.185,-92.0 L-127.72000000000001,-92.0 L-123.25500000000002,-92.0 L-118.79000000000002,-92.0 L-114.32500000000002,-92.0 L-109.86000000000001,-92.0 L-105.39500000000001,-92.0 L-100.93000000000002,-92.0 L-96.46500000000002,-92.0 L-92.00000000000003,-92.0 L-87.53500000000003,-92.0 L-83.07000000000002,-92.0 L-78.60500000000002,-92.0 L-74.14000000000001,-92.0 L-69.67500000000001,-92.0 L-65.21000000000001,-92.0 L-60.745000000000005,-92.0 L-56.28000000000003,-92.0 L-51.815000000000026,-92.0 L-47.35000000000002,-92.0 L-42.88500000000002,-92.0 L-37.485000000000014,-92.0 L-37.485000000000014,-87.535 L-37.485000000000014,-83.07 L-37.485000000000014,-78.605 L-37.485000000000014,-74.14 L-37.485000000000014,-69.675 L-37.485000000000014,-65.21000000000001 L-37.485000000000014,-60.745000000000005 L-37.485000000000014,-56.28 L-37.485000000000014,-51.815 L-37.485000000000014,-47.35 L-37.485000000000014,-42.885000000000005 L-37.485000000000014,-38.42 L-37.485000000000014,-33.955 L-37.485000000000014,-29.490000000000002 L-37.485000000000014,-25.025000000000006 L-37.485000000000014,-20.560000000000002 L-37.485000000000014,-16.095 L-37.485000000000014,-11.629999999999995 L-37.485000000000014,-7.165000000000006 L-37.485000000000014,-2.700000000000003 L-37.485000000000014,1.7650000000000006 L-37.485000000000014,6.22999999999999 L-37.485000000000014,10.694999999999993 L-37.485000000000014,15.159999999999997 L-37.485000000000014,19.625 L-37.485000000000014,24.090000000000003 L-37.485000000000014,28.554999999999993 L-37.485000000000014,33.019999999999996 L-37.485000000000014,37.484999999999985 L-37.485000000000014,41.94999999999999 L-37.485000000000014,46.41499999999999 L-37.485000000000014,50.879999999999995 L-37.485000000000014,55.345 L-37.485000000000014,59.81 L-37.485000000000014,64.275 L-37.485000000000014,68.74000000000001 L-37.485000000000014,73.20499999999998 L-37.485000000000014,77.66999999999999 L-37.485000000000014,82.13499999999999 L-37.485000000000014,86.6 L-37.485000000000014,92.0 L-41.95000000000002,92.0 L-46.41500000000001,92.0 L-50.88000000000001,92.0 L-55.34500000000001,92.0 L-59.81000000000002,92.0 L-64.275,92.0 L-68.74000000000001,92.0 L-73.20500000000001,92.0 L-77.67000000000002,92.0 L-82.13500000000002,92.0 L-86.60000000000001,92.0 L-91.06500000000001,92.0 L-95.53000000000002,92.0 L-99.995,92.0 L-104.46000000000001,92.0 L-108.92500000000001,92.0 L-113.39000000000001,92.0 L-117.85500000000002,92.0 L-122.32000000000001,92.0 L-126.78500000000001,92.0 L-131.25,92.0 L-135.715,92.0 L-140.18,92.0 L-144.645,92.0 L-149.11,92.0 L-153.57500000000002,92.0 L-158.04000000000002,92.0 L-162.505,92.0 L-166.97,92.0 L-171.435,92.0 L-175.9,92.0 L-180.365,92.0 L-184.83,92.0 L-189.29500000000002,92.0 L-193.76000000000002,92.0 L-198.22500000000002,92.0 L-202.69,92.0 L-207.155,92.0 L-211.62,92.0 L-216.085,92.0 L-220.55,92.0 L-225.485,92.0 L-225.485,87.535 L-225.485,83.07 L-225.485,78.605 L-225.485,74.14 L-225.485,69.675 L-225.485,65.21000000000001 L-225.485,60.745000000000005 L-225.485,56.28 L-225.485,51.815 L-225.485,47.35 L-225.485,42.885000000000005 L-225.485,38.42 L-225.485,33.955 L-225.485,29.490000000000002 L-225.485,25.025000000000006 L-225.485,20.560000000000002 L-225.485,16.095 L-225.485,11.629999999999995 L-225.485,7.165000000000006 L-225.485,2.700000000000003 L-225.485,-1.7650000000000006 L-225.485,-6.22999999999999 L-225.485,-10.694999999999993 L-225.485,-15.159999999999997 L-225.485,-19.625 L-225.485,-24.090000000000003 L-225.485,-28.554999999999993 L-225.485,-33.019999999999996 L-225.485,-37.484999999999985 L-225.485,-41.94999999999999 L-225.485,-46.41499999999999 L-225.485,-50.879999999999995 L-225.485,-55.345 L-225.485,-59.81 L-225.485,-64.275 L-225.485,-68.74000000000001 L-225.485,-73.20499999999998 L-225.485,-77.66999999999999 L-225.485,-82.13499999999999 L-225.485,-86.6 L-225.485,-91.065 L-225.485,-96.0 L-221.02,-96.0 L-216.555,-96.0 L-212.09,-96.0 L-207.625,-96.0 L-203.16000000000003,-96.0 L-198.69500000000002,-96.0 L-194.23000000000002,-96.0 L-189.76500000000001,-96.0 L-185.3,-96.0 L-180.835,-96.0 L-176.37,-96.0 L-171.90500000000003,-96.0 L-167.44,-96.0 L-162.97500000000002,-96.0 L-158.51000000000002,-96.0 L-154.04500000000002,-96.0 L-149.58,-96.0 L-145.115,-96.0 L-140.65000000000003,-96.0 L-136.185,-96.0 L-131.72000000000003,-96.0 L-127.25500000000002,-96.0 L-122.79000000000002,-96.0 L-118.32500000000002,-96.0 L-113.86000000000001,-96.0 L-109.39500000000001,-96.0 L-104.93000000000002,-96.0 L-100.46500000000002,-96.0 L-96.00000000000003,-96.0 L-91.53500000000003,-96.0 L-87.07000000000002,-96.0 L-82.60500000000002,-96.0 L-78.14000000000001,-96.0 L-73.67500000000001,-96.0 L-69.21000000000001,-96.0 L-64.745,-96.0 L-60.28000000000003,-96.0 L-55.815000000000026,-96.0 L-51.35000000000002,-96.0 L-46.88500000000002,-96.0 L-42.420000000000016,-96.0 L-37.95500000000001,-96.0 L-33.485000000000014,-96.0 L-33.485000000000014,-91.535 L-33.485000000000014,-87.07 L-33.485000000000014,-82.605 L-33.485000000000014,-78.14 L-33.485000000000014,-73.675 L-33.485000000000014,-69.21000000000001 L-33.485000000000014,-64.745 L-33.485000000000014,-60.28 L-33.485000000000014,-55.815 L-33.485000000000014,-51.35 L-33.485000000000014,-46.885000000000005 L-33.485000000000014,-42.42 L-33.485000000000014,-37.955 L-33.485000000000014,-33.49 L-33.485000000000014,-29.025000000000006 L-33.485000000000014,-24.560000000000002 L-33.485000000000014,-20.095 L-33.485000000000014,-15.629999999999995 L-33.485000000000014,-11.165000000000006 L-33.485000000000014,-6.700000000000003 L-33.485000000000014,-2.2349999999999994 L-33.485000000000014,2.2299999999999898 L-33.485000000000014,6.694999999999993 L-33.485000000000014,11.159999999999997 L-33.485000000000014,15.625 L-33.485000000000014,20.090000000000003 L-33.485000000000014,24.554999999999993 L-33.485000000000014,29.019999999999996 L-33.485000000000014,33.484999999999985 L-33.485000000000014,37.94999999999999 L-33.485000000000014,42.41499999999999 L-33.485000000000014,46.879999999999995 L-33.485000000000014,51.345 L-33.485000000000014,55.81 L-33.485000000000014,60.275000000000006 L-33.485000000000014,64.74000000000001 L-33.485000000000014,69.20499999999998 L-33.485000000000014,73.66999999999999 L-33.485000000000014,78.13499999999999 L-33.485000000000014,82.6 L-33.485000000000014,87.065 L-33.485000000000014,91.53 L-33.485000000000014,96.0 L-37.95000000000002,96.0 L-42.41500000000001,96.0 L-46.88000000000001,96.0 L-51.34500000000001,96.0 L-55.81000000000002,96.0 L-60.27500000000001,96.0 L-64.74000000000001,96.0 L-69.20500000000001,96.0 L-73.67000000000002,96.0 L-78.13500000000002,96.0 L-82.60000000000001,96.0 L-87.06500000000001,96.0 L-91.53000000000002,96.0 L-95.995,96.0 L-100.46000000000001,96.0 L-104.92500000000001,96.0 L-109.39000000000001,96.0 L-113.85500000000002,96.0 L-118.32000000000001,96.0 L-122.78500000000001,96.0 L-127.25000000000001,96.0 L-131.715,96.0 L-136.18,96.0 L-140.645,96.0 L-145.11,96.0 L-149.57500000000002,96.0 L-154.04000000000002,96.0 L-158.505,96.0 L-162.97,96.0 L-167.435,96.0 L-171.9,96.0 L-176.365,96.0 L-180.83,96.0 L-185.29500000000002,96.0 L-189.76000000000002,96.0 L-194.22500000000002,96.0 L-198.69,96.0 L-203.155,96.0 L-207.62,96.0 L-212.085,96.0 L-216.55,96.0 L-221.01500000000001,96.0 L-229.485,96.0 L-229.485,91.535 L-229.485,87.07 L-229.485,82.605 L-229.485,78.14 L-229.485,73.675 L-229.485,69.21000000000001 L-229.485,64.745 L-229.485,60.28 L-229.485,55.815 L-229.485,51.35 L-229.485,46.885000000000005 L-229.485,42.42 L-229.485,37.955 L-229.485,33.49 L-229.485,29.025000000000006 L-229.485,24.560000000000002 L-229.485,20.095 L-229.485,15.629999999999995 L-229.485,11.165000000000006 L-229.485,6.700000000000003 L-229.485,2.2349999999999994 L-229.485,-2.2299999999999898 L-229.485,-6.694999999999993 L-229.485,-11.159999999999997 L-229.485,-15.625 L-229.485,-20.090000000000003 L-229.485,-24.554999999999993 L-229.485,-29.019999999999996 L-229.485,-33.484999999999985 L-229.485,-37.94999999999999 L-229.485,-42.41499999999999 L-229.485,-46.879999999999995 L-229.485,-51.345 L-229.485,-55.81 L-229.485,-60.275000000000006 L-229.485,-64.74000000000001 L-229.485,-69.20499999999998 L-229.485,-73.66999999999999 L-229.485,-78.13499999999999 L-229.485,-82.6 L-229.485,-87.065 L-229.485,-91.53 L-229.485,-100.0 L-225.02,-100.0 L-220.555,-100.0 L-216.09,-100.0 L-211.625,-100.0 L-207.16000000000003,-100.0 L-202.69500000000002,-100.0 L-198.23000000000002,-100.0 L-193.76500000000001,-100.0 L-189.3,-100.0 L-184.835,-100.0 L-180.37,-100.0 L-175.90500000000003,-100.0 L-171.44,-100.0 L-166.97500000000002,-100.0 L-162.51000000000002,-100.0 L-158.04500000000002,-100.0 L-153.58,-100.0 L-149.115,-100.0 L-144.65000000000003,-100.0 L-140.185,-100.0 L-135.72000000000003,-100.0 L-131.25500000000002,-100.0 L-126.79000000000002,-100.0 L-122.32500000000002,-100.0 L-117.86000000000001,-100.0 L-113.39500000000001,-100.0 L-108.93000000000002,-100.0 L-104.46500000000002,-100.0 L-100.00000000000003,-100.0 L-95.53500000000003,-100.0 L-91.07000000000002,-100.0 L-86.60500000000002,-100.0 L-82.14000000000001,-100.0 L-77.67500000000001,-100.0 L-73.21000000000001,-100.0 L-68.745,-100.0 L-64.28000000000003,-100.0 L-59.815000000000026,-100.0 L-55.35000000000002,-100.0 L-50.88500000000002,-100.0 L-46.420000000000016,-100.0 L-41.95500000000001,-100.0 L-37.49000000000001,-100.0 L-29.485000000000014,-100.0 L-29.485000000000014,-95.535 L-29.485000000000014,-91.07 L-29.485000000000014,-86.605 L-29.485000000000014,-82.14 L-29.485000000000014,-77.675 L-29.485000000000014,-73.21000000000001 L-29.485000000000014,-68.745 L-29.485000000000014,-64.28 L-29.485000000000014,-59.815 L-29.485000000000014,-55.35 L-29.485000000000014,-50.885000000000005 L-29.485000000000014,-46.42 L-29.485000000000014,-41.955 L-29.485000000000014,-37.49 L-29.485000000000014,-33.025000000000006 L-29.485000000000014,-28.560000000000002 L-29.485000000000014,-24.095 L-29.485000000000014,-19.629999999999995 L-29.485000000000014,-15.165000000000006 L-29.485000000000014,-10.700000000000003 L-29.485000000000014,-4.0 L0,-4.0 L4.465,-4.0 L4.465,-8.465 L4.465,-12.93 L0.0,-12.93 L-4.465,-12.93 L-4.465,-8.465 L-4.465,-4.0 L0,-4.0" stroke-width="0.202" stroke="black" fill-opacity="0" />
</svg>