<?xml version="1.0" encoding="UTF-8"?>
<svg xmlns="http://www.w3.org/2000/svg" xmlns:xlink="http://www.w3.org/1999/xlink"
     width="200" height="200" viewBox="-100.0 -100.0 200 200" displayInline="False">
<defs>
</defs>
<path d="M-160,-160 L-160,-70 L-170,-70 L-170,-80 L-120,-80 L-120.0,-72.46 L-120.0,-64.92 L-120.0,-57.379999999999995 L-120.0,-49.84 L-120.0,-42.3 L-120.0,-34.76 L-120.0,-27.22 L-120.0,-19.68 L-120.0,-12.14 L-120.0,-4.599999999999994 L-120.0,2.9399999999999977 L-120.0,10.480000000000004 L-120.0,18.019999999999996 L-120.0,25.560000000000002 L-120,40 L-119,40 L-119.0,32.46 L-119.0,24.92 L-119.0,17.38 L-119.0,9.84 L-119.0,2.299999999999997 L-119.0,-5.240000000000002 L-119.0,-12.780000000000001 L-119.0,-20.32 L-119.0,-27.86 L-119.0,-35.400000000000006 L-119.0,-42.94 L-119.0,-50.480000000000004 L-119.0,-58.019999999999996 L-119.0,-65.56 L-119,-80 L-111.0,-80 L-111.0,-72.46 L-111.0,-64.92 L-111.0,-57.379999999999995 L-111.0,-49.84 L-111.0,-42.3 L-111.0,-34.76 L-111.0,-27.22 L-111.0,-19.68 L-111.0,-12.14 L-111.0,-4.599999999999994 L-111.0,2.9399999999999977 L-111.0,10.480000000000004 L-111.0,18.019999999999996 L-111.0,25.560000000000002 L-111,40 L-110,40 L-110.0,32.46 L-110.0,24.92 L-110.0,17.38 L-110.0,9.84 L-110.0,2.299999999999997 L-110.0,-5.240000000000002 L-110.0,-12.780000000000001 L-110.0,-20.32 L-110.0,-27.86 L-110.0,-35.400000000000006 L-110.0,-42.94 L-110.0,-50.480000000000004 L-110.0,-58.019999999999996 L-110.0,-65.56 L-110,-80 L-102.0,-80 L-102.0,-72.46 L-102.0,-64.92 L-102.0,-57.379999999999995 L-102.0,-49.84 L-102.0,-42.3 L-102.0,-34.76 L-102.0,-27.22 L-102.0,-19.68 L-102.0,-12.14 L-102.0,-4.599999999999994 L-102.0,2.9399999999999977 L-102.0,10.480000000000004 L-102.0,18.019999999999996 L-102.0,25.560000000000002 L-102,40 L-101,40 L-101.0,32.46 L-101.0,24.92 L-101.0,17.38 L-101.0,9.84 L-101.0,2.299999999999997 L-101.0,-5.240000000000002 L-101.0,-12.780000000000001 L-101.0,-20.32 L-101.0,-27.86 L-101.0,-35.400000000000006 L-101.0,-42.94 L-101.0,-50.480000000000004 L-101.0,-58.019999999999996 L-101.0,-65.56 L-101,-80 L-93.0,-80 L-93.0,-72.46 L-93.0,-64.92 L-93.0,-57.379999999999995 L-93.0,-49.84 L-93.0,-42.3 L-93.0,-34.76 L-93.0,-27.22 L-93.0,-19.68 L-93.0,-12.14 L-93.0,-4.599999999999994 L-93.0,2.9399999999999977 L-93.0,10.480000000000004 L-93.0,18.019999999999996 L-93.0,25.560000000000002 L-93,40 L-92,40 L-92.0,32.46 L-92.0,24.92 L-92.0,17.38 L-92.0,9.84 L-92.0,2.299999999999997 L-92.0,-5.240000000000002 L-92.0,-12.780000000000001 L-92.0,-20.32 L-92.0,-27.86 L-92.0,-35.400000000000006 L-92.0,-42.94 L-92.0,-50.480000000000004 L-92.0,-58.019999999999996 L-92.0,-65.56 L-92,-80 L-84.0,-80 L-84.0,-72.46 L-84.0,-64.92 L-84.0,-57.379999999999995 L-84.0,-49.84 L-84.0,-42.3 L-84.0,-34.76 L-84.0,-27.22 L-84.0,-19.68 L-84.0,-12.14 L-84.0,-4.599999999999994 L-84.0,2.9399999999999977 L-84.0,10.480000000000004 L-84.0,18.019999999999996 L-84.0,25.560000000000002 L-84,40 L-83,40 L-83.0,32.46 L-83.0,24.92 L-83.0,17.38 L-83.0,9.84 L-83.0,2.299999999999997 L-83.0,-5.240000000000002 L-83.0,-12.780000000000001 L-83.0,-20.32 L-83.0,-27.86 L-83.0,-35.400000000000006 L-83.0,-42.94 L-83.0,-50.480000000000004 L-83.0,-58.019999999999996 L-83,-72 L-75.46,-72.0 L-67.92,-72.0 L-53.0,-72 L-53.0,-64.46 L-53.0,-56.92 L-53.0,-49.379999999999995 L-53.0,-41.84 L-53.0,-34.3 L-53.0,-26.759999999999998 L-53.0,-19.22 L-53.0,-11.68 L-53.0,-4.140000000000001 L-53.0,3.4000000000000057 L-53.0,10.939999999999998 L-53.0,18.480000000000004 L-53.0,26.019999999999996 L-53,40 L-52,40 L-52.0,32.46 L-52.0,24.92 L-52.0,17.38 L-52.0,9.84 L-52.0,2.299999999999997 L-52.0,-5.240000000000002 L-52.0,-12.780000000000001 L-52.0,-20.32 L-52.0,-27.86 L-52.0,-35.400000000000006 L-52.0,-42.94 L-52.0,-50.480000000000004 L-52.0,-58.019999999999996 L-52,-72 L-44.0,-72 L-44.0,-64.46 L-44.0,-56.92 L-44.0,-49.379999999999995 L-44.0,-41.84 L-44.0,-34.3 L-44.0,-26.759999999999998 L-44.0,-19.22 L-44.0,-11.68 L-44.0,-4.140000000000001 L-44.0,3.4000000000000057 L-44.0,10.939999999999998 L-44.0,18.480000000000004 L-44.0,26.019999999999996 L-44,40 L-43,40 L-43.0,32.46 L-43.0,24.92 L-43.0,17.38 L-43.0,9.84 L-43.0,2.299999999999997 L-43.0,-5.240000000000002 L-43.0,-12.780000000000001 L-43.0,-20.32 L-43.0,-27.86 L-43.0,-35.400000000000006 L-43.0,-42.94 L-43.0,-50.480000000000004 L-43.0,-58.019999999999996 L-43,-72 L-35.0,-72 L-35.0,-64.46 L-35.0,-56.92 L-35.0,-49.379999999999995 L-35.0,-41.84 L-35.0,-34.3 L-35.0,-26.759999999999998 L-35.0,-19.22 L-35.0,-11.68 L-35.0,-4.140000000000001 L-35.0,3.4000000000000057 L-35.0,10.939999999999998 L-35.0,18.480000000000004 L-35.0,26.019999999999996 L-35,40 L-34,40 L-34.0,32.46 L-34.0,24.92 L-34.0,17.38 L-34.0,9.84 L-34.0,2.299999999999997 L-34.0,-5.240000000000002 L-34.0,-12.780000000000001 L-34.0,-20.32 L-34.0,-27.86 L-34.0,-35.400000000000006 L-34.0,-42.94 L-34.0,-50.480000000000004 L-34.0,-58.019999999999996 L-34,-72 L-26.0,-72 L-26.0,-64.46 L-26.0,-56.92 L-26.0,-49.379999999999995 L-26.0,-41.84 L-26.0,-34.3 L-26.0,-26.759999999999998 L-26.0,-19.22 L-26.0,-11.68 L-26.0,-4.140000000000001 L-26.0,3.4000000000000057 L-26.0,10.939999999999998 L-26.0,18.480000000000004 L-26.0,26.019999999999996 L-26,40 L-25,40 L-25.0,32.46 L-25.0,24.92 L-25.0,17.38 L-25.0,9.84 L-25.0,2.299999999999997 L-25.0,-5.240000000000002 L-25.0,-12.780000000000001 L-25.0,-20.32 L-25.0,-27.86 L-25.0,-35.400000000000006 L-25.0,-42.94 L-25.0,-50.480000000000004 L-25.0,-58.019999999999996 L-25,-72 L-17.0,-72 L-17.0,-64.46 L-17.0,-56.92 L-17.0,-49.379999999999995 L-17.0,-41.84 L-17.0,-34.3 L-17.0,-26.759999999999998 L-17.0,-19.22 L-17.0,-11.68 L-17.0,-4.140000000000001 L-17.0,3.4000000000000057 L-17.0,10.939999999999998 L-17.0,18.480000000000004 L-17.0,26.019999999999996 L-17,40 L-16,40 L-16.0,32.46 L-16.0,24.92 L-16.0,17.38 L-16.0,9.84 L-16.0,2.299999999999997 L-16.0,-5.240000000000002 L-16.0,-12.780000000000001 L-16.0,-20.32 L-16.0,-27.86 L-16.0,-35.400000000000006 L-16.0,-42.94 L-16.0,-50.480000000000004 L-16,-64 L-8.46,-64.0 L-0.9199999999999999,-64.0 L14.0,-64 L14.0,-56.46 L14.0,-48.92 L14.0,-41.379999999999995 L14.0,-33.84 L14.0,-26.299999999999997 L14.0,-18.759999999999998 L14.0,-11.219999999999999 L14.0,-3.6799999999999997 L14.0,3.8599999999999994 L14.0,11.400000000000006 L14.0,18.939999999999998 L14.0,26.480000000000004 L14,40 L15,40 L15.0,32.46 L15.0,24.92 L15.0,17.38 L15.0,9.84 L15.0,2.299999999999997 L15.0,-5.240000000000002 L15.0,-12.780000000000001 L15.0,-20.32 L15.0,-27.86 L15.0,-35.400000000000006 L15.0,-42.94 L15.0,-50.480000000000004 L15,-64 L23.0,-64 L23.0,-56.46 L23.0,-48.92 L23.0,-41.379999999999995 L23.0,-33.84 L23.0,-26.299999999999997 L23.0,-18.759999999999998 L23.0,-11.219999999999999 L23.0,-3.6799999999999997 L23.0,3.8599999999999994 L23.0,11.400000000000006 L23.0,18.939999999999998 L23.0,26.480000000000004 L23,40 L24,40 L24.0,32.46 L24.0,24.92 L24.0,17.38 L24.0,9.84 L24.0,2.299999999999997 L24.0,-5.240000000000002 L24.0,-12.780000000000001 L24.0,-20.32 L24.0,-27.86 L24.0,-35.400000000000006 L24.0,-42.94 L24.0,-50.480000000000004 L24,-64 L32.0,-64 L32.0,-56.46 L32.0,-48.92 L32.0,-41.379999999999995 L32.0,-33.84 L32.0,-26.299999999999997 L32.0,-18.759999999999998 L32.0,-11.219999999999999 L32.0,-3.6799999999999997 L32.0,3.8599999999999994 L32.0,11.400000000000006 L32.0,18.939999999999998 L32.0,26.480000000000004 L32,40 L33,40 L33.0,32.46 L33.0,24.92 L33.0,17.38 L33.0,9.84 L33.0,2.299999999999997 L33.0,-5.240000000000002 L33.0,-12.780000000000001 L33.0,-20.32 L33.0,-27.86 L33.0,-35.400000000000006 L33.0,-42.94 L33.0,-50.480000000000004 L33,-64 L41.0,-64 L41.0,-56.46 L41.0,-48.92 L41.0,-41.379999999999995 L41.0,-33.84 L41.0,-26.299999999999997 L41.0,-18.759999999999998 L41.0,-11.219999999999999 L41.0,-3.6799999999999997 L41.0,3.8599999999999994 L41.0,11.400000000000006 L41.0,18.939999999999998 L41.0,26.480000000000004 L41,40 L42,40 L42.0,32.46 L42.0,24.92 L42.0,17.38 L42.0,9.84 L42.0,2.299999999999997 L42.0,-5.240000000000002 L42.0,-12.780000000000001 L42.0,-20.32 L42.0,-27.86 L42.0,-35.400000000000006 L42.0,-42.94 L42.0,-50.480000000000004 L42,-64 L50.0,-64 L50.0,-56.46 L50.0,-48.92 L50.0,-41.379999999999995 L50.0,-33.84 L50.0,-26.299999999999997 L50.0,-18.759999999999998 L50.0,-11.219999999999999 L50.0,-3.6799999999999997 L50.0,3.8599999999999994 L50.0,11.400000000000006 L50.0,18.939999999999998 L50.0,26.480000000000004 L50,40 L51,40 L51.0,32.46 L51.0,24.92 L51.0,17.38 L51.0,9.84 L51.0,2.299999999999997 L51.0,-5.240000000000002 L51.0,-12.780000000000001 L51.0,-20.32 L51.0,-27.86 L51.0,-35.400000000000006 L51.0,-42.94 L51,-52 L58.54,-52.0 L66.08,-52.0 L81.0,-52 L81.0,-44.46 L81.0,-36.92 L81.0,-29.38 L81.0,-21.84 L81.0,-14.299999999999997 L81.0,-6.759999999999998 L81.0,0.7800000000000011 L81.0,8.32 L81.0,15.86 L81.0,23.400000000000006 L81.0,30.939999999999998 L81,40 L82,40 L82.0,32.46 L82.0,24.92 L82.0,17.38 L82.0,9.84 L82.0,2.299999999999997 L82.0,-5.240000000000002 L82.0,-12.780000000000001 L82.0,-20.32 L82.0,-27.86 L82.0,-35.400000000000006 L82.0,-42.94 L82,-52 L90.0,-52 L90.0,-44.46 L90.0,-36.92 L90.0,-29.38 L90.0,-21.84 L90.0,-14.299999999999997 L90.0,-6.759999999999998 L90.0,0.7800000000000011 L90.0,8.32 L90.0,15.86 L90.0,23.400000000000006 L90.0,30.939999999999998 L90,40 L91,40 L91.0,32.46 L91.0,24.92 L91.0,17.38 L91.0,9.84 L91.0,2.299999999999997 L91.0,-5.240000000000002 L91.0,-12.780000000000001 L91.0,-20.32 L91.0,-27.86 L91.0,-35.400000000000006 L91.0,-42.94 L91,-52 L99.0,-52 L99.0,-44.46 L99.0,-36.92 L99.0,-29.38 L99.0,-21.84 L99.0,-14.299999999999997 L99.0,-6.759999999999998 L99.0,0.7800000000000011 L99.0,8.32 L99.0,15.86 L99.0,23.400000000000006 L99.0,30.939999999999998 L99,40 L100,40 L100.0,32.46 L100.0,24.92 L100.0,17.38 L100.0,9.84 L100.0,2.299999999999997 L100.0,-5.240000000000002 L100.0,-12.780000000000001 L100.0,-20.32 L100.0,-27.86 L100.0,-35.400000000000006 L100.0,-42.94 L100,-52 L108.0,-52 L108.0,-44.46 L108.0,-36.92 L108.0,-29.38 L108.0,-21.84 L108.0,-14.299999999999997 L108.0,-6.759999999999998 L108.0,0.7800000000000011 L108.0,8.32 L108.0,15.86 L108.0,23.400000000000006 L108.0,30.939999999999998 L108,40 L109,40 L109.0,32.46 L109.0,24.92 L109.0,17.38 L109.0,9.84 L109.0,2.299999999999997 L109.0,-5.240000000000002 L109.0,-12.780000000000001 L109.0,-20.32 L109.0,-27.86 L109.0,-35.400000000000006 L109.0,-42.94 L109,-52 L117.0,-52 L117.0,-44.46 L117.0,-36.92 L117.0,-29.38 L117.0,-21.84 L117.0,-14.299999999999997 L117.0,-6.759999999999998 L117.0,0.7800000000000011 L117.0,8.32 L117.0,15.86 L117.0,23.400000000000006 L117.0,30.939999999999998 L117,40 L118,40 L118.0,32.46 L118.0,24.92 L118.0,17.38 L118.0,9.84 L118.0,2.299999999999997 L118.0,-5.240000000000002 L118.0,-12.780000000000001 L118.0,-20.32 L118.0,-27.86 L118,-40 L125.54,-40.0 L133.08,-40.0 L148.0,-40 L148.0,-32.46 L148.0,-24.92 L148.0,-17.38 L148.0,-9.84 L148.0,-2.299999999999997 L148.0,5.240000000000002 L148.0,12.780000000000001 L148.0,20.32 L148.0,27.86 L148,40 L149,40 L149.0,32.46 L149.0,24.92 L149.0,17.38 L149.0,9.84 L149.0,2.299999999999997 L149.0,-5.240000000000002 L149.0,-12.780000000000001 L149.0,-20.32 L149.0,-27.86 L149,-40 L157.0,-40 L157.0,-32.46 L157.0,-24.92 L157.0,-17.38 L157.0,-9.84 L157.0,-2.299999999999997 L157.0,5.240000000000002 L157.0,12.780000000000001 L157.0,20.32 L157.0,27.86 L157,40 L158,40 L158.0,32.46 L158.0,24.92 L158.0,17.38 L158.0,9.84 L158.0,2.299999999999997 L158.0,-5.240000000000002 L158.0,-12.780000000000001 L158.0,-20.32 L158.0,-27.86 L158,-40 L166.0,-40 L166.0,-32.46 L166.0,-24.92 L166.0,-17.38 L166.0,-9.84 L166.0,-2.299999999999997 L166.0,5.240000000000002 L166.0,12.780000000000001 L166.0,20.32 L166.0,27.86 L166,40 L167,40 L167.0,32.46 L167.0,24.92 L167.0,17.38 L167.0,9.84 L167.0,2.299999999999997 L167.0,-5.240000000000002 L167.0,-12.780000000000001 L167.0,-20.32 L167.0,-27.86 L167,-40 L175.0,-40 L175.0,-32.46 L175.0,-24.92 L175.0,-17.38 L175.0,-9.84 L175.0,-2.299999999999997 L175.0,5.240000000000002 L175.0,12.780000000000001 L175.0,20.32 L175.0,27.86 L175,40 L176,40 L176.0,32.46 L176.0,24.92 L176.0,17.38 L176.0,9.84 L176.0,2.299999999999997 L176.0,-5.240000000000002 L176.0,-12.780000000000001 L176.0,-20.32 L176.0,-27.86 L176,-40 L184.0,-40 L184.0,-32.46 L184.0,-24.92 L184.0,-17.38 L184.0,-9.84 L184.0,-2.299999999999997 L184.0,5.240000000000002 L184.0,12.780000000000001 L184.0,20.32 L184.0,27.86 L184,40 L185,40 L185.0,32.46 L185.0,24.92 L185.0,17.38 L185.0,9.84 L185.0,2.299999999999997 L185.0,-5.240000000000002 L185.0,-12.780000000000001 L185.0,-20.32 L185.0,-27.86 L185,-40 L193.0,-40 M-160,50 L-170,50 L-170,60 L-160,60 L-160,50 L-124.5,50 L-124.5,42.46 L-124.5,34.92 L-124.5,27.38 L-124.5,19.84 L-124.5,12.299999999999997 L-124.5,4.759999999999998 L-124.5,-2.780000000000001 L-124.5,-10.32 L-124.5,-17.86 L-124.5,-25.400000000000006 L-124.5,-32.94 L-124.5,-40.480000000000004 L-124.5,-48.019999999999996 L-124.5,-55.56 L-124.5,-70.0 L-123.5,-70.0 L-123.5,-62.46 L-123.5,-54.92 L-123.5,-47.379999999999995 L-123.5,-39.84 L-123.5,-32.3 L-123.5,-24.759999999999998 L-123.5,-17.22 L-123.5,-9.68 L-123.5,-2.1400000000000006 L-123.5,5.400000000000006 L-123.5,12.939999999999998 L-123.5,20.480000000000004 L-123.5,28.019999999999996 L-123.5,35.56 L-123.5,50.0 L-115.5,50.0 L-115.5,42.46 L-115.5,34.92 L-115.5,27.38 L-115.5,19.84 L-115.5,12.299999999999997 L-115.5,4.759999999999998 L-115.5,-2.780000000000001 L-115.5,-10.32 L-115.5,-17.86 L-115.5,-25.400000000000006 L-115.5,-32.94 L-115.5,-40.480000000000004 L-115.5,-48.019999999999996 L-115.5,-55.56 L-115.5,-70.0 L-114.5,-70.0 L-114.5,-62.46 L-114.5,-54.92 L-114.5,-47.379999999999995 L-114.5,-39.84 L-114.5,-32.3 L-114.5,-24.759999999999998 L-114.5,-17.22 L-114.5,-9.68 L-114.5,-2.1400000000000006 L-114.5,5.400000000000006 L-114.5,12.939999999999998 L-114.5,20.480000000000004 L-114.5,28.019999999999996 L-114.5,35.56 L-114.5,50.0 L-106.5,50.0 L-106.5,42.46 L-106.5,34.92 L-106.5,27.38 L-106.5,19.84 L-106.5,12.299999999999997 L-106.5,4.759999999999998 L-106.5,-2.780000000000001 L-106.5,-10.32 L-106.5,-17.86 L-106.5,-25.400000000000006 L-106.5,-32.94 L-106.5,-40.480000000000004 L-106.5,-48.019999999999996 L-106.5,-55.56 L-106.5,-70.0 L-105.5,-70.0 L-105.5,-62.46 L-105.5,-54.92 L-105.5,-47.379999999999995 L-105.5,-39.84 L-105.5,-32.3 L-105.5,-24.759999999999998 L-105.5,-17.22 L-105.5,-9.68 L-105.5,-2.1400000000000006 L-105.5,5.400000000000006 L-105.5,12.939999999999998 L-105.5,20.480000000000004 L-105.5,28.019999999999996 L-105.5,35.56 L-105.5,50.0 L-97.5,50.0 L-97.5,42.46 L-97.5,34.92 L-97.5,27.38 L-97.5,19.84 L-97.5,12.299999999999997 L-97.5,4.759999999999998 L-97.5,-2.780000000000001 L-97.5,-10.32 L-97.5,-17.86 L-97.5,-25.400000000000006 L-97.5,-32.94 L-97.5,-40.480000000000004 L-97.5,-48.019999999999996 L-97.5,-55.56 L-97.5,-70.0 L-96.5,-70.0 L-96.5,-62.46 L-96.5,-54.92 L-96.5,-47.379999999999995 L-96.5,-39.84 L-96.5,-32.3 L-96.5,-24.759999999999998 L-96.5,-17.22 L-96.5,-9.68 L-96.5,-2.1400000000000006 L-96.5,5.400000000000006 L-96.5,12.939999999999998 L-96.5,20.480000000000004 L-96.5,28.019999999999996 L-96.5,35.56 L-96.5,50.0 L-88.5,50.0 L-88.5,42.46 L-88.5,34.92 L-88.5,27.38 L-88.5,19.84 L-88.5,12.299999999999997 L-88.5,4.759999999999998 L-88.5,-2.780000000000001 L-88.5,-10.32 L-88.5,-17.86 L-88.5,-25.400000000000006 L-88.5,-32.94 L-88.5,-40.480000000000004 L-88.5,-48.019999999999996 L-88.5,-55.56 L-88.5,-70.0 L-87.5,-70.0 L-87.5,-62.46 L-87.5,-54.92 L-87.5,-47.379999999999995 L-87.5,-39.84 L-87.5,-32.3 L-87.5,-24.759999999999998 L-87.5,-17.22 L-87.5,-9.68 L-87.5,-2.1400000000000006 L-87.5,5.400000000000006 L-87.5,12.939999999999998 L-87.5,20.480000000000004 L-87.5,28.019999999999996 L-87.5,35.56 L-87.5,50.0 L-79.96,50.0 L-72.42,50.0 L-57.5,50.0 L-57.5,42.46 L-57.5,34.92 L-57.5,27.38 L-57.5,19.84 L-57.5,12.299999999999997 L-57.5,4.759999999999998 L-57.5,-2.780000000000001 L-57.5,-10.32 L-57.5,-17.86 L-57.5,-25.400000000000006 L-57.5,-32.94 L-57.5,-40.480000000000004 L-57.5,-48.019999999999996 L-57.5,-62.0 L-56.5,-62.0 L-56.5,-54.46 L-56.5,-46.92 L-56.5,-39.379999999999995 L-56.5,-31.84 L-56.5,-24.299999999999997 L-56.5,-16.759999999999998 L-56.5,-9.219999999999999 L-56.5,-1.6799999999999997 L-56.5,5.859999999999999 L-56.5,13.400000000000006 L-56.5,20.939999999999998 L-56.5,28.480000000000004 L-56.5,36.019999999999996 L-56.5,50.0 L-48.5,50.0 L-48.5,42.46 L-48.5,34.92 L-48.5,27.38 L-48.5,19.84 L-48.5,12.299999999999997 L-48.5,4.759999999999998 L-48.5,-2.780000000000001 L-48.5,-10.32 L-48.5,-17.86 L-48.5,-25.400000000000006 L-48.5,-32.94 L-48.5,-40.480000000000004 L-48.5,-48.019999999999996 L-48.5,-62.0 L-47.5,-62.0 L-47.5,-54.46 L-47.5,-46.92 L-47.5,-39.379999999999995 L-47.5,-31.84 L-47.5,-24.299999999999997 L-47.5,-16.759999999999998 L-47.5,-9.219999999999999 L-47.5,-1.6799999999999997 L-47.5,5.859999999999999 L-47.5,13.400000000000006 L-47.5,20.939999999999998 L-47.5,28.480000000000004 L-47.5,36.019999999999996 L-47.5,50.0 L-39.5,50.0 L-39.5,42.46 L-39.5,34.92 L-39.5,27.38 L-39.5,19.84 L-39.5,12.299999999999997 L-39.5,4.759999999999998 L-39.5,-2.780000000000001 L-39.5,-10.32 L-39.5,-17.86 L-39.5,-25.400000000000006 L-39.5,-32.94 L-39.5,-40.480000000000004 L-39.5,-48.019999999999996 L-39.5,-62.0 L-38.5,-62.0 L-38.5,-54.46 L-38.5,-46.92 L-38.5,-39.379999999999995 L-38.5,-31.84 L-38.5,-24.299999999999997 L-38.5,-16.759999999999998 L-38.5,-9.219999999999999 L-38.5,-1.6799999999999997 L-38.5,5.859999999999999 L-38.5,13.400000000000006 L-38.5,20.939999999999998 L-38.5,28.480000000000004 L-38.5,36.019999999999996 L-38.5,50.0 L-30.5,50.0 L-30.5,42.46 L-30.5,34.92 L-30.5,27.38 L-30.5,19.84 L-30.5,12.299999999999997 L-30.5,4.759999999999998 L-30.5,-2.780000000000001 L-30.5,-10.32 L-30.5,-17.86 L-30.5,-25.400000000000006 L-30.5,-32.94 L-30.5,-40.480000000000004 L-30.5,-48.019999999999996 L-30.5,-62.0 L-29.5,-62.0 L-29.5,-54.46 L-29.5,-46.92 L-29.5,-39.379999999999995 L-29.5,-31.84 L-29.5,-24.299999999999997 L-29.5,-16.759999999999998 L-29.5,-9.219999999999999 L-29.5,-1.6799999999999997 L-29.5,5.859999999999999 L-29.5,13.400000000000006 L-29.5,20.939999999999998 L-29.5,28.480000000000004 L-29.5,36.019999999999996 L-29.5,50.0 L-21.5,50.0 L-21.5,42.46 L-21.5,34.92 L-21.5,27.38 L-21.5,19.84 L-21.5,12.299999999999997 L-21.5,4.759999999999998 L-21.5,-2.780000000000001 L-21.5,-10.32 L-21.5,-17.86 L-21.5,-25.400000000000006 L-21.5,-32.94 L-21.5,-40.480000000000004 L-21.5,-48.019999999999996 L-21.5,-62.0 L-20.5,-62.0 L-20.5,-54.46 L-20.5,-46.92 L-20.5,-39.379999999999995 L-20.5,-31.84 L-20.5,-24.299999999999997 L-20.5,-16.759999999999998 L-20.5,-9.219999999999999 L-20.5,-1.6799999999999997 L-20.5,5.859999999999999 L-20.5,13.400000000000006 L-20.5,20.939999999999998 L-20.5,28.480000000000004 L-20.5,36.019999999999996 L-20.5,50.0 L-12.96,50.0 L-5.42,50.0 L9.5,50.0 L9.5,42.46 L9.5,34.92 L9.5,27.38 L9.5,19.84 L9.5,12.299999999999997 L9.5,4.759999999999998 L9.5,-2.780000000000001 L9.5,-10.32 L9.5,-17.86 L9.5,-25.400000000000006 L9.5,-32.94 L9.5,-40.480000000000004 L9.5,-54.0 L10.5,-54.0 L10.5,-46.46 L10.5,-38.92 L10.5,-31.38 L10.5,-23.84 L10.5,-16.299999999999997 L10.5,-8.759999999999998 L10.5,-1.2199999999999989 L10.5,6.32 L10.5,13.86 L10.5,21.400000000000006 L10.5,28.939999999999998 L10.5,36.480000000000004 L10.5,50.0 L18.5,50.0 L18.5,42.46 L18.5,34.92 L18.5,27.38 L18.5,19.84 L18.5,12.299999999999997 L18.5,4.759999999999998 L18.5,-2.780000000000001 L18.5,-10.32 L18.5,-17.86 L18.5,-25.400000000000006 L18.5,-32.94 L18.5,-40.480000000000004 L18.5,-54.0 L19.5,-54.0 L19.5,-46.46 L19.5,-38.92 L19.5,-31.38 L19.5,-23.84 L19.5,-16.299999999999997 L19.5,-8.759999999999998 L19.5,-1.2199999999999989 L19.5,6.32 L19.5,13.86 L19.5,21.400000000000006 L19.5,28.939999999999998 L19.5,36.480000000000004 L19.5,50.0 L27.5,50.0 L27.5,42.46 L27.5,34.92 L27.5,27.38 L27.5,19.84 L27.5,12.299999999999997 L27.5,4.759999999999998 L27.5,-2.780000000000001 L27.5,-10.32 L27.5,-17.86 L27.5,-25.400000000000006 L27.5,-32.94 L27.5,-40.480000000000004 L27.5,-54.0 L28.5,-54.0 L28.5,-46.46 L28.5,-38.92 L28.5,-31.38 L28.5,-23.84 L28.5,-16.299999999999997 L28.5,-8.759999999999998 L28.5,-1.2199999999999989 L28.5,6.32 L28.5,13.86 L28.5,21.400000000000006 L28.5,28.939999999999998 L28.5,36.480000000000004 L28.5,50.0 L36.5,50.0 L36.5,42.46 L36.5,34.92 L36.5,27.38 L36.5,19.84 L36.5,12.299999999999997 L36.5,4.759999999999998 L36.5,-2.780000000000001 L36.5,-10.32 L36.5,-17.86 L36.5,-25.400000000000006 L36.5,-32.94 L36.5,-40.480000000000004 L36.5,-54.0 L37.5,-54.0 L37.5,-46.46 L37.5,-38.92 L37.5,-31.38 L37.5,-23.84 L37.5,-16.299999999999997 L37.5,-8.759999999999998 L37.5,-1.2199999999999989 L37.5,6.32 L37.5,13.86 L37.5,21.400000000000006 L37.5,28.939999999999998 L37.5,36.480000000000004 L37.5,50.0 L45.5,50.0 L45.5,42.46 L45.5,34.92 L45.5,27.38 L45.5,19.84 L45.5,12.299999999999997 L45.5,4.759999999999998 L45.5,-2.780000000000001 L45.5,-10.32 L45.5,-17.86 L45.5,-25.400000000000006 L45.5,-32.94 L45.5,-40.480000000000004 L45.5,-54.0 L46.5,-54.0 L46.5,-46.46 L46.5,-38.92 L46.5,-31.38 L46.5,-23.84 L46.5,-16.299999999999997 L46.5,-8.759999999999998 L46.5,-1.2199999999999989 L46.5,6.32 L46.5,13.86 L46.5,21.400000000000006 L46.5,28.939999999999998 L46.5,36.480000000000004 L46.5,50.0 L54.04,50.0 L61.58,50.0 L76.5,50.0 L76.5,42.46 L76.5,34.92 L76.5,27.38 L76.5,19.84 L76.5,12.299999999999997 L76.5,4.759999999999998 L76.5,-2.780000000000001 L76.5,-10.32 L76.5,-17.86 L76.5,-25.400000000000006 L76.5,-32.94 L76.5,-42.0 L77.5,-42.0 L77.5,-34.46 L77.5,-26.92 L77.5,-19.38 L77.5,-11.84 L77.5,-4.299999999999997 L77.5,3.240000000000002 L77.5,10.780000000000001 L77.5,18.32 L77.5,25.86 L77.5,33.400000000000006 L77.5,40.94 L77.5,50.0 L85.5,50.0 L85.5,42.46 L85.5,34.92 L85.5,27.38 L85.5,19.84 L85.5,12.299999999999997 L85.5,4.759999999999998 L85.5,-2.780000000000001 L85.5,-10.32 L85.5,-17.86 L85.5,-25.400000000000006 L85.5,-32.94 L85.5,-42.0 L86.5,-42.0 L86.5,-34.46 L86.5,-26.92 L86.5,-19.38 L86.5,-11.84 L86.5,-4.299999999999997 L86.5,3.240000000000002 L86.5,10.780000000000001 L86.5,18.32 L86.5,25.86 L86.5,33.400000000000006 L86.5,40.94 L86.5,50.0 L94.5,50.0 L94.5,42.46 L94.5,34.92 L94.5,27.38 L94.5,19.84 L94.5,12.299999999999997 L94.5,4.759999999999998 L94.5,-2.780000000000001 L94.5,-10.32 L94.5,-17.86 L94.5,-25.400000000000006 L94.5,-32.94 L94.5,-42.0 L95.5,-42.0 L95.5,-34.46 L95.5,-26.92 L95.5,-19.38 L95.5,-11.84 L95.5,-4.299999999999997 L95.5,3.240000000000002 L95.5,10.780000000000001 L95.5,18.32 L95.5,25.86 L95.5,33.400000000000006 L95.5,40.94 L95.5,50.0 L103.5,50.0 L103.5,42.46 L103.5,34.92 L103.5,27.38 L103.5,19.84 L103.5,12.299999999999997 L103.5,4.759999999999998 L103.5,-2.780000000000001 L103.5,-10.32 L103.5,-17.86 L103.5,-25.400000000000006 L103.5,-32.94 L103.5,-42.0 L104.5,-42.0 L104.5,-34.46 L104.5,-26.92 L104.5,-19.38 L104.5,-11.84 L104.5,-4.299999999999997 L104.5,3.240000000000002 L104.5,10.780000000000001 L104.5,18.32 L104.5,25.86 L104.5,33.400000000000006 L104.5,40.94 L104.5,50.0 L112.5,50.0 L112.5,42.46 L112.5,34.92 L112.5,27.38 L112.5,19.84 L112.5,12.299999999999997 L112.5,4.759999999999998 L112.5,-2.780000000000001 L112.5,-10.32 L112.5,-17.86 L112.5,-25.400000000000006 L112.5,-32.94 L112.5,-42.0 L113.5,-42.0 L113.5,-34.46 L113.5,-26.92 L113.5,-19.38 L113.5,-11.84 L113.5,-4.299999999999997 L113.5,3.240000000000002 L113.5,10.780000000000001 L113.5,18.32 L113.5,25.86 L113.5,33.400000000000006 L113.5,40.94 L113.5,50.0 L121.04,50.0 L128.58,50.0 L143.5,50.0 L143.5,42.46 L143.5,34.92 L143.5,27.38 L143.5,19.84 L143.5,12.299999999999997 L143.5,4.759999999999998 L143.5,-2.780000000000001 L143.5,-10.32 L143.5,-17.86 L143.5,-30.0 L144.5,-30.0 L144.5,-22.46 L144.5,-14.92 L144.5,-7.379999999999999 L144.5,0.16000000000000014 L144.5,7.700000000000003 L144.5,15.240000000000002 L144.5,22.78 L144.5,30.32 L144.5,37.86 L144.5,50.0 L152.5,50.0 L152.5,42.46 L152.5,34.92 L152.5,27.38 L152.5,19.84 L152.5,12.299999999999997 L152.5,4.759999999999998 L152.5,-2.780000000000001 L152.5,-10.32 L152.5,-17.86 L152.5,-30.0 L153.5,-30.0 L153.5,-22.46 L153.5,-14.92 L153.5,-7.379999999999999 L153.5,0.16000000000000014 L153.5,7.700000000000003 L153.5,15.240000000000002 L153.5,22.78 L153.5,30.32 L153.5,37.86 L153.5,50.0 L161.5,50.0 L161.5,42.46 L161.5,34.92 L161.5,27.38 L161.5,19.84 L161.5,12.299999999999997 L161.5,4.759999999999998 L161.5,-2.780000000000001 L161.5,-10.32 L161.5,-17.86 L161.5,-30.0 L162.5,-30.0 L162.5,-22.46 L162.5,-14.92 L162.5,-7.379999999999999 L162.5,0.16000000000000014 L162.5,7.700000000000003 L162.5,15.240000000000002 L162.5,22.78 L162.5,30.32 L162.5,37.86 L162.5,50.0 L170.5,50.0 L170.5,42.46 L170.5,34.92 L170.5,27.38 L170.5,19.84 L170.5,12.299999999999997 L170.5,4.759999999999998 L170.5,-2.780000000000001 L170.5,-10.32 L170.5,-17.86 L170.5,-30.0 L171.5,-30.0 L171.5,-22.46 L171.5,-14.92 L171.5,-7.379999999999999 L171.5,0.16000000000000014 L171.5,7.700000000000003 L171.5,15.240000000000002 L171.5,22.78 L171.5,30.32 L171.5,37.86 L171.5,50.0 L179.5,50.0 L179.5,42.46 L179.5,34.92 L179.5,27.38 L179.5,19.84 L179.5,12.299999999999997 L179.5,4.759999999999998 L179.5,-2.780000000000001 L179.5,-10.32 L179.5,-17.86 L179.5,-30.0 L180.5,-30.0 L180.5,-22.46 L180.5,-14.92 L180.5,-7.379999999999999 L180.5,0.16000000000000014 L180.5,7.700000000000003 L180.5,15.240000000000002 L180.5,22.78 L180.5,30.32 L180.5,37.86 L180.5,50.0 L188.5,50.0" stroke-width="0.202" stroke="black" fill-opacity="0" />
</svg>