<?xml version="1.0" encoding="UTF-8"?>
<svg xmlns="http://www.w3.org/2000/svg" xmlns:xlink="http://www.w3.org/1999/xlink"
     width="200" height="200" viewBox="-100.0 -100.0 200 200" displayInline="False">
<defs>
</defs>
<path d="M-120,100 L-120,-180 L-124,-176 L-116,-172 L-124,-168 L-116,-164 L-124,-160 L-116,-156 L-124,-152 L-116,-148 L-124,-144 L-120,-140 L-80,100 L-84,104 L-76,108 L-84,112 L-76,116 L-84,120 L-76,124 L-84,128 L-76,132 L-84,136 L-80,140 L-80,100 L-80,-180 L-84,-176 L-76,-172 L-84,-168 L-76,-164 L-84,-160 L-76,-156 L-84,-152 L-76,-148 L-84,-144 L-80,-140 L-40,100 L-44,104 L-36,108 L-44,112 L-36,116 L-44,120 L-36,124 L-44,128 L-36,132 L-44,136 L-40,140 L-40,100 L-40,-180 L-44,-176 L-36,-172 L-44,-168 L-36,-164 L-44,-160 L-36,-156 L-44,-152 L-36,-148 L-44,-144 L-40,-140 L0,100 L-4,104 L4,108 L-4,112 L4,116 L-4,120 L4,124 L-4,128 L4,132 L-4,136 L0,140 L0,100 L0,-180 L-4,-176 L4,-172 L-4,-168 L4,-164 L-4,-160 L4,-156 L-4,-152 L4,-148 L-4,-144 L0,-140 L40,100 L36,104 L44,108 L36,112 L44,116 L36,120 L44,124 L36,128 L44,132 L36,136 L40,140 L40,100 L40,-180 L36,-176 L44,-172 L36,-168 L44,-164 L36,-160 L44,-156 L36,-152 L44,-148 L36,-144 L40,-140 L80,100 L76,104 L84,108 L76,112 L84,116 L76,120 L84,124 L76,128 L84,132 L76,136 L80,140 L80,100 L80,-140" stroke-width="0.202" stroke="black" fill-opacity="0" />
</svg>