<?xml version="1.0" encoding="UTF-8"?>
<svg xmlns="http://www.w3.org/2000/svg" xmlns:xlink="http://www.w3.org/1999/xlink"
     width="200" height="200" viewBox="-100.0 -100.0 200 200" displayInline="False">
<defs>
</defs>
<path d="M-60,140 L-60,-180 L-64,-176 L-56,-172 L-64,-168 L-56,-164 L-64,-160 L-56,-156 L-64,-152 L-56,-148 L-64,-144 L-60,-140 L-30,140 L-34,144 L-26,148 L-34,152 L-26,156 L-34,160 L-26,164 L-34,168 L-26,172 L-34,176 L-30,180 L-30,140 L-30,-180 L-34,-176 L-26,-172 L-34,-168 L-26,-164 L-34,-160 L-26,-156 L-34,-152 L-26,-148 L-34,-144 L-30,-140 L0,140 L-4,144 L4,148 L-4,152 L4,156 L-4,160 L4,164 L-4,168 L4,172 L-4,176 L0,180 L0,140 L0,-180 L-4,-176 L4,-172 L-4,-168 L4,-164 L-4,-160 L4,-156 L-4,-152 L4,-148 L-4,-144 L0,-140 L30,140 L26,144 L34,148 L26,152 L34,156 L26,160 L34,164 L26,168 L34,172 L26,176 L30,180 L30,140 L30,-180 L26,-176 L34,-172 L26,-168 L34,-164 L26,-160 L34,-156 L26,-152 L34,-148 L26,-144 L30,-140 L60,140 L56,144 L64,148 L56,152 L64,156 L56,160 L64,164 L56,168 L64,172 L56,176 L60,180 L60,140 L60,-140" stroke-width="0.202" stroke="black" fill-opacity="0" />
</svg>