<?xml version="1.0" encoding="UTF-8"?>
<svg xmlns="http://www.w3.org/2000/svg" xmlns:xlink="http://www.w3.org/1999/xlink"
     width="200" height="200" viewBox="-100.0 -100.0 200 200" displayInline="False">
<defs>
</defs>
<path d="M-140,-100 L-140,-110 L-150,-110 L-150,-100 L-140,-100 L-100,-100 L-100,-110 L-110,-110 L-110,-100 L-100,-100 L-60,-100 L-60,-110 L-70,-110 L-70,-100 L-60,-100 L-20,-100 L-20,-110 L-30,-110 L-30,-100 L-20,-100 L20,-100 L20,-110 L10,-110 L10,-100 L20,-100 L60,-100 L60,-110 L50,-110 L50,-100 L60,-100 M-140,-60 L-140,-50 L-150,-50 L-150,-60 L-140,-60 L-100,-60 L-100,-50 L-110,-50 L-110,-60 L-100,-60 L-60,-60 L-60,-50 L-70,-50 L-70,-60 L-60,-60 L-20,-60 L-20,-50 L-30,-50 L-30,-60 L-20,-60 L20,-60 L20,-50 L10,-50 L10,-60 L20,-60 L60,-60 L60,-50 L50,-50 L50,-60 L60,-60 M-140,-20 L-140,-30 L-150,-30 L-150,-20 L-140,-20 L-100,-20 L-100,-30 L-110,-30 L-110,-20 L-100,-20 L-60,-20 L-60,-30 L-70,-30 L-70,-20 L-60,-20 L-20,-20 L-20,-30 L-30,-30 L-30,-20 L-20,-20 L20,-20 L20,-30 L10,-30 L10,-20 L20,-20 L60,-20 L60,-30 L50,-30 L50,-20 L60,-20 M-140,20 L-140,30 L-150,30 L-150,20 L-140,20 L-100,20 L-100,30 L-110,30 L-110,20 L-100,20 L-60,20 L-60,30 L-70,30 L-70,20 L-60,20 L-20,20 L-20,30 L-30,30 L-30,20 L-20,20 L20,20 L20,30 L10,30 L10,20 L20,20 L60,20 L60,30 L50,30 L50,20 L60,20 M-140,60 L-140,50 L-150,50 L-150,60 L-140,60 L-100,60 L-100,50 L-110,50 L-110,60 L-100,60 L-60,60 L-60,50 L-70,50 L-70,60 L-60,60 L-20,60 L-20,50 L-30,50 L-30,60 L-20,60 L20,60 L20,50 L10,50 L10,60 L20,60 L60,60 L60,50 L50,50 L50,60 L60,60 M-140,100 L-140,110 L-150,110 L-150,100 L-140,100 L-100,100 L-100,110 L-110,110 L-110,100 L-100,100 L-60,100 L-60,110 L-70,110 L-70,100 L-60,100 L-20,100 L-20,110 L-30,110 L-30,100 L-20,100 L20,100 L20,110 L10,110 L10,100 L20,100 L60,100 L60,110 L50,110 L50,100 L60,100 M-140,140 L-140,130 L-150,130 L-150,140 L-140,140 L-100,140 L-100,130 L-110,130 L-110,140 L-100,140 L-60,140 L-60,130 L-70,130 L-70,140 L-60,140 L-20,140 L-20,130 L-30,130 L-30,140 L-20,140 L20,140 L20,130 L10,130 L10,140 L20,140 L60,140 L60,130 L50,130 L50,140 L60,140 M-140,180 L-140,190 L-150,190 L-150,180 L-140,180 L-100,180 L-100,190 L-110,190 L-110,180 L-100,180 L-60,180 L-60,190 L-70,190 L-70,180 L-60,180 L-20,180 L-20,190 L-30,190 L-30,180 L-20,180 L20,180 L20,190 L10,190 L10,180 L20,180 L60,180 L60,190 L50,190 L50,180 L60,180" stroke-width="0.202" stroke="black" fill-opacity="0" />
</svg>