<?xml version="1.0" encoding="UTF-8"?>
<svg xmlns="http://www.w3.org/2000/svg" xmlns:xlink="http://www.w3.org/1999/xlink"
     width="200" height="200" viewBox="-100.0 -100.0 200 200" display="False">
<defs>
</defs>
<path d="M-110,0 L-110,10 L-120,10 L-120,0 L-90,0 L-90,-90 L-90,-93.0 L-87.0,-93.0 L-87.0,-87.0 L-93.0,-87.0 L-93.0,-96.0 L-84.0,-96.0 L-84.0,-84.0 L-96.0,-84.0 L-96.0,-99.0 L-81.0,-99.0 L-81.0,-81.0 L-99.0,-81.0 L-99.0,-102.0 L-78.0,-102.0 L-78.0,-78.0 L-102.0,-78.0 L-102.0,-105.0 L-75.0,-105.0 L-75.0,-75.0 L-105.0,-75.0 L-105.0,-108.0 L-72.0,-108.0 L-72.0,-72.0 L-108.0,-72.0 L-108.0,-111.0 L-69.0,-111.0 L-69.0,-69.0 L-111.0,-69.0 L-111.0,-114.0 L-66.0,-114.0 L-66.0,-66.0 L-114.0,-66.0 L-114.0,-117.0 L-63.0,-117.0 L-63.0,-63.0 L-117.0,-63.0 L-117.0,-120.0 L-60.0,-120.0 L-60.0,-60.0 L-120.0,-60.0 L-120.0,-123.0 L-57.0,-123.0 L-57.0,-57.0 L-123.0,-57.0 L-123.0,-126.0 L-54.0,-126.0 L-54.0,-54.0 L-126.0,-54.0 L-126.0,-129.0 L-51.0,-129.0 L-51.0,-51.0 L-129.0,-51.0 L-129.0,-132.0 L-48.0,-132.0 L-48.0,-48.0 L-132.0,-48.0 L-132.0,-135.0 L-45.0,-135.0 L-45.0,-45.0 L-135.0,-45.0 L-135.0,-138.0 L-42.0,-138.0 L-42.0,-42.0 L-138.0,-42.0 L-138.0,-141.0 L-39.0,-141.0 L-39.0,-39.0 L-141.0,-39.0 L-141.0,-144.0 L-36.0,-144.0 L-36.0,-36.0 L-144.0,-36.0 L-144.0,-147.0 L-33.0,-147.0 L-33.0,-33.0 L-147.0,-33.0 L-147.0,-150.0 L-30.0,-150.0 L-30.0,-30.0 L-150.0,-30.0 L-150.0,-153.0 L-27.0,-153.0 L-27.0,-27.0 L-153.0,-27.0 L-153.0,-156.0 L-24.0,-156.0 L-24.0,-24.0 L-156.0,-24.0 L-156.0,-159.0 L-21.0,-159.0 L-21.0,-21.0 L-159.0,-21.0 L-159.0,-162.0 L-18.0,-162.0 L-18.0,-18.0 L-162.0,-18.0 L-162.0,-165.0 L-15.0,-165.0 L-15.0,-15.0 L-165.0,-15.0 L-165.0,-168.0 L-12.0,-168.0 L-12.0,-12.0 L-87,-12.0 L-87,0 L-30,0 L-30,10 L-40,10 L-40,0" stroke-width="0.202" stroke="black" fill-opacity="0" />
</svg>