<?xml version="1.0" encoding="UTF-8"?>
<svg xmlns="http://www.w3.org/2000/svg" xmlns:xlink="http://www.w3.org/1999/xlink"
     width="200" height="200" viewBox="-100.0 -100.0 200 200" display="False">
<defs>
</defs>
<path d="M-110,-30 L-110,-20 L-120,-20 L-120,-30 L-90,-30 L-90,-90 L-90,-93.0 L-87.0,-93.0 L-87.0,-87.0 L-93.0,-87.0 L-93.0,-96.0 L-84.0,-96.0 L-84.0,-84.0 L-96.0,-84.0 L-96.0,-99.0 L-81.0,-99.0 L-81.0,-81.0 L-99.0,-81.0 L-99.0,-102.0 L-78.0,-102.0 L-78.0,-78.0 L-102.0,-78.0 L-102.0,-105.0 L-75.0,-105.0 L-75.0,-75.0 L-105.0,-75.0 L-105.0,-108.0 L-72.0,-108.0 L-72.0,-72.0 L-108.0,-72.0 L-108.0,-111.0 L-69.0,-111.0 L-69.0,-69.0 L-111.0,-69.0 L-111.0,-114.0 L-66.0,-114.0 L-66.0,-66.0 L-114.0,-66.0 L-114.0,-117.0 L-63.0,-117.0 L-63.0,-63.0 L-117.0,-63.0 L-117.0,-120.0 L-60.0,-120.0 L-60.0,-60.0 L-120.0,-60.0 L-120.0,-123.0 L-57.0,-123.0 L-57.0,-57.0 L-123.0,-57.0 L-123.0,-126.0 L-54.0,-126.0 L-54.0,-54.0 L-126.0,-54.0 L-126.0,-129.0 L-51.0,-129.0 L-51.0,-51.0 L-129.0,-51.0 L-129.0,-132.0 L-48.0,-132.0 L-48.0,-48.0 L-132.0,-48.0 L-132.0,-135.0 L-45.0,-135.0 L-45.0,-45.0 L-135.0,-45.0 L-135.0,-138.0 L-42.0,-138.0 L-42.0,-42.0 L-87,-42.0 L-87,-30 L-30,-30 L-30,-20 L-40,-20 L-40,-30" stroke-width="0.202" stroke="black" fill-opacity="0" />
</svg>