<?xml version="1.0" encoding="UTF-8"?>
<svg xmlns="http://www.w3.org/2000/svg" xmlns:xlink="http://www.w3.org/1999/xlink"
     width="200" height="200" viewBox="-100.0 -100.0 200 200" displayInline="False">
<defs>
</defs>
<path d="M-240,-80 L-80,-80 L80,-80 L80,-76 L-80,-76 L-80,-72 L80,-72 L80,-68 L-80,-68 L-80,-64 L80,-64 L80,-60 L-80,-60 L-80,-56 L80,-56 L80,-52 L-80,-52 L-80,-48 L80,-48 L80,-44 L-80,-44 L-80,-40 L80,-40 L80,-36 L-80,-36 L-80,-32 L80,-32 L80,-28 L-80,-28 L-80,-24 L80,-24 L80,-20 L-80,-20 L-80,-16 L80,-16 L80,-12 L-80,-12 L-80,-8 L80,-8 L80,-4 L-80,-4 L-80,0 L80,0 L80,4 L-80,4 L-80,8 L80,8 L80,12 L-80,12 L-80,16 L80,16 L80,20 L-80,20 L-80,24 L80,24 L80,28 L-80,28 L-80,32 L80,32 L80,36 L-80,36 L-80,40 L80,40 L80,44 L-80,44 L-80,48 L80,48 L80,52 L-80,52 L-80,56 L80,56 L80,60 L-80,60 L-80,64 L80,64 L80,68 L-80,68 L-80,72 L80,72 L80,76 L-80,76 M80,100 L80,120 L76,120 L76,100 M76,-100 L76,-120 L72,-120 L72,-100 M72,100 L72,120 L68,120 L68,100 M68,-100 L68,-120 L64,-120 L64,-100 M64,100 L64,120 L60,120 L60,100 M60,-100 L60,-120 L56,-120 L56,-100 M56,100 L56,120 L52,120 L52,100 M52,-100 L52,-120 L48,-120 L48,-100 M48,100 L48,120 L44,120 L44,100 M44,-100 L44,-120 L40,-120 L40,-100 M40,100 L40,120 L36,120 L36,100 M36,-100 L36,-120 L32,-120 L32,-100 M32,100 L32,120 L28,120 L28,100 M28,-100 L28,-120 L24,-120 L24,-100 M24,100 L24,120 L20,120 L20,100 M20,-100 L20,-120 L16,-120 L16,-100 M16,100 L16,120 L12,120 L12,100 M12,-100 L12,-120 L8,-120 L8,-100 M8,100 L8,120 L4,120 L4,100 M4,-100 L4,-120 L0,-120 L0,-100 M0,100 L0,120 L-4,120 L-4,100 M-4,-100 L-4,-120 L-8,-120 L-8,-100 M-8,100 L-8,120 L-12,120 L-12,100 M-12,-100 L-12,-120 L-16,-120 L-16,-100 M-16,100 L-16,120 L-20,120 L-20,100 M-20,-100 L-20,-120 L-24,-120 L-24,-100 M-24,100 L-24,120 L-28,120 L-28,100 M-28,-100 L-28,-120 L-32,-120 L-32,-100 M-32,100 L-32,120 L-36,120 L-36,100 M-36,-100 L-36,-120 L-40,-120 L-40,-100 M-40,100 L-40,120 L-44,120 L-44,100 M-44,-100 L-44,-120 L-48,-120 L-48,-100 M-48,100 L-48,120 L-52,120 L-52,100 M-52,-100 L-52,-120 L-56,-120 L-56,-100 M-56,100 L-56,120 L-60,120 L-60,100 M-60,-100 L-60,-120 L-64,-120 L-64,-100 M-64,100 L-64,120 L-68,120 L-68,100 M-68,-100 L-68,-120 L-72,-120 L-72,-100 M-72,100 L-72,120 L-76,120 L-76,100 M-76,-100 L-76,-120 L-80,-120 L-80,-100 L-240,-100" stroke-width="0.202" stroke="black" fill-opacity="0" />
</svg>