<?xml version="1.0" encoding="UTF-8"?>
<svg xmlns="http://www.w3.org/2000/svg" xmlns:xlink="http://www.w3.org/1999/xlink"
     width="200" height="200" viewBox="-100.0 -100.0 200 200" displayInline="False">
<defs>
</defs>
<path d="M-160,-160 L-156,-166 L-164,-172 L-156,-178 L-164,-184 L-156,-190 L-164,-196 L-156,-202 L-164,-208 L-156,-214 L-160,-220 L-160,-160 M-160,0 L-160,60 L-156,54 L-164,48 L-156,42 L-164,36 L-156,30 L-164,24 L-156,18 L-164,12 L-156,6 L-160,0 M-140,-160 L-136,-166 L-144,-172 L-136,-178 L-144,-184 L-136,-190 L-144,-196 L-136,-202 L-144,-208 L-136,-214 L-140,-220 L-140,-160 M-140,0 L-140,60 L-136,54 L-144,48 L-136,42 L-144,36 L-136,30 L-144,24 L-136,18 L-144,12 L-136,6 L-140,0 M-120,-160 L-116,-166 L-124,-172 L-116,-178 L-124,-184 L-116,-190 L-124,-196 L-116,-202 L-124,-208 L-116,-214 L-120,-220 L-120,-160 M-120,0 L-120,60 L-116,54 L-124,48 L-116,42 L-124,36 L-116,30 L-124,24 L-116,18 L-124,12 L-116,6 L-120,0 M-100,-160 L-96,-166 L-104,-172 L-96,-178 L-104,-184 L-96,-190 L-104,-196 L-96,-202 L-104,-208 L-96,-214 L-100,-220 L-100,-160 M-100,0 L-100,60 L-96,54 L-104,48 L-96,42 L-104,36 L-96,30 L-104,24 L-96,18 L-104,12 L-96,6 L-100,0 M-80,-160 L-76,-166 L-84,-172 L-76,-178 L-84,-184 L-76,-190 L-84,-196 L-76,-202 L-84,-208 L-76,-214 L-80,-220 L-80,-160 M-80,0 L-80,60 L-76,54 L-84,48 L-76,42 L-84,36 L-76,30 L-84,24 L-76,18 L-84,12 L-76,6 L-80,0 M-60,-160 L-56,-166 L-64,-172 L-56,-178 L-64,-184 L-56,-190 L-64,-196 L-56,-202 L-64,-208 L-56,-214 L-60,-220 L-60,-160 M-60,0 L-60,60 L-56,54 L-64,48 L-56,42 L-64,36 L-56,30 L-64,24 L-56,18 L-64,12 L-56,6 L-60,0 M-40,-160 L-36,-166 L-44,-172 L-36,-178 L-44,-184 L-36,-190 L-44,-196 L-36,-202 L-44,-208 L-36,-214 L-40,-220 L-40,-160 M-40,0 L-40,60 L-36,54 L-44,48 L-36,42 L-44,36 L-36,30 L-44,24 L-36,18 L-44,12 L-36,6 L-40,0 M-20,-160 L-16,-166 L-24,-172 L-16,-178 L-24,-184 L-16,-190 L-24,-196 L-16,-202 L-24,-208 L-16,-214 L-20,-220 L-20,-160 M-20,0 L-20,60 L-16,54 L-24,48 L-16,42 L-24,36 L-16,30 L-24,24 L-16,18 L-24,12 L-16,6 L-20,0 M0,-160 L4,-166 L-4,-172 L4,-178 L-4,-184 L4,-190 L-4,-196 L4,-202 L-4,-208 L4,-214 L0,-220 L0,-160 M0,0 L0,60 L4,54 L-4,48 L4,42 L-4,36 L4,30 L-4,24 L4,18 L-4,12 L4,6 L0,0" stroke-width="0.202" stroke="black" fill-opacity="0" />
</svg>