<?xml version="1.0" encoding="UTF-8"?>
<svg xmlns="http://www.w3.org/2000/svg" xmlns:xlink="http://www.w3.org/1999/xlink"
     width="200" height="200" viewBox="-100.0 -100.0 200 200" displayInline="False">
<defs>
</defs>
<path d="M-160,-160 L-160,-70 L-170,-70 L-170,-80 L-120,-80 L-120.0,-72.46 L-120.0,-64.92 L-120.0,-57.379999999999995 L-120.0,-49.84 L-120.0,-42.3 L-120.0,-34.76 L-120.0,-27.22 L-120.0,-19.68 L-120.0,-12.14 L-120.0,-4.599999999999994 L-120.0,2.9399999999999977 L-120.0,10.480000000000004 L-120.0,18.019999999999996 L-120.0,25.560000000000002 L-120,40 L-119,40 L-119.0,32.46 L-119.0,24.92 L-119.0,17.38 L-119.0,9.84 L-119.0,2.299999999999997 L-119.0,-5.240000000000002 L-119.0,-12.780000000000001 L-119.0,-20.32 L-119.0,-27.86 L-119.0,-35.400000000000006 L-119.0,-42.94 L-119.0,-50.480000000000004 L-119.0,-58.019999999999996 L-119.0,-65.56 L-119,-80 L-111.0,-80 L-111.0,-72.46 L-111.0,-64.92 L-111.0,-57.379999999999995 L-111.0,-49.84 L-111.0,-42.3 L-111.0,-34.76 L-111.0,-27.22 L-111.0,-19.68 L-111.0,-12.14 L-111.0,-4.599999999999994 L-111.0,2.9399999999999977 L-111.0,10.480000000000004 L-111.0,18.019999999999996 L-111.0,25.560000000000002 L-111,40 L-110,40 L-110.0,32.46 L-110.0,24.92 L-110.0,17.38 L-110.0,9.84 L-110.0,2.299999999999997 L-110.0,-5.240000000000002 L-110.0,-12.780000000000001 L-110.0,-20.32 L-110.0,-27.86 L-110.0,-35.400000000000006 L-110.0,-42.94 L-110.0,-50.480000000000004 L-110.0,-58.019999999999996 L-110.0,-65.56 L-110,-80 L-102.0,-80 L-102.0,-72.46 L-102.0,-64.92 L-102.0,-57.379999999999995 L-102.0,-49.84 L-102.0,-42.3 L-102.0,-34.76 L-102.0,-27.22 L-102.0,-19.68 L-102.0,-12.14 L-102.0,-4.599999999999994 L-102.0,2.9399999999999977 L-102.0,10.480000000000004 L-102.0,18.019999999999996 L-102.0,25.560000000000002 L-102,40 L-101,40 L-101.0,32.46 L-101.0,24.92 L-101.0,17.38 L-101.0,9.84 L-101.0,2.299999999999997 L-101.0,-5.240000000000002 L-101.0,-12.780000000000001 L-101.0,-20.32 L-101.0,-27.86 L-101.0,-35.400000000000006 L-101.0,-42.94 L-101.0,-50.480000000000004 L-101.0,-58.019999999999996 L-101.0,-65.56 L-101,-80 L-93.0,-80 L-93.0,-72.46 L-93.0,-64.92 L-93.0,-57.379999999999995 L-93.0,-49.84 L-93.0,-42.3 L-93.0,-34.76 L-93.0,-27.22 L-93.0,-19.68 L-93.0,-12.14 L-93.0,-4.599999999999994 L-93.0,2.9399999999999977 L-93.0,10.480000000000004 L-93.0,18.019999999999996 L-93.0,25.560000000000002 L-93,40 L-92,40 L-92.0,32.46 L-92.0,24.92 L-92.0,17.38 L-92.0,9.84 L-92.0,2.299999999999997 L-92.0,-5.240000000000002 L-92.0,-12.780000000000001 L-92.0,-20.32 L-92.0,-27.86 L-92.0,-35.400000000000006 L-92.0,-42.94 L-92.0,-50.480000000000004 L-92.0,-58.019999999999996 L-92.0,-65.56 L-92,-80 L-84.0,-80 L-84.0,-72.46 L-84.0,-64.92 L-84.0,-57.379999999999995 L-84.0,-49.84 L-84.0,-42.3 L-84.0,-34.76 L-84.0,-27.22 L-84.0,-19.68 L-84.0,-12.14 L-84.0,-4.599999999999994 L-84.0,2.9399999999999977 L-84.0,10.480000000000004 L-84.0,18.019999999999996 L-84.0,25.560000000000002 L-84,40 L-83,40 L-83.0,32.46 L-83.0,24.92 L-83.0,17.38 L-83.0,9.84 L-83.0,2.299999999999997 L-83.0,-5.240000000000002 L-83.0,-12.780000000000001 L-83.0,-20.32 L-83.0,-27.86 L-83.0,-35.400000000000006 L-83.0,-42.94 L-83.0,-50.480000000000004 L-83.0,-58.019999999999996 L-83.0,-65.56 L-83,-80 L-75.0,-80 L5,-80 M-160,50 L-170,50 L-170,60 L-160,60 L-160,50 L-124.5,50 L-124.5,42.46 L-124.5,34.92 L-124.5,27.38 L-124.5,19.84 L-124.5,12.299999999999997 L-124.5,4.759999999999998 L-124.5,-2.780000000000001 L-124.5,-10.32 L-124.5,-17.86 L-124.5,-25.400000000000006 L-124.5,-32.94 L-124.5,-40.480000000000004 L-124.5,-48.019999999999996 L-124.5,-55.56 L-124.5,-70.0 L-123.5,-70.0 L-123.5,-62.46 L-123.5,-54.92 L-123.5,-47.379999999999995 L-123.5,-39.84 L-123.5,-32.3 L-123.5,-24.759999999999998 L-123.5,-17.22 L-123.5,-9.68 L-123.5,-2.1400000000000006 L-123.5,5.400000000000006 L-123.5,12.939999999999998 L-123.5,20.480000000000004 L-123.5,28.019999999999996 L-123.5,35.56 L-123.5,50.0 L-115.5,50.0 L-115.5,42.46 L-115.5,34.92 L-115.5,27.38 L-115.5,19.84 L-115.5,12.299999999999997 L-115.5,4.759999999999998 L-115.5,-2.780000000000001 L-115.5,-10.32 L-115.5,-17.86 L-115.5,-25.400000000000006 L-115.5,-32.94 L-115.5,-40.480000000000004 L-115.5,-48.019999999999996 L-115.5,-55.56 L-115.5,-70.0 L-114.5,-70.0 L-114.5,-62.46 L-114.5,-54.92 L-114.5,-47.379999999999995 L-114.5,-39.84 L-114.5,-32.3 L-114.5,-24.759999999999998 L-114.5,-17.22 L-114.5,-9.68 L-114.5,-2.1400000000000006 L-114.5,5.400000000000006 L-114.5,12.939999999999998 L-114.5,20.480000000000004 L-114.5,28.019999999999996 L-114.5,35.56 L-114.5,50.0 L-106.5,50.0 L-106.5,42.46 L-106.5,34.92 L-106.5,27.38 L-106.5,19.84 L-106.5,12.299999999999997 L-106.5,4.759999999999998 L-106.5,-2.780000000000001 L-106.5,-10.32 L-106.5,-17.86 L-106.5,-25.400000000000006 L-106.5,-32.94 L-106.5,-40.480000000000004 L-106.5,-48.019999999999996 L-106.5,-55.56 L-106.5,-70.0 L-105.5,-70.0 L-105.5,-62.46 L-105.5,-54.92 L-105.5,-47.379999999999995 L-105.5,-39.84 L-105.5,-32.3 L-105.5,-24.759999999999998 L-105.5,-17.22 L-105.5,-9.68 L-105.5,-2.1400000000000006 L-105.5,5.400000000000006 L-105.5,12.939999999999998 L-105.5,20.480000000000004 L-105.5,28.019999999999996 L-105.5,35.56 L-105.5,50.0 L-97.5,50.0 L-97.5,42.46 L-97.5,34.92 L-97.5,27.38 L-97.5,19.84 L-97.5,12.299999999999997 L-97.5,4.759999999999998 L-97.5,-2.780000000000001 L-97.5,-10.32 L-97.5,-17.86 L-97.5,-25.400000000000006 L-97.5,-32.94 L-97.5,-40.480000000000004 L-97.5,-48.019999999999996 L-97.5,-55.56 L-97.5,-70.0 L-96.5,-70.0 L-96.5,-62.46 L-96.5,-54.92 L-96.5,-47.379999999999995 L-96.5,-39.84 L-96.5,-32.3 L-96.5,-24.759999999999998 L-96.5,-17.22 L-96.5,-9.68 L-96.5,-2.1400000000000006 L-96.5,5.400000000000006 L-96.5,12.939999999999998 L-96.5,20.480000000000004 L-96.5,28.019999999999996 L-96.5,35.56 L-96.5,50.0 L-88.5,50.0 L-88.5,42.46 L-88.5,34.92 L-88.5,27.38 L-88.5,19.84 L-88.5,12.299999999999997 L-88.5,4.759999999999998 L-88.5,-2.780000000000001 L-88.5,-10.32 L-88.5,-17.86 L-88.5,-25.400000000000006 L-88.5,-32.94 L-88.5,-40.480000000000004 L-88.5,-48.019999999999996 L-88.5,-55.56 L-88.5,-70.0 L-87.5,-70.0 L-87.5,-62.46 L-87.5,-54.92 L-87.5,-47.379999999999995 L-87.5,-39.84 L-87.5,-32.3 L-87.5,-24.759999999999998 L-87.5,-17.22 L-87.5,-9.68 L-87.5,-2.1400000000000006 L-87.5,5.400000000000006 L-87.5,12.939999999999998 L-87.5,20.480000000000004 L-87.5,28.019999999999996 L-87.5,35.56 L-87.5,50.0 L-79.5,50.0 L0.5,50.0" stroke-width="0.202" stroke="black" fill-opacity="0" />
</svg>