<?xml version="1.0" encoding="UTF-8"?>
<svg xmlns="http://www.w3.org/2000/svg" xmlns:xlink="http://www.w3.org/1999/xlink"
     width="200" height="200" viewBox="-100.0 -100.0 200 200" displayInline="False">
<defs>
</defs>
<path d="M-60,140 M-60,-180 L-64,-176 L-56,-172 L-64,-168 L-56,-164 L-64,-160 L-56,-156 L-64,-152 L-56,-148 L-64,-144 L-60,-140 M-20,140 L-24,144 L-16,148 L-24,152 L-16,156 L-24,160 L-16,164 L-24,168 L-16,172 L-24,176 L-20,180 L-20,140 M-20,-180 L-24,-176 L-16,-172 L-24,-168 L-16,-164 L-24,-160 L-16,-156 L-24,-152 L-16,-148 L-24,-144 L-20,-140 M20,140 L16,144 L24,148 L16,152 L24,156 L16,160 L24,164 L16,168 L24,172 L16,176 L20,180 L20,140 M20,-180 L16,-176 L24,-172 L16,-168 L24,-164 L16,-160 L24,-156 L16,-152 L24,-148 L16,-144 L20,-140 M60,140 L56,144 L64,148 L56,152 L64,156 L56,160 L64,164 L56,168 L64,172 L56,176 L60,180 L60,140 M60,-140 L60,-180 L56,-176 L64,-172 L56,-168 L64,-164 L56,-160 L64,-156 L56,-152 L64,-148 L56,-144 L60,-140" stroke-width="0.202" stroke="black" fill-opacity="0" />
</svg>