<?xml version="1.0" encoding="UTF-8"?>
<svg xmlns="http://www.w3.org/2000/svg" xmlns:xlink="http://www.w3.org/1999/xlink"
     width="200" height="200" viewBox="-100.0 -100.0 200 200" displayInline="False">
<defs>
</defs>
<path d="M95,-120 L4.465,-120.0 L4.465,-115.535 L4.465,-111.07 L0.0,-111.07 L-4.465,-111.07 L-4.465,-115.535 L-4.465,-120.0 L0,-120.0 L-129.485,-120.0 L-131.7175,-120.0 L-131.7175,-122.2325 L-127.25250000000001,-122.2325 L-127.25250000000001,-117.7675 L-135.7175,-117.7675 L-135.7175,-126.2325 L-131.2525,-126.2325 L-123.25250000000001,-126.2325 L-123.25250000000001,-121.7675 L-123.25250000000001,-113.7675 L-127.71750000000002,-113.7675 L-132.1825,-113.7675 L-139.7175,-113.7675 L-139.7175,-118.2325 L-139.7175,-122.69749999999999 L-139.7175,-130.23250000000002 L-135.2525,-130.23250000000002 L-130.7875,-130.23250000000002 L-126.3225,-130.23250000000002 L-119.25250000000001,-130.23250000000002 L-119.25250000000001,-125.76750000000001 L-119.25250000000001,-121.30250000000001 L-119.25250000000001,-116.83750000000002 L-119.25250000000001,-109.7675 L-123.71750000000002,-109.7675 L-128.1825,-109.7675 L-132.6475,-109.7675 L-137.1125,-109.7675 L-143.7175,-109.7675 L-143.7175,-114.2325 L-143.7175,-118.69749999999999 L-143.7175,-123.1625 L-143.7175,-127.6275 L-143.7175,-134.23250000000002 L-139.2525,-134.23250000000002 L-134.7875,-134.23250000000002 L-130.3225,-134.23250000000002 L-125.8575,-134.23250000000002 L-121.3925,-134.23250000000002 L-115.25250000000001,-134.23250000000002 L-115.25250000000001,-129.7675 L-115.25250000000001,-125.30250000000001 L-115.25250000000001,-120.83750000000002 L-115.25250000000001,-116.37250000000002 L-115.25250000000001,-111.90750000000001 L-115.25250000000001,-105.7675 L-119.71750000000002,-105.7675 L-124.1825,-105.7675 L-128.6475,-105.7675 L-133.1125,-105.7675 L-137.57750000000001,-105.7675 L-142.04250000000002,-105.7675 L-147.7175,-105.7675 L-147.7175,-110.2325 L-147.7175,-114.69749999999999 L-147.7175,-119.1625 L-147.7175,-123.6275 L-147.7175,-128.0925 L-147.7175,-132.5575 L-147.7175,-138.23250000000002 L-143.2525,-138.23250000000002 L-138.7875,-138.23250000000002 L-134.3225,-138.23250000000002 L-129.85750000000002,-138.23250000000002 L-125.39250000000001,-138.23250000000002 L-120.92750000000001,-138.23250000000002 L-116.4625,-138.23250000000002 L-111.25250000000001,-138.23250000000002 L-111.25250000000001,-133.7675 L-111.25250000000001,-129.3025 L-111.25250000000001,-124.83750000000002 L-111.25250000000001,-120.37250000000002 L-111.25250000000001,-115.90750000000001 L-111.25250000000001,-111.44250000000002 L-111.25250000000001,-106.97750000000002 L-111.25250000000001,-101.7675 L-115.71750000000002,-101.7675 L-120.1825,-101.7675 L-124.64750000000001,-101.7675 L-129.1125,-101.7675 L-133.57750000000001,-101.7675 L-138.04250000000002,-101.7675 L-142.50750000000002,-101.7675 L-146.97250000000003,-101.7675 L-151.7175,-101.7675 L-151.7175,-106.2325 L-151.7175,-110.69749999999999 L-151.7175,-115.1625 L-151.7175,-119.6275 L-151.7175,-124.0925 L-151.7175,-128.5575 L-151.7175,-133.0225 L-151.7175,-137.4875 L-151.7175,-142.23250000000002 L-147.2525,-142.23250000000002 L-142.7875,-142.23250000000002 L-138.3225,-142.23250000000002 L-133.85750000000002,-142.23250000000002 L-129.3925,-142.23250000000002 L-124.92750000000001,-142.23250000000002 L-120.4625,-142.23250000000002 L-115.9975,-142.23250000000002 L-107.25250000000001,-142.23250000000002 L-107.25250000000001,-137.7675 L-107.25250000000001,-133.3025 L-107.25250000000001,-128.8375 L-107.25250000000001,-124.37250000000002 L-107.25250000000001,-119.90750000000001 L-107.25250000000001,-115.44250000000002 L-107.25250000000001,-110.97750000000002 L-107.25250000000001,-106.51250000000002 L-107.25250000000001,-97.7675 L-111.71750000000002,-97.7675 L-116.1825,-97.7675 L-120.64750000000001,-97.7675 L-125.11250000000001,-97.7675 L-129.57750000000001,-97.7675 L-134.04250000000002,-97.7675 L-138.50750000000002,-97.7675 L-142.97250000000003,-97.7675 L-147.4375,-97.7675 L-155.7175,-97.7675 L-155.7175,-102.2325 L-155.7175,-106.69749999999999 L-155.7175,-111.1625 L-155.7175,-115.6275 L-155.7175,-120.0925 L-155.7175,-124.5575 L-155.7175,-129.0225 L-155.7175,-133.4875 L-155.7175,-137.9525 L-155.7175,-146.23250000000002 L-151.2525,-146.23250000000002 L-146.7875,-146.23250000000002 L-142.3225,-146.23250000000002 L-137.85750000000002,-146.23250000000002 L-133.3925,-146.23250000000002 L-128.9275,-146.23250000000002 L-124.4625,-146.23250000000002 L-119.9975,-146.23250000000002 L-115.5325,-146.23250000000002 L-111.0675,-146.23250000000002 L-103.25250000000001,-146.23250000000002 L-103.25250000000001,-141.7675 L-103.25250000000001,-137.3025 L-103.25250000000001,-132.8375 L-103.25250000000001,-128.3725 L-103.25250000000001,-123.90750000000001 L-103.25250000000001,-119.44250000000002 L-103.25250000000001,-114.97750000000002 L-103.25250000000001,-110.51250000000002 L-103.25250000000001,-106.04750000000001 L-103.25250000000001,-101.58250000000001 L-103.25250000000001,-93.7675 L-107.71750000000002,-93.7675 L-112.1825,-93.7675 L-116.64750000000001,-93.7675 L-121.11250000000001,-93.7675 L-125.57750000000001,-93.7675 L-130.04250000000002,-93.7675 L-134.50750000000002,-93.7675 L-138.97250000000003,-93.7675 L-143.4375,-93.7675 L-147.9025,-93.7675 L-152.3675,-93.7675 L-159.7175,-93.7675 L-159.7175,-98.2325 L-159.7175,-102.69749999999999 L-159.7175,-107.1625 L-159.7175,-111.6275 L-159.7175,-116.0925 L-159.7175,-120.5575 L-159.7175,-125.0225 L-159.7175,-129.4875 L-159.7175,-133.9525 L-159.7175,-138.4175 L-159.7175,-142.8825 L-159.7175,-150.23250000000002 L-155.2525,-150.23250000000002 L-150.7875,-150.23250000000002 L-146.3225,-150.23250000000002 L-141.85750000000002,-150.23250000000002 L-137.3925,-150.23250000000002 L-132.9275,-150.23250000000002 L-128.4625,-150.23250000000002 L-123.9975,-150.23250000000002 L-119.5325,-150.23250000000002 L-115.0675,-150.23250000000002 L-110.6025,-150.23250000000002 L-106.1375,-150.23250000000002 L-99.25250000000001,-150.23250000000002 L-99.25250000000001,-145.7675 L-99.25250000000001,-141.3025 L-99.25250000000001,-136.8375 L-99.25250000000001,-132.3725 L-99.25250000000001,-127.90750000000001 L-99.25250000000001,-123.44250000000002 L-99.25250000000001,-118.97750000000002 L-99.25250000000001,-114.51250000000002 L-99.25250000000001,-110.04750000000001 L-99.25250000000001,-105.58250000000001 L-99.25250000000001,-101.11750000000002 L-99.25250000000001,-96.65250000000002 L-99.25250000000001,-89.7675 L-103.71750000000002,-89.7675 L-108.1825,-89.7675 L-112.64750000000001,-89.7675 L-117.11250000000001,-89.7675 L-121.57750000000001,-89.7675 L-126.04250000000002,-89.7675 L-130.50750000000002,-89.7675 L-134.97250000000003,-89.7675 L-139.4375,-89.7675 L-143.9025,-89.7675 L-148.3675,-89.7675 L-152.8325,-89.7675 L-157.2975,-89.7675 L-163.7175,-89.7675 L-163.7175,-94.2325 L-163.7175,-98.69749999999999 L-163.7175,-103.1625 L-163.7175,-107.6275 L-163.7175,-112.0925 L-163.7175,-116.5575 L-163.7175,-121.0225 L-163.7175,-125.4875 L-163.7175,-129.9525 L-163.7175,-134.4175 L-163.7175,-138.8825 L-163.7175,-143.3475 L-163.7175,-147.8125 L-163.7175,-154.23250000000002 L-159.2525,-154.23250000000002 L-154.7875,-154.23250000000002 L-150.3225,-154.23250000000002 L-145.85750000000002,-154.23250000000002 L-141.3925,-154.23250000000002 L-136.9275,-154.23250000000002 L-132.4625,-154.23250000000002 L-127.9975,-154.23250000000002 L-123.5325,-154.23250000000002 L-119.0675,-154.23250000000002 L-114.6025,-154.23250000000002 L-110.1375,-154.23250000000002 L-105.6725,-154.23250000000002 L-101.20750000000001,-154.23250000000002 L-95.25250000000001,-154.23250000000002 L-95.25250000000001,-149.7675 L-95.25250000000001,-145.3025 L-95.25250000000001,-140.8375 L-95.25250000000001,-136.3725 L-95.25250000000001,-131.90750000000003 L-95.25250000000001,-127.44250000000002 L-95.25250000000001,-122.97750000000002 L-95.25250000000001,-118.51250000000002 L-95.25250000000001,-114.04750000000001 L-95.25250000000001,-109.58250000000001 L-95.25250000000001,-105.11750000000002 L-95.25250000000001,-100.65250000000002 L-95.25250000000001,-96.18750000000001 L-95.25250000000001,-91.72250000000003 L-95.25250000000001,-85.7675 L-99.71750000000002,-85.7675 L-104.1825,-85.7675 L-108.64750000000001,-85.7675 L-113.11250000000001,-85.7675 L-117.57750000000001,-85.7675 L-122.04250000000002,-85.7675 L-126.50750000000001,-85.7675 L-130.97250000000003,-85.7675 L-135.4375,-85.7675 L-139.9025,-85.7675 L-144.3675,-85.7675 L-148.8325,-85.7675 L-153.2975,-85.7675 L-157.76250000000002,-85.7675 L-162.22750000000002,-85.7675 L-167.7175,-85.7675 L-167.7175,-90.2325 L-167.7175,-94.69749999999999 L-167.7175,-99.1625 L-167.7175,-103.6275 L-167.7175,-108.0925 L-167.7175,-112.5575 L-167.7175,-117.0225 L-167.7175,-121.4875 L-167.7175,-125.9525 L-167.7175,-130.4175 L-167.7175,-134.8825 L-167.7175,-139.3475 L-167.7175,-143.8125 L-167.7175,-148.2775 L-167.7175,-152.7425 L-167.7175,-158.23250000000002 L-163.2525,-158.23250000000002 L-158.7875,-158.23250000000002 L-154.3225,-158.23250000000002 L-149.85750000000002,-158.23250000000002 L-145.3925,-158.23250000000002 L-140.9275,-158.23250000000002 L-136.4625,-158.23250000000002 L-131.9975,-158.23250000000002 L-127.5325,-158.23250000000002 L-123.0675,-158.23250000000002 L-118.6025,-158.23250000000002 L-114.1375,-158.23250000000002 L-109.6725,-158.23250000000002 L-105.20750000000001,-158.23250000000002 L-100.7425,-158.23250000000002 L-96.2775,-158.23250000000002 L-91.25250000000001,-158.23250000000002 L-91.25250000000001,-153.7675 L-91.25250000000001,-149.3025 L-91.25250000000001,-144.8375 L-91.25250000000001,-140.3725 L-91.25250000000001,-135.90750000000003 L-91.25250000000001,-131.44250000000002 L-91.25250000000001,-126.97750000000002 L-91.25250000000001,-122.51250000000002 L-91.25250000000001,-118.04750000000001 L-91.25250000000001,-113.58250000000001 L-91.25250000000001,-109.11750000000002 L-91.25250000000001,-104.65250000000002 L-91.25250000000001,-100.18750000000001 L-91.25250000000001,-95.72250000000003 L-91.25250000000001,-91.25750000000002 L-91.25250000000001,-86.79250000000002 L-91.25250000000001,-81.7675 L-95.71750000000002,-81.7675 L-100.1825,-81.7675 L-104.64750000000001,-81.7675 L-109.11250000000001,-81.7675 L-113.57750000000001,-81.7675 L-118.04250000000002,-81.7675 L-122.50750000000001,-81.7675 L-126.97250000000001,-81.7675 L-131.4375,-81.7675 L-135.9025,-81.7675 L-140.3675,-81.7675 L-144.8325,-81.7675 L-149.2975,-81.7675 L-153.76250000000002,-81.7675 L-158.22750000000002,-81.7675 L-162.6925,-81.7675 L-167.15750000000003,-81.7675 L-171.7175,-81.7675 L-171.7175,-86.2325 L-171.7175,-90.69749999999999 L-171.7175,-95.1625 L-171.7175,-99.6275 L-171.7175,-104.0925 L-171.7175,-108.5575 L-171.7175,-113.0225 L-171.7175,-117.4875 L-171.7175,-121.9525 L-171.7175,-126.41749999999999 L-171.7175,-130.8825 L-171.7175,-135.3475 L-171.7175,-139.8125 L-171.7175,-144.2775 L-171.7175,-148.7425 L-171.7175,-153.20749999999998 L-171.7175,-157.6725 L-171.7175,-162.23250000000002 L-167.2525,-162.23250000000002 L-162.7875,-162.23250000000002 L-158.3225,-162.23250000000002 L-153.85750000000002,-162.23250000000002 L-149.3925,-162.23250000000002 L-144.9275,-162.23250000000002 L-140.4625,-162.23250000000002 L-135.9975,-162.23250000000002 L-131.5325,-162.23250000000002 L-127.0675,-162.23250000000002 L-122.6025,-162.23250000000002 L-118.1375,-162.23250000000002 L-113.6725,-162.23250000000002 L-109.20750000000001,-162.23250000000002 L-104.7425,-162.23250000000002 L-100.2775,-162.23250000000002 L-95.8125,-162.23250000000002 L-87.25250000000001,-162.23250000000002 L-87.25250000000001,-157.7675 L-87.25250000000001,-153.3025 L-87.25250000000001,-148.8375 L-87.25250000000001,-144.3725 L-87.25250000000001,-139.90750000000003 L-87.25250000000001,-135.44250000000002 L-87.25250000000001,-130.97750000000002 L-87.25250000000001,-126.51250000000002 L-87.25250000000001,-122.04750000000001 L-87.25250000000001,-117.58250000000001 L-87.25250000000001,-113.11750000000002 L-87.25250000000001,-108.65250000000002 L-87.25250000000001,-104.18750000000001 L-87.25250000000001,-99.72250000000003 L-87.25250000000001,-95.25750000000002 L-87.25250000000001,-90.79250000000002 L-87.25250000000001,-86.32750000000001 L-87.25250000000001,-77.7675 L-91.71750000000002,-77.7675 L-96.1825,-77.7675 L-100.64750000000001,-77.7675 L-105.11250000000001,-77.7675 L-109.57750000000001,-77.7675 L-114.04250000000002,-77.7675 L-118.50750000000001,-77.7675 L-122.97250000000001,-77.7675 L-127.43750000000001,-77.7675 L-131.9025,-77.7675 L-136.3675,-77.7675 L-140.8325,-77.7675 L-145.2975,-77.7675 L-149.76250000000002,-77.7675 L-154.22750000000002,-77.7675 L-158.6925,-77.7675 L-163.15750000000003,-77.7675 L-167.6225,-77.7675 L-175.7175,-77.7675 L-175.7175,-82.2325 L-175.7175,-86.69749999999999 L-175.7175,-91.1625 L-175.7175,-95.6275 L-175.7175,-100.0925 L-175.7175,-104.5575 L-175.7175,-109.0225 L-175.7175,-113.4875 L-175.7175,-117.9525 L-175.7175,-122.41749999999999 L-175.7175,-126.8825 L-175.7175,-131.3475 L-175.7175,-135.8125 L-175.7175,-140.2775 L-175.7175,-144.7425 L-175.7175,-149.20749999999998 L-175.7175,-153.6725 L-175.7175,-158.1375 L-175.7175,-166.23250000000002 L-171.2525,-166.23250000000002 L-166.7875,-166.23250000000002 L-162.3225,-166.23250000000002 L-157.85750000000002,-166.23250000000002 L-153.3925,-166.23250000000002 L-148.9275,-166.23250000000002 L-144.4625,-166.23250000000002 L-139.9975,-166.23250000000002 L-135.5325,-166.23250000000002 L-131.0675,-166.23250000000002 L-126.6025,-166.23250000000002 L-122.1375,-166.23250000000002 L-117.6725,-166.23250000000002 L-113.20750000000001,-166.23250000000002 L-108.7425,-166.23250000000002 L-104.2775,-166.23250000000002 L-99.8125,-166.23250000000002 L-95.3475,-166.23250000000002 L-90.88250000000001,-166.23250000000002 L-83.25250000000001,-166.23250000000002 L-83.25250000000001,-161.7675 L-83.25250000000001,-157.3025 L-83.25250000000001,-152.8375 L-83.25250000000001,-148.3725 L-83.25250000000001,-143.90750000000003 L-83.25250000000001,-139.44250000000002 L-83.25250000000001,-134.97750000000002 L-83.25250000000001,-130.51250000000002 L-83.25250000000001,-126.04750000000001 L-83.25250000000001,-121.58250000000001 L-83.25250000000001,-117.11750000000002 L-83.25250000000001,-112.65250000000002 L-83.25250000000001,-108.18750000000001 L-83.25250000000001,-103.72250000000003 L-83.25250000000001,-99.25750000000002 L-83.25250000000001,-94.79250000000002 L-83.25250000000001,-90.32750000000001 L-83.25250000000001,-85.86250000000001 L-83.25250000000001,-81.39750000000002 L-83.25250000000001,-73.7675 L-87.71750000000002,-73.7675 L-92.1825,-73.7675 L-96.64750000000001,-73.7675 L-101.11250000000001,-73.7675 L-105.57750000000001,-73.7675 L-110.04250000000002,-73.7675 L-114.50750000000001,-73.7675 L-118.97250000000001,-73.7675 L-123.43750000000001,-73.7675 L-127.9025,-73.7675 L-132.3675,-73.7675 L-136.8325,-73.7675 L-141.2975,-73.7675 L-145.76250000000002,-73.7675 L-150.22750000000002,-73.7675 L-154.6925,-73.7675 L-159.15750000000003,-73.7675 L-163.6225,-73.7675 L-168.0875,-73.7675 L-172.5525,-73.7675 L-179.7175,-73.7675 L-179.7175,-78.2325 L-179.7175,-82.69749999999999 L-179.7175,-87.1625 L-179.7175,-91.6275 L-179.7175,-96.0925 L-179.7175,-100.5575 L-179.7175,-105.0225 L-179.7175,-109.4875 L-179.7175,-113.9525 L-179.7175,-118.41749999999999 L-179.7175,-122.8825 L-179.7175,-127.3475 L-179.7175,-131.8125 L-179.7175,-136.2775 L-179.7175,-140.7425 L-179.7175,-145.20749999999998 L-179.7175,-149.6725 L-179.7175,-154.1375 L-179.7175,-158.6025 L-179.7175,-163.0675 L-179.7175,-170.23250000000002 L-175.2525,-170.23250000000002 L-170.7875,-170.23250000000002 L-166.3225,-170.23250000000002 L-161.85750000000002,-170.23250000000002 L-157.3925,-170.23250000000002 L-152.9275,-170.23250000000002 L-148.4625,-170.23250000000002 L-143.9975,-170.23250000000002 L-139.5325,-170.23250000000002 L-135.0675,-170.23250000000002 L-130.60250000000002,-170.23250000000002 L-126.1375,-170.23250000000002 L-121.6725,-170.23250000000002 L-117.20750000000001,-170.23250000000002 L-112.7425,-170.23250000000002 L-108.2775,-170.23250000000002 L-103.8125,-170.23250000000002 L-99.3475,-170.23250000000002 L-94.88250000000001,-170.23250000000002 L-90.4175,-170.23250000000002 L-85.9525,-170.23250000000002 L-79.25250000000001,-170.23250000000002 L-79.25250000000001,-165.7675 L-79.25250000000001,-161.3025 L-79.25250000000001,-156.8375 L-79.25250000000001,-152.3725 L-79.25250000000001,-147.90750000000003 L-79.25250000000001,-143.44250000000002 L-79.25250000000001,-138.97750000000002 L-79.25250000000001,-134.51250000000002 L-79.25250000000001,-130.0475 L-79.25250000000001,-125.58250000000001 L-79.25250000000001,-121.11750000000002 L-79.25250000000001,-116.65250000000002 L-79.25250000000001,-112.18750000000001 L-79.25250000000001,-107.72250000000003 L-79.25250000000001,-103.25750000000002 L-79.25250000000001,-98.79250000000002 L-79.25250000000001,-94.32750000000001 L-79.25250000000001,-89.86250000000001 L-79.25250000000001,-85.39750000000002 L-79.25250000000001,-80.93250000000002 L-79.25250000000001,-76.46750000000002 L-79.25250000000001,-69.7675 L-83.71750000000002,-69.7675 L-88.1825,-69.7675 L-92.64750000000001,-69.7675 L-97.11250000000001,-69.7675 L-101.57750000000001,-69.7675 L-106.04250000000002,-69.7675 L-110.50750000000001,-69.7675 L-114.97250000000001,-69.7675 L-119.43750000000001,-69.7675 L-123.9025,-69.7675 L-128.3675,-69.7675 L-132.8325,-69.7675 L-137.2975,-69.7675 L-141.76250000000002,-69.7675 L-146.22750000000002,-69.7675 L-150.6925,-69.7675 L-155.15750000000003,-69.7675 L-159.6225,-69.7675 L-164.0875,-69.7675 L-168.5525,-69.7675 L-173.0175,-69.7675 L-177.48250000000002,-69.7675 L-183.7175,-69.7675 L-183.7175,-74.2325 L-183.7175,-78.69749999999999 L-183.7175,-83.1625 L-183.7175,-87.6275 L-183.7175,-92.0925 L-183.7175,-96.5575 L-183.7175,-101.0225 L-183.7175,-105.4875 L-183.7175,-109.9525 L-183.7175,-114.41749999999999 L-183.7175,-118.8825 L-183.7175,-123.3475 L-183.7175,-127.8125 L-183.7175,-132.2775 L-183.7175,-136.7425 L-183.7175,-141.20749999999998 L-183.7175,-145.6725 L-183.7175,-150.1375 L-183.7175,-154.6025 L-183.7175,-159.0675 L-183.7175,-163.5325 L-183.7175,-167.9975 L-183.7175,-174.23250000000002 L-179.2525,-174.23250000000002 L-174.7875,-174.23250000000002 L-170.3225,-174.23250000000002 L-165.85750000000002,-174.23250000000002 L-161.3925,-174.23250000000002 L-156.9275,-174.23250000000002 L-152.4625,-174.23250000000002 L-147.9975,-174.23250000000002 L-143.5325,-174.23250000000002 L-139.0675,-174.23250000000002 L-134.60250000000002,-174.23250000000002 L-130.1375,-174.23250000000002 L-125.6725,-174.23250000000002 L-121.20750000000001,-174.23250000000002 L-116.7425,-174.23250000000002 L-112.2775,-174.23250000000002 L-107.8125,-174.23250000000002 L-103.3475,-174.23250000000002 L-98.88250000000001,-174.23250000000002 L-94.4175,-174.23250000000002 L-89.9525,-174.23250000000002 L-85.48750000000001,-174.23250000000002 L-81.02250000000001,-174.23250000000002 L-75.25250000000001,-174.23250000000002 L-75.25250000000001,-169.7675 L-75.25250000000001,-165.3025 L-75.25250000000001,-160.8375 L-75.25250000000001,-156.3725 L-75.25250000000001,-151.90750000000003 L-75.25250000000001,-147.44250000000002 L-75.25250000000001,-142.97750000000002 L-75.25250000000001,-138.51250000000002 L-75.25250000000001,-134.0475 L-75.25250000000001,-129.5825 L-75.25250000000001,-125.11750000000002 L-75.25250000000001,-120.65250000000002 L-75.25250000000001,-116.18750000000001 L-75.25250000000001,-111.72250000000003 L-75.25250000000001,-107.25750000000002 L-75.25250000000001,-102.79250000000002 L-75.25250000000001,-98.32750000000001 L-75.25250000000001,-93.86250000000001 L-75.25250000000001,-89.39750000000002 L-75.25250000000001,-84.93250000000002 L-75.25250000000001,-80.46750000000002 L-75.25250000000001,-76.00250000000003 L-75.25250000000001,-71.53750000000002 L-75.25250000000001,-65.7675 L-79.71750000000002,-65.7675 L-84.1825,-65.7675 L-88.64750000000001,-65.7675 L-93.11250000000001,-65.7675 L-97.57750000000001,-65.7675 L-102.04250000000002,-65.7675 L-106.50750000000001,-65.7675 L-110.97250000000001,-65.7675 L-115.43750000000001,-65.7675 L-119.9025,-65.7675 L-124.3675,-65.7675 L-128.8325,-65.7675 L-133.2975,-65.7675 L-137.76250000000002,-65.7675 L-142.22750000000002,-65.7675 L-146.6925,-65.7675 L-151.15750000000003,-65.7675 L-155.6225,-65.7675 L-160.0875,-65.7675 L-164.5525,-65.7675 L-169.0175,-65.7675 L-173.48250000000002,-65.7675 L-177.9475,-65.7675 L-182.41250000000002,-65.7675 L-187.7175,-65.7675 L-187.7175,-70.2325 L-187.7175,-74.69749999999999 L-187.7175,-79.1625 L-187.7175,-83.6275 L-187.7175,-88.0925 L-187.7175,-92.5575 L-187.7175,-97.0225 L-187.7175,-101.4875 L-187.7175,-105.9525 L-187.7175,-110.41749999999999 L-187.7175,-114.8825 L-187.7175,-119.3475 L-187.7175,-123.8125 L-187.7175,-128.2775 L-187.7175,-132.7425 L-187.7175,-137.20749999999998 L-187.7175,-141.6725 L-187.7175,-146.1375 L-187.7175,-150.6025 L-187.7175,-155.0675 L-187.7175,-159.5325 L-187.7175,-163.9975 L-187.7175,-168.46249999999998 L-187.7175,-172.9275 L-187.7175,-178.23250000000002 L-183.2525,-178.23250000000002 L-178.7875,-178.23250000000002 L-174.3225,-178.23250000000002 L-169.85750000000002,-178.23250000000002 L-165.3925,-178.23250000000002 L-160.9275,-178.23250000000002 L-156.4625,-178.23250000000002 L-151.9975,-178.23250000000002 L-147.5325,-178.23250000000002 L-143.0675,-178.23250000000002 L-138.60250000000002,-178.23250000000002 L-134.1375,-178.23250000000002 L-129.6725,-178.23250000000002 L-125.20750000000001,-178.23250000000002 L-120.7425,-178.23250000000002 L-116.2775,-178.23250000000002 L-111.8125,-178.23250000000002 L-107.3475,-178.23250000000002 L-102.88250000000001,-178.23250000000002 L-98.4175,-178.23250000000002 L-93.9525,-178.23250000000002 L-89.48750000000001,-178.23250000000002 L-85.02250000000001,-178.23250000000002 L-80.5575,-178.23250000000002 L-76.0925,-178.23250000000002 L-71.25250000000001,-178.23250000000002 L-71.25250000000001,-173.7675 L-71.25250000000001,-169.3025 L-71.25250000000001,-164.8375 L-71.25250000000001,-160.3725 L-71.25250000000001,-155.90750000000003 L-71.25250000000001,-151.44250000000002 L-71.25250000000001,-146.97750000000002 L-71.25250000000001,-142.51250000000002 L-71.25250000000001,-138.0475 L-71.25250000000001,-133.5825 L-71.25250000000001,-129.1175 L-71.25250000000001,-124.65250000000002 L-71.25250000000001,-120.18750000000001 L-71.25250000000001,-115.72250000000003 L-71.25250000000001,-111.25750000000002 L-71.25250000000001,-106.79250000000002 L-71.25250000000001,-102.32750000000001 L-71.25250000000001,-97.86250000000001 L-71.25250000000001,-93.39750000000002 L-71.25250000000001,-88.93250000000002 L-71.25250000000001,-84.46750000000002 L-71.25250000000001,-80.00250000000003 L-71.25250000000001,-75.53750000000002 L-71.25250000000001,-71.07250000000002 L-71.25250000000001,-66.60750000000002 L-71.25250000000001,-61.7675 L-75.71750000000002,-61.7675 L-80.1825,-61.7675 L-84.64750000000001,-61.7675 L-89.11250000000001,-61.7675 L-93.57750000000001,-61.7675 L-98.04250000000002,-61.7675 L-102.50750000000001,-61.7675 L-106.97250000000001,-61.7675 L-111.43750000000001,-61.7675 L-115.9025,-61.7675 L-120.3675,-61.7675 L-124.83250000000001,-61.7675 L-129.2975,-61.7675 L-133.76250000000002,-61.7675 L-138.22750000000002,-61.7675 L-142.6925,-61.7675 L-147.15750000000003,-61.7675 L-151.6225,-61.7675 L-156.0875,-61.7675 L-160.5525,-61.7675 L-165.0175,-61.7675 L-169.48250000000002,-61.7675 L-173.9475,-61.7675 L-178.41250000000002,-61.7675 L-182.8775,-61.7675 L-191.7175,-61.7675 L-191.7175,-66.2325 L-191.7175,-70.69749999999999 L-191.7175,-75.1625 L-191.7175,-79.6275 L-191.7175,-84.0925 L-191.7175,-88.5575 L-191.7175,-93.0225 L-191.7175,-97.4875 L-191.7175,-101.9525 L-191.7175,-106.41749999999999 L-191.7175,-110.8825 L-191.7175,-115.3475 L-191.7175,-119.8125 L-191.7175,-124.2775 L-191.7175,-128.7425 L-191.7175,-133.20749999999998 L-191.7175,-137.6725 L-191.7175,-142.1375 L-191.7175,-146.6025 L-191.7175,-151.0675 L-191.7175,-155.5325 L-191.7175,-159.9975 L-191.7175,-164.46249999999998 L-191.7175,-168.9275 L-191.7175,-173.39249999999998 L-191.7175,-182.23250000000002 L-187.2525,-182.23250000000002 L-182.7875,-182.23250000000002 L-178.3225,-182.23250000000002 L-173.85750000000002,-182.23250000000002 L-169.3925,-182.23250000000002 L-164.9275,-182.23250000000002 L-160.4625,-182.23250000000002 L-155.9975,-182.23250000000002 L-151.5325,-182.23250000000002 L-147.0675,-182.23250000000002 L-142.60250000000002,-182.23250000000002 L-138.1375,-182.23250000000002 L-133.6725,-182.23250000000002 L-129.2075,-182.23250000000002 L-124.7425,-182.23250000000002 L-120.2775,-182.23250000000002 L-115.8125,-182.23250000000002 L-111.3475,-182.23250000000002 L-106.88250000000001,-182.23250000000002 L-102.4175,-182.23250000000002 L-97.9525,-182.23250000000002 L-93.48750000000001,-182.23250000000002 L-89.02250000000001,-182.23250000000002 L-84.5575,-182.23250000000002 L-80.0925,-182.23250000000002 L-75.6275,-182.23250000000002 L-67.25250000000001,-182.23250000000002 L-67.25250000000001,-177.7675 L-67.25250000000001,-173.3025 L-67.25250000000001,-168.8375 L-67.25250000000001,-164.3725 L-67.25250000000001,-159.90750000000003 L-67.25250000000001,-155.44250000000002 L-67.25250000000001,-150.97750000000002 L-67.25250000000001,-146.51250000000002 L-67.25250000000001,-142.0475 L-67.25250000000001,-137.5825 L-67.25250000000001,-133.1175 L-67.25250000000001,-128.65250000000003 L-67.25250000000001,-124.0 L0,-124.0 L4.465,-124.0 L4.465,-128.465 L4.465,-132.93 L0.0,-132.93 L-4.465,-132.93 L-4.465,-128.465 L-4.465,-124.0 L0,-124.0 M-180,-40 L-180,-50 L-190,-50 L-190,-40 L-180,-40 L-100,-40 L-100,-50 L-110,-50 L-110,-40 L-100,-40 L-20,-40 L-20,-50 L-30,-50 L-30,-40 L-20,-40 L60,-40 L60,-50 L50,-50 L50,-40 L60,-40 M-180,0 L-180,10 L-190,10 L-190,0 L-180,0 L-100,0 L-100,10 L-110,10 L-110,0 L-100,0 L-20,0 L-20,10 L-30,10 L-30,0 L-20,0 L60,0 L60,10 L50,10 L50,0 L60,0" stroke-width="0.202" stroke="black" fill-opacity="0" />
</svg>