<?xml version="1.0" encoding="UTF-8"?>
<svg xmlns="http://www.w3.org/2000/svg" xmlns:xlink="http://www.w3.org/1999/xlink"
     width="200" height="200" viewBox="-100.0 -100.0 200 200" displayInline="False">
<defs>
</defs>
<path d="M-140,-120 L-140,-130 L-150,-130 L-150,-120 L-140,-120 L-60,-120 L-60,-130 L-70,-130 L-70,-120 L-60,-120 L20,-120 L20,-130 L10,-130 L10,-120 L20,-120 L100,-120 L100,-130 L90,-130 L90,-120 L100,-120 M-140,-80 L-140,-70 L-150,-70 L-150,-80 L-140,-80 L-60,-80 L-60,-70 L-70,-70 L-70,-80 L-60,-80 L20,-80 L20,-70 L10,-70 L10,-80 L20,-80 L100,-80 L100,-70 L90,-70 L90,-80 L100,-80 M-140,-40 L-140,-50 L-150,-50 L-150,-40 L-140,-40 L-60,-40 L-60,-50 L-70,-50 L-70,-40 L-60,-40 L20,-40 L20,-50 L10,-50 L10,-40 L20,-40 L100,-40 L100,-50 L90,-50 L90,-40 L100,-40 M-140,0 L-140,10 L-150,10 L-150,0 L-140,0 L-60,0 L-60,10 L-70,10 L-70,0 L-60,0 L20,0 L20,10 L10,10 L10,0 L20,0 L100,0 L100,10 L90,10 L90,0 L100,0 M-140,40 L-140,30 L-150,30 L-150,40 L-140,40 L-60,40 L-60,30 L-70,30 L-70,40 L-60,40 L20,40 L20,30 L10,30 L10,40 L20,40 L100,40 L100,30 L90,30 L90,40 L100,40 M-140,80 L-140,90 L-150,90 L-150,80 L-140,80 L-60,80 L-60,90 L-70,90 L-70,80 L-60,80 L20,80 L20,90 L10,90 L10,80 L20,80 L100,80 L100,90 L90,90 L90,80 L100,80 M-140,120 L-140,110 L-150,110 L-150,120 L-140,120 L-60,120 L-60,110 L-70,110 L-70,120 L-60,120 L20,120 L20,110 L10,110 L10,120 L20,120 L100,120 L100,110 L90,110 L90,120 L100,120 M-140,160 L-140,170 L-150,170 L-150,160 L-140,160 L-60,160 L-60,170 L-70,170 L-70,160 L-60,160 L20,160 L20,170 L10,170 L10,160 L20,160 L100,160 L100,170 L90,170 L90,160 L100,160" stroke-width="0.202" stroke="black" fill-opacity="0" />
</svg>