<?xml version="1.0" encoding="UTF-8"?>
<svg xmlns="http://www.w3.org/2000/svg" xmlns:xlink="http://www.w3.org/1999/xlink"
     width="200" height="200" viewBox="-100.0 -100.0 200 200" displayInline="False">
<defs>
</defs>
<path d="M-60,-80 L-60,20 L-56,14 L-64,8 L-56,2 L-64,-4 L-56,-10 L-64,-16 L-56,-22 L-64,-28 L-56,-34 L-60,-40 L-40,-40 L-40,20 L-36,14 L-44,8 L-36,2 L-44,-4 L-36,-10 L-44,-16 L-36,-22 L-44,-28 L-36,-34 L-40,-40 L-20,-40 L-20,20 L-16,14 L-24,8 L-16,2 L-24,-4 L-16,-10 L-24,-16 L-16,-22 L-24,-28 L-16,-34 L-20,-40 L0,-40 L0,20 L4,14 L-4,8 L4,2 L-4,-4 L4,-10 L-4,-16 L4,-22 L-4,-28 L4,-34 L0,-40 L20,-40 L20,20 L24,14 L16,8 L24,2 L16,-4 L24,-10 L16,-16 L24,-22 L16,-28 L24,-34 L20,-40 L40,-40 L40,20 L44,14 L36,8 L44,2 L36,-4 L44,-10 L36,-16 L44,-22 L36,-28 L44,-34 L40,-40 M-50,80 L-50,40 L-46,34 L-54,28 L-46,22 L-54,16 L-46,10 L-54,4 L-46,-2 L-54,-8 L-46,-14 L-50,-20 L-50,40 L-30,40 L-26,34 L-34,28 L-26,22 L-34,16 L-26,10 L-34,4 L-26,-2 L-34,-8 L-26,-14 L-30,-20 L-30,40 L-10,40 L-6,34 L-14,28 L-6,22 L-14,16 L-6,10 L-14,4 L-6,-2 L-14,-8 L-6,-14 L-10,-20 L-10,40 L10,40 L14,34 L6,28 L14,22 L6,16 L14,10 L6,4 L14,-2 L6,-8 L14,-14 L10,-20 L10,40 L30,40 L34,34 L26,28 L34,22 L26,16 L34,10 L26,4 L34,-2 L26,-8 L34,-14 L30,-20 L30,40 L50,40 L54,34 L46,28 L54,22 L46,16 L54,10 L46,4 L54,-2 L46,-8 L54,-14 L50,-20 L50,40" stroke-width="0.202" stroke="black" fill-opacity="0" />
</svg>