<?xml version="1.0" encoding="UTF-8"?>
<svg xmlns="http://www.w3.org/2000/svg" xmlns:xlink="http://www.w3.org/1999/xlink"
     width="200" height="200" viewBox="-100.0 -100.0 200 200" displayInline="False">
<defs>
</defs>
<path d="M95,0 L4.465,0.0 L4.465,4.465 L4.465,8.93 L0.0,8.93 L-4.465,8.93 L-4.465,4.465 L-4.465,0.0 L0,0.0 L-129.485,0.0 L-133.95000000000002,0.0 L-140.80824,0.0 L-140.80824,-4.465 L-140.80824,-11.323240000000006 L-136.34324,-11.323240000000006 L-131.87824,-11.323240000000006 L-127.41324000000002,-11.323240000000006 L-122.94824000000001,-11.323240000000006 L-118.16176000000002,-11.323240000000006 L-118.16176000000002,-6.858240000000006 L-118.16176000000002,-2.393240000000006 L-118.16176000000002,2.071759999999994 L-118.16176000000002,6.536759999999994 L-118.16176000000002,11.323240000000006 L-122.62676000000002,11.323240000000006 L-127.09176000000002,11.323240000000006 L-131.55676000000003,11.323240000000006 L-136.02176000000003,11.323240000000006 L-140.48676,11.323240000000006 L-145.27324000000002,11.323240000000006 L-145.27324000000002,6.858240000000006 L-145.27324000000002,2.393240000000006 L-145.27324000000002,-2.071759999999994 L-145.27324000000002,-6.536759999999994 L-145.27324000000002,-11.001759999999994 L-145.27324000000002,-15.788240000000005 L-140.80824,-15.788240000000005 L-136.34324,-15.788240000000005 L-131.87824,-15.788240000000005 L-127.41324000000002,-15.788240000000005 L-122.94824000000001,-15.788240000000005 L-118.48324000000002,-15.788240000000005 L-113.69676000000001,-15.788240000000005 L-113.69676000000001,-11.323240000000006 L-113.69676000000001,-6.858240000000006 L-113.69676000000001,-2.393240000000006 L-113.69676000000001,2.071759999999994 L-113.69676000000001,6.536759999999994 L-113.69676000000001,11.001759999999994 L-113.69676000000001,15.788240000000005 L-118.16176000000002,15.788240000000005 L-122.62676000000002,15.788240000000005 L-127.09176000000002,15.788240000000005 L-131.55676000000003,15.788240000000005 L-136.02176000000003,15.788240000000005 L-140.48676,15.788240000000005 L-144.95176,15.788240000000005 L-149.73824000000002,15.788240000000005 L-149.73824000000002,11.323240000000006 L-149.73824000000002,6.858240000000004 L-149.73824000000002,2.3932400000000023 L-149.73824000000002,-2.0717599999999976 L-149.73824000000002,-6.5367599999999975 L-149.73824000000002,-11.00176 L-149.73824000000002,-15.46676 L-149.73824000000002,-20.253240000000005 L-145.27324000000002,-20.253240000000005 L-140.80824,-20.253240000000005 L-136.34324,-20.253240000000005 L-131.87824,-20.253240000000005 L-127.41324000000002,-20.253240000000005 L-122.94824000000003,-20.253240000000005 L-118.48324000000002,-20.253240000000005 L-114.01824000000002,-20.253240000000005 L-109.23176000000001,-20.253240000000005 L-109.23176000000001,-15.788240000000005 L-109.23176000000001,-11.323240000000006 L-109.23176000000001,-6.858240000000006 L-109.23176000000001,-2.393240000000006 L-109.23176000000001,2.071759999999994 L-109.23176000000001,6.536759999999994 L-109.23176000000001,11.001759999999994 L-109.23176000000001,15.466759999999994 L-109.23176000000001,20.253240000000005 L-113.69676000000001,20.253240000000005 L-118.16176000000002,20.253240000000005 L-122.62676,20.253240000000005 L-127.09176000000001,20.253240000000005 L-131.55676,20.253240000000005 L-136.02176,20.253240000000005 L-140.48676,20.253240000000005 L-144.95176,20.253240000000005 L-149.41676,20.253240000000005 L-154.20324000000002,20.253240000000005 L-154.20324000000002,15.788240000000005 L-154.20324000000002,11.323240000000006 L-154.20324000000002,6.858240000000006 L-154.20324000000002,2.393240000000006 L-154.20324000000002,-2.071759999999994 L-154.20324000000002,-6.536759999999994 L-154.20324000000002,-11.001759999999994 L-154.20324000000002,-15.466759999999994 L-154.20324000000002,-19.931759999999997 L-154.20324000000002,-24.718240000000005 L-149.73824000000002,-24.718240000000005 L-145.27324000000002,-24.718240000000005 L-140.80824,-24.718240000000005 L-136.34324000000004,-24.718240000000005 L-131.87824000000003,-24.718240000000005 L-127.41324000000003,-24.718240000000005 L-122.94824000000003,-24.718240000000005 L-118.48324000000002,-24.718240000000005 L-114.01824000000002,-24.718240000000005 L-109.55324000000002,-24.718240000000005 L-104.76676,-24.718240000000005 L-104.76676,-20.253240000000005 L-104.76676,-15.788240000000005 L-104.76676,-11.323240000000006 L-104.76676,-6.858240000000006 L-104.76676,-2.393240000000006 L-104.76676,2.071759999999994 L-104.76676,6.536759999999994 L-104.76676,11.001759999999994 L-104.76676,15.466759999999997 L-104.76676,19.931759999999993 L-104.76676,24.718240000000005 L-109.23176000000001,24.718240000000005 L-113.69676000000001,24.718240000000005 L-118.16176,24.718240000000005 L-122.62676,24.718240000000005 L-127.09176000000001,24.718240000000005 L-131.55676,24.718240000000005 L-136.02176,24.718240000000005 L-140.48676,24.718240000000005 L-144.95176,24.718240000000005 L-149.41676,24.718240000000005 L-153.88175999999999,24.718240000000005 L-158.66824000000003,24.718240000000005 L-158.66824000000003,20.253240000000005 L-158.66824000000003,15.788240000000005 L-158.66824000000003,11.323240000000006 L-158.66824000000003,6.858240000000006 L-158.66824000000003,2.393240000000006 L-158.66824000000003,-2.071759999999994 L-158.66824000000003,-6.536759999999994 L-158.66824000000003,-11.001759999999994 L-158.66824000000003,-15.466759999999997 L-158.66824000000003,-19.931759999999993 L-158.66824000000003,-24.39675999999999 L-158.66824000000003,-29.183240000000005 L-154.20324000000002,-29.183240000000005 L-149.73824000000002,-29.183240000000005 L-145.27324000000002,-29.183240000000005 L-140.80824,-29.183240000000005 L-136.34324000000004,-29.183240000000005 L-131.87824000000003,-29.183240000000005 L-127.41324000000003,-29.183240000000005 L-122.94824000000003,-29.183240000000005 L-118.48324000000002,-29.183240000000005 L-114.01824000000002,-29.183240000000005 L-109.55324000000003,-29.183240000000005 L-105.08824000000003,-29.183240000000005 L-100.30176,-29.183240000000005 L-100.30176,-24.718240000000005 L-100.30176,-20.253240000000005 L-100.30176,-15.788240000000005 L-100.30176,-11.323240000000006 L-100.30176,-6.858240000000006 L-100.30176,-2.393240000000006 L-100.30176,2.071759999999994 L-100.30176,6.536759999999994 L-100.30176,11.001759999999997 L-100.30176,15.466759999999994 L-100.30176,19.93175999999999 L-100.30176,24.396759999999993 L-100.30176,29.183240000000005 L-104.76676,29.183240000000005 L-109.23176000000001,29.183240000000005 L-113.69676,29.183240000000005 L-118.16176,29.183240000000005 L-122.62676,29.183240000000005 L-127.09176,29.183240000000005 L-131.55676,29.183240000000005 L-136.02176,29.183240000000005 L-140.48676,29.183240000000005 L-144.95176,29.183240000000005 L-149.41676,29.183240000000005 L-153.88175999999999,29.183240000000005 L-158.34676000000002,29.183240000000005 L-163.13324000000003,29.183240000000005 L-163.13324000000003,24.718240000000005 L-163.13324000000003,20.253240000000005 L-163.13324000000003,15.788240000000005 L-163.13324000000003,11.323240000000006 L-163.13324000000003,6.858240000000006 L-163.13324000000003,2.393240000000006 L-163.13324000000003,-2.071759999999994 L-163.13324000000003,-6.536759999999994 L-163.13324000000003,-11.001759999999997 L-163.13324000000003,-15.466759999999994 L-163.13324000000003,-19.93175999999999 L-163.13324000000003,-24.396759999999993 L-163.13324000000003,-28.861759999999997 L-163.13324000000003,-33.64824 L-158.66824000000003,-33.64824 L-154.20324000000002,-33.64824 L-149.73824000000002,-33.64824 L-145.27324000000004,-33.64824 L-140.80824000000004,-33.64824 L-136.34324000000004,-33.64824 L-131.87824000000003,-33.64824 L-127.41324000000003,-33.64824 L-122.94824000000003,-33.64824 L-118.48324000000002,-33.64824 L-114.01824000000003,-33.64824 L-109.55324000000003,-33.64824 L-105.08824000000003,-33.64824 L-100.62324000000004,-33.64824 L-95.83676,-33.64824 L-95.83676,-29.18324 L-95.83676,-24.71824 L-95.83676,-20.25324 L-95.83676,-15.788240000000002 L-95.83676,-11.323240000000002 L-95.83676,-6.858240000000002 L-95.83676,-2.3932400000000023 L-95.83676,2.0717599999999976 L-95.83676,6.536760000000001 L-95.83676,11.001759999999997 L-95.83676,15.466759999999994 L-95.83676,19.931759999999997 L-95.83676,24.39676 L-95.83676,28.861759999999997 L-95.83676,33.64824 L-100.30176,33.64824 L-104.76675999999999,33.64824 L-109.23176,33.64824 L-113.69676,33.64824 L-118.16175999999999,33.64824 L-122.62675999999999,33.64824 L-127.09176,33.64824 L-131.55676,33.64824 L-136.02175999999997,33.64824 L-140.48676,33.64824 L-144.95175999999998,33.64824 L-149.41675999999998,33.64824 L-153.88175999999999,33.64824 L-158.34676,33.64824 L-162.81176,33.64824 L-167.59824000000003,33.64824 L-167.59824000000003,29.18324 L-167.59824000000003,24.71824 L-167.59824000000003,20.25324 L-167.59824000000003,15.788240000000002 L-167.59824000000003,11.323240000000002 L-167.59824000000003,6.858240000000002 L-167.59824000000003,2.3932400000000023 L-167.59824000000003,-2.0717599999999976 L-167.59824000000003,-6.536760000000001 L-167.59824000000003,-11.001759999999997 L-167.59824000000003,-15.466759999999994 L-167.59824000000003,-19.931759999999997 L-167.59824000000003,-24.39676 L-167.59824000000003,-28.861759999999997 L-167.59824000000003,-33.32675999999999 L-167.59824000000003,-38.113240000000005 L-163.13324000000003,-38.113240000000005 L-158.66824000000003,-38.113240000000005 L-154.20324000000002,-38.113240000000005 L-149.73824000000002,-38.113240000000005 L-145.27324000000004,-38.113240000000005 L-140.80824000000004,-38.113240000000005 L-136.34324000000004,-38.113240000000005 L-131.87824000000003,-38.113240000000005 L-127.41324000000003,-38.113240000000005 L-122.94824000000003,-38.113240000000005 L-118.48324000000004,-38.113240000000005 L-114.01824000000003,-38.113240000000005 L-109.55324000000003,-38.113240000000005 L-105.08824000000004,-38.113240000000005 L-100.62324000000004,-38.113240000000005 L-96.15824000000003,-38.113240000000005 L-91.37176,-38.113240000000005 L-91.37176,-33.64824 L-91.37176,-29.183240000000005 L-91.37176,-24.718240000000005 L-91.37176,-20.253240000000005 L-91.37176,-15.788240000000005 L-91.37176,-11.323240000000006 L-91.37176,-6.858240000000006 L-91.37176,-2.393240000000006 L-91.37176,2.0717599999999976 L-91.37176,6.536759999999994 L-91.37176,11.00175999999999 L-91.37176,15.466759999999994 L-91.37176,19.931759999999997 L-91.37176,24.396759999999993 L-91.37176,28.86175999999999 L-91.37176,33.32675999999999 L-91.37176,38.113240000000005 L-95.83676,38.113240000000005 L-100.30176,38.113240000000005 L-104.76675999999999,38.113240000000005 L-109.23176,38.113240000000005 L-113.69676,38.113240000000005 L-118.16175999999999,38.113240000000005 L-122.62675999999999,38.113240000000005 L-127.09176,38.113240000000005 L-131.55676,38.113240000000005 L-136.02176,38.113240000000005 L-140.48676,38.113240000000005 L-144.95175999999998,38.113240000000005 L-149.41676,38.113240000000005 L-153.88175999999999,38.113240000000005 L-158.34676,38.113240000000005 L-162.81176,38.113240000000005 L-167.27676,38.113240000000005 L-172.06324000000004,38.113240000000005 L-172.06324000000004,33.64824 L-172.06324000000004,29.183240000000005 L-172.06324000000004,24.718240000000005 L-172.06324000000004,20.253240000000005 L-172.06324000000004,15.788240000000005 L-172.06324000000004,11.323240000000006 L-172.06324000000004,6.858240000000006 L-172.06324000000004,2.393240000000006 L-172.06324000000004,-2.0717599999999976 L-172.06324000000004,-6.536759999999994 L-172.06324000000004,-11.00175999999999 L-172.06324000000004,-15.466759999999994 L-172.06324000000004,-19.931759999999997 L-172.06324000000004,-24.396759999999993 L-172.06324000000004,-28.86175999999999 L-172.06324000000004,-33.32675999999999 L-172.06324000000004,-37.79176 L-172.06324000000004,-42.57824000000001 L-167.59824000000003,-42.57824000000001 L-163.13324000000003,-42.57824000000001 L-158.66824000000003,-42.57824000000001 L-154.20324000000005,-42.57824000000001 L-149.73824000000005,-42.57824000000001 L-145.27324000000004,-42.57824000000001 L-140.80824000000004,-42.57824000000001 L-136.34324000000004,-42.57824000000001 L-131.87824000000003,-42.57824000000001 L-127.41324000000003,-42.57824000000001 L-122.94824000000004,-42.57824000000001 L-118.48324000000004,-42.57824000000001 L-114.01824000000003,-42.57824000000001 L-109.55324000000005,-42.57824000000001 L-105.08824000000004,-42.57824000000001 L-100.62324000000004,-42.57824000000001 L-96.15824000000003,-42.57824000000001 L-91.69324000000003,-42.57824000000001 L-86.90675999999999,-42.57824000000001 L-86.90675999999999,-38.113240000000005 L-86.90675999999999,-33.64824000000001 L-86.90675999999999,-29.18324000000001 L-86.90675999999999,-24.71824000000001 L-86.90675999999999,-20.25324000000001 L-86.90675999999999,-15.788240000000009 L-86.90675999999999,-11.323240000000009 L-86.90675999999999,-6.858240000000009 L-86.90675999999999,-2.393240000000006 L-86.90675999999999,2.0717599999999905 L-86.90675999999999,6.536759999999987 L-86.90675999999999,11.00175999999999 L-86.90675999999999,15.466759999999994 L-86.90675999999999,19.93175999999999 L-86.90675999999999,24.396759999999986 L-86.90675999999999,28.86175999999999 L-86.90675999999999,33.32675999999999 L-86.90675999999999,37.79176 L-86.90675999999999,42.57824000000001 L-91.37176,42.57824000000001 L-95.83676,42.57824000000001 L-100.30175999999999,42.57824000000001 L-104.76675999999999,42.57824000000001 L-109.23176,42.57824000000001 L-113.69675999999998,42.57824000000001 L-118.16175999999999,42.57824000000001 L-122.62675999999999,42.57824000000001 L-127.09176,42.57824000000001 L-131.55676,42.57824000000001 L-136.02175999999997,42.57824000000001 L-140.48676,42.57824000000001 L-144.95175999999998,42.57824000000001 L-149.41675999999998,42.57824000000001 L-153.88175999999999,42.57824000000001 L-158.34676,42.57824000000001 L-162.81176,42.57824000000001 L-167.27676,42.57824000000001 L-171.74176,42.57824000000001 L-176.52824000000004,42.57824000000001 L-176.52824000000004,38.113240000000005 L-176.52824000000004,33.64824000000001 L-176.52824000000004,29.18324000000001 L-176.52824000000004,24.71824000000001 L-176.52824000000004,20.25324000000001 L-176.52824000000004,15.788240000000009 L-176.52824000000004,11.323240000000009 L-176.52824000000004,6.858240000000009 L-176.52824000000004,2.393240000000006 L-176.52824000000004,-2.0717599999999905 L-176.52824000000004,-6.536759999999987 L-176.52824000000004,-11.00175999999999 L-176.52824000000004,-15.466759999999994 L-176.52824000000004,-19.93175999999999 L-176.52824000000004,-24.396759999999986 L-176.52824000000004,-28.86175999999999 L-176.52824000000004,-33.32675999999999 L-176.52824000000004,-37.79176 L-176.52824000000004,-42.256759999999986 L-176.52824000000004,-47.04324000000001 L-172.06324000000004,-47.04324000000001 L-167.59824000000003,-47.04324000000001 L-163.13324000000003,-47.04324000000001 L-158.66824000000003,-47.04324000000001 L-154.20324000000005,-47.04324000000001 L-149.73824000000005,-47.04324000000001 L-145.27324000000004,-47.04324000000001 L-140.80824000000004,-47.04324000000001 L-136.34324000000004,-47.04324000000001 L-131.87824000000003,-47.04324000000001 L-127.41324000000004,-47.04324000000001 L-122.94824000000004,-47.04324000000001 L-118.48324000000004,-47.04324000000001 L-114.01824000000005,-47.04324000000001 L-109.55324000000005,-47.04324000000001 L-105.08824000000004,-47.04324000000001 L-100.62324000000004,-47.04324000000001 L-96.15824000000003,-47.04324000000001 L-91.69324000000005,-47.04324000000001 L-87.22824000000004,-47.04324000000001 L-82.44175999999999,-47.04324000000001 L-82.44175999999999,-42.57824000000001 L-82.44175999999999,-38.11324000000001 L-82.44175999999999,-33.648240000000015 L-82.44175999999999,-29.183240000000012 L-82.44175999999999,-24.718240000000012 L-82.44175999999999,-20.253240000000012 L-82.44175999999999,-15.788240000000012 L-82.44175999999999,-11.323240000000013 L-82.44175999999999,-6.858240000000009 L-82.44175999999999,-2.393240000000013 L-82.44175999999999,2.0717599999999834 L-82.44175999999999,6.536759999999987 L-82.44175999999999,11.00175999999999 L-82.44175999999999,15.466759999999987 L-82.44175999999999,19.931759999999983 L-82.44175999999999,24.396759999999986 L-82.44175999999999,28.86175999999999 L-82.44175999999999,33.32675999999999 L-82.44175999999999,37.79175999999998 L-82.44175999999999,42.256759999999986 L-82.44175999999999,47.04324000000001 L-86.90675999999999,47.04324000000001 L-91.37176,47.04324000000001 L-95.83675999999998,47.04324000000001 L-100.30175999999999,47.04324000000001 L-104.76675999999999,47.04324000000001 L-109.23175999999998,47.04324000000001 L-113.69675999999998,47.04324000000001 L-118.16175999999999,47.04324000000001 L-122.62675999999999,47.04324000000001 L-127.09176,47.04324000000001 L-131.55676,47.04324000000001 L-136.02175999999997,47.04324000000001 L-140.48676,47.04324000000001 L-144.95175999999998,47.04324000000001 L-149.41675999999998,47.04324000000001 L-153.88175999999999,47.04324000000001 L-158.34676,47.04324000000001 L-162.81176,47.04324000000001 L-167.27675999999997,47.04324000000001 L-171.74176,47.04324000000001 L-176.20675999999997,47.04324000000001 L-180.99324000000004,47.04324000000001 L-180.99324000000004,42.57824000000001 L-180.99324000000004,38.11324000000001 L-180.99324000000004,33.648240000000015 L-180.99324000000004,29.183240000000012 L-180.99324000000004,24.718240000000012 L-180.99324000000004,20.253240000000012 L-180.99324000000004,15.788240000000012 L-180.99324000000004,11.323240000000013 L-180.99324000000004,6.858240000000009 L-180.99324000000004,2.393240000000013 L-180.99324000000004,-2.0717599999999834 L-180.99324000000004,-6.536759999999987 L-180.99324000000004,-11.00175999999999 L-180.99324000000004,-15.466759999999987 L-180.99324000000004,-19.931759999999983 L-180.99324000000004,-24.396759999999986 L-180.99324000000004,-28.86175999999999 L-180.99324000000004,-33.32675999999999 L-180.99324000000004,-37.79175999999998 L-180.99324000000004,-42.256759999999986 L-180.99324000000004,-46.72175999999999 L-180.99324000000004,-51.508240000000015 L-176.52824000000004,-51.508240000000015 L-172.06324000000004,-51.508240000000015 L-167.59824000000003,-51.508240000000015 L-163.13324000000006,-51.508240000000015 L-158.66824000000005,-51.508240000000015 L-154.20324000000005,-51.508240000000015 L-149.73824000000005,-51.508240000000015 L-145.27324000000004,-51.508240000000015 L-140.80824000000004,-51.508240000000015 L-136.34324000000004,-51.508240000000015 L-131.87824000000006,-51.508240000000015 L-127.41324000000004,-51.508240000000015 L-122.94824000000004,-51.508240000000015 L-118.48324000000005,-51.508240000000015 L-114.01824000000005,-51.508240000000015 L-109.55324000000005,-51.508240000000015 L-105.08824000000004,-51.508240000000015 L-100.62324000000004,-51.508240000000015 L-96.15824000000005,-51.508240000000015 L-91.69324000000005,-51.508240000000015 L-87.22824000000004,-51.508240000000015 L-82.76324000000005,-51.508240000000015 L-77.97675999999998,-51.508240000000015 L-77.97675999999998,-47.04324000000001 L-77.97675999999998,-42.578240000000015 L-77.97675999999998,-38.11324000000002 L-77.97675999999998,-33.648240000000015 L-77.97675999999998,-29.183240000000016 L-77.97675999999998,-24.718240000000016 L-77.97675999999998,-20.253240000000016 L-77.97675999999998,-15.788240000000016 L-77.97675999999998,-11.323240000000013 L-77.97675999999998,-6.858240000000016 L-77.97675999999998,-2.39324000000002 L-77.97675999999998,2.0717599999999834 L-77.97675999999998,6.536759999999987 L-77.97675999999998,11.001759999999983 L-77.97675999999998,15.46675999999998 L-77.97675999999998,19.931759999999983 L-77.97675999999998,24.396759999999986 L-77.97675999999998,28.86175999999999 L-77.97675999999998,33.32675999999998 L-77.97675999999998,37.79175999999998 L-77.97675999999998,42.256759999999986 L-77.97675999999998,46.721759999999975 L-77.97675999999998,51.508240000000015 L-82.44175999999999,51.508240000000015 L-86.90675999999999,51.508240000000015 L-91.37175999999998,51.508240000000015 L-95.83675999999998,51.508240000000015 L-100.30175999999999,51.508240000000015 L-104.76675999999998,51.508240000000015 L-109.23175999999998,51.508240000000015 L-113.69675999999998,51.508240000000015 L-118.16175999999999,51.508240000000015 L-122.62675999999999,51.508240000000015 L-127.09175999999998,51.508240000000015 L-131.55676,51.508240000000015 L-136.02175999999997,51.508240000000015 L-140.48675999999998,51.508240000000015 L-144.95175999999998,51.508240000000015 L-149.41675999999998,51.508240000000015 L-153.88175999999999,51.508240000000015 L-158.34676,51.508240000000015 L-162.81176,51.508240000000015 L-167.27675999999997,51.508240000000015 L-171.74176,51.508240000000015 L-176.20675999999997,51.508240000000015 L-180.67175999999998,51.508240000000015 L-185.45824000000005,51.508240000000015 L-185.45824000000005,47.04324000000001 L-185.45824000000005,42.578240000000015 L-185.45824000000005,38.11324000000002 L-185.45824000000005,33.648240000000015 L-185.45824000000005,29.183240000000016 L-185.45824000000005,24.718240000000016 L-185.45824000000005,20.253240000000016 L-185.45824000000005,15.788240000000016 L-185.45824000000005,11.323240000000013 L-185.45824000000005,6.858240000000016 L-185.45824000000005,2.39324000000002 L-185.45824000000005,-2.0717599999999834 L-185.45824000000005,-6.536759999999987 L-185.45824000000005,-11.001759999999983 L-185.45824000000005,-15.46675999999998 L-185.45824000000005,-19.931759999999983 L-185.45824000000005,-24.396759999999986 L-185.45824000000005,-28.86175999999999 L-185.45824000000005,-33.32675999999998 L-185.45824000000005,-37.79175999999998 L-185.45824000000005,-42.256759999999986 L-185.45824000000005,-46.721759999999975 L-185.45824000000005,-51.18675999999998 L-185.45824000000005,-55.97324000000002 L-180.99324000000004,-55.97324000000002 L-176.52824000000004,-55.97324000000002 L-172.06324000000004,-55.97324000000002 L-167.59824000000003,-55.97324000000002 L-163.13324000000006,-55.97324000000002 L-158.66824000000005,-55.97324000000002 L-154.20324000000005,-55.97324000000002 L-149.73824000000005,-55.97324000000002 L-145.27324000000004,-55.97324000000002 L-140.80824000000004,-55.97324000000002 L-136.34324000000004,-55.97324000000002 L-131.87824000000006,-55.97324000000002 L-127.41324000000004,-55.97324000000002 L-122.94824000000006,-55.97324000000002 L-118.48324000000005,-55.97324000000002 L-114.01824000000005,-55.97324000000002 L-109.55324000000005,-55.97324000000002 L-105.08824000000004,-55.97324000000002 L-100.62324000000005,-55.97324000000002 L-96.15824000000005,-55.97324000000002 L-91.69324000000005,-55.97324000000002 L-87.22824000000006,-55.97324000000002 L-82.76324000000005,-55.97324000000002 L-78.29824000000005,-55.97324000000002 L-73.51175999999998,-55.97324000000002 L-73.51175999999998,-51.508240000000015 L-73.51175999999998,-47.04324000000002 L-73.51175999999998,-42.57824000000002 L-73.51175999999998,-38.11324000000002 L-73.51175999999998,-33.648240000000015 L-73.51175999999998,-29.18324000000002 L-73.51175999999998,-24.71824000000002 L-73.51175999999998,-20.25324000000002 L-73.51175999999998,-15.788240000000016 L-73.51175999999998,-11.32324000000002 L-73.51175999999998,-6.858240000000023 L-73.51175999999998,-2.39324000000002 L-73.51175999999998,2.0717599999999834 L-73.51175999999998,6.53675999999998 L-73.51175999999998,11.001759999999976 L-73.51175999999998,15.46675999999998 L-73.51175999999998,19.931759999999983 L-73.51175999999998,24.396759999999986 L-73.51175999999998,28.861759999999975 L-73.51175999999998,33.32675999999998 L-73.51175999999998,37.79175999999998 L-73.51175999999998,42.25675999999997 L-73.51175999999998,46.721759999999975 L-73.51175999999998,51.18675999999998 L-73.51175999999998,55.97324000000002 L-77.97675999999998,55.97324000000002 L-82.44175999999999,55.97324000000002 L-86.90675999999998,55.97324000000002 L-91.37175999999998,55.97324000000002 L-95.83675999999998,55.97324000000002 L-100.30175999999997,55.97324000000002 L-104.76675999999998,55.97324000000002 L-109.23175999999998,55.97324000000002 L-113.69675999999998,55.97324000000002 L-118.16175999999999,55.97324000000002 L-122.62675999999998,55.97324000000002 L-127.09175999999998,55.97324000000002 L-131.55676,55.97324000000002 L-136.02175999999997,55.97324000000002 L-140.48675999999998,55.97324000000002 L-144.95175999999998,55.97324000000002 L-149.41675999999998,55.97324000000002 L-153.88175999999999,55.97324000000002 L-158.34675999999996,55.97324000000002 L-162.81176,55.97324000000002 L-167.27675999999997,55.97324000000002 L-171.74175999999997,55.97324000000002 L-176.20675999999997,55.97324000000002 L-180.67175999999998,55.97324000000002 L-185.13675999999998,55.97324000000002 L-189.92324000000005,55.97324000000002 L-189.92324000000005,51.508240000000015 L-189.92324000000005,47.04324000000002 L-189.92324000000005,42.57824000000002 L-189.92324000000005,38.11324000000002 L-189.92324000000005,33.648240000000015 L-189.92324000000005,29.18324000000002 L-189.92324000000005,24.71824000000002 L-189.92324000000005,20.25324000000002 L-189.92324000000005,15.788240000000016 L-189.92324000000005,11.32324000000002 L-189.92324000000005,6.858240000000023 L-189.92324000000005,2.39324000000002 L-189.92324000000005,-2.0717599999999834 L-189.92324000000005,-6.53675999999998 L-189.92324000000005,-11.001759999999976 L-189.92324000000005,-15.46675999999998 L-189.92324000000005,-19.931759999999983 L-189.92324000000005,-24.396759999999986 L-189.92324000000005,-28.861759999999975 L-189.92324000000005,-33.32675999999998 L-189.92324000000005,-37.79175999999998 L-189.92324000000005,-42.25675999999997 L-189.92324000000005,-46.721759999999975 L-189.92324000000005,-51.18675999999998 L-189.92324000000005,-55.65175999999998 L-189.92324000000005,-60.43824000000002 L-185.45824000000005,-60.43824000000002 L-180.99324000000004,-60.43824000000002 L-176.52824000000004,-60.43824000000002 L-172.06324000000006,-60.43824000000002 L-167.59824000000006,-60.43824000000002 L-163.13324000000006,-60.43824000000002 L-158.66824000000005,-60.43824000000002 L-154.20324000000005,-60.43824000000002 L-149.73824000000005,-60.43824000000002 L-145.27324000000004,-60.43824000000002 L-140.80824000000007,-60.43824000000002 L-136.34324000000004,-60.43824000000002 L-131.87824000000006,-60.43824000000002 L-127.41324000000006,-60.43824000000002 L-122.94824000000006,-60.43824000000002 L-118.48324000000005,-60.43824000000002 L-114.01824000000005,-60.43824000000002 L-109.55324000000005,-60.43824000000002 L-105.08824000000006,-60.43824000000002 L-100.62324000000005,-60.43824000000002 L-96.15824000000005,-60.43824000000002 L-91.69324000000006,-60.43824000000002 L-87.22824000000006,-60.43824000000002 L-82.76324000000005,-60.43824000000002 L-78.29824000000005,-60.43824000000002 L-73.83324000000005,-60.43824000000002 L-69.04675999999998,-60.43824000000002 L-69.04675999999998,-55.97324000000002 L-69.04675999999998,-51.50824000000002 L-69.04675999999998,-47.043240000000026 L-69.04675999999998,-42.57824000000002 L-69.04675999999998,-38.11324000000002 L-69.04675999999998,-33.64824000000002 L-69.04675999999998,-29.183240000000023 L-69.04675999999998,-24.718240000000023 L-69.04675999999998,-20.25324000000002 L-69.04675999999998,-15.788240000000023 L-69.04675999999998,-11.323240000000027 L-69.04675999999998,-6.858240000000023 L-69.04675999999998,-2.39324000000002 L-69.04675999999998,2.0717599999999763 L-69.04675999999998,6.536759999999973 L-69.04675999999998,11.001759999999976 L-69.04675999999998,15.46675999999998 L-69.04675999999998,19.931759999999983 L-69.04675999999998,24.396759999999972 L-69.04675999999998,28.861759999999975 L-69.04675999999998,33.32675999999998 L-69.04675999999998,37.79175999999997 L-69.04675999999998,42.25675999999997 L-69.04675999999998,46.721759999999975 L-69.04675999999998,51.18675999999998 L-69.04675999999998,55.65175999999998 L-69.04675999999998,60.43824000000002 L-73.51175999999998,60.43824000000002 L-77.97675999999998,60.43824000000002 L-82.44175999999997,60.43824000000002 L-86.90675999999998,60.43824000000002 L-91.37175999999998,60.43824000000002 L-95.83675999999997,60.43824000000002 L-100.30175999999997,60.43824000000002 L-104.76675999999998,60.43824000000002 L-109.23175999999998,60.43824000000002 L-113.69675999999998,60.43824000000002 L-118.16175999999997,60.43824000000002 L-122.62675999999998,60.43824000000002 L-127.09175999999998,60.43824000000002 L-131.55675999999997,60.43824000000002 L-136.02175999999997,60.43824000000002 L-140.48675999999998,60.43824000000002 L-144.95175999999998,60.43824000000002 L-149.41675999999998,60.43824000000002 L-153.88175999999999,60.43824000000002 L-158.34675999999996,60.43824000000002 L-162.81176,60.43824000000002 L-167.27675999999997,60.43824000000002 L-171.74175999999997,60.43824000000002 L-176.20675999999997,60.43824000000002 L-180.67175999999998,60.43824000000002 L-185.13675999999998,60.43824000000002 L-189.60175999999996,60.43824000000002 L-194.38824000000005,60.43824000000002 L-194.38824000000005,55.97324000000002 L-194.38824000000005,51.50824000000002 L-194.38824000000005,47.043240000000026 L-194.38824000000005,42.57824000000002 L-194.38824000000005,38.11324000000002 L-194.38824000000005,33.64824000000002 L-194.38824000000005,29.183240000000023 L-194.38824000000005,24.718240000000023 L-194.38824000000005,20.25324000000002 L-194.38824000000005,15.788240000000023 L-194.38824000000005,11.323240000000027 L-194.38824000000005,6.858240000000023 L-194.38824000000005,2.39324000000002 L-194.38824000000005,-2.0717599999999763 L-194.38824000000005,-6.536759999999973 L-194.38824000000005,-11.001759999999976 L-194.38824000000005,-15.46675999999998 L-194.38824000000005,-19.931759999999983 L-194.38824000000005,-24.396759999999972 L-194.38824000000005,-28.861759999999975 L-194.38824000000005,-33.32675999999998 L-194.38824000000005,-37.79175999999997 L-194.38824000000005,-42.25675999999997 L-194.38824000000005,-46.721759999999975 L-194.38824000000005,-51.18675999999998 L-194.38824000000005,-55.65175999999998 L-194.38824000000005,-60.11675999999997 L-194.38824000000005,-64.90324000000003 L-189.92324000000005,-64.90324000000003 L-185.45824000000005,-64.90324000000003 L-180.99324000000004,-64.90324000000003 L-176.52824000000004,-64.90324000000003 L-172.06324000000006,-64.90324000000003 L-167.59824000000006,-64.90324000000003 L-163.13324000000006,-64.90324000000003 L-158.66824000000005,-64.90324000000003 L-154.20324000000005,-64.90324000000003 L-149.73824000000005,-64.90324000000003 L-145.27324000000004,-64.90324000000003 L-140.80824000000007,-64.90324000000003 L-136.34324000000004,-64.90324000000003 L-131.87824000000006,-64.90324000000003 L-127.41324000000006,-64.90324000000003 L-122.94824000000006,-64.90324000000003 L-118.48324000000005,-64.90324000000003 L-114.01824000000005,-64.90324000000003 L-109.55324000000006,-64.90324000000003 L-105.08824000000006,-64.90324000000003 L-100.62324000000005,-64.90324000000003 L-96.15824000000006,-64.90324000000003 L-91.69324000000006,-64.90324000000003 L-87.22824000000006,-64.90324000000003 L-82.76324000000005,-64.90324000000003 L-78.29824000000005,-64.90324000000003 L-73.83324000000006,-64.90324000000003 L-69.36824000000006,-64.90324000000003 L-64.58175999999997,-64.90324000000003 L-64.58175999999997,-60.43824000000002 L-64.58175999999997,-55.973240000000025 L-64.58175999999997,-51.50824000000003 L-64.58175999999997,-47.043240000000026 L-64.58175999999997,-42.57824000000002 L-64.58175999999997,-38.113240000000026 L-64.58175999999997,-33.64824000000003 L-64.58175999999997,-29.183240000000026 L-64.58175999999997,-24.718240000000023 L-64.58175999999997,-20.253240000000027 L-64.58175999999997,-15.78824000000003 L-64.58175999999997,-11.323240000000027 L-64.58175999999997,-6.858240000000023 L-64.58175999999997,-2.393240000000027 L-64.58175999999997,2.071759999999969 L-64.58175999999997,6.536759999999973 L-64.58175999999997,11.001759999999976 L-64.58175999999997,15.46675999999998 L-64.58175999999997,19.93175999999997 L-64.58175999999997,24.396759999999972 L-64.58175999999997,28.861759999999975 L-64.58175999999997,33.326759999999965 L-64.58175999999997,37.79175999999997 L-64.58175999999997,42.25675999999997 L-64.58175999999997,46.721759999999975 L-64.58175999999997,51.18675999999998 L-64.58175999999997,55.65175999999997 L-64.58175999999997,60.11675999999997 L-64.58175999999997,64.90324000000003 L-69.04675999999998,64.90324000000003 L-73.51175999999998,64.90324000000003 L-77.97675999999997,64.90324000000003 L-82.44175999999997,64.90324000000003 L-86.90675999999998,64.90324000000003 L-91.37175999999997,64.90324000000003 L-95.83675999999997,64.90324000000003 L-100.30175999999997,64.90324000000003 L-104.76675999999998,64.90324000000003 L-109.23175999999998,64.90324000000003 L-113.69675999999997,64.90324000000003 L-118.16175999999997,64.90324000000003 L-122.62675999999998,64.90324000000003 L-127.09175999999997,64.90324000000003 L-131.55675999999997,64.90324000000003 L-136.02175999999997,64.90324000000003 L-140.48675999999998,64.90324000000003 L-144.95175999999998,64.90324000000003 L-149.41675999999995,64.90324000000003 L-153.88175999999999,64.90324000000003 L-158.34675999999996,64.90324000000003 L-162.81175999999996,64.90324000000003 L-167.27675999999997,64.90324000000003 L-171.74175999999997,64.90324000000003 L-176.20675999999997,64.90324000000003 L-180.67175999999998,64.90324000000003 L-185.13675999999998,64.90324000000003 L-189.60175999999996,64.90324000000003 L-194.06675999999996,64.90324000000003 L-198.85324000000006,64.90324000000003 L-198.85324000000006,60.43824000000002 L-198.85324000000006,55.973240000000025 L-198.85324000000006,51.50824000000003 L-198.85324000000006,47.043240000000026 L-198.85324000000006,42.57824000000002 L-198.85324000000006,38.113240000000026 L-198.85324000000006,33.64824000000003 L-198.85324000000006,29.183240000000026 L-198.85324000000006,24.718240000000023 L-198.85324000000006,20.253240000000027 L-198.85324000000006,15.78824000000003 L-198.85324000000006,11.323240000000027 L-198.85324000000006,6.858240000000023 L-198.85324000000006,2.393240000000027 L-198.85324000000006,-2.071759999999969 L-198.85324000000006,-6.536759999999973 L-198.85324000000006,-11.001759999999976 L-198.85324000000006,-15.46675999999998 L-198.85324000000006,-19.93175999999997 L-198.85324000000006,-24.396759999999972 L-198.85324000000006,-28.861759999999975 L-198.85324000000006,-33.326759999999965 L-198.85324000000006,-37.79175999999997 L-198.85324000000006,-42.25675999999997 L-198.85324000000006,-46.721759999999975 L-198.85324000000006,-51.18675999999998 L-198.85324000000006,-55.65175999999997 L-198.85324000000006,-60.11675999999997 L-198.85324000000006,-64.58175999999996 L-198.85324000000006,-69.36824000000003 L-194.38824000000005,-69.36824000000003 L-189.92324000000005,-69.36824000000003 L-185.45824000000005,-69.36824000000003 L-180.99324000000007,-69.36824000000003 L-176.52824000000007,-69.36824000000003 L-172.06324000000006,-69.36824000000003 L-167.59824000000006,-69.36824000000003 L-163.13324000000006,-69.36824000000003 L-158.66824000000005,-69.36824000000003 L-154.20324000000005,-69.36824000000003 L-149.73824000000008,-69.36824000000003 L-145.27324000000004,-69.36824000000003 L-140.80824000000007,-69.36824000000003 L-136.34324000000007,-69.36824000000003 L-131.87824000000006,-69.36824000000003 L-127.41324000000006,-69.36824000000003 L-122.94824000000006,-69.36824000000003 L-118.48324000000005,-69.36824000000003 L-114.01824000000006,-69.36824000000003 L-109.55324000000006,-69.36824000000003 L-105.08824000000006,-69.36824000000003 L-100.62324000000007,-69.36824000000003 L-96.15824000000006,-69.36824000000003 L-91.69324000000006,-69.36824000000003 L-87.22824000000006,-69.36824000000003 L-82.76324000000005,-69.36824000000003 L-78.29824000000006,-69.36824000000003 L-73.83324000000006,-69.36824000000003 L-69.36824000000007,-69.36824000000003 L-64.90324000000007,-69.36824000000003 L-60.11675999999997,-69.36824000000003 L-60.11675999999997,-64.90324000000003 L-60.11675999999997,-60.43824000000003 L-60.11675999999997,-55.97324000000003 L-60.11675999999997,-51.50824000000003 L-60.11675999999997,-47.043240000000026 L-60.11675999999997,-42.57824000000003 L-60.11675999999997,-38.11324000000003 L-60.11675999999997,-33.64824000000003 L-60.11675999999997,-29.183240000000026 L-60.11675999999997,-24.71824000000003 L-60.11675999999997,-20.253240000000034 L-60.11675999999997,-15.78824000000003 L-60.11675999999997,-11.323240000000027 L-60.11675999999997,-6.8582400000000305 L-60.11675999999997,-2.3932400000000342 L-60.11675999999997,2.071759999999969 L-60.11675999999997,6.536759999999973 L-60.11675999999997,11.001759999999976 L-60.11675999999997,15.466759999999965 L-60.11675999999997,19.93175999999997 L-60.11675999999997,24.396759999999972 L-60.11675999999997,28.86175999999996 L-60.11675999999997,33.326759999999965 L-60.11675999999997,37.79175999999997 L-60.11675999999997,42.25675999999997 L-60.11675999999997,46.721759999999975 L-60.11675999999997,51.186759999999964 L-60.11675999999997,55.65175999999997 L-60.11675999999997,60.11675999999996 L-60.11675999999997,64.58175999999996 L-60.11675999999997,69.36824000000003 L-64.58175999999997,69.36824000000003 L-69.04675999999998,69.36824000000003 L-73.51175999999997,69.36824000000003 L-77.97675999999997,69.36824000000003 L-82.44175999999997,69.36824000000003 L-86.90675999999996,69.36824000000003 L-91.37175999999997,69.36824000000003 L-95.83675999999997,69.36824000000003 L-100.30175999999997,69.36824000000003 L-104.76675999999998,69.36824000000003 L-109.23175999999997,69.36824000000003 L-113.69675999999997,69.36824000000003 L-118.16175999999997,69.36824000000003 L-122.62675999999996,69.36824000000003 L-127.09175999999997,69.36824000000003 L-131.55675999999997,69.36824000000003 L-136.02175999999997,69.36824000000003 L-140.48675999999998,69.36824000000003 L-144.95175999999998,69.36824000000003 L-149.41675999999995,69.36824000000003 L-153.88175999999999,69.36824000000003 L-158.34675999999996,69.36824000000003 L-162.81175999999996,69.36824000000003 L-167.27675999999997,69.36824000000003 L-171.74175999999997,69.36824000000003 L-176.20675999999997,69.36824000000003 L-180.67175999999995,69.36824000000003 L-185.13675999999998,69.36824000000003 L-189.60175999999996,69.36824000000003 L-194.06675999999996,69.36824000000003 L-198.53175999999996,69.36824000000003 L-203.31824000000006,69.36824000000003 L-203.31824000000006,64.90324000000003 L-203.31824000000006,60.43824000000003 L-203.31824000000006,55.97324000000003 L-203.31824000000006,51.50824000000003 L-203.31824000000006,47.043240000000026 L-203.31824000000006,42.57824000000003 L-203.31824000000006,38.11324000000003 L-203.31824000000006,33.64824000000003 L-203.31824000000006,29.183240000000026 L-203.31824000000006,24.71824000000003 L-203.31824000000006,20.253240000000034 L-203.31824000000006,15.78824000000003 L-203.31824000000006,11.323240000000027 L-203.31824000000006,6.8582400000000305 L-203.31824000000006,2.3932400000000342 L-203.31824000000006,-2.071759999999969 L-203.31824000000006,-6.536759999999973 L-203.31824000000006,-11.001759999999976 L-203.31824000000006,-15.466759999999965 L-203.31824000000006,-19.93175999999997 L-203.31824000000006,-24.396759999999972 L-203.31824000000006,-28.86175999999996 L-203.31824000000006,-33.326759999999965 L-203.31824000000006,-37.79175999999997 L-203.31824000000006,-42.25675999999997 L-203.31824000000006,-46.721759999999975 L-203.31824000000006,-51.186759999999964 L-203.31824000000006,-55.65175999999997 L-203.31824000000006,-60.11675999999996 L-203.31824000000006,-64.58175999999996 L-203.31824000000006,-69.04675999999996 L-203.31824000000006,-73.83324000000003 L-198.85324000000006,-73.83324000000003 L-194.38824000000005,-73.83324000000003 L-189.92324000000005,-73.83324000000003 L-185.45824000000005,-73.83324000000003 L-180.99324000000007,-73.83324000000003 L-176.52824000000007,-73.83324000000003 L-172.06324000000006,-73.83324000000003 L-167.59824000000006,-73.83324000000003 L-163.13324000000006,-73.83324000000003 L-158.66824000000005,-73.83324000000003 L-154.20324000000005,-73.83324000000003 L-149.73824000000008,-73.83324000000003 L-145.27324000000004,-73.83324000000003 L-140.80824000000007,-73.83324000000003 L-136.34324000000007,-73.83324000000003 L-131.87824000000006,-73.83324000000003 L-127.41324000000006,-73.83324000000003 L-122.94824000000006,-73.83324000000003 L-118.48324000000007,-73.83324000000003 L-114.01824000000006,-73.83324000000003 L-109.55324000000006,-73.83324000000003 L-105.08824000000007,-73.83324000000003 L-100.62324000000007,-73.83324000000003 L-96.15824000000006,-73.83324000000003 L-91.69324000000006,-73.83324000000003 L-87.22824000000006,-73.83324000000003 L-82.76324000000007,-73.83324000000003 L-78.29824000000006,-73.83324000000003 L-73.83324000000007,-73.83324000000003 L-69.36824000000007,-73.83324000000003 L-64.90324000000007,-73.83324000000003 L-60.438240000000064,-73.83324000000003 L-55.65175999999997,-73.83324000000003 L-55.65175999999997,-69.36824000000003 L-55.65175999999997,-64.90324000000004 L-55.65175999999997,-60.438240000000036 L-55.65175999999997,-55.97324000000003 L-55.65175999999997,-51.50824000000003 L-55.65175999999997,-47.04324000000003 L-55.65175999999997,-42.57824000000004 L-55.65175999999997,-38.11324000000003 L-55.65175999999997,-33.64824000000003 L-55.65175999999997,-29.183240000000033 L-55.65175999999997,-24.718240000000037 L-55.65175999999997,-20.253240000000034 L-55.65175999999997,-15.78824000000003 L-55.65175999999997,-11.323240000000034 L-55.65175999999997,-6.858240000000038 L-55.65175999999997,-2.3932400000000342 L-55.65175999999997,2.071759999999969 L-55.65175999999997,6.536759999999973 L-55.65175999999997,11.001759999999962 L-55.65175999999997,15.466759999999965 L-55.65175999999997,19.93175999999997 L-55.65175999999997,24.396759999999958 L-55.65175999999997,28.86175999999996 L-55.65175999999997,33.326759999999965 L-55.65175999999997,37.79175999999997 L-55.65175999999997,42.25675999999997 L-55.65175999999997,46.72175999999996 L-55.65175999999997,51.186759999999964 L-55.65175999999997,55.65175999999995 L-55.65175999999997,60.11675999999996 L-55.65175999999997,64.58175999999996 L-55.65175999999997,69.04675999999996 L-55.65175999999997,73.83324000000003 L-60.11675999999997,73.83324000000003 L-64.58175999999997,73.83324000000003 L-69.04675999999996,73.83324000000003 L-73.51175999999997,73.83324000000003 L-77.97675999999997,73.83324000000003 L-82.44175999999996,73.83324000000003 L-86.90675999999996,73.83324000000003 L-91.37175999999997,73.83324000000003 L-95.83675999999997,73.83324000000003 L-100.30175999999997,73.83324000000003 L-104.76675999999996,73.83324000000003 L-109.23175999999997,73.83324000000003 L-113.69675999999997,73.83324000000003 L-118.16175999999996,73.83324000000003 L-122.62675999999996,73.83324000000003 L-127.09175999999997,73.83324000000003 L-131.55675999999997,73.83324000000003 L-136.02175999999997,73.83324000000003 L-140.48675999999995,73.83324000000003 L-144.95175999999998,73.83324000000003 L-149.41675999999995,73.83324000000003 L-153.88175999999996,73.83324000000003 L-158.34675999999996,73.83324000000003 L-162.81175999999996,73.83324000000003 L-167.27675999999997,73.83324000000003 L-171.74175999999997,73.83324000000003 L-176.20675999999997,73.83324000000003 L-180.67175999999995,73.83324000000003 L-185.13675999999995,73.83324000000003 L-189.60175999999996,73.83324000000003 L-194.06675999999996,73.83324000000003 L-198.53175999999996,73.83324000000003 L-202.99675999999997,73.83324000000003 L-207.78324000000006,73.83324000000003 L-207.78324000000006,69.36824000000003 L-207.78324000000006,64.90324000000004 L-207.78324000000006,60.438240000000036 L-207.78324000000006,55.97324000000003 L-207.78324000000006,51.50824000000003 L-207.78324000000006,47.04324000000003 L-207.78324000000006,42.57824000000004 L-207.78324000000006,38.11324000000003 L-207.78324000000006,33.64824000000003 L-207.78324000000006,29.183240000000033 L-207.78324000000006,24.718240000000037 L-207.78324000000006,20.253240000000034 L-207.78324000000006,15.78824000000003 L-207.78324000000006,11.323240000000034 L-207.78324000000006,6.858240000000038 L-207.78324000000006,2.3932400000000342 L-207.78324000000006,-2.071759999999969 L-207.78324000000006,-6.536759999999973 L-207.78324000000006,-11.001759999999962 L-207.78324000000006,-15.466759999999965 L-207.78324000000006,-19.93175999999997 L-207.78324000000006,-24.396759999999958 L-207.78324000000006,-28.86175999999996 L-207.78324000000006,-33.326759999999965 L-207.78324000000006,-37.79175999999997 L-207.78324000000006,-42.25675999999997 L-207.78324000000006,-46.72175999999996 L-207.78324000000006,-51.186759999999964 L-207.78324000000006,-55.65175999999995 L-207.78324000000006,-60.11675999999996 L-207.78324000000006,-64.58175999999996 L-207.78324000000006,-69.04675999999996 L-207.78324000000006,-73.51175999999997 L-207.78324000000006,-78.29824000000004 L-203.31824000000006,-78.29824000000004 L-198.85324000000006,-78.29824000000004 L-194.38824000000005,-78.29824000000004 L-189.92324000000008,-78.29824000000004 L-185.45824000000007,-78.29824000000004 L-180.99324000000007,-78.29824000000004 L-176.52824000000007,-78.29824000000004 L-172.06324000000006,-78.29824000000004 L-167.59824000000006,-78.29824000000004 L-163.13324000000006,-78.29824000000004 L-158.66824000000008,-78.29824000000004 L-154.20324000000005,-78.29824000000004 L-149.73824000000008,-78.29824000000004 L-145.27324000000007,-78.29824000000004 L-140.80824000000007,-78.29824000000004 L-136.34324000000007,-78.29824000000004 L-131.87824000000006,-78.29824000000004 L-127.41324000000006,-78.29824000000004 L-122.94824000000007,-78.29824000000004 L-118.48324000000007,-78.29824000000004 L-114.01824000000006,-78.29824000000004 L-109.55324000000007,-78.29824000000004 L-105.08824000000007,-78.29824000000004 L-100.62324000000007,-78.29824000000004 L-96.15824000000006,-78.29824000000004 L-91.69324000000006,-78.29824000000004 L-87.22824000000007,-78.29824000000004 L-82.76324000000007,-78.29824000000004 L-78.29824000000008,-78.29824000000004 L-73.83324000000007,-78.29824000000004 L-69.36824000000007,-78.29824000000004 L-64.90324000000007,-78.29824000000004 L-60.438240000000064,-78.29824000000004 L-55.97324000000006,-78.29824000000004 L-51.186759999999964,-78.29824000000004 L-51.186759999999964,-73.83324000000003 L-51.186759999999964,-69.36824000000004 L-51.186759999999964,-64.90324000000004 L-51.186759999999964,-60.438240000000036 L-51.186759999999964,-55.97324000000003 L-51.186759999999964,-51.508240000000036 L-51.186759999999964,-47.04324000000004 L-51.186759999999964,-42.57824000000004 L-51.186759999999964,-38.11324000000003 L-51.186759999999964,-33.64824000000004 L-51.186759999999964,-29.18324000000004 L-51.186759999999964,-24.718240000000037 L-51.186759999999964,-20.253240000000034 L-51.186759999999964,-15.788240000000037 L-51.186759999999964,-11.323240000000041 L-51.186759999999964,-4.465 L0,-4.465 L4.465,-4.465 L4.465,-8.93 L4.465,-13.395 L0.0,-13.395 L-4.465,-13.395 L-4.465,-8.93 L-4.465,-4.465 L0,-4.465" stroke-width="0.202" stroke="black" fill-opacity="0" />
</svg>