<?xml version="1.0" encoding="UTF-8"?>
<svg xmlns="http://www.w3.org/2000/svg" xmlns:xlink="http://www.w3.org/1999/xlink"
     width="200" height="200" viewBox="-100.0 -100.0 200 200" displayInline="False">
<defs>
</defs>
<path d="M-100,12 L-90,12 L-90,22 L-100,22 L-100,12 L-100,0 L-129.485,0.0 L-131.7175,0.0 L-131.7175,-2.2325 L-127.25250000000001,-2.2325 L-127.25250000000001,2.2325 L-135.7175,2.2325 L-135.7175,-6.2325 L-131.2525,-6.2325 L-123.25250000000001,-6.2325 L-123.25250000000001,-1.7675 L-123.25250000000001,6.2325 L-127.71750000000002,6.2325 L-132.1825,6.2325 L-139.7175,6.2325 L-139.7175,1.7675 L-139.7175,-2.6975 L-139.7175,-10.2325 L-135.2525,-10.2325 L-130.7875,-10.2325 L-126.3225,-10.2325 L-119.25250000000001,-10.2325 L-119.25250000000001,-5.7675 L-119.25250000000001,-1.3025000000000002 L-119.25250000000001,3.1624999999999996 L-119.25250000000001,10.2325 L-123.71750000000002,10.2325 L-128.1825,10.2325 L-132.6475,10.2325 L-137.1125,10.2325 L-143.7175,10.2325 L-143.7175,5.7675 L-143.7175,1.3025000000000002 L-143.7175,-3.1624999999999996 L-143.7175,-7.6274999999999995 L-143.7175,-14.2325 L-139.2525,-14.2325 L-134.7875,-14.2325 L-130.3225,-14.2325 L-125.8575,-14.2325 L-121.3925,-14.2325 L-115.25250000000001,-14.2325 L-115.25250000000001,-9.7675 L-115.25250000000001,-4.0 L-100,-4.0 L-100,-16.0 L-100,-26.0 L-90,-26.0 L-90,-16.0 L-100,-16.0" stroke-width="0.202" stroke="black" fill-opacity="0" />
</svg>