<?xml version="1.0" encoding="UTF-8"?>
<svg xmlns="http://www.w3.org/2000/svg" xmlns:xlink="http://www.w3.org/1999/xlink"
     width="200" height="200" viewBox="-100.0 -100.0 200 200" displayInline="False">
<defs>
</defs>
<path d="M-40,-160 L40,-160 L40,-170 L30,-170 L30,-160 L120,-160 L120,-170 L110,-170 L110,-160 L160,-160 L160,16 L170,16 L170,6 L160,6 L160,20 L0,20 L0,90 L0,110.0 L-20.0,110.0 L-20.0,70.0 L20.0,70.0 L20.0,114.0 L-24.0,114.0 L-24.0,66.0 L24.0,66.0 L24.0,118.0 L-28.0,118.0 L-28.0,62.0 L28.0,62.0 L28.0,122.0 L-32.0,122.0 L-32.0,58.0 L32.0,58.0 L32.0,126.0 L-36.0,126.0 L-36.0,54.0 L36.0,54.0 L36.0,130.0 L-40.0,130.0 L-40.0,50.0 L40.0,50.0 L40.0,134.0 L-44.0,134.0 L-44.0,46.0 L44.0,46.0 L44.0,138.0 L-48.0,138.0 L-48.0,42.0 L48.0,42.0 L48.0,142.0 L-52.0,142.0 L-52.0,38.0 L52.0,38.0 L52.0,146.0 L-56.0,146.0 L-56.0,34.0 L56.0,34.0 L56.0,150.0 L-60.0,150.0 L-60.0,30.0 L-4,30.0 L-4,16 L140,16 L140,-24 L130,-24 L130,-14 L140,-14 L140,-140 L80,-140 L80,-130 L90,-130 L90,-140 L0,-140 L0,-130 L10,-130 L10,-140" stroke-width="0.202" stroke="black" fill-opacity="0" />
</svg>