<?xml version="1.0" encoding="UTF-8"?>
<svg xmlns="http://www.w3.org/2000/svg" xmlns:xlink="http://www.w3.org/1999/xlink"
     width="200" height="200" viewBox="-100.0 -100.0 200 200" displayInline="False">
<defs>
</defs>
<path d="M95,0 L4.465,0.0 L4.465,4.465 L4.465,8.93 L0.0,8.93 L-4.465,8.93 L-4.465,4.465 L-4.465,0.0 L0,0.0 L-129.485,0.0 L-131.7175,0.0 L-131.7175,-2.2325 L-127.25250000000001,-2.2325 L-127.25250000000001,2.2325 L-135.7175,2.2325 L-135.7175,-6.2325 L-131.2525,-6.2325 L-123.25250000000001,-6.2325 L-123.25250000000001,-1.7675 L-123.25250000000001,6.2325 L-127.71750000000002,6.2325 L-132.1825,6.2325 L-139.7175,6.2325 L-139.7175,1.7675 L-139.7175,-2.6975 L-139.7175,-10.2325 L-135.2525,-10.2325 L-130.7875,-10.2325 L-126.3225,-10.2325 L-119.25250000000001,-10.2325 L-119.25250000000001,-5.7675 L-119.25250000000001,-1.3025000000000002 L-119.25250000000001,3.1624999999999996 L-119.25250000000001,10.2325 L-123.71750000000002,10.2325 L-128.1825,10.2325 L-132.6475,10.2325 L-137.1125,10.2325 L-143.7175,10.2325 L-143.7175,5.7675 L-143.7175,1.3025000000000002 L-143.7175,-3.1624999999999996 L-143.7175,-7.6274999999999995 L-143.7175,-14.2325 L-139.2525,-14.2325 L-134.7875,-14.2325 L-130.3225,-14.2325 L-125.8575,-14.2325 L-121.3925,-14.2325 L-115.25250000000001,-14.2325 L-115.25250000000001,-9.7675 L-115.25250000000001,-5.3025 L-115.25250000000001,-0.8375000000000004 L-115.25250000000001,3.6274999999999995 L-115.25250000000001,8.0925 L-115.25250000000001,14.2325 L-119.71750000000002,14.2325 L-124.1825,14.2325 L-128.6475,14.2325 L-133.1125,14.2325 L-137.57750000000001,14.2325 L-142.04250000000002,14.2325 L-147.7175,14.2325 L-147.7175,9.7675 L-147.7175,5.3025 L-147.7175,0.8375000000000004 L-147.7175,-3.6274999999999995 L-147.7175,-8.0925 L-147.7175,-12.5575 L-147.7175,-18.2325 L-143.2525,-18.2325 L-138.7875,-18.2325 L-134.3225,-18.2325 L-129.85750000000002,-18.2325 L-125.39250000000001,-18.2325 L-120.92750000000001,-18.2325 L-116.4625,-18.2325 L-111.25250000000001,-18.2325 L-111.25250000000001,-13.767500000000002 L-111.25250000000001,-9.302500000000002 L-111.25250000000001,-4.837500000000002 L-111.25250000000001,-0.3725000000000023 L-111.25250000000001,4.092499999999998 L-111.25250000000001,8.557499999999997 L-111.25250000000001,13.022499999999997 L-111.25250000000001,18.2325 L-115.71750000000002,18.2325 L-120.1825,18.2325 L-124.64750000000001,18.2325 L-129.1125,18.2325 L-133.57750000000001,18.2325 L-138.04250000000002,18.2325 L-142.50750000000002,18.2325 L-146.97250000000003,18.2325 L-151.7175,18.2325 L-151.7175,13.767500000000002 L-151.7175,9.302500000000002 L-151.7175,4.837500000000002 L-151.7175,0.3725000000000023 L-151.7175,-4.092499999999998 L-151.7175,-8.557499999999997 L-151.7175,-13.022499999999997 L-151.7175,-17.487499999999997 L-151.7175,-22.2325 L-147.2525,-22.2325 L-142.7875,-22.2325 L-138.3225,-22.2325 L-133.85750000000002,-22.2325 L-129.3925,-22.2325 L-124.92750000000001,-22.2325 L-120.4625,-22.2325 L-115.9975,-22.2325 L-107.25250000000001,-22.2325 L-107.25250000000001,-17.767500000000002 L-107.25250000000001,-13.302500000000002 L-107.25250000000001,-8.837500000000002 L-107.25250000000001,-4.372500000000002 L-107.25250000000001,0.09249999999999758 L-107.25250000000001,4.557499999999997 L-107.25250000000001,9.022499999999997 L-107.25250000000001,13.487499999999997 L-107.25250000000001,22.2325 L-111.71750000000002,22.2325 L-116.1825,22.2325 L-120.64750000000001,22.2325 L-125.11250000000001,22.2325 L-129.57750000000001,22.2325 L-134.04250000000002,22.2325 L-138.50750000000002,22.2325 L-142.97250000000003,22.2325 L-147.4375,22.2325 L-155.7175,22.2325 L-155.7175,17.767500000000002 L-155.7175,13.302500000000002 L-155.7175,8.837500000000002 L-155.7175,4.372500000000002 L-155.7175,-0.09249999999999758 L-155.7175,-4.557499999999997 L-155.7175,-9.022499999999997 L-155.7175,-13.487499999999997 L-155.7175,-17.9525 L-155.7175,-26.2325 L-151.2525,-26.2325 L-146.7875,-26.2325 L-142.3225,-26.2325 L-137.85750000000002,-26.2325 L-133.3925,-26.2325 L-128.9275,-26.2325 L-124.4625,-26.2325 L-119.9975,-26.2325 L-115.5325,-26.2325 L-111.0675,-26.2325 L-103.25250000000001,-26.2325 L-103.25250000000001,-21.767500000000002 L-103.25250000000001,-17.302500000000002 L-103.25250000000001,-12.837500000000002 L-103.25250000000001,-8.372500000000002 L-103.25250000000001,-3.9075000000000024 L-103.25250000000001,0.5574999999999974 L-103.25250000000001,5.022499999999997 L-103.25250000000001,9.487499999999997 L-103.25250000000001,13.9525 L-103.25250000000001,18.417499999999997 L-103.25250000000001,26.2325 L-107.71750000000002,26.2325 L-112.1825,26.2325 L-116.64750000000001,26.2325 L-121.11250000000001,26.2325 L-125.57750000000001,26.2325 L-130.04250000000002,26.2325 L-134.50750000000002,26.2325 L-138.97250000000003,26.2325 L-143.4375,26.2325 L-147.9025,26.2325 L-152.3675,26.2325 L-159.7175,26.2325 L-159.7175,21.767500000000002 L-159.7175,17.302500000000002 L-159.7175,12.837500000000002 L-159.7175,8.372500000000002 L-159.7175,3.9075000000000024 L-159.7175,-0.5574999999999974 L-159.7175,-5.022499999999997 L-159.7175,-9.487499999999997 L-159.7175,-13.9525 L-159.7175,-18.417499999999997 L-159.7175,-22.882499999999993 L-159.7175,-30.2325 L-155.2525,-30.2325 L-150.7875,-30.2325 L-146.3225,-30.2325 L-141.85750000000002,-30.2325 L-137.3925,-30.2325 L-132.9275,-30.2325 L-128.4625,-30.2325 L-123.9975,-30.2325 L-119.5325,-30.2325 L-115.0675,-30.2325 L-110.6025,-30.2325 L-106.1375,-30.2325 L-99.25250000000001,-30.2325 L-99.25250000000001,-25.767500000000002 L-99.25250000000001,-21.302500000000002 L-99.25250000000001,-16.837500000000002 L-99.25250000000001,-12.372500000000002 L-99.25250000000001,-7.907500000000002 L-99.25250000000001,-3.4425000000000026 L-99.25250000000001,1.0224999999999973 L-99.25250000000001,5.487499999999997 L-99.25250000000001,9.9525 L-99.25250000000001,14.417499999999997 L-99.25250000000001,18.882499999999993 L-99.25250000000001,23.347499999999997 L-99.25250000000001,30.2325 L-103.71750000000002,30.2325 L-108.1825,30.2325 L-112.64750000000001,30.2325 L-117.11250000000001,30.2325 L-121.57750000000001,30.2325 L-126.04250000000002,30.2325 L-130.50750000000002,30.2325 L-134.97250000000003,30.2325 L-139.4375,30.2325 L-143.9025,30.2325 L-148.3675,30.2325 L-152.8325,30.2325 L-157.2975,30.2325 L-163.7175,30.2325 L-163.7175,25.767500000000002 L-163.7175,21.302500000000002 L-163.7175,16.837500000000002 L-163.7175,12.372500000000002 L-163.7175,7.907500000000002 L-163.7175,3.4425000000000026 L-163.7175,-1.0224999999999973 L-163.7175,-5.487499999999997 L-163.7175,-9.9525 L-163.7175,-14.417499999999997 L-163.7175,-18.882499999999993 L-163.7175,-23.347499999999997 L-163.7175,-27.8125 L-163.7175,-34.2325 L-159.2525,-34.2325 L-154.7875,-34.2325 L-150.3225,-34.2325 L-145.85750000000002,-34.2325 L-141.3925,-34.2325 L-136.9275,-34.2325 L-132.4625,-34.2325 L-127.9975,-34.2325 L-123.5325,-34.2325 L-119.0675,-34.2325 L-114.6025,-34.2325 L-110.1375,-34.2325 L-105.6725,-34.2325 L-101.20750000000001,-34.2325 L-95.25250000000001,-34.2325 L-95.25250000000001,-29.767500000000002 L-95.25250000000001,-25.302500000000002 L-95.25250000000001,-20.837500000000002 L-95.25250000000001,-16.372500000000002 L-95.25250000000001,-11.907500000000002 L-95.25250000000001,-7.442500000000003 L-95.25250000000001,-2.9775000000000027 L-95.25250000000001,1.4874999999999972 L-95.25250000000001,5.952500000000001 L-95.25250000000001,10.417499999999997 L-95.25250000000001,14.882499999999993 L-95.25250000000001,19.347499999999997 L-95.25250000000001,23.8125 L-95.25250000000001,28.277499999999996 L-95.25250000000001,34.2325 L-99.71750000000002,34.2325 L-104.1825,34.2325 L-108.64750000000001,34.2325 L-113.11250000000001,34.2325 L-117.57750000000001,34.2325 L-122.04250000000002,34.2325 L-126.50750000000001,34.2325 L-130.97250000000003,34.2325 L-135.4375,34.2325 L-139.9025,34.2325 L-144.3675,34.2325 L-148.8325,34.2325 L-153.2975,34.2325 L-157.76250000000002,34.2325 L-162.22750000000002,34.2325 L-167.7175,34.2325 L-167.7175,29.767500000000002 L-167.7175,25.302500000000002 L-167.7175,20.837500000000002 L-167.7175,16.372500000000002 L-167.7175,11.907500000000002 L-167.7175,7.442500000000003 L-167.7175,2.9775000000000027 L-167.7175,-1.4874999999999972 L-167.7175,-5.952500000000001 L-167.7175,-10.417499999999997 L-167.7175,-14.882499999999993 L-167.7175,-19.347499999999997 L-167.7175,-23.8125 L-167.7175,-28.277499999999996 L-167.7175,-32.74249999999999 L-167.7175,-38.2325 L-163.2525,-38.2325 L-158.7875,-38.2325 L-154.3225,-38.2325 L-149.85750000000002,-38.2325 L-145.3925,-38.2325 L-140.9275,-38.2325 L-136.4625,-38.2325 L-131.9975,-38.2325 L-127.5325,-38.2325 L-123.0675,-38.2325 L-118.6025,-38.2325 L-114.1375,-38.2325 L-109.6725,-38.2325 L-105.20750000000001,-38.2325 L-100.7425,-38.2325 L-96.2775,-38.2325 L-91.25250000000001,-38.2325 L-91.25250000000001,-33.7675 L-91.25250000000001,-29.302500000000002 L-91.25250000000001,-24.837500000000002 L-91.25250000000001,-20.372500000000002 L-91.25250000000001,-15.907500000000002 L-91.25250000000001,-11.442500000000003 L-91.25250000000001,-6.977500000000003 L-91.25250000000001,-2.512500000000003 L-91.25250000000001,1.9525000000000006 L-91.25250000000001,6.417499999999997 L-91.25250000000001,10.882499999999993 L-91.25250000000001,15.347499999999997 L-91.25250000000001,19.8125 L-91.25250000000001,24.277499999999996 L-91.25250000000001,28.742499999999993 L-91.25250000000001,33.207499999999996 L-91.25250000000001,38.2325 L-95.71750000000002,38.2325 L-100.1825,38.2325 L-104.64750000000001,38.2325 L-109.11250000000001,38.2325 L-113.57750000000001,38.2325 L-118.04250000000002,38.2325 L-122.50750000000001,38.2325 L-126.97250000000001,38.2325 L-131.4375,38.2325 L-135.9025,38.2325 L-140.3675,38.2325 L-144.8325,38.2325 L-149.2975,38.2325 L-153.76250000000002,38.2325 L-158.22750000000002,38.2325 L-162.6925,38.2325 L-167.15750000000003,38.2325 L-171.7175,38.2325 L-171.7175,33.7675 L-171.7175,29.302500000000002 L-171.7175,24.837500000000002 L-171.7175,20.372500000000002 L-171.7175,15.907500000000002 L-171.7175,11.442500000000003 L-171.7175,6.977500000000003 L-171.7175,2.512500000000003 L-171.7175,-1.9525000000000006 L-171.7175,-6.417499999999997 L-171.7175,-10.882499999999993 L-171.7175,-15.347499999999997 L-171.7175,-19.8125 L-171.7175,-24.277499999999996 L-171.7175,-28.742499999999993 L-171.7175,-33.207499999999996 L-171.7175,-37.6725 L-171.7175,-42.2325 L-167.2525,-42.2325 L-162.7875,-42.2325 L-158.3225,-42.2325 L-153.85750000000002,-42.2325 L-149.3925,-42.2325 L-144.9275,-42.2325 L-140.4625,-42.2325 L-135.9975,-42.2325 L-131.5325,-42.2325 L-127.0675,-42.2325 L-122.6025,-42.2325 L-118.1375,-42.2325 L-113.6725,-42.2325 L-109.20750000000001,-42.2325 L-104.7425,-42.2325 L-100.2775,-42.2325 L-95.8125,-42.2325 L-87.25250000000001,-42.2325 L-87.25250000000001,-37.7675 L-87.25250000000001,-33.3025 L-87.25250000000001,-28.837500000000002 L-87.25250000000001,-24.372500000000002 L-87.25250000000001,-19.907500000000002 L-87.25250000000001,-15.442500000000003 L-87.25250000000001,-10.977500000000003 L-87.25250000000001,-6.512500000000003 L-87.25250000000001,-2.0474999999999994 L-87.25250000000001,2.417499999999997 L-87.25250000000001,6.882499999999993 L-87.25250000000001,11.347499999999997 L-87.25250000000001,15.8125 L-87.25250000000001,20.277499999999996 L-87.25250000000001,24.742499999999993 L-87.25250000000001,29.207499999999996 L-87.25250000000001,33.6725 L-87.25250000000001,42.2325 L-91.71750000000002,42.2325 L-96.1825,42.2325 L-100.64750000000001,42.2325 L-105.11250000000001,42.2325 L-109.57750000000001,42.2325 L-114.04250000000002,42.2325 L-118.50750000000001,42.2325 L-122.97250000000001,42.2325 L-127.43750000000001,42.2325 L-131.9025,42.2325 L-136.3675,42.2325 L-140.8325,42.2325 L-145.2975,42.2325 L-149.76250000000002,42.2325 L-154.22750000000002,42.2325 L-158.6925,42.2325 L-163.15750000000003,42.2325 L-167.6225,42.2325 L-175.7175,42.2325 L-175.7175,37.7675 L-175.7175,33.3025 L-175.7175,28.837500000000002 L-175.7175,24.372500000000002 L-175.7175,19.907500000000002 L-175.7175,15.442500000000003 L-175.7175,10.977500000000003 L-175.7175,6.512500000000003 L-175.7175,2.0474999999999994 L-175.7175,-2.417499999999997 L-175.7175,-6.882499999999993 L-175.7175,-11.347499999999997 L-175.7175,-15.8125 L-175.7175,-20.277499999999996 L-175.7175,-24.742499999999993 L-175.7175,-29.207499999999996 L-175.7175,-33.6725 L-175.7175,-38.1375 L-175.7175,-46.2325 L-171.2525,-46.2325 L-166.7875,-46.2325 L-162.3225,-46.2325 L-157.85750000000002,-46.2325 L-153.3925,-46.2325 L-148.9275,-46.2325 L-144.4625,-46.2325 L-139.9975,-46.2325 L-135.5325,-46.2325 L-131.0675,-46.2325 L-126.6025,-46.2325 L-122.1375,-46.2325 L-117.6725,-46.2325 L-113.20750000000001,-46.2325 L-108.7425,-46.2325 L-104.2775,-46.2325 L-99.8125,-46.2325 L-95.3475,-46.2325 L-90.88250000000001,-46.2325 L-83.25250000000001,-46.2325 L-83.25250000000001,-41.7675 L-83.25250000000001,-37.3025 L-83.25250000000001,-32.837500000000006 L-83.25250000000001,-28.372500000000002 L-83.25250000000001,-23.907500000000002 L-83.25250000000001,-19.442500000000003 L-83.25250000000001,-14.977500000000003 L-83.25250000000001,-10.512500000000003 L-83.25250000000001,-6.047499999999999 L-83.25250000000001,-1.5825000000000031 L-83.25250000000001,2.882499999999993 L-83.25250000000001,7.347499999999997 L-83.25250000000001,11.8125 L-83.25250000000001,16.277499999999996 L-83.25250000000001,20.742499999999993 L-83.25250000000001,25.207499999999996 L-83.25250000000001,29.6725 L-83.25250000000001,34.1375 L-83.25250000000001,38.60249999999999 L-83.25250000000001,46.2325 L-87.71750000000002,46.2325 L-92.1825,46.2325 L-96.64750000000001,46.2325 L-101.11250000000001,46.2325 L-105.57750000000001,46.2325 L-110.04250000000002,46.2325 L-114.50750000000001,46.2325 L-118.97250000000001,46.2325 L-123.43750000000001,46.2325 L-127.9025,46.2325 L-132.3675,46.2325 L-136.8325,46.2325 L-141.2975,46.2325 L-145.76250000000002,46.2325 L-150.22750000000002,46.2325 L-154.6925,46.2325 L-159.15750000000003,46.2325 L-163.6225,46.2325 L-168.0875,46.2325 L-172.5525,46.2325 L-179.7175,46.2325 L-179.7175,41.7675 L-179.7175,37.3025 L-179.7175,32.837500000000006 L-179.7175,28.372500000000002 L-179.7175,23.907500000000002 L-179.7175,19.442500000000003 L-179.7175,14.977500000000003 L-179.7175,10.512500000000003 L-179.7175,6.047499999999999 L-179.7175,1.5825000000000031 L-179.7175,-2.882499999999993 L-179.7175,-7.347499999999997 L-179.7175,-11.8125 L-179.7175,-16.277499999999996 L-179.7175,-20.742499999999993 L-179.7175,-25.207499999999996 L-179.7175,-29.6725 L-179.7175,-34.1375 L-179.7175,-38.60249999999999 L-179.7175,-43.067499999999995 L-179.7175,-50.2325 L-175.2525,-50.2325 L-170.7875,-50.2325 L-166.3225,-50.2325 L-161.85750000000002,-50.2325 L-157.3925,-50.2325 L-152.9275,-50.2325 L-148.4625,-50.2325 L-143.9975,-50.2325 L-139.5325,-50.2325 L-135.0675,-50.2325 L-130.60250000000002,-50.2325 L-126.1375,-50.2325 L-121.6725,-50.2325 L-117.20750000000001,-50.2325 L-112.7425,-50.2325 L-108.2775,-50.2325 L-103.8125,-50.2325 L-99.3475,-50.2325 L-94.88250000000001,-50.2325 L-90.4175,-50.2325 L-85.9525,-50.2325 L-79.25250000000001,-50.2325 L-79.25250000000001,-45.7675 L-79.25250000000001,-41.3025 L-79.25250000000001,-36.837500000000006 L-79.25250000000001,-32.3725 L-79.25250000000001,-27.907500000000002 L-79.25250000000001,-23.442500000000003 L-79.25250000000001,-18.977500000000003 L-79.25250000000001,-14.512500000000003 L-79.25250000000001,-10.0475 L-79.25250000000001,-5.582500000000003 L-79.25250000000001,-1.1175000000000068 L-79.25250000000001,3.3474999999999966 L-79.25250000000001,7.8125 L-79.25250000000001,12.277499999999996 L-79.25250000000001,16.742499999999993 L-79.25250000000001,21.207499999999996 L-79.25250000000001,25.6725 L-79.25250000000001,30.137500000000003 L-79.25250000000001,34.60249999999999 L-79.25250000000001,39.067499999999995 L-79.25250000000001,43.5325 L-79.25250000000001,50.2325 L-83.71750000000002,50.2325 L-88.1825,50.2325 L-92.64750000000001,50.2325 L-97.11250000000001,50.2325 L-101.57750000000001,50.2325 L-106.04250000000002,50.2325 L-110.50750000000001,50.2325 L-114.97250000000001,50.2325 L-119.43750000000001,50.2325 L-123.9025,50.2325 L-128.3675,50.2325 L-132.8325,50.2325 L-137.2975,50.2325 L-141.76250000000002,50.2325 L-146.22750000000002,50.2325 L-150.6925,50.2325 L-155.15750000000003,50.2325 L-159.6225,50.2325 L-164.0875,50.2325 L-168.5525,50.2325 L-173.0175,50.2325 L-177.48250000000002,50.2325 L-183.7175,50.2325 L-183.7175,45.7675 L-183.7175,41.3025 L-183.7175,36.837500000000006 L-183.7175,32.3725 L-183.7175,27.907500000000002 L-183.7175,23.442500000000003 L-183.7175,18.977500000000003 L-183.7175,14.512500000000003 L-183.7175,10.0475 L-183.7175,5.582500000000003 L-183.7175,1.1175000000000068 L-183.7175,-3.3474999999999966 L-183.7175,-7.8125 L-183.7175,-12.277499999999996 L-183.7175,-16.742499999999993 L-183.7175,-21.207499999999996 L-183.7175,-25.6725 L-183.7175,-30.137500000000003 L-183.7175,-34.60249999999999 L-183.7175,-39.067499999999995 L-183.7175,-43.5325 L-183.7175,-47.99749999999999 L-183.7175,-54.2325 L-179.2525,-54.2325 L-174.7875,-54.2325 L-170.3225,-54.2325 L-165.85750000000002,-54.2325 L-161.3925,-54.2325 L-156.9275,-54.2325 L-152.4625,-54.2325 L-147.9975,-54.2325 L-143.5325,-54.2325 L-139.0675,-54.2325 L-134.60250000000002,-54.2325 L-130.1375,-54.2325 L-125.6725,-54.2325 L-121.20750000000001,-54.2325 L-116.7425,-54.2325 L-112.2775,-54.2325 L-107.8125,-54.2325 L-103.3475,-54.2325 L-98.88250000000001,-54.2325 L-94.4175,-54.2325 L-89.9525,-54.2325 L-85.48750000000001,-54.2325 L-81.02250000000001,-54.2325 L-75.25250000000001,-54.2325 L-75.25250000000001,-49.7675 L-75.25250000000001,-45.3025 L-75.25250000000001,-40.837500000000006 L-75.25250000000001,-36.3725 L-75.25250000000001,-31.907500000000002 L-75.25250000000001,-27.442500000000003 L-75.25250000000001,-22.977500000000003 L-75.25250000000001,-18.512500000000003 L-75.25250000000001,-14.0475 L-75.25250000000001,-9.582500000000003 L-75.25250000000001,-5.117500000000007 L-75.25250000000001,-0.6525000000000034 L-75.25250000000001,3.8125 L-75.25250000000001,8.277499999999996 L-75.25250000000001,12.742499999999993 L-75.25250000000001,17.207499999999996 L-75.25250000000001,21.6725 L-75.25250000000001,26.137500000000003 L-75.25250000000001,30.602499999999992 L-75.25250000000001,35.067499999999995 L-75.25250000000001,39.5325 L-75.25250000000001,43.99749999999999 L-75.25250000000001,48.46249999999999 L-75.25250000000001,54.2325 L-79.71750000000002,54.2325 L-84.1825,54.2325 L-88.64750000000001,54.2325 L-93.11250000000001,54.2325 L-97.57750000000001,54.2325 L-102.04250000000002,54.2325 L-106.50750000000001,54.2325 L-110.97250000000001,54.2325 L-115.43750000000001,54.2325 L-119.9025,54.2325 L-124.3675,54.2325 L-128.8325,54.2325 L-133.2975,54.2325 L-137.76250000000002,54.2325 L-142.22750000000002,54.2325 L-146.6925,54.2325 L-151.15750000000003,54.2325 L-155.6225,54.2325 L-160.0875,54.2325 L-164.5525,54.2325 L-169.0175,54.2325 L-173.48250000000002,54.2325 L-177.9475,54.2325 L-182.41250000000002,54.2325 L-187.7175,54.2325 L-187.7175,49.7675 L-187.7175,45.3025 L-187.7175,40.837500000000006 L-187.7175,36.3725 L-187.7175,31.907500000000002 L-187.7175,27.442500000000003 L-187.7175,22.977500000000003 L-187.7175,18.512500000000003 L-187.7175,14.0475 L-187.7175,9.582500000000003 L-187.7175,5.117500000000007 L-187.7175,0.6525000000000034 L-187.7175,-3.8125 L-187.7175,-8.277499999999996 L-187.7175,-12.742499999999993 L-187.7175,-17.207499999999996 L-187.7175,-21.6725 L-187.7175,-26.137500000000003 L-187.7175,-30.602499999999992 L-187.7175,-35.067499999999995 L-187.7175,-39.5325 L-187.7175,-43.99749999999999 L-187.7175,-48.46249999999999 L-187.7175,-52.927499999999995 L-187.7175,-58.2325 L-183.2525,-58.2325 L-178.7875,-58.2325 L-174.3225,-58.2325 L-169.85750000000002,-58.2325 L-165.3925,-58.2325 L-160.9275,-58.2325 L-156.4625,-58.2325 L-151.9975,-58.2325 L-147.5325,-58.2325 L-143.0675,-58.2325 L-138.60250000000002,-58.2325 L-134.1375,-58.2325 L-129.6725,-58.2325 L-125.20750000000001,-58.2325 L-120.7425,-58.2325 L-116.2775,-58.2325 L-111.8125,-58.2325 L-107.3475,-58.2325 L-102.88250000000001,-58.2325 L-98.4175,-58.2325 L-93.9525,-58.2325 L-89.48750000000001,-58.2325 L-85.02250000000001,-58.2325 L-80.5575,-58.2325 L-76.0925,-58.2325 L-71.25250000000001,-58.2325 L-71.25250000000001,-53.7675 L-71.25250000000001,-49.3025 L-71.25250000000001,-44.837500000000006 L-71.25250000000001,-40.3725 L-71.25250000000001,-35.9075 L-71.25250000000001,-31.442500000000003 L-71.25250000000001,-26.977500000000003 L-71.25250000000001,-22.512500000000003 L-71.25250000000001,-18.0475 L-71.25250000000001,-13.582500000000003 L-71.25250000000001,-9.117500000000007 L-71.25250000000001,-4.652500000000003 L-71.25250000000001,-0.1875 L-71.25250000000001,4.277499999999996 L-71.25250000000001,8.742499999999993 L-71.25250000000001,13.207499999999996 L-71.25250000000001,17.6725 L-71.25250000000001,22.137500000000003 L-71.25250000000001,26.602499999999992 L-71.25250000000001,31.067499999999995 L-71.25250000000001,35.5325 L-71.25250000000001,39.99749999999999 L-71.25250000000001,44.46249999999999 L-71.25250000000001,48.927499999999995 L-71.25250000000001,53.3925 L-71.25250000000001,58.2325 L-75.71750000000002,58.2325 L-80.1825,58.2325 L-84.64750000000001,58.2325 L-89.11250000000001,58.2325 L-93.57750000000001,58.2325 L-98.04250000000002,58.2325 L-102.50750000000001,58.2325 L-106.97250000000001,58.2325 L-111.43750000000001,58.2325 L-115.9025,58.2325 L-120.3675,58.2325 L-124.83250000000001,58.2325 L-129.2975,58.2325 L-133.76250000000002,58.2325 L-138.22750000000002,58.2325 L-142.6925,58.2325 L-147.15750000000003,58.2325 L-151.6225,58.2325 L-156.0875,58.2325 L-160.5525,58.2325 L-165.0175,58.2325 L-169.48250000000002,58.2325 L-173.9475,58.2325 L-178.41250000000002,58.2325 L-182.8775,58.2325 L-191.7175,58.2325 L-191.7175,53.7675 L-191.7175,49.3025 L-191.7175,44.837500000000006 L-191.7175,40.3725 L-191.7175,35.9075 L-191.7175,31.442500000000003 L-191.7175,26.977500000000003 L-191.7175,22.512500000000003 L-191.7175,18.0475 L-191.7175,13.582500000000003 L-191.7175,9.117500000000007 L-191.7175,4.652500000000003 L-191.7175,0.1875 L-191.7175,-4.277499999999996 L-191.7175,-8.742499999999993 L-191.7175,-13.207499999999996 L-191.7175,-17.6725 L-191.7175,-22.137500000000003 L-191.7175,-26.602499999999992 L-191.7175,-31.067499999999995 L-191.7175,-35.5325 L-191.7175,-39.99749999999999 L-191.7175,-44.46249999999999 L-191.7175,-48.927499999999995 L-191.7175,-53.3925 L-191.7175,-62.2325 L-187.2525,-62.2325 L-182.7875,-62.2325 L-178.3225,-62.2325 L-173.85750000000002,-62.2325 L-169.3925,-62.2325 L-164.9275,-62.2325 L-160.4625,-62.2325 L-155.9975,-62.2325 L-151.5325,-62.2325 L-147.0675,-62.2325 L-142.60250000000002,-62.2325 L-138.1375,-62.2325 L-133.6725,-62.2325 L-129.2075,-62.2325 L-124.7425,-62.2325 L-120.2775,-62.2325 L-115.8125,-62.2325 L-111.3475,-62.2325 L-106.88250000000001,-62.2325 L-102.4175,-62.2325 L-97.9525,-62.2325 L-93.48750000000001,-62.2325 L-89.02250000000001,-62.2325 L-84.5575,-62.2325 L-80.0925,-62.2325 L-75.6275,-62.2325 L-67.25250000000001,-62.2325 L-67.25250000000001,-57.7675 L-67.25250000000001,-53.3025 L-67.25250000000001,-48.837500000000006 L-67.25250000000001,-44.3725 L-67.25250000000001,-39.9075 L-67.25250000000001,-35.4425 L-67.25250000000001,-30.977500000000003 L-67.25250000000001,-26.512500000000003 L-67.25250000000001,-22.0475 L-67.25250000000001,-17.582500000000003 L-67.25250000000001,-13.117500000000007 L-67.25250000000001,-8.652500000000003 L-67.25250000000001,-4.1875 L-67.25250000000001,0.2774999999999963 L-67.25250000000001,4.742499999999993 L-67.25250000000001,9.207499999999996 L-67.25250000000001,13.6725 L-67.25250000000001,18.137500000000003 L-67.25250000000001,22.602499999999992 L-67.25250000000001,27.067499999999995 L-67.25250000000001,31.5325 L-67.25250000000001,35.99749999999999 L-67.25250000000001,40.46249999999999 L-67.25250000000001,44.927499999999995 L-67.25250000000001,49.3925 L-67.25250000000001,53.8575 L-67.25250000000001,62.2325 L-71.71750000000002,62.2325 L-76.1825,62.2325 L-80.64750000000001,62.2325 L-85.11250000000001,62.2325 L-89.57750000000001,62.2325 L-94.04250000000002,62.2325 L-98.50750000000001,62.2325 L-102.97250000000001,62.2325 L-107.43750000000001,62.2325 L-111.9025,62.2325 L-116.3675,62.2325 L-120.83250000000001,62.2325 L-125.29750000000001,62.2325 L-129.76250000000002,62.2325 L-134.22750000000002,62.2325 L-138.6925,62.2325 L-143.15750000000003,62.2325 L-147.6225,62.2325 L-152.0875,62.2325 L-156.5525,62.2325 L-161.0175,62.2325 L-165.48250000000002,62.2325 L-169.9475,62.2325 L-174.41250000000002,62.2325 L-178.8775,62.2325 L-183.34250000000003,62.2325 L-187.8075,62.2325 L-195.7175,62.2325 L-195.7175,57.7675 L-195.7175,53.3025 L-195.7175,48.837500000000006 L-195.7175,44.3725 L-195.7175,39.9075 L-195.7175,35.4425 L-195.7175,30.977500000000003 L-195.7175,26.512500000000003 L-195.7175,22.0475 L-195.7175,17.582500000000003 L-195.7175,13.117500000000007 L-195.7175,8.652500000000003 L-195.7175,4.1875 L-195.7175,-0.2774999999999963 L-195.7175,-4.742499999999993 L-195.7175,-9.207499999999996 L-195.7175,-13.6725 L-195.7175,-18.137500000000003 L-195.7175,-22.602499999999992 L-195.7175,-27.067499999999995 L-195.7175,-31.5325 L-195.7175,-35.99749999999999 L-195.7175,-40.46249999999999 L-195.7175,-44.927499999999995 L-195.7175,-49.3925 L-195.7175,-53.8575 L-195.7175,-58.32249999999999 L-195.7175,-66.2325 L-191.2525,-66.2325 L-186.7875,-66.2325 L-182.3225,-66.2325 L-177.85750000000002,-66.2325 L-173.3925,-66.2325 L-168.9275,-66.2325 L-164.4625,-66.2325 L-159.9975,-66.2325 L-155.5325,-66.2325 L-151.0675,-66.2325 L-146.60250000000002,-66.2325 L-142.1375,-66.2325 L-137.6725,-66.2325 L-133.2075,-66.2325 L-128.7425,-66.2325 L-124.2775,-66.2325 L-119.8125,-66.2325 L-115.3475,-66.2325 L-110.88250000000001,-66.2325 L-106.4175,-66.2325 L-101.9525,-66.2325 L-97.48750000000001,-66.2325 L-93.02250000000001,-66.2325 L-88.5575,-66.2325 L-84.0925,-66.2325 L-79.6275,-66.2325 L-75.16250000000001,-66.2325 L-70.6975,-66.2325 L-63.25250000000001,-66.2325 L-63.25250000000001,-61.7675 L-63.25250000000001,-57.3025 L-63.25250000000001,-52.837500000000006 L-63.25250000000001,-48.3725 L-63.25250000000001,-43.9075 L-63.25250000000001,-39.4425 L-63.25250000000001,-34.977500000000006 L-63.25250000000001,-30.512500000000003 L-63.25250000000001,-26.0475 L-63.25250000000001,-21.582500000000003 L-63.25250000000001,-17.117500000000007 L-63.25250000000001,-12.652500000000003 L-63.25250000000001,-8.1875 L-63.25250000000001,-3.7225000000000037 L-63.25250000000001,0.7424999999999926 L-63.25250000000001,5.207499999999996 L-63.25250000000001,9.6725 L-63.25250000000001,14.137500000000003 L-63.25250000000001,18.602499999999992 L-63.25250000000001,23.067499999999995 L-63.25250000000001,27.5325 L-63.25250000000001,31.997499999999988 L-63.25250000000001,36.46249999999999 L-63.25250000000001,40.927499999999995 L-63.25250000000001,45.3925 L-63.25250000000001,49.8575 L-63.25250000000001,54.32249999999999 L-63.25250000000001,58.787499999999994 L-63.25250000000001,66.2325 L-67.71750000000002,66.2325 L-72.1825,66.2325 L-76.64750000000001,66.2325 L-81.11250000000001,66.2325 L-85.57750000000001,66.2325 L-90.04250000000002,66.2325 L-94.50750000000001,66.2325 L-98.97250000000001,66.2325 L-103.43750000000001,66.2325 L-107.9025,66.2325 L-112.3675,66.2325 L-116.83250000000001,66.2325 L-121.29750000000001,66.2325 L-125.76250000000002,66.2325 L-130.22750000000002,66.2325 L-134.6925,66.2325 L-139.15750000000003,66.2325 L-143.6225,66.2325 L-148.0875,66.2325 L-152.5525,66.2325 L-157.0175,66.2325 L-161.48250000000002,66.2325 L-165.9475,66.2325 L-170.41250000000002,66.2325 L-174.8775,66.2325 L-179.34250000000003,66.2325 L-183.8075,66.2325 L-188.2725,66.2325 L-192.7375,66.2325 L-199.7175,66.2325 L-199.7175,61.7675 L-199.7175,57.3025 L-199.7175,52.837500000000006 L-199.7175,48.3725 L-199.7175,43.9075 L-199.7175,39.4425 L-199.7175,34.977500000000006 L-199.7175,30.512500000000003 L-199.7175,26.0475 L-199.7175,21.582500000000003 L-199.7175,17.117500000000007 L-199.7175,12.652500000000003 L-199.7175,8.1875 L-199.7175,3.7225000000000037 L-199.7175,-0.7424999999999926 L-199.7175,-5.207499999999996 L-199.7175,-9.6725 L-199.7175,-14.137500000000003 L-199.7175,-18.602499999999992 L-199.7175,-23.067499999999995 L-199.7175,-27.5325 L-199.7175,-31.997499999999988 L-199.7175,-36.46249999999999 L-199.7175,-40.927499999999995 L-199.7175,-45.3925 L-199.7175,-49.8575 L-199.7175,-54.32249999999999 L-199.7175,-58.787499999999994 L-199.7175,-63.25249999999998 L-199.7175,-70.2325 L-195.2525,-70.2325 L-190.7875,-70.2325 L-186.3225,-70.2325 L-181.85750000000002,-70.2325 L-177.3925,-70.2325 L-172.9275,-70.2325 L-168.4625,-70.2325 L-163.9975,-70.2325 L-159.5325,-70.2325 L-155.0675,-70.2325 L-150.60250000000002,-70.2325 L-146.1375,-70.2325 L-141.6725,-70.2325 L-137.2075,-70.2325 L-132.7425,-70.2325 L-128.2775,-70.2325 L-123.8125,-70.2325 L-119.3475,-70.2325 L-114.88250000000001,-70.2325 L-110.4175,-70.2325 L-105.9525,-70.2325 L-101.48750000000001,-70.2325 L-97.02250000000001,-70.2325 L-92.5575,-70.2325 L-88.0925,-70.2325 L-83.6275,-70.2325 L-79.16250000000001,-70.2325 L-74.6975,-70.2325 L-70.23250000000002,-70.2325 L-65.76750000000001,-70.2325 L-59.25250000000001,-70.2325 L-59.25250000000001,-65.7675 L-59.25250000000001,-61.3025 L-59.25250000000001,-56.837500000000006 L-59.25250000000001,-52.3725 L-59.25250000000001,-47.9075 L-59.25250000000001,-43.4425 L-59.25250000000001,-38.977500000000006 L-59.25250000000001,-34.5125 L-59.25250000000001,-30.0475 L-59.25250000000001,-25.582500000000003 L-59.25250000000001,-21.117500000000007 L-59.25250000000001,-16.652500000000003 L-59.25250000000001,-12.1875 L-59.25250000000001,-7.722500000000004 L-59.25250000000001,-3.2575000000000074 L-59.25250000000001,1.207499999999996 L-59.25250000000001,5.672499999999999 L-59.25250000000001,10.137500000000003 L-59.25250000000001,14.602499999999992 L-59.25250000000001,19.067499999999995 L-59.25250000000001,23.5325 L-59.25250000000001,27.997499999999988 L-59.25250000000001,32.46249999999999 L-59.25250000000001,36.927499999999995 L-59.25250000000001,41.3925 L-59.25250000000001,45.8575 L-59.25250000000001,50.32249999999999 L-59.25250000000001,54.787499999999994 L-59.25250000000001,59.25249999999998 L-59.25250000000001,63.71749999999999 L-59.25250000000001,70.2325 L-63.717500000000015,70.2325 L-68.1825,70.2325 L-72.64750000000001,70.2325 L-77.11250000000001,70.2325 L-81.57750000000001,70.2325 L-86.04250000000002,70.2325 L-90.50750000000001,70.2325 L-94.97250000000001,70.2325 L-99.43750000000001,70.2325 L-103.9025,70.2325 L-108.3675,70.2325 L-112.83250000000001,70.2325 L-117.29750000000001,70.2325 L-121.76250000000002,70.2325 L-126.2275,70.2325 L-130.6925,70.2325 L-135.15750000000003,70.2325 L-139.6225,70.2325 L-144.0875,70.2325 L-148.5525,70.2325 L-153.0175,70.2325 L-157.48250000000002,70.2325 L-161.9475,70.2325 L-166.41250000000002,70.2325 L-170.8775,70.2325 L-175.34250000000003,70.2325 L-179.8075,70.2325 L-184.2725,70.2325 L-188.7375,70.2325 L-193.2025,70.2325 L-197.66750000000002,70.2325 L-203.7175,70.2325 L-203.7175,65.7675 L-203.7175,61.3025 L-203.7175,56.837500000000006 L-203.7175,52.3725 L-203.7175,47.9075 L-203.7175,43.4425 L-203.7175,38.977500000000006 L-203.7175,34.5125 L-203.7175,30.0475 L-203.7175,25.582500000000003 L-203.7175,21.117500000000007 L-203.7175,16.652500000000003 L-203.7175,12.1875 L-203.7175,7.722500000000004 L-203.7175,3.2575000000000074 L-203.7175,-1.207499999999996 L-203.7175,-5.672499999999999 L-203.7175,-10.137500000000003 L-203.7175,-14.602499999999992 L-203.7175,-19.067499999999995 L-203.7175,-23.5325 L-203.7175,-27.997499999999988 L-203.7175,-32.46249999999999 L-203.7175,-36.927499999999995 L-203.7175,-41.3925 L-203.7175,-45.8575 L-203.7175,-50.32249999999999 L-203.7175,-54.787499999999994 L-203.7175,-59.25249999999998 L-203.7175,-63.71749999999999 L-203.7175,-68.18249999999999 L-203.7175,-74.2325 L-199.2525,-74.2325 L-194.7875,-74.2325 L-190.3225,-74.2325 L-185.85750000000002,-74.2325 L-181.3925,-74.2325 L-176.9275,-74.2325 L-172.4625,-74.2325 L-167.9975,-74.2325 L-163.5325,-74.2325 L-159.0675,-74.2325 L-154.60250000000002,-74.2325 L-150.1375,-74.2325 L-145.6725,-74.2325 L-141.2075,-74.2325 L-136.7425,-74.2325 L-132.2775,-74.2325 L-127.8125,-74.2325 L-123.3475,-74.2325 L-118.88250000000001,-74.2325 L-114.4175,-74.2325 L-109.9525,-74.2325 L-105.48750000000001,-74.2325 L-101.02250000000001,-74.2325 L-96.5575,-74.2325 L-92.0925,-74.2325 L-87.6275,-74.2325 L-83.16250000000001,-74.2325 L-78.6975,-74.2325 L-74.23250000000002,-74.2325 L-69.76750000000001,-74.2325 L-65.30250000000001,-74.2325 L-60.837500000000006,-74.2325 L-55.25250000000001,-74.2325 L-55.25250000000001,-69.7675 L-55.25250000000001,-65.30250000000001 L-55.25250000000001,-60.837500000000006 L-55.25250000000001,-56.3725 L-55.25250000000001,-51.9075 L-55.25250000000001,-47.4425 L-55.25250000000001,-42.977500000000006 L-55.25250000000001,-38.5125 L-55.25250000000001,-34.0475 L-55.25250000000001,-29.582500000000003 L-55.25250000000001,-25.117500000000007 L-55.25250000000001,-20.652500000000003 L-55.25250000000001,-16.1875 L-55.25250000000001,-11.722500000000004 L-55.25250000000001,-7.257500000000007 L-55.25250000000001,-2.792500000000004 L-55.25250000000001,1.6724999999999994 L-55.25250000000001,6.137500000000003 L-55.25250000000001,10.602499999999992 L-55.25250000000001,15.067499999999995 L-55.25250000000001,19.5325 L-55.25250000000001,23.997499999999988 L-55.25250000000001,28.46249999999999 L-55.25250000000001,32.927499999999995 L-55.25250000000001,37.3925 L-55.25250000000001,41.8575 L-55.25250000000001,46.32249999999999 L-55.25250000000001,50.787499999999994 L-55.25250000000001,55.25249999999998 L-55.25250000000001,59.71749999999999 L-55.25250000000001,64.18249999999999 L-55.25250000000001,68.6475 L-55.25250000000001,74.2325 L-59.717500000000015,74.2325 L-64.1825,74.2325 L-68.64750000000001,74.2325 L-73.11250000000001,74.2325 L-77.57750000000001,74.2325 L-82.04250000000002,74.2325 L-86.50750000000001,74.2325 L-90.97250000000001,74.2325 L-95.43750000000001,74.2325 L-99.9025,74.2325 L-104.3675,74.2325 L-108.83250000000001,74.2325 L-113.29750000000001,74.2325 L-117.76250000000002,74.2325 L-122.2275,74.2325 L-126.69250000000001,74.2325 L-131.15750000000003,74.2325 L-135.6225,74.2325 L-140.0875,74.2325 L-144.5525,74.2325 L-149.0175,74.2325 L-153.48250000000002,74.2325 L-157.9475,74.2325 L-162.41250000000002,74.2325 L-166.8775,74.2325 L-171.34250000000003,74.2325 L-175.8075,74.2325 L-180.2725,74.2325 L-184.7375,74.2325 L-189.2025,74.2325 L-193.66750000000002,74.2325 L-198.1325,74.2325 L-202.59750000000003,74.2325 L-207.7175,74.2325 L-207.7175,69.7675 L-207.7175,65.30250000000001 L-207.7175,60.837500000000006 L-207.7175,56.3725 L-207.7175,51.9075 L-207.7175,47.4425 L-207.7175,42.977500000000006 L-207.7175,38.5125 L-207.7175,34.0475 L-207.7175,29.582500000000003 L-207.7175,25.117500000000007 L-207.7175,20.652500000000003 L-207.7175,16.1875 L-207.7175,11.722500000000004 L-207.7175,7.257500000000007 L-207.7175,2.792500000000004 L-207.7175,-1.6724999999999994 L-207.7175,-6.137500000000003 L-207.7175,-10.602499999999992 L-207.7175,-15.067499999999995 L-207.7175,-19.5325 L-207.7175,-23.997499999999988 L-207.7175,-28.46249999999999 L-207.7175,-32.927499999999995 L-207.7175,-37.3925 L-207.7175,-41.8575 L-207.7175,-46.32249999999999 L-207.7175,-50.787499999999994 L-207.7175,-55.25249999999998 L-207.7175,-59.71749999999999 L-207.7175,-64.18249999999999 L-207.7175,-68.6475 L-207.7175,-73.1125 L-207.7175,-78.2325 L-203.2525,-78.2325 L-198.7875,-78.2325 L-194.3225,-78.2325 L-189.85750000000002,-78.2325 L-185.3925,-78.2325 L-180.9275,-78.2325 L-176.4625,-78.2325 L-171.9975,-78.2325 L-167.5325,-78.2325 L-163.0675,-78.2325 L-158.60250000000002,-78.2325 L-154.1375,-78.2325 L-149.6725,-78.2325 L-145.2075,-78.2325 L-140.7425,-78.2325 L-136.2775,-78.2325 L-131.8125,-78.2325 L-127.3475,-78.2325 L-122.88250000000001,-78.2325 L-118.4175,-78.2325 L-113.9525,-78.2325 L-109.48750000000001,-78.2325 L-105.02250000000001,-78.2325 L-100.5575,-78.2325 L-96.0925,-78.2325 L-91.6275,-78.2325 L-87.16250000000001,-78.2325 L-82.6975,-78.2325 L-78.23250000000002,-78.2325 L-73.76750000000001,-78.2325 L-69.30250000000001,-78.2325 L-64.8375,-78.2325 L-60.3725,-78.2325 L-55.9075,-78.2325 L-51.25250000000001,-78.2325 L-51.25250000000001,-73.7675 L-51.25250000000001,-69.30250000000001 L-51.25250000000001,-64.8375 L-51.25250000000001,-60.3725 L-51.25250000000001,-55.9075 L-51.25250000000001,-51.4425 L-51.25250000000001,-46.977500000000006 L-51.25250000000001,-42.5125 L-51.25250000000001,-38.0475 L-51.25250000000001,-33.5825 L-51.25250000000001,-29.117500000000007 L-51.25250000000001,-24.652500000000003 L-51.25250000000001,-20.1875 L-51.25250000000001,-15.722500000000004 L-51.25250000000001,-11.257500000000007 L-51.25250000000001,-6.792500000000004 L-51.25250000000001,-2.3275000000000006 L-51.25250000000001,2.137500000000003 L-51.25250000000001,6.602499999999992 L-51.25250000000001,11.067499999999995 L-51.25250000000001,15.532499999999999 L-51.25250000000001,19.997499999999988 L-51.25250000000001,24.46249999999999 L-51.25250000000001,28.927499999999995 L-51.25250000000001,33.3925 L-51.25250000000001,37.8575 L-51.25250000000001,42.32249999999999 L-51.25250000000001,46.787499999999994 L-51.25250000000001,51.25249999999998 L-51.25250000000001,55.71749999999999 L-51.25250000000001,60.18249999999999 L-51.25250000000001,64.6475 L-51.25250000000001,69.1125 L-51.25250000000001,73.5775 L-51.25250000000001,78.2325 L-55.717500000000015,78.2325 L-60.18250000000001,78.2325 L-64.64750000000001,78.2325 L-69.11250000000001,78.2325 L-73.57750000000001,78.2325 L-78.04250000000002,78.2325 L-82.50750000000001,78.2325 L-86.97250000000001,78.2325 L-91.43750000000001,78.2325 L-95.9025,78.2325 L-100.3675,78.2325 L-104.83250000000001,78.2325 L-109.29750000000001,78.2325 L-113.76250000000002,78.2325 L-118.2275,78.2325 L-122.69250000000001,78.2325 L-127.15750000000001,78.2325 L-131.6225,78.2325 L-136.0875,78.2325 L-140.5525,78.2325 L-145.0175,78.2325 L-149.48250000000002,78.2325 L-153.9475,78.2325 L-158.41250000000002,78.2325 L-162.8775,78.2325 L-167.34250000000003,78.2325 L-171.8075,78.2325 L-176.2725,78.2325 L-180.7375,78.2325 L-185.2025,78.2325 L-189.66750000000002,78.2325 L-194.1325,78.2325 L-198.59750000000003,78.2325 L-203.0625,78.2325 L-211.7175,78.2325 L-211.7175,73.7675 L-211.7175,69.30250000000001 L-211.7175,64.8375 L-211.7175,60.3725 L-211.7175,55.9075 L-211.7175,51.4425 L-211.7175,46.977500000000006 L-211.7175,42.5125 L-211.7175,38.0475 L-211.7175,33.5825 L-211.7175,29.117500000000007 L-211.7175,24.652500000000003 L-211.7175,20.1875 L-211.7175,15.722500000000004 L-211.7175,11.257500000000007 L-211.7175,6.792500000000004 L-211.7175,2.3275000000000006 L-211.7175,-2.137500000000003 L-211.7175,-6.602499999999992 L-211.7175,-11.067499999999995 L-211.7175,-15.532499999999999 L-211.7175,-19.997499999999988 L-211.7175,-24.46249999999999 L-211.7175,-28.927499999999995 L-211.7175,-33.3925 L-211.7175,-37.8575 L-211.7175,-42.32249999999999 L-211.7175,-46.787499999999994 L-211.7175,-51.25249999999998 L-211.7175,-55.71749999999999 L-211.7175,-60.18249999999999 L-211.7175,-64.6475 L-211.7175,-69.1125 L-211.7175,-73.5775 L-211.7175,-82.2325 L-207.2525,-82.2325 L-202.7875,-82.2325 L-198.3225,-82.2325 L-193.85750000000002,-82.2325 L-189.3925,-82.2325 L-184.9275,-82.2325 L-180.4625,-82.2325 L-175.9975,-82.2325 L-171.5325,-82.2325 L-167.0675,-82.2325 L-162.60250000000002,-82.2325 L-158.1375,-82.2325 L-153.6725,-82.2325 L-149.2075,-82.2325 L-144.7425,-82.2325 L-140.2775,-82.2325 L-135.8125,-82.2325 L-131.3475,-82.2325 L-126.88250000000001,-82.2325 L-122.4175,-82.2325 L-117.9525,-82.2325 L-113.48750000000001,-82.2325 L-109.02250000000001,-82.2325 L-104.5575,-82.2325 L-100.0925,-82.2325 L-95.6275,-82.2325 L-91.16250000000001,-82.2325 L-86.6975,-82.2325 L-82.23250000000002,-82.2325 L-77.76750000000001,-82.2325 L-73.30250000000001,-82.2325 L-68.8375,-82.2325 L-64.3725,-82.2325 L-59.9075,-82.2325 L-55.442499999999995,-82.2325 L-47.25250000000001,-82.2325 L-47.25250000000001,-77.7675 L-47.25250000000001,-73.30250000000001 L-47.25250000000001,-68.8375 L-47.25250000000001,-64.3725 L-47.25250000000001,-59.9075 L-47.25250000000001,-55.4425 L-47.25250000000001,-50.977500000000006 L-47.25250000000001,-46.5125 L-47.25250000000001,-42.0475 L-47.25250000000001,-37.5825 L-47.25250000000001,-33.11750000000001 L-47.25250000000001,-28.652500000000003 L-47.25250000000001,-24.1875 L-47.25250000000001,-19.722500000000004 L-47.25250000000001,-15.257500000000007 L-47.25250000000001,-10.792500000000004 L-47.25250000000001,-6.327500000000001 L-47.25250000000001,-1.8624999999999972 L-47.25250000000001,2.602499999999992 L-47.25250000000001,7.0674999999999955 L-47.25250000000001,11.532499999999999 L-47.25250000000001,15.997499999999988 L-47.25250000000001,20.46249999999999 L-47.25250000000001,24.927499999999995 L-47.25250000000001,29.3925 L-47.25250000000001,33.8575 L-47.25250000000001,38.32249999999999 L-47.25250000000001,42.787499999999994 L-47.25250000000001,47.25249999999998 L-47.25250000000001,51.71749999999999 L-47.25250000000001,56.18249999999999 L-47.25250000000001,60.647499999999994 L-47.25250000000001,65.1125 L-47.25250000000001,69.5775 L-47.25250000000001,74.0425 L-47.25250000000001,82.2325 L-51.717500000000015,82.2325 L-56.18250000000001,82.2325 L-60.64750000000001,82.2325 L-65.11250000000001,82.2325 L-69.57750000000001,82.2325 L-74.04250000000002,82.2325 L-78.50750000000001,82.2325 L-82.97250000000001,82.2325 L-87.43750000000001,82.2325 L-91.9025,82.2325 L-96.3675,82.2325 L-100.83250000000001,82.2325 L-105.29750000000001,82.2325 L-109.76250000000002,82.2325 L-114.2275,82.2325 L-118.69250000000001,82.2325 L-123.15750000000001,82.2325 L-127.62250000000002,82.2325 L-132.0875,82.2325 L-136.5525,82.2325 L-141.0175,82.2325 L-145.48250000000002,82.2325 L-149.9475,82.2325 L-154.41250000000002,82.2325 L-158.8775,82.2325 L-163.34250000000003,82.2325 L-167.8075,82.2325 L-172.2725,82.2325 L-176.7375,82.2325 L-181.2025,82.2325 L-185.66750000000002,82.2325 L-190.1325,82.2325 L-194.59750000000003,82.2325 L-199.0625,82.2325 L-203.52750000000003,82.2325 L-207.9925,82.2325 L-215.7175,82.2325 L-215.7175,77.7675 L-215.7175,73.30250000000001 L-215.7175,68.8375 L-215.7175,64.3725 L-215.7175,59.9075 L-215.7175,55.4425 L-215.7175,50.977500000000006 L-215.7175,46.5125 L-215.7175,42.0475 L-215.7175,37.5825 L-215.7175,33.11750000000001 L-215.7175,28.652500000000003 L-215.7175,24.1875 L-215.7175,19.722500000000004 L-215.7175,15.257500000000007 L-215.7175,10.792500000000004 L-215.7175,6.327500000000001 L-215.7175,1.8624999999999972 L-215.7175,-2.602499999999992 L-215.7175,-7.0674999999999955 L-215.7175,-11.532499999999999 L-215.7175,-15.997499999999988 L-215.7175,-20.46249999999999 L-215.7175,-24.927499999999995 L-215.7175,-29.3925 L-215.7175,-33.8575 L-215.7175,-38.32249999999999 L-215.7175,-42.787499999999994 L-215.7175,-47.25249999999998 L-215.7175,-51.71749999999999 L-215.7175,-56.18249999999999 L-215.7175,-60.647499999999994 L-215.7175,-65.1125 L-215.7175,-69.5775 L-215.7175,-74.0425 L-215.7175,-78.50750000000001 L-215.7175,-86.2325 L-211.2525,-86.2325 L-206.7875,-86.2325 L-202.3225,-86.2325 L-197.85750000000002,-86.2325 L-193.3925,-86.2325 L-188.9275,-86.2325 L-184.4625,-86.2325 L-179.9975,-86.2325 L-175.5325,-86.2325 L-171.0675,-86.2325 L-166.60250000000002,-86.2325 L-162.1375,-86.2325 L-157.6725,-86.2325 L-153.2075,-86.2325 L-148.7425,-86.2325 L-144.2775,-86.2325 L-139.8125,-86.2325 L-135.3475,-86.2325 L-130.8825,-86.2325 L-126.4175,-86.2325 L-121.9525,-86.2325 L-117.48750000000001,-86.2325 L-113.02250000000001,-86.2325 L-108.5575,-86.2325 L-104.0925,-86.2325 L-99.6275,-86.2325 L-95.16250000000001,-86.2325 L-90.6975,-86.2325 L-86.23250000000002,-86.2325 L-81.76750000000001,-86.2325 L-77.30250000000001,-86.2325 L-72.8375,-86.2325 L-68.3725,-86.2325 L-63.9075,-86.2325 L-59.442499999999995,-86.2325 L-54.97749999999999,-86.2325 L-50.51250000000002,-86.2325 L-43.25250000000001,-86.2325 L-43.25250000000001,-81.7675 L-43.25250000000001,-77.30250000000001 L-43.25250000000001,-72.8375 L-43.25250000000001,-68.3725 L-43.25250000000001,-63.9075 L-43.25250000000001,-59.4425 L-43.25250000000001,-54.977500000000006 L-43.25250000000001,-50.5125 L-43.25250000000001,-46.0475 L-43.25250000000001,-41.5825 L-43.25250000000001,-37.11750000000001 L-43.25250000000001,-32.6525 L-43.25250000000001,-28.1875 L-43.25250000000001,-23.722500000000004 L-43.25250000000001,-19.257500000000007 L-43.25250000000001,-14.792500000000004 L-43.25250000000001,-10.3275 L-43.25250000000001,-5.862499999999997 L-43.25250000000001,-1.397500000000008 L-43.25250000000001,3.0674999999999955 L-43.25250000000001,7.532499999999999 L-43.25250000000001,11.997499999999988 L-43.25250000000001,16.46249999999999 L-43.25250000000001,20.927499999999995 L-43.25250000000001,25.3925 L-43.25250000000001,29.8575 L-43.25250000000001,34.32249999999999 L-43.25250000000001,38.787499999999994 L-43.25250000000001,43.25249999999998 L-43.25250000000001,47.71749999999999 L-43.25250000000001,52.18249999999999 L-43.25250000000001,56.647499999999994 L-43.25250000000001,61.1125 L-43.25250000000001,65.5775 L-43.25250000000001,70.0425 L-43.25250000000001,74.50750000000001 L-43.25250000000001,78.97249999999998 L-43.25250000000001,86.2325 L-47.717500000000015,86.2325 L-52.18250000000001,86.2325 L-56.64750000000001,86.2325 L-61.11250000000001,86.2325 L-65.57750000000001,86.2325 L-70.04250000000002,86.2325 L-74.50750000000001,86.2325 L-78.97250000000001,86.2325 L-83.43750000000001,86.2325 L-87.9025,86.2325 L-92.3675,86.2325 L-96.83250000000001,86.2325 L-101.29750000000001,86.2325 L-105.76250000000002,86.2325 L-110.2275,86.2325 L-114.69250000000001,86.2325 L-119.15750000000001,86.2325 L-123.62250000000002,86.2325 L-128.0875,86.2325 L-132.5525,86.2325 L-137.0175,86.2325 L-141.48250000000002,86.2325 L-145.9475,86.2325 L-150.41250000000002,86.2325 L-154.8775,86.2325 L-159.34250000000003,86.2325 L-163.8075,86.2325 L-168.2725,86.2325 L-172.7375,86.2325 L-177.2025,86.2325 L-181.66750000000002,86.2325 L-186.1325,86.2325 L-190.59750000000003,86.2325 L-195.0625,86.2325 L-199.52750000000003,86.2325 L-203.9925,86.2325 L-208.45749999999998,86.2325 L-212.9225,86.2325 L-219.7175,86.2325 L-219.7175,81.7675 L-219.7175,77.30250000000001 L-219.7175,72.8375 L-219.7175,68.3725 L-219.7175,63.9075 L-219.7175,59.4425 L-219.7175,54.977500000000006 L-219.7175,50.5125 L-219.7175,46.0475 L-219.7175,41.5825 L-219.7175,37.11750000000001 L-219.7175,32.6525 L-219.7175,28.1875 L-219.7175,23.722500000000004 L-219.7175,19.257500000000007 L-219.7175,14.792500000000004 L-219.7175,10.3275 L-219.7175,5.862499999999997 L-219.7175,1.397500000000008 L-219.7175,-3.0674999999999955 L-219.7175,-7.532499999999999 L-219.7175,-11.997499999999988 L-219.7175,-16.46249999999999 L-219.7175,-20.927499999999995 L-219.7175,-25.3925 L-219.7175,-29.8575 L-219.7175,-34.32249999999999 L-219.7175,-38.787499999999994 L-219.7175,-43.25249999999998 L-219.7175,-47.71749999999999 L-219.7175,-52.18249999999999 L-219.7175,-56.647499999999994 L-219.7175,-61.1125 L-219.7175,-65.5775 L-219.7175,-70.0425 L-219.7175,-74.50750000000001 L-219.7175,-78.97249999999998 L-219.7175,-83.43749999999999 L-219.7175,-90.2325 L-215.2525,-90.2325 L-210.7875,-90.2325 L-206.3225,-90.2325 L-201.85750000000002,-90.2325 L-197.3925,-90.2325 L-192.9275,-90.2325 L-188.4625,-90.2325 L-183.9975,-90.2325 L-179.5325,-90.2325 L-175.0675,-90.2325 L-170.60250000000002,-90.2325 L-166.1375,-90.2325 L-161.6725,-90.2325 L-157.2075,-90.2325 L-152.7425,-90.2325 L-148.2775,-90.2325 L-143.8125,-90.2325 L-139.3475,-90.2325 L-134.8825,-90.2325 L-130.41750000000002,-90.2325 L-125.9525,-90.2325 L-121.48750000000001,-90.2325 L-117.02250000000001,-90.2325 L-112.5575,-90.2325 L-108.0925,-90.2325 L-103.6275,-90.2325 L-99.16250000000001,-90.2325 L-94.6975,-90.2325 L-90.23250000000002,-90.2325 L-85.76750000000001,-90.2325 L-81.30250000000001,-90.2325 L-76.8375,-90.2325 L-72.3725,-90.2325 L-67.9075,-90.2325 L-63.442499999999995,-90.2325 L-58.97749999999999,-90.2325 L-54.51250000000002,-90.2325 L-50.047500000000014,-90.2325 L-45.58250000000001,-90.2325 L-39.25250000000001,-90.2325 L-39.25250000000001,-85.7675 L-39.25250000000001,-81.30250000000001 L-39.25250000000001,-76.8375 L-39.25250000000001,-72.3725 L-39.25250000000001,-67.9075 L-39.25250000000001,-63.4425 L-39.25250000000001,-58.977500000000006 L-39.25250000000001,-54.5125 L-39.25250000000001,-50.0475 L-39.25250000000001,-45.5825 L-39.25250000000001,-41.11750000000001 L-39.25250000000001,-36.6525 L-39.25250000000001,-32.1875 L-39.25250000000001,-27.722500000000004 L-39.25250000000001,-23.257500000000007 L-39.25250000000001,-18.792500000000004 L-39.25250000000001,-14.3275 L-39.25250000000001,-9.862499999999997 L-39.25250000000001,-5.397500000000008 L-39.25250000000001,-0.9325000000000045 L-39.25250000000001,3.532499999999999 L-39.25250000000001,7.997499999999988 L-39.25250000000001,12.462499999999991 L-39.25250000000001,16.927499999999995 L-39.25250000000001,21.3925 L-39.25250000000001,25.8575 L-39.25250000000001,30.32249999999999 L-39.25250000000001,34.787499999999994 L-39.25250000000001,39.25249999999998 L-39.25250000000001,43.71749999999999 L-39.25250000000001,48.18249999999999 L-39.25250000000001,52.647499999999994 L-39.25250000000001,57.1125 L-39.25250000000001,61.5775 L-39.25250000000001,66.0425 L-39.25250000000001,70.50750000000001 L-39.25250000000001,74.97249999999998 L-39.25250000000001,79.43749999999999 L-39.25250000000001,83.90249999999999 L-39.25250000000001,90.2325 L-43.717500000000015,90.2325 L-48.18250000000001,90.2325 L-52.64750000000001,90.2325 L-57.11250000000001,90.2325 L-61.577500000000015,90.2325 L-66.04250000000002,90.2325 L-70.50750000000001,90.2325 L-74.97250000000001,90.2325 L-79.43750000000001,90.2325 L-83.9025,90.2325 L-88.3675,90.2325 L-92.83250000000001,90.2325 L-97.29750000000001,90.2325 L-101.76250000000002,90.2325 L-106.2275,90.2325 L-110.69250000000001,90.2325 L-115.15750000000001,90.2325 L-119.62250000000002,90.2325 L-124.0875,90.2325 L-128.5525,90.2325 L-133.0175,90.2325 L-137.48250000000002,90.2325 L-141.9475,90.2325 L-146.41250000000002,90.2325 L-150.8775,90.2325 L-155.34250000000003,90.2325 L-159.8075,90.2325 L-164.2725,90.2325 L-168.7375,90.2325 L-173.2025,90.2325 L-177.66750000000002,90.2325 L-182.1325,90.2325 L-186.59750000000003,90.2325 L-191.0625,90.2325 L-195.52750000000003,90.2325 L-199.9925,90.2325 L-204.45749999999998,90.2325 L-208.9225,90.2325 L-213.3875,90.2325 L-217.85250000000002,90.2325 L-223.7175,90.2325 L-223.7175,85.7675 L-223.7175,81.30250000000001 L-223.7175,76.8375 L-223.7175,72.3725 L-223.7175,67.9075 L-223.7175,63.4425 L-223.7175,58.977500000000006 L-223.7175,54.5125 L-223.7175,50.0475 L-223.7175,45.5825 L-223.7175,41.11750000000001 L-223.7175,36.6525 L-223.7175,32.1875 L-223.7175,27.722500000000004 L-223.7175,23.257500000000007 L-223.7175,18.792500000000004 L-223.7175,14.3275 L-223.7175,9.862499999999997 L-223.7175,5.397500000000008 L-223.7175,0.9325000000000045 L-223.7175,-3.532499999999999 L-223.7175,-7.997499999999988 L-223.7175,-12.462499999999991 L-223.7175,-16.927499999999995 L-223.7175,-21.3925 L-223.7175,-25.8575 L-223.7175,-30.32249999999999 L-223.7175,-34.787499999999994 L-223.7175,-39.25249999999998 L-223.7175,-43.71749999999999 L-223.7175,-48.18249999999999 L-223.7175,-52.647499999999994 L-223.7175,-57.1125 L-223.7175,-61.5775 L-223.7175,-66.0425 L-223.7175,-70.50750000000001 L-223.7175,-74.97249999999998 L-223.7175,-79.43749999999999 L-223.7175,-83.90249999999999 L-223.7175,-88.36749999999999 L-223.7175,-94.2325 L-219.2525,-94.2325 L-214.7875,-94.2325 L-210.3225,-94.2325 L-205.85750000000002,-94.2325 L-201.3925,-94.2325 L-196.9275,-94.2325 L-192.4625,-94.2325 L-187.9975,-94.2325 L-183.5325,-94.2325 L-179.0675,-94.2325 L-174.60250000000002,-94.2325 L-170.1375,-94.2325 L-165.6725,-94.2325 L-161.2075,-94.2325 L-156.7425,-94.2325 L-152.2775,-94.2325 L-147.8125,-94.2325 L-143.3475,-94.2325 L-138.8825,-94.2325 L-134.41750000000002,-94.2325 L-129.9525,-94.2325 L-125.48750000000001,-94.2325 L-121.02250000000001,-94.2325 L-116.5575,-94.2325 L-112.0925,-94.2325 L-107.6275,-94.2325 L-103.16250000000001,-94.2325 L-98.6975,-94.2325 L-94.23250000000002,-94.2325 L-89.76750000000001,-94.2325 L-85.30250000000001,-94.2325 L-80.8375,-94.2325 L-76.3725,-94.2325 L-71.9075,-94.2325 L-67.4425,-94.2325 L-62.97749999999999,-94.2325 L-58.51250000000002,-94.2325 L-54.047500000000014,-94.2325 L-49.58250000000001,-94.2325 L-45.11750000000001,-94.2325 L-40.6525,-94.2325 L-35.25250000000001,-94.2325 L-35.25250000000001,-89.7675 L-35.25250000000001,-85.30250000000001 L-35.25250000000001,-80.8375 L-35.25250000000001,-76.3725 L-35.25250000000001,-71.9075 L-35.25250000000001,-67.4425 L-35.25250000000001,-62.977500000000006 L-35.25250000000001,-58.5125 L-35.25250000000001,-54.0475 L-35.25250000000001,-49.5825 L-35.25250000000001,-45.11750000000001 L-35.25250000000001,-40.6525 L-35.25250000000001,-36.1875 L-35.25250000000001,-31.722500000000004 L-35.25250000000001,-27.257500000000007 L-35.25250000000001,-22.792500000000004 L-35.25250000000001,-18.3275 L-35.25250000000001,-13.862499999999997 L-35.25250000000001,-9.397500000000008 L-35.25250000000001,-4.9325000000000045 L-35.25250000000001,-0.46750000000000114 L-35.25250000000001,3.997499999999988 L-35.25250000000001,8.462499999999991 L-35.25250000000001,12.927499999999995 L-35.25250000000001,17.3925 L-35.25250000000001,21.8575 L-35.25250000000001,26.32249999999999 L-35.25250000000001,30.787499999999994 L-35.25250000000001,35.25249999999998 L-35.25250000000001,39.71749999999999 L-35.25250000000001,44.18249999999999 L-35.25250000000001,48.647499999999994 L-35.25250000000001,53.1125 L-35.25250000000001,57.5775 L-35.25250000000001,62.042500000000004 L-35.25250000000001,66.50750000000001 L-35.25250000000001,70.97249999999998 L-35.25250000000001,75.43749999999999 L-35.25250000000001,79.90249999999999 L-35.25250000000001,84.36749999999999 L-35.25250000000001,88.8325 L-35.25250000000001,94.2325 L-39.717500000000015,94.2325 L-44.18250000000001,94.2325 L-48.64750000000001,94.2325 L-53.11250000000001,94.2325 L-57.577500000000015,94.2325 L-62.04250000000001,94.2325 L-66.50750000000001,94.2325 L-70.97250000000001,94.2325 L-75.43750000000001,94.2325 L-79.9025,94.2325 L-84.3675,94.2325 L-88.83250000000001,94.2325 L-93.29750000000001,94.2325 L-97.76250000000002,94.2325 L-102.2275,94.2325 L-106.69250000000001,94.2325 L-111.15750000000001,94.2325 L-115.62250000000002,94.2325 L-120.0875,94.2325 L-124.55250000000001,94.2325 L-129.0175,94.2325 L-133.48250000000002,94.2325 L-137.9475,94.2325 L-142.41250000000002,94.2325 L-146.8775,94.2325 L-151.34250000000003,94.2325 L-155.8075,94.2325 L-160.2725,94.2325 L-164.7375,94.2325 L-169.2025,94.2325 L-173.66750000000002,94.2325 L-178.1325,94.2325 L-182.59750000000003,94.2325 L-187.0625,94.2325 L-191.52750000000003,94.2325 L-195.9925,94.2325 L-200.45749999999998,94.2325 L-204.9225,94.2325 L-209.3875,94.2325 L-213.85250000000002,94.2325 L-218.3175,94.2325 L-222.78250000000003,94.2325 L-227.7175,94.2325 L-227.7175,89.7675 L-227.7175,85.30250000000001 L-227.7175,80.8375 L-227.7175,76.3725 L-227.7175,71.9075 L-227.7175,67.4425 L-227.7175,62.977500000000006 L-227.7175,58.5125 L-227.7175,54.0475 L-227.7175,49.5825 L-227.7175,45.11750000000001 L-227.7175,40.6525 L-227.7175,36.1875 L-227.7175,31.722500000000004 L-227.7175,27.257500000000007 L-227.7175,22.792500000000004 L-227.7175,18.3275 L-227.7175,13.862499999999997 L-227.7175,9.397500000000008 L-227.7175,4.9325000000000045 L-227.7175,0.46750000000000114 L-227.7175,-3.997499999999988 L-227.7175,-8.462499999999991 L-227.7175,-12.927499999999995 L-227.7175,-17.3925 L-227.7175,-21.8575 L-227.7175,-26.32249999999999 L-227.7175,-30.787499999999994 L-227.7175,-35.25249999999998 L-227.7175,-39.71749999999999 L-227.7175,-44.18249999999999 L-227.7175,-48.647499999999994 L-227.7175,-53.1125 L-227.7175,-57.5775 L-227.7175,-62.042500000000004 L-227.7175,-66.50750000000001 L-227.7175,-70.97249999999998 L-227.7175,-75.43749999999999 L-227.7175,-79.90249999999999 L-227.7175,-84.36749999999999 L-227.7175,-88.8325 L-227.7175,-93.2975 L-227.7175,-98.2325 L-223.2525,-98.2325 L-218.7875,-98.2325 L-214.3225,-98.2325 L-209.85750000000002,-98.2325 L-205.3925,-98.2325 L-200.9275,-98.2325 L-196.4625,-98.2325 L-191.9975,-98.2325 L-187.5325,-98.2325 L-183.0675,-98.2325 L-178.60250000000002,-98.2325 L-174.1375,-98.2325 L-169.6725,-98.2325 L-165.2075,-98.2325 L-160.7425,-98.2325 L-156.2775,-98.2325 L-151.8125,-98.2325 L-147.3475,-98.2325 L-142.8825,-98.2325 L-138.41750000000002,-98.2325 L-133.9525,-98.2325 L-129.4875,-98.2325 L-125.02250000000001,-98.2325 L-120.5575,-98.2325 L-116.0925,-98.2325 L-111.6275,-98.2325 L-107.16250000000001,-98.2325 L-102.6975,-98.2325 L-98.23250000000002,-98.2325 L-93.76750000000001,-98.2325 L-89.30250000000001,-98.2325 L-84.8375,-98.2325 L-80.3725,-98.2325 L-75.9075,-98.2325 L-71.4425,-98.2325 L-66.97749999999999,-98.2325 L-62.51250000000002,-98.2325 L-58.047500000000014,-98.2325 L-53.58250000000001,-98.2325 L-49.11750000000001,-98.2325 L-44.6525,-98.2325 L-40.1875,-98.2325 L-35.7225,-98.2325 L-31.252500000000012,-98.2325 L-31.252500000000012,-93.7675 L-31.252500000000012,-89.30250000000001 L-31.252500000000012,-84.8375 L-31.252500000000012,-80.3725 L-31.252500000000012,-75.9075 L-31.252500000000012,-71.4425 L-31.252500000000012,-66.9775 L-31.252500000000012,-62.5125 L-31.252500000000012,-58.0475 L-31.252500000000012,-53.5825 L-31.252500000000012,-49.11750000000001 L-31.252500000000012,-44.6525 L-31.252500000000012,-40.1875 L-31.252500000000012,-35.722500000000004 L-31.252500000000012,-31.257500000000007 L-31.252500000000012,-26.792500000000004 L-31.252500000000012,-22.3275 L-31.252500000000012,-17.862499999999997 L-31.252500000000012,-13.397500000000008 L-31.252500000000012,-8.932500000000005 L-31.252500000000012,-4.467500000000001 L-31.252500000000012,-0.002500000000011937 L-31.252500000000012,4.4624999999999915 L-31.252500000000012,8.927499999999995 L-31.252500000000012,13.392499999999998 L-31.252500000000012,17.8575 L-31.252500000000012,22.32249999999999 L-31.252500000000012,26.787499999999994 L-31.252500000000012,31.252499999999984 L-31.252500000000012,35.71749999999999 L-31.252500000000012,40.18249999999999 L-31.252500000000012,44.647499999999994 L-31.252500000000012,49.1125 L-31.252500000000012,53.5775 L-31.252500000000012,58.042500000000004 L-31.252500000000012,62.50750000000001 L-31.252500000000012,66.97249999999998 L-31.252500000000012,71.43749999999999 L-31.252500000000012,75.90249999999999 L-31.252500000000012,80.36749999999999 L-31.252500000000012,84.8325 L-31.252500000000012,89.2975 L-31.252500000000012,93.7625 L-31.252500000000012,98.2325 L-35.717500000000015,98.2325 L-40.18250000000001,98.2325 L-44.64750000000001,98.2325 L-49.11250000000001,98.2325 L-53.577500000000015,98.2325 L-58.04250000000001,98.2325 L-62.50750000000001,98.2325 L-66.97250000000001,98.2325 L-71.43750000000001,98.2325 L-75.9025,98.2325 L-80.3675,98.2325 L-84.83250000000001,98.2325 L-89.29750000000001,98.2325 L-93.76250000000002,98.2325 L-98.2275,98.2325 L-102.69250000000001,98.2325 L-107.15750000000001,98.2325 L-111.62250000000002,98.2325 L-116.0875,98.2325 L-120.55250000000001,98.2325 L-125.01750000000001,98.2325 L-129.48250000000002,98.2325 L-133.9475,98.2325 L-138.41250000000002,98.2325 L-142.8775,98.2325 L-147.34250000000003,98.2325 L-151.8075,98.2325 L-156.2725,98.2325 L-160.7375,98.2325 L-165.2025,98.2325 L-169.66750000000002,98.2325 L-174.1325,98.2325 L-178.59750000000003,98.2325 L-183.0625,98.2325 L-187.52750000000003,98.2325 L-191.9925,98.2325 L-196.45749999999998,98.2325 L-200.9225,98.2325 L-205.3875,98.2325 L-209.85250000000002,98.2325 L-214.3175,98.2325 L-218.78250000000003,98.2325 L-223.2475,98.2325 L-231.7175,98.2325 L-231.7175,93.7675 L-231.7175,89.30250000000001 L-231.7175,84.8375 L-231.7175,80.3725 L-231.7175,75.9075 L-231.7175,71.4425 L-231.7175,66.9775 L-231.7175,62.5125 L-231.7175,58.0475 L-231.7175,53.5825 L-231.7175,49.11750000000001 L-231.7175,44.6525 L-231.7175,40.1875 L-231.7175,35.722500000000004 L-231.7175,31.257500000000007 L-231.7175,26.792500000000004 L-231.7175,22.3275 L-231.7175,17.862499999999997 L-231.7175,13.397500000000008 L-231.7175,8.932500000000005 L-231.7175,4.467500000000001 L-231.7175,0.002500000000011937 L-231.7175,-4.4624999999999915 L-231.7175,-8.927499999999995 L-231.7175,-13.392499999999998 L-231.7175,-17.8575 L-231.7175,-22.32249999999999 L-231.7175,-26.787499999999994 L-231.7175,-31.252499999999984 L-231.7175,-35.71749999999999 L-231.7175,-40.18249999999999 L-231.7175,-44.647499999999994 L-231.7175,-49.1125 L-231.7175,-53.5775 L-231.7175,-58.042500000000004 L-231.7175,-62.50750000000001 L-231.7175,-66.97249999999998 L-231.7175,-71.43749999999999 L-231.7175,-75.90249999999999 L-231.7175,-80.36749999999999 L-231.7175,-84.8325 L-231.7175,-89.2975 L-231.7175,-93.7625 L-231.7175,-102.2325 L-227.2525,-102.2325 L-222.7875,-102.2325 L-218.3225,-102.2325 L-213.85750000000002,-102.2325 L-209.3925,-102.2325 L-204.9275,-102.2325 L-200.4625,-102.2325 L-195.9975,-102.2325 L-191.5325,-102.2325 L-187.0675,-102.2325 L-182.60250000000002,-102.2325 L-178.1375,-102.2325 L-173.6725,-102.2325 L-169.2075,-102.2325 L-164.7425,-102.2325 L-160.2775,-102.2325 L-155.8125,-102.2325 L-151.3475,-102.2325 L-146.8825,-102.2325 L-142.41750000000002,-102.2325 L-137.9525,-102.2325 L-133.4875,-102.2325 L-129.0225,-102.2325 L-124.5575,-102.2325 L-120.0925,-102.2325 L-115.6275,-102.2325 L-111.16250000000001,-102.2325 L-106.6975,-102.2325 L-102.23250000000002,-102.2325 L-97.76750000000001,-102.2325 L-93.30250000000001,-102.2325 L-88.8375,-102.2325 L-84.3725,-102.2325 L-79.9075,-102.2325 L-75.4425,-102.2325 L-70.97749999999999,-102.2325 L-66.51250000000002,-102.2325 L-62.047500000000014,-102.2325 L-57.58250000000001,-102.2325 L-53.11750000000001,-102.2325 L-48.6525,-102.2325 L-44.1875,-102.2325 L-39.7225,-102.2325 L-35.25750000000002,-102.2325 L-27.252500000000012,-102.2325 L-27.252500000000012,-97.7675 L-27.252500000000012,-93.30250000000001 L-27.252500000000012,-88.8375 L-27.252500000000012,-84.3725 L-27.252500000000012,-79.9075 L-27.252500000000012,-75.4425 L-27.252500000000012,-70.9775 L-27.252500000000012,-66.5125 L-27.252500000000012,-62.0475 L-27.252500000000012,-57.5825 L-27.252500000000012,-53.11750000000001 L-27.252500000000012,-48.6525 L-27.252500000000012,-44.1875 L-27.252500000000012,-39.722500000000004 L-27.252500000000012,-35.25750000000001 L-27.252500000000012,-30.792500000000004 L-27.252500000000012,-26.3275 L-27.252500000000012,-21.862499999999997 L-27.252500000000012,-17.397500000000008 L-27.252500000000012,-12.932500000000005 L-27.252500000000012,-8.467500000000001 L-27.252500000000012,-4.002500000000012 L-27.252500000000012,0.4624999999999915 L-27.252500000000012,4.927499999999995 L-27.252500000000012,9.392499999999998 L-27.252500000000012,13.857500000000002 L-27.252500000000012,18.32249999999999 L-27.252500000000012,22.787499999999994 L-27.252500000000012,27.252499999999984 L-27.252500000000012,31.717499999999987 L-27.252500000000012,36.18249999999999 L-27.252500000000012,40.647499999999994 L-27.252500000000012,45.1125 L-27.252500000000012,49.5775 L-27.252500000000012,54.042500000000004 L-27.252500000000012,58.50750000000001 L-27.252500000000012,62.97249999999998 L-27.252500000000012,67.43749999999999 L-27.252500000000012,71.90249999999999 L-27.252500000000012,76.36749999999999 L-27.252500000000012,80.8325 L-27.252500000000012,85.2975 L-27.252500000000012,89.7625 L-27.252500000000012,94.22749999999998 L-27.252500000000012,102.2325 L-31.717500000000012,102.2325 L-36.18250000000001,102.2325 L-40.64750000000001,102.2325 L-45.11250000000001,102.2325 L-49.577500000000015,102.2325 L-54.04250000000001,102.2325 L-58.50750000000001,102.2325 L-62.97250000000001,102.2325 L-67.43750000000001,102.2325 L-71.9025,102.2325 L-76.3675,102.2325 L-80.83250000000001,102.2325 L-85.29750000000001,102.2325 L-89.76250000000002,102.2325 L-94.2275,102.2325 L-98.69250000000001,102.2325 L-103.15750000000001,102.2325 L-107.62250000000002,102.2325 L-112.0875,102.2325 L-116.55250000000001,102.2325 L-121.01750000000001,102.2325 L-125.4825,102.2325 L-129.9475,102.2325 L-134.41250000000002,102.2325 L-138.8775,102.2325 L-143.34250000000003,102.2325 L-147.8075,102.2325 L-152.2725,102.2325 L-156.7375,102.2325 L-161.2025,102.2325 L-165.66750000000002,102.2325 L-170.1325,102.2325 L-174.59750000000003,102.2325 L-179.0625,102.2325 L-183.52750000000003,102.2325 L-187.9925,102.2325 L-192.45749999999998,102.2325 L-196.9225,102.2325 L-201.3875,102.2325 L-205.85250000000002,102.2325 L-210.3175,102.2325 L-214.78250000000003,102.2325 L-219.2475,102.2325 L-223.71249999999998,102.2325 L-228.1775,102.2325 L-235.7175,102.2325 L-235.7175,97.7675 L-235.7175,93.30250000000001 L-235.7175,88.8375 L-235.7175,84.3725 L-235.7175,79.9075 L-235.7175,75.4425 L-235.7175,70.9775 L-235.7175,66.5125 L-235.7175,62.0475 L-235.7175,57.5825 L-235.7175,53.11750000000001 L-235.7175,48.6525 L-235.7175,44.1875 L-235.7175,39.722500000000004 L-235.7175,35.25750000000001 L-235.7175,30.792500000000004 L-235.7175,26.3275 L-235.7175,21.862499999999997 L-235.7175,17.397500000000008 L-235.7175,12.932500000000005 L-235.7175,8.467500000000001 L-235.7175,4.002500000000012 L-235.7175,-0.4624999999999915 L-235.7175,-4.927499999999995 L-235.7175,-9.392499999999998 L-235.7175,-13.857500000000002 L-235.7175,-18.32249999999999 L-235.7175,-22.787499999999994 L-235.7175,-27.252499999999984 L-235.7175,-31.717499999999987 L-235.7175,-36.18249999999999 L-235.7175,-40.647499999999994 L-235.7175,-45.1125 L-235.7175,-49.5775 L-235.7175,-54.042500000000004 L-235.7175,-58.50750000000001 L-235.7175,-62.97249999999998 L-235.7175,-67.43749999999999 L-235.7175,-71.90249999999999 L-235.7175,-76.36749999999999 L-235.7175,-80.8325 L-235.7175,-85.2975 L-235.7175,-89.7625 L-235.7175,-94.22749999999998 L-235.7175,-98.69249999999998 L-235.7175,-106.2325 L-231.2525,-106.2325 L-226.7875,-106.2325 L-222.3225,-106.2325 L-217.85750000000002,-106.2325 L-213.3925,-106.2325 L-208.9275,-106.2325 L-204.4625,-106.2325 L-199.9975,-106.2325 L-195.5325,-106.2325 L-191.0675,-106.2325 L-186.60250000000002,-106.2325 L-182.1375,-106.2325 L-177.6725,-106.2325 L-173.2075,-106.2325 L-168.7425,-106.2325 L-164.2775,-106.2325 L-159.8125,-106.2325 L-155.3475,-106.2325 L-150.8825,-106.2325 L-146.41750000000002,-106.2325 L-141.9525,-106.2325 L-137.4875,-106.2325 L-133.0225,-106.2325 L-128.5575,-106.2325 L-124.0925,-106.2325 L-119.6275,-106.2325 L-115.16250000000001,-106.2325 L-110.6975,-106.2325 L-106.23250000000002,-106.2325 L-101.76750000000001,-106.2325 L-97.30250000000001,-106.2325 L-92.8375,-106.2325 L-88.3725,-106.2325 L-83.9075,-106.2325 L-79.4425,-106.2325 L-74.97749999999999,-106.2325 L-70.51250000000002,-106.2325 L-66.04750000000001,-106.2325 L-61.58250000000001,-106.2325 L-57.11750000000001,-106.2325 L-52.6525,-106.2325 L-48.1875,-106.2325 L-43.7225,-106.2325 L-39.25750000000002,-106.2325 L-34.79250000000002,-106.2325 L-30.327500000000015,-106.2325 L-23.252500000000012,-106.2325 L-23.252500000000012,-101.7675 L-23.252500000000012,-97.30250000000001 L-23.252500000000012,-92.8375 L-23.252500000000012,-88.3725 L-23.252500000000012,-83.9075 L-23.252500000000012,-79.4425 L-23.252500000000012,-74.9775 L-23.252500000000012,-70.5125 L-23.252500000000012,-66.0475 L-23.252500000000012,-61.5825 L-23.252500000000012,-57.11750000000001 L-23.252500000000012,-52.6525 L-23.252500000000012,-48.1875 L-23.252500000000012,-43.722500000000004 L-23.252500000000012,-39.25750000000001 L-23.252500000000012,-34.792500000000004 L-23.252500000000012,-30.3275 L-23.252500000000012,-25.862499999999997 L-23.252500000000012,-21.397500000000008 L-23.252500000000012,-16.932500000000005 L-23.252500000000012,-12.467500000000001 L-23.252500000000012,-8.002500000000012 L-23.252500000000012,-3.5375000000000085 L-23.252500000000012,0.9274999999999949 L-23.252500000000012,5.392499999999998 L-23.252500000000012,9.857500000000002 L-23.252500000000012,14.322499999999991 L-23.252500000000012,18.787499999999994 L-23.252500000000012,23.252499999999984 L-23.252500000000012,27.717499999999987 L-23.252500000000012,32.18249999999999 L-23.252500000000012,36.647499999999994 L-23.252500000000012,41.1125 L-23.252500000000012,45.5775 L-23.252500000000012,50.042500000000004 L-23.252500000000012,54.50750000000001 L-23.252500000000012,58.97249999999998 L-23.252500000000012,63.437499999999986 L-23.252500000000012,67.90249999999999 L-23.252500000000012,72.36749999999999 L-23.252500000000012,76.8325 L-23.252500000000012,81.2975 L-23.252500000000012,85.7625 L-23.252500000000012,90.22749999999998 L-23.252500000000012,94.69249999999998 L-23.252500000000012,99.15749999999998 L-23.252500000000012,106.2325 L-27.717500000000012,106.2325 L-32.18250000000001,106.2325 L-36.64750000000001,106.2325 L-41.11250000000001,106.2325 L-45.577500000000015,106.2325 L-50.04250000000001,106.2325 L-54.50750000000001,106.2325 L-58.97250000000001,106.2325 L-63.437500000000014,106.2325 L-67.9025,106.2325 L-72.3675,106.2325 L-76.83250000000001,106.2325 L-81.29750000000001,106.2325 L-85.76250000000002,106.2325 L-90.2275,106.2325 L-94.69250000000001,106.2325 L-99.15750000000001,106.2325 L-103.62250000000002,106.2325 L-108.0875,106.2325 L-112.55250000000001,106.2325 L-117.01750000000001,106.2325 L-121.4825,106.2325 L-125.9475,106.2325 L-130.41250000000002,106.2325 L-134.8775,106.2325 L-139.34250000000003,106.2325 L-143.8075,106.2325 L-148.2725,106.2325 L-152.7375,106.2325 L-157.2025,106.2325 L-161.66750000000002,106.2325 L-166.1325,106.2325 L-170.59750000000003,106.2325 L-175.0625,106.2325 L-179.52750000000003,106.2325 L-183.9925,106.2325 L-188.45749999999998,106.2325 L-192.9225,106.2325 L-197.3875,106.2325 L-201.85250000000002,106.2325 L-206.3175,106.2325 L-210.78250000000003,106.2325 L-215.2475,106.2325 L-219.71249999999998,106.2325 L-224.1775,106.2325 L-228.64249999999998,106.2325 L-233.10750000000002,106.2325 L-239.7175,106.2325 L-239.7175,101.7675 L-239.7175,97.30250000000001 L-239.7175,92.8375 L-239.7175,88.3725 L-239.7175,83.9075 L-239.7175,79.4425 L-239.7175,74.9775 L-239.7175,70.5125 L-239.7175,66.0475 L-239.7175,61.5825 L-239.7175,57.11750000000001 L-239.7175,52.6525 L-239.7175,48.1875 L-239.7175,43.722500000000004 L-239.7175,39.25750000000001 L-239.7175,34.792500000000004 L-239.7175,30.3275 L-239.7175,25.862499999999997 L-239.7175,21.397500000000008 L-239.7175,16.932500000000005 L-239.7175,12.467500000000001 L-239.7175,8.002500000000012 L-239.7175,3.5375000000000085 L-239.7175,-0.9274999999999949 L-239.7175,-5.392499999999998 L-239.7175,-9.857500000000002 L-239.7175,-14.322499999999991 L-239.7175,-18.787499999999994 L-239.7175,-23.252499999999984 L-239.7175,-27.717499999999987 L-239.7175,-32.18249999999999 L-239.7175,-36.647499999999994 L-239.7175,-41.1125 L-239.7175,-45.5775 L-239.7175,-50.042500000000004 L-239.7175,-54.50750000000001 L-239.7175,-58.97249999999998 L-239.7175,-63.437499999999986 L-239.7175,-67.90249999999999 L-239.7175,-72.36749999999999 L-239.7175,-76.8325 L-239.7175,-81.2975 L-239.7175,-85.7625 L-239.7175,-90.22749999999998 L-239.7175,-94.69249999999998 L-239.7175,-99.15749999999998 L-239.7175,-103.62249999999999 L-239.7175,-110.2325 L-235.2525,-110.2325 L-230.7875,-110.2325 L-226.3225,-110.2325 L-221.85750000000002,-110.2325 L-217.3925,-110.2325 L-212.9275,-110.2325 L-208.4625,-110.2325 L-203.9975,-110.2325 L-199.5325,-110.2325 L-195.0675,-110.2325 L-190.60250000000002,-110.2325 L-186.1375,-110.2325 L-181.6725,-110.2325 L-177.2075,-110.2325 L-172.7425,-110.2325 L-168.2775,-110.2325 L-163.8125,-110.2325 L-159.3475,-110.2325 L-154.8825,-110.2325 L-150.41750000000002,-110.2325 L-145.9525,-110.2325 L-141.4875,-110.2325 L-137.0225,-110.2325 L-132.5575,-110.2325 L-128.0925,-110.2325 L-123.6275,-110.2325 L-119.16250000000001,-110.2325 L-114.6975,-110.2325 L-110.23250000000002,-110.2325 L-105.76750000000001,-110.2325 L-101.30250000000001,-110.2325 L-96.8375,-110.2325 L-92.3725,-110.2325 L-87.9075,-110.2325 L-83.4425,-110.2325 L-78.97749999999999,-110.2325 L-74.51250000000002,-110.2325 L-70.04750000000001,-110.2325 L-65.58250000000001,-110.2325 L-61.11750000000001,-110.2325 L-56.6525,-110.2325 L-52.1875,-110.2325 L-47.7225,-110.2325 L-43.25750000000002,-110.2325 L-38.79250000000002,-110.2325 L-34.327500000000015,-110.2325 L-29.86250000000001,-110.2325 L-25.397500000000008,-110.2325 L-19.252500000000012,-110.2325 L-19.252500000000012,-105.7675 L-19.252500000000012,-101.30250000000001 L-19.252500000000012,-96.8375 L-19.252500000000012,-92.3725 L-19.252500000000012,-87.9075 L-19.252500000000012,-83.4425 L-19.252500000000012,-78.9775 L-19.252500000000012,-74.5125 L-19.252500000000012,-70.0475 L-19.252500000000012,-65.58250000000001 L-19.252500000000012,-61.11750000000001 L-19.252500000000012,-56.6525 L-19.252500000000012,-52.1875 L-19.252500000000012,-47.722500000000004 L-19.252500000000012,-43.25750000000001 L-19.252500000000012,-38.792500000000004 L-19.252500000000012,-34.3275 L-19.252500000000012,-29.862499999999997 L-19.252500000000012,-25.397500000000008 L-19.252500000000012,-20.932500000000005 L-19.252500000000012,-16.4675 L-19.252500000000012,-12.002500000000012 L-19.252500000000012,-7.5375000000000085 L-19.252500000000012,-3.072500000000005 L-19.252500000000012,1.3924999999999983 L-19.252500000000012,5.857500000000002 L-19.252500000000012,10.322499999999991 L-19.252500000000012,14.787499999999994 L-19.252500000000012,19.252499999999984 L-19.252500000000012,23.717499999999987 L-19.252500000000012,28.18249999999999 L-19.252500000000012,32.647499999999994 L-19.252500000000012,37.1125 L-19.252500000000012,41.5775 L-19.252500000000012,46.042500000000004 L-19.252500000000012,50.50750000000001 L-19.252500000000012,54.97249999999998 L-19.252500000000012,59.437499999999986 L-19.252500000000012,63.90249999999999 L-19.252500000000012,68.36749999999999 L-19.252500000000012,72.8325 L-19.252500000000012,77.2975 L-19.252500000000012,81.7625 L-19.252500000000012,86.22749999999998 L-19.252500000000012,90.69249999999998 L-19.252500000000012,95.15749999999998 L-19.252500000000012,99.62249999999999 L-19.252500000000012,104.08749999999999 L-19.252500000000012,110.2325 L-23.717500000000012,110.2325 L-28.18250000000001,110.2325 L-32.64750000000001,110.2325 L-37.11250000000001,110.2325 L-41.577500000000015,110.2325 L-46.04250000000001,110.2325 L-50.50750000000001,110.2325 L-54.97250000000001,110.2325 L-59.437500000000014,110.2325 L-63.90250000000001,110.2325 L-68.3675,110.2325 L-72.83250000000001,110.2325 L-77.29750000000001,110.2325 L-81.76250000000002,110.2325 L-86.2275,110.2325 L-90.69250000000001,110.2325 L-95.15750000000001,110.2325 L-99.62250000000002,110.2325 L-104.0875,110.2325 L-108.55250000000001,110.2325 L-113.01750000000001,110.2325 L-117.4825,110.2325 L-121.9475,110.2325 L-126.41250000000001,110.2325 L-130.8775,110.2325 L-135.34250000000003,110.2325 L-139.8075,110.2325 L-144.2725,110.2325 L-148.7375,110.2325 L-153.2025,110.2325 L-157.66750000000002,110.2325 L-162.1325,110.2325 L-166.59750000000003,110.2325 L-171.0625,110.2325 L-175.52750000000003,110.2325 L-179.9925,110.2325 L-184.45749999999998,110.2325 L-188.9225,110.2325 L-193.3875,110.2325 L-197.85250000000002,110.2325 L-202.3175,110.2325 L-206.78250000000003,110.2325 L-211.2475,110.2325 L-215.71249999999998,110.2325 L-220.1775,110.2325 L-224.64249999999998,110.2325 L-229.10750000000002,110.2325 L-233.5725,110.2325 L-238.03750000000002,110.2325 L-243.7175,110.2325 L-243.7175,105.7675 L-243.7175,101.30250000000001 L-243.7175,96.8375 L-243.7175,92.3725 L-243.7175,87.9075 L-243.7175,83.4425 L-243.7175,78.9775 L-243.7175,74.5125 L-243.7175,70.0475 L-243.7175,65.58250000000001 L-243.7175,61.11750000000001 L-243.7175,56.6525 L-243.7175,52.1875 L-243.7175,47.722500000000004 L-243.7175,43.25750000000001 L-243.7175,38.792500000000004 L-243.7175,34.3275 L-243.7175,29.862499999999997 L-243.7175,25.397500000000008 L-243.7175,20.932500000000005 L-243.7175,16.4675 L-243.7175,12.002500000000012 L-243.7175,7.5375000000000085 L-243.7175,3.072500000000005 L-243.7175,-1.3924999999999983 L-243.7175,-5.857500000000002 L-243.7175,-10.322499999999991 L-243.7175,-14.787499999999994 L-243.7175,-19.252499999999984 L-243.7175,-23.717499999999987 L-243.7175,-28.18249999999999 L-243.7175,-32.647499999999994 L-243.7175,-37.1125 L-243.7175,-41.5775 L-243.7175,-46.042500000000004 L-243.7175,-50.50750000000001 L-243.7175,-54.97249999999998 L-243.7175,-59.437499999999986 L-243.7175,-63.90249999999999 L-243.7175,-68.36749999999999 L-243.7175,-72.8325 L-243.7175,-77.2975 L-243.7175,-81.7625 L-243.7175,-86.22749999999998 L-243.7175,-90.69249999999998 L-243.7175,-95.15749999999998 L-243.7175,-99.62249999999999 L-243.7175,-104.08749999999999 L-243.7175,-108.5525 L-243.7175,-114.2325 L-239.2525,-114.2325 L-234.7875,-114.2325 L-230.3225,-114.2325 L-225.85750000000002,-114.2325 L-221.3925,-114.2325 L-216.9275,-114.2325 L-212.4625,-114.2325 L-207.9975,-114.2325 L-203.5325,-114.2325 L-199.0675,-114.2325 L-194.60250000000002,-114.2325 L-190.1375,-114.2325 L-185.6725,-114.2325 L-181.2075,-114.2325 L-176.7425,-114.2325 L-172.2775,-114.2325 L-167.8125,-114.2325 L-163.3475,-114.2325 L-158.8825,-114.2325 L-154.41750000000002,-114.2325 L-149.9525,-114.2325 L-145.4875,-114.2325 L-141.0225,-114.2325 L-136.5575,-114.2325 L-132.0925,-114.2325 L-127.6275,-114.2325 L-123.16250000000001,-114.2325 L-118.6975,-114.2325 L-114.23250000000002,-114.2325 L-109.76750000000001,-114.2325 L-105.30250000000001,-114.2325 L-100.8375,-114.2325 L-96.3725,-114.2325 L-91.9075,-114.2325 L-87.4425,-114.2325 L-82.97749999999999,-114.2325 L-78.51250000000002,-114.2325 L-74.04750000000001,-114.2325 L-69.58250000000001,-114.2325 L-65.1175,-114.2325 L-60.6525,-114.2325 L-56.1875,-114.2325 L-51.7225,-114.2325 L-47.25750000000002,-114.2325 L-42.79250000000002,-114.2325 L-38.327500000000015,-114.2325 L-33.86250000000001,-114.2325 L-29.397500000000008,-114.2325 L-24.932500000000005,-114.2325 L-20.4675,-114.2325 L-15.252500000000012,-114.2325 L-15.252500000000012,-109.7675 L-15.252500000000012,-105.30250000000001 L-15.252500000000012,-100.8375 L-15.252500000000012,-96.3725 L-15.252500000000012,-91.9075 L-15.252500000000012,-87.4425 L-15.252500000000012,-82.9775 L-15.252500000000012,-78.5125 L-15.252500000000012,-74.0475 L-15.252500000000012,-69.58250000000001 L-15.252500000000012,-65.1175 L-15.252500000000012,-60.6525 L-15.252500000000012,-56.1875 L-15.252500000000012,-51.722500000000004 L-15.252500000000012,-47.25750000000001 L-15.252500000000012,-42.792500000000004 L-15.252500000000012,-38.3275 L-15.252500000000012,-33.8625 L-15.252500000000012,-29.397500000000008 L-15.252500000000012,-24.932500000000005 L-15.252500000000012,-20.4675 L-15.252500000000012,-16.002500000000012 L-15.252500000000012,-11.537500000000009 L-15.252500000000012,-7.072500000000005 L-15.252500000000012,-2.6075000000000017 L-15.252500000000012,1.8575000000000017 L-15.252500000000012,6.322499999999991 L-15.252500000000012,10.787499999999994 L-15.252500000000012,15.252499999999984 L-15.252500000000012,19.717499999999987 L-15.252500000000012,24.18249999999999 L-15.252500000000012,28.647499999999994 L-15.252500000000012,33.1125 L-15.252500000000012,37.5775 L-15.252500000000012,42.042500000000004 L-15.252500000000012,46.50750000000001 L-15.252500000000012,50.97249999999998 L-15.252500000000012,55.437499999999986 L-15.252500000000012,59.90249999999999 L-15.252500000000012,64.36749999999999 L-15.252500000000012,68.8325 L-15.252500000000012,73.2975 L-15.252500000000012,77.7625 L-15.252500000000012,82.22749999999998 L-15.252500000000012,86.69249999999998 L-15.252500000000012,91.15749999999998 L-15.252500000000012,95.62249999999999 L-15.252500000000012,100.08749999999999 L-15.252500000000012,104.5525 L-15.252500000000012,109.0175 L-15.252500000000012,114.2325 L-19.717500000000012,114.2325 L-24.18250000000001,114.2325 L-28.64750000000001,114.2325 L-33.11250000000001,114.2325 L-37.577500000000015,114.2325 L-42.04250000000001,114.2325 L-46.50750000000001,114.2325 L-50.97250000000001,114.2325 L-55.437500000000014,114.2325 L-59.90250000000001,114.2325 L-64.3675,114.2325 L-68.83250000000001,114.2325 L-73.29750000000001,114.2325 L-77.76250000000002,114.2325 L-82.2275,114.2325 L-86.69250000000001,114.2325 L-91.15750000000001,114.2325 L-95.62250000000002,114.2325 L-100.0875,114.2325 L-104.55250000000001,114.2325 L-109.01750000000001,114.2325 L-113.4825,114.2325 L-117.9475,114.2325 L-122.41250000000001,114.2325 L-126.87750000000001,114.2325 L-131.34250000000003,114.2325 L-135.8075,114.2325 L-140.2725,114.2325 L-144.7375,114.2325 L-149.2025,114.2325 L-153.66750000000002,114.2325 L-158.1325,114.2325 L-162.59750000000003,114.2325 L-167.0625,114.2325 L-171.52750000000003,114.2325 L-175.9925,114.2325 L-180.45749999999998,114.2325 L-184.9225,114.2325 L-189.3875,114.2325 L-193.85250000000002,114.2325 L-198.3175,114.2325 L-202.78250000000003,114.2325 L-207.2475,114.2325 L-211.71249999999998,114.2325 L-216.1775,114.2325 L-220.64249999999998,114.2325 L-225.10750000000002,114.2325 L-229.5725,114.2325 L-234.03750000000002,114.2325 L-238.5025,114.2325 L-242.96750000000003,114.2325 L-247.7175,114.2325 L-247.7175,109.7675 L-247.7175,105.30250000000001 L-247.7175,100.8375 L-247.7175,96.3725 L-247.7175,91.9075 L-247.7175,87.4425 L-247.7175,82.9775 L-247.7175,78.5125 L-247.7175,74.0475 L-247.7175,69.58250000000001 L-247.7175,65.1175 L-247.7175,60.6525 L-247.7175,56.1875 L-247.7175,51.722500000000004 L-247.7175,47.25750000000001 L-247.7175,42.792500000000004 L-247.7175,38.3275 L-247.7175,33.8625 L-247.7175,29.397500000000008 L-247.7175,24.932500000000005 L-247.7175,20.4675 L-247.7175,16.002500000000012 L-247.7175,11.537500000000009 L-247.7175,7.072500000000005 L-247.7175,2.6075000000000017 L-247.7175,-1.8575000000000017 L-247.7175,-6.322499999999991 L-247.7175,-10.787499999999994 L-247.7175,-15.252499999999984 L-247.7175,-19.717499999999987 L-247.7175,-24.18249999999999 L-247.7175,-28.647499999999994 L-247.7175,-33.1125 L-247.7175,-37.5775 L-247.7175,-42.042500000000004 L-247.7175,-46.50750000000001 L-247.7175,-50.97249999999998 L-247.7175,-55.437499999999986 L-247.7175,-59.90249999999999 L-247.7175,-64.36749999999999 L-247.7175,-68.8325 L-247.7175,-73.2975 L-247.7175,-77.7625 L-247.7175,-82.22749999999998 L-247.7175,-86.69249999999998 L-247.7175,-91.15749999999998 L-247.7175,-95.62249999999999 L-247.7175,-100.08749999999999 L-247.7175,-104.5525 L-247.7175,-109.0175 L-247.7175,-113.4825 L-247.7175,-118.2325 L-243.2525,-118.2325 L-238.7875,-118.2325 L-234.3225,-118.2325 L-229.85750000000002,-118.2325 L-225.3925,-118.2325 L-220.9275,-118.2325 L-216.4625,-118.2325 L-211.9975,-118.2325 L-207.5325,-118.2325 L-203.0675,-118.2325 L-198.60250000000002,-118.2325 L-194.1375,-118.2325 L-189.6725,-118.2325 L-185.2075,-118.2325 L-180.7425,-118.2325 L-176.2775,-118.2325 L-171.8125,-118.2325 L-167.3475,-118.2325 L-162.8825,-118.2325 L-158.41750000000002,-118.2325 L-153.9525,-118.2325 L-149.4875,-118.2325 L-145.0225,-118.2325 L-140.5575,-118.2325 L-136.0925,-118.2325 L-131.6275,-118.2325 L-127.16250000000001,-118.2325 L-122.6975,-118.2325 L-118.23250000000002,-118.2325 L-113.76750000000001,-118.2325 L-109.30250000000001,-118.2325 L-104.8375,-118.2325 L-100.3725,-118.2325 L-95.9075,-118.2325 L-91.4425,-118.2325 L-86.97749999999999,-118.2325 L-82.51250000000002,-118.2325 L-78.04750000000001,-118.2325 L-73.58250000000001,-118.2325 L-69.1175,-118.2325 L-64.6525,-118.2325 L-60.1875,-118.2325 L-55.7225,-118.2325 L-51.25750000000002,-118.2325 L-46.79250000000002,-118.2325 L-42.327500000000015,-118.2325 L-37.86250000000001,-118.2325 L-33.39750000000001,-118.2325 L-28.932500000000005,-118.2325 L-24.4675,-118.2325 L-20.002499999999998,-118.2325 L-11.252500000000012,-118.2325 L-11.252500000000012,-113.7675 L-11.252500000000012,-109.30250000000001 L-11.252500000000012,-104.8375 L-11.252500000000012,-100.3725 L-11.252500000000012,-95.9075 L-11.252500000000012,-91.4425 L-11.252500000000012,-86.9775 L-11.252500000000012,-82.5125 L-11.252500000000012,-78.0475 L-11.252500000000012,-73.58250000000001 L-11.252500000000012,-69.1175 L-11.252500000000012,-64.6525 L-11.252500000000012,-60.1875 L-11.252500000000012,-55.722500000000004 L-11.252500000000012,-51.25750000000001 L-11.252500000000012,-46.792500000000004 L-11.252500000000012,-42.3275 L-11.252500000000012,-37.8625 L-11.252500000000012,-33.39750000000001 L-11.252500000000012,-28.932500000000005 L-11.252500000000012,-24.4675 L-11.252500000000012,-20.002500000000012 L-11.252500000000012,-15.537500000000009 L-11.252500000000012,-11.072500000000005 L-11.252500000000012,-6.607500000000002 L-11.252500000000012,-2.1424999999999983 L-11.252500000000012,2.322499999999991 L-11.252500000000012,6.787499999999994 L-11.252500000000012,11.252499999999984 L-11.252500000000012,15.717499999999987 L-11.252500000000012,20.18249999999999 L-11.252500000000012,24.647499999999994 L-11.252500000000012,29.112499999999997 L-11.252500000000012,33.5775 L-11.252500000000012,38.042500000000004 L-11.252500000000012,42.50750000000001 L-11.252500000000012,46.97249999999998 L-11.252500000000012,51.437499999999986 L-11.252500000000012,55.90249999999999 L-11.252500000000012,60.36749999999999 L-11.252500000000012,64.8325 L-11.252500000000012,69.2975 L-11.252500000000012,73.7625 L-11.252500000000012,78.22749999999998 L-11.252500000000012,82.69249999999998 L-11.252500000000012,87.15749999999998 L-11.252500000000012,91.62249999999999 L-11.252500000000012,96.08749999999999 L-11.252500000000012,100.5525 L-11.252500000000012,105.0175 L-11.252500000000012,109.4825 L-11.252500000000012,118.2325 L-15.717500000000012,118.2325 L-20.18250000000001,118.2325 L-24.64750000000001,118.2325 L-29.11250000000001,118.2325 L-33.577500000000015,118.2325 L-38.04250000000001,118.2325 L-42.50750000000001,118.2325 L-46.97250000000001,118.2325 L-51.437500000000014,118.2325 L-55.90250000000001,118.2325 L-60.36750000000001,118.2325 L-64.83250000000001,118.2325 L-69.29750000000001,118.2325 L-73.76250000000002,118.2325 L-78.2275,118.2325 L-82.69250000000001,118.2325 L-87.15750000000001,118.2325 L-91.62250000000002,118.2325 L-96.0875,118.2325 L-100.55250000000001,118.2325 L-105.01750000000001,118.2325 L-109.4825,118.2325 L-113.9475,118.2325 L-118.41250000000001,118.2325 L-122.87750000000001,118.2325 L-127.34250000000002,118.2325 L-131.8075,118.2325 L-136.2725,118.2325 L-140.7375,118.2325 L-145.2025,118.2325 L-149.66750000000002,118.2325 L-154.1325,118.2325 L-158.59750000000003,118.2325 L-163.0625,118.2325 L-167.52750000000003,118.2325 L-171.9925,118.2325 L-176.45749999999998,118.2325 L-180.9225,118.2325 L-185.3875,118.2325 L-189.85250000000002,118.2325 L-194.3175,118.2325 L-198.78250000000003,118.2325 L-203.2475,118.2325 L-207.71249999999998,118.2325 L-212.1775,118.2325 L-216.64249999999998,118.2325 L-221.10750000000002,118.2325 L-225.5725,118.2325 L-230.03750000000002,118.2325 L-234.5025,118.2325 L-238.96750000000003,118.2325 L-243.4325,118.2325 L-251.7175,118.2325 L-251.7175,113.7675 L-251.7175,109.30250000000001 L-251.7175,104.8375 L-251.7175,100.3725 L-251.7175,95.9075 L-251.7175,91.4425 L-251.7175,86.9775 L-251.7175,82.5125 L-251.7175,78.0475 L-251.7175,73.58250000000001 L-251.7175,69.1175 L-251.7175,64.6525 L-251.7175,60.1875 L-251.7175,55.722500000000004 L-251.7175,51.25750000000001 L-251.7175,46.792500000000004 L-251.7175,42.3275 L-251.7175,37.8625 L-251.7175,33.39750000000001 L-251.7175,28.932500000000005 L-251.7175,24.4675 L-251.7175,20.002500000000012 L-251.7175,15.537500000000009 L-251.7175,11.072500000000005 L-251.7175,6.607500000000002 L-251.7175,2.1424999999999983 L-251.7175,-2.322499999999991 L-251.7175,-6.787499999999994 L-251.7175,-11.252499999999984 L-251.7175,-15.717499999999987 L-251.7175,-20.18249999999999 L-251.7175,-24.647499999999994 L-251.7175,-29.112499999999997 L-251.7175,-33.5775 L-251.7175,-38.042500000000004 L-251.7175,-42.50750000000001 L-251.7175,-46.97249999999998 L-251.7175,-51.437499999999986 L-251.7175,-55.90249999999999 L-251.7175,-60.36749999999999 L-251.7175,-64.8325 L-251.7175,-69.2975 L-251.7175,-73.7625 L-251.7175,-78.22749999999998 L-251.7175,-82.69249999999998 L-251.7175,-87.15749999999998 L-251.7175,-91.62249999999999 L-251.7175,-96.08749999999999 L-251.7175,-100.5525 L-251.7175,-105.0175 L-251.7175,-109.4825 L-251.7175,-113.9475 L-251.7175,-122.2325 L-247.2525,-122.2325 L-242.7875,-122.2325 L-238.3225,-122.2325 L-233.85750000000002,-122.2325 L-229.3925,-122.2325 L-224.9275,-122.2325 L-220.4625,-122.2325 L-215.9975,-122.2325 L-211.5325,-122.2325 L-207.0675,-122.2325 L-202.60250000000002,-122.2325 L-198.1375,-122.2325 L-193.6725,-122.2325 L-189.2075,-122.2325 L-184.7425,-122.2325 L-180.2775,-122.2325 L-175.8125,-122.2325 L-171.3475,-122.2325 L-166.8825,-122.2325 L-162.41750000000002,-122.2325 L-157.9525,-122.2325 L-153.4875,-122.2325 L-149.0225,-122.2325 L-144.5575,-122.2325 L-140.0925,-122.2325 L-135.6275,-122.2325 L-131.16250000000002,-122.2325 L-126.6975,-122.2325 L-122.23250000000002,-122.2325 L-117.76750000000001,-122.2325 L-113.30250000000001,-122.2325 L-108.8375,-122.2325 L-104.3725,-122.2325 L-99.9075,-122.2325 L-95.4425,-122.2325 L-90.97749999999999,-122.2325 L-86.51250000000002,-122.2325 L-82.04750000000001,-122.2325 L-77.58250000000001,-122.2325 L-73.1175,-122.2325 L-68.6525,-122.2325 L-64.1875,-122.2325 L-59.7225,-122.2325 L-55.25750000000002,-122.2325 L-50.79250000000002,-122.2325 L-46.327500000000015,-122.2325 L-41.86250000000001,-122.2325 L-37.39750000000001,-122.2325 L-32.932500000000005,-122.2325 L-28.4675,-122.2325 L-24.002499999999998,-122.2325 L-19.537499999999994,-122.2325 L-15.07250000000002,-122.2325 L-7.252500000000012,-122.2325 L-7.252500000000012,-117.7675 L-7.252500000000012,-113.30250000000001 L-7.252500000000012,-108.8375 L-7.252500000000012,-104.3725 L-7.252500000000012,-99.9075 L-7.252500000000012,-95.4425 L-7.252500000000012,-90.9775 L-7.252500000000012,-86.5125 L-7.252500000000012,-82.0475 L-7.252500000000012,-77.58250000000001 L-7.252500000000012,-73.1175 L-7.252500000000012,-68.6525 L-7.252500000000012,-64.1875 L-7.252500000000012,-59.722500000000004 L-7.252500000000012,-55.25750000000001 L-7.252500000000012,-50.792500000000004 L-7.252500000000012,-46.3275 L-7.252500000000012,-41.8625 L-7.252500000000012,-37.39750000000001 L-7.252500000000012,-32.932500000000005 L-7.252500000000012,-28.4675 L-7.252500000000012,-24.002500000000012 L-7.252500000000012,-19.53750000000001 L-7.252500000000012,-15.072500000000005 L-7.252500000000012,-10.607500000000002 L-7.252500000000012,-4.0 L0,-4.0 L4.465,-4.0 L4.465,-8.465 L4.465,-12.93 L0.0,-12.93 L-4.465,-12.93 L-4.465,-8.465 L-4.465,-4.0 L0,-4.0" stroke-width="0.202" stroke="black" fill-opacity="0" />
</svg>